<svg xmlns="http://www.w3.org/2000/svg" width="24" height="21.347" viewBox="0 0 24 21.347">
  <path id="Caminho_249" data-name="Caminho 249" d="M27.755,12.249a6.609,6.609,0,0,0-9.346,0l-.719.718-.718-.718a6.609,6.609,0,0,0-9.346,9.346L17.69,31.66,27.755,21.595A6.61,6.61,0,0,0,27.755,12.249ZM23.668,21.1a2.355,2.355,0,0,1-2.355,2.354H20.225v1.088A2.355,2.355,0,0,1,17.87,26.9h-.515A2.354,2.354,0,0,1,15,24.544V23.455H13.912A2.355,2.355,0,0,1,11.557,21.1v-.515a2.355,2.355,0,0,1,2.355-2.355H15V17.142a2.354,2.354,0,0,1,2.354-2.354h.515a2.355,2.355,0,0,1,2.355,2.354v1.089h1.088a2.355,2.355,0,0,1,2.355,2.355Z" transform="translate(-5.69 -10.313)" fill="#4fbed0"/>
</svg>
