<svg xmlns="http://www.w3.org/2000/svg" width="219.626" height="571.516" viewBox="0 0 219.626 571.516">
  <g id="Grupo_140" data-name="Grupo 140" transform="translate(-412.848 -448.668)">
    <path id="Caminho_316" data-name="Caminho 316" d="M520.785,598.942c2.162,27.567,1.982,69.006,18.738,69.186s7.747-35.854,7.747-35.854-11.891-25.584-11.891-26.125S520.785,598.942,520.785,598.942Z" fill="#edcba1"/>
    <path id="Caminho_317" data-name="Caminho 317" d="M527.677,767.638c1.468,14.689.911,43.6-3.986,70.57,2.547,17.784,2.514,68.359,2.332,78.484-.29,16.133-9.907,79.87-9.907,79.87l-11.292-6.3s-17.41-109.447-14.953-123.349-2.193-35.056-2.193-35.056L483.4,772.866s10.924-12.972,17.612-12.669S527.677,767.638,527.677,767.638Z" fill="#ffdaad"/>
    <path id="Caminho_318" data-name="Caminho 318" d="M423.476,767.183c-1.468,14.69.877,47.3,6.28,71.025-2.546,17.784-2.624,68.359-2.442,78.484.289,16.133,10.7,80.537,10.7,80.537l11.292-6.3c-1.953-1.693,15.133-95.7,14.717-123.4-.212-14.116,1.441-33.853,1.441-33.853l1.511-59.523s-7.956-14.263-14.645-13.96S423.476,767.183,423.476,767.183Z" fill="#ffdaad"/>
    <path id="Caminho_319" data-name="Caminho 319" d="M499.36,957.944c9.394,8.4,21.748,3.285,21.748,3.65-3.023,18-5.508,35.635-5.508,35.635l-11.291-6.3S502.277,975.1,499.36,957.944Z" fill="#c9ebff"/>
    <path id="Caminho_320" data-name="Caminho 320" d="M453.571,959.832c-9.394,8.4-21.113,1-21.116,1,3.023,18,5.556,36.4,5.556,36.4l11.292-6.3S450.655,976.984,453.571,959.832Z" fill="#c9ebff"/>
    <path id="Caminho_321" data-name="Caminho 321" d="M427.313,916.692c-.181-10.125-.1-60.7,2.443-78.484,5.891,10.091,12.625,7.425,17.43,7.589-6.015,3.394-14.758-1.264-15.353,4.045-6.59,58.782,6.178,147.387,6.178,147.387S427.6,932.825,427.313,916.692Z" fill="#e8e8e8" style="mix-blend-mode: multiply;isolation: isolate"/>
    <path id="Caminho_322" data-name="Caminho 322" d="M516.112,686.467s-9.129-14.8-10.051-16.015c-.824-1.088-24.97,5.35-30.113,6.736-5.143-1.386-29.289-7.824-30.113-6.736-.922,1.217-14.355,17.135-14.355,17.135-11.72,30.806-16.528,84.335-12.251,142.455,23.629,12.477,51.856.875,51.856.875l3.957-91.441h1.812l3.956,91.441s29.516,10.964,53.146-1.514C535.739,763.979,527.645,716.78,516.112,686.467Z" fill="#404040"/>
    <path id="Caminho_323" data-name="Caminho 323" d="M516.112,686.467s-4.119-6.677-7.1-11.43c-4.483-.92-9.658-1.818-14.858-2.512-7.175,1.712-15.436,3.918-18.2,4.663-3.174-.855-13.581-3.633-21.282-5.38a65.073,65.073,0,0,0-10.5.87c-3.277,4.385-10.071,13.5-10.071,13.5-.3.776-.59,1.616-.883,2.5a69.053,69.053,0,0,1-4.78,11.361l0,.016c.007.007,24.241,21.065,84.336,7.986,5.326,6.4,19.011,53.177,19.011,53.177S522.043,702.056,516.112,686.467Z" fill="#bdbdbd" style="mix-blend-mode: multiply;isolation: isolate"/>
    <path id="Caminho_324" data-name="Caminho 324" d="M529.684,559.005c11.257,5.075,20.109,17.716,24.433,71.047-3.6,12.011-32.071,12.131-32.071,12.131s-15.014-35.8-9.729-59.345S524.109,556.491,529.684,559.005Z" fill="#24c2bc"/>
    <path id="Caminho_325" data-name="Caminho 325" d="M521.494,611.315c1.13-5.326,7.675-43.67,9.511-51.588-6.955-4.331-38.777-10.962-41.541-12.154l-14.49,6-14.49-6c-11.227,2.363-35.261,7.941-42.216,12.272,1.836,7.919,9.057,44.111,10.187,49.437s-5.079,101.726-5.5,108.573c15.394,9.13,52.022,9,52.022,9s35.282.619,50.676-8.511C525.226,711.493,520.364,616.64,521.494,611.315Z" fill="#24c2bc"/>
    <path id="Caminho_326" data-name="Caminho 326" d="M426.736,586.15c15.134,15.375,59.516,13.033,59.516,13.033l5.766-6.727,61.258-3.6s-5.525-11.771-28.107-11.771-51.168-.961-70.867.24S426.736,586.15,426.736,586.15Z" fill="#e3e3e3" style="mix-blend-mode: multiply;isolation: isolate"/>
    <g id="Grupo_123" data-name="Grupo 123" style="mix-blend-mode: multiply;isolation: isolate">
      <path id="Caminho_327" data-name="Caminho 327" d="M486.012,643.625c19.819,5.585,34.413-.9,33.191,27.954-1.677,39.584-3.591,52.859-42.355,55.279,6.866-.048,35.7.181,48.8-8.518-.424-7.662-5.286-97.05-4.156-103.01S515.921,648.55,486.012,643.625Z" fill="#f2f2f2"/>
      <path id="Caminho_328" data-name="Caminho 328" d="M472.3,627.971q-2.86-.313-5.949-.628A50.25,50.25,0,0,0,472.3,627.971Z" fill="#f2f2f2"/>
    </g>
    <path id="Caminho_329" data-name="Caminho 329" d="M463.245,526.162l11.529,10.828L486.3,526.162c-.064.736,1.444,15.293,3.379,22.406a8.622,8.622,0,0,1-1.381,7.476c-2.767,3.647-6.932,5.8-13.526,5.8s-10.759-2.153-13.526-5.8a8.616,8.616,0,0,1-1.381-7.476C461.8,541.455,463.309,526.9,463.245,526.162Z" fill="#ffdaad"/>
    <path id="Caminho_330" data-name="Caminho 330" d="M489.212,536.637s-3.752,13.785-16.777,13.089c-7.267-.389-11.174-10.505-11.174-10.505s9.927-7.214,12.157-7.26,6.075-1.748,8.543,0S489.212,536.637,489.212,536.637Z" fill="#dedede" style="mix-blend-mode: multiply;isolation: isolate"/>
    <path id="Caminho_331" data-name="Caminho 331" d="M446.3,480.888c1.15-6.394,7.065-7.984,8.569-9.981s17.18-4.153,17.18-4.153,15.783,1.121,17.415,3.016,6.284,3.382,7.852,9.687S501,499.328,501,499.328c-.88,11.409-2.209,18.226-3.642,22.88-2.616,8.493-13.171,19.955-16.052,21.37a15.522,15.522,0,0,1-13.483.443c-2.968-1.222-14.23-12.07-17.394-20.271-1.753-4.543-3.509-11.265-5.137-22.591C445.3,501.159,445.15,487.283,446.3,480.888Z" fill="#ffdaad"/>
    <path id="Caminho_332" data-name="Caminho 332" d="M502.085,507.964a152.277,152.277,0,0,1-7.044,24.314c-2.313,5.686-14.419,11.622-14.419,11.622s5.073-8.507,9.619-14.546S502.085,507.964,502.085,507.964Z" fill="#ffdaad"/>
    <g id="Grupo_124" data-name="Grupo 124">
      <ellipse id="Elipse_26" data-name="Elipse 26" cx="8.68" cy="5.602" rx="8.68" ry="5.602" transform="translate(494.124 519.871) rotate(-81.374)" fill="#ffdaad"/>
      <path id="Caminho_333" data-name="Caminho 333" d="M505.414,508.979c-1.48-3.348-3.082-2.8-3.949-2.044s.481,4.105,1.114,4.537c-1.4-.995-2.517,1.441-2.032,2.738-1.065-2.817.14-3.791.535-3.9-.763-3.017-.582-4.246,1.093-4.391S504.862,506.959,505.414,508.979Z" fill="#ccc" style="mix-blend-mode: multiply;isolation: isolate"/>
      <path id="Caminho_334" data-name="Caminho 334" d="M440.728,515.372c1.059,4.675,4.358,7.889,7.37,7.178s4.593-5.077,3.534-9.753-4.358-7.889-7.37-7.178S439.669,510.7,440.728,515.372Z" fill="#ffdaad"/>
      <path id="Caminho_335" data-name="Caminho 335" d="M441.532,511.234c1.258-3.438,2.892-2.993,3.807-2.3s-.21,4.127-.813,4.6c1.334-1.085,2.606,1.273,2.207,2.6.878-2.881-.389-3.774-.79-3.86.563-3.06.3-4.274-1.379-4.31S441.951,509.182,441.532,511.234Z" fill="#ccc" style="mix-blend-mode: multiply;isolation: isolate"/>
    </g>
    <g id="Grupo_127" data-name="Grupo 127">
      <g id="Grupo_125" data-name="Grupo 125">
        <path id="Caminho_336" data-name="Caminho 336" d="M467.527,495.289a106.141,106.141,0,0,0-12.851-.308c-1.721.287-5.714,3.955-5.714,3.955a17.184,17.184,0,0,1,6.418-1.249c3.347.083,12.026.951,12.026.951Z" fill="#7d5137"/>
        <path id="Caminho_337" data-name="Caminho 337" d="M467.893,495.315l-.16,3.312.487-3.322Z" fill="#7d5137"/>
      </g>
      <g id="Grupo_126" data-name="Grupo 126">
        <path id="Caminho_338" data-name="Caminho 338" d="M478.434,494.93a106.254,106.254,0,0,1,12.8-1.151c1.736.174,5.962,3.572,5.962,3.572a17.175,17.175,0,0,0-6.486-.825c-3.335.3-11.939,1.738-11.939,1.738Z" fill="#7d5137"/>
        <path id="Caminho_339" data-name="Caminho 339" d="M478.077,494.981l.378,3.294-.7-3.283Z" fill="#7d5137"/>
      </g>
    </g>
    <path id="Caminho_340" data-name="Caminho 340" d="M445.813,505.9s3.176-25.7,4.551-26.459c4.262-2.337,39.533-3.493,44.524-1.192,1.521.7,5.548,21.911,5.878,25.845,3.16-12.6,8.729-51.952-29.173-50.712C430.385,454.731,442.078,497.817,445.813,505.9Z" fill="#7d5137"/>
    <g id="Grupo_128" data-name="Grupo 128" style="mix-blend-mode: multiply;isolation: isolate">
      <path id="Caminho_341" data-name="Caminho 341" d="M478.2,518.629a18.961,18.961,0,0,1-9.834.3,14.538,14.538,0,0,0,4.951,2.307S477.25,520.414,478.2,518.629Z" fill="#bdbdbd"/>
    </g>
    <path id="Caminho_342" data-name="Caminho 342" d="M446.321,507.964c1.761,9.64,5.888,21.618,7.074,24.937s14.389,11.131,14.389,11.131-5.073-8.639-9.62-14.678S446.321,507.964,446.321,507.964Z" fill="#ffdaad"/>
    <path id="Caminho_343" data-name="Caminho 343" d="M445.3,501.159c4.563-5.034,14.652-21.37,14.652-21.37s8.5,8.048,25.074,11.771c-1.441-.84-3.964-6.306-3.964-6.306a90.171,90.171,0,0,0,19.009,9.73,5.05,5.05,0,0,0,1.891-4.955c-.24-1.682-4.894-12.4-5.255-12.642s-1.321-5.045-11.891-5.765-21.02-2.042-26.3-.721-6.126.48-8.168,4.444-3.123,3.123-3.843,8.528S445.3,501.159,445.3,501.159Z" fill="#7d5137"/>
    <path id="Caminho_344" data-name="Caminho 344" d="M458,456.067c4.864-8.829,17.656-7.3,17.656-7.3s-6.936,2.162-5.765,2.432,13.152-2.522,20.72,2.973c-6.216-1.081-7.658-.27-7.658-.27s18.378,1.711,22.882,19.458l-1.622-2.072s5.135,21.17-3.513,32.341c.27-16.215-8.738-25.674-8.738-25.674s-13.333-6.667-16.756-9.1S458,456.067,458,456.067Z" fill="#7d5137"/>
    <path id="Caminho_345" data-name="Caminho 345" d="M458,456.067c-3.874,0-10.54,2.342-12.162,6.035,3.243-2.432,3.063-.63,3.063-.63s-7.477,3.693-8.468,10.27a11.416,11.416,0,0,1,2.612-2.343s-5.135,10.09-3.6,19.279l.54-1.532s.859,12.736,5.835,18.755c.021-19.3,2.363-27.583,3.084-28.754s3.6-4.144,4.414-6.937S458,456.067,458,456.067Z" fill="#7d5137"/>
    <path id="Caminho_346" data-name="Caminho 346" d="M442.818,486.362c-1.853-3.974,1.286-12.963,3.136-15.273s.934-.68.777,1.583,3.623-6.911,4.721-6.028-4.907,13.892-2.948,15.339-2.507,4.565-3.165.186S443.306,487.408,442.818,486.362Z" fill="#262626" style="mix-blend-mode: screen;isolation: isolate"/>
    <path id="Caminho_347" data-name="Caminho 347" d="M457.725,457.778s-4.594,12.342,1.352,18.828C457.185,470.661,457.725,457.778,457.725,457.778Z" fill="#dedede" style="mix-blend-mode: multiply;isolation: isolate"/>
    <path id="Caminho_348" data-name="Caminho 348" d="M526.023,916.692c.182-10.125.215-60.7-2.332-78.484-5.89,10.091-10.921,7.425-15.726,7.589,6.015,3.394,13.093-1.269,13.65,4.045,5.793,55.241-5.5,146.72-5.5,146.72S525.733,932.825,526.023,916.692Z" fill="#e8e8e8" style="mix-blend-mode: multiply;isolation: isolate"/>
    <g id="Grupo_132" data-name="Grupo 132">
      <path id="Caminho_349" data-name="Caminho 349" d="M538.412,1008.774c-3.244-5.414-11.007-10.884-15.989-11.538s-20.617-1.209-23.717,12.35C514.515,1017.463,538.412,1008.774,538.412,1008.774Z" fill="#404040"/>
      <path id="Caminho_350" data-name="Caminho 350" d="M504.226,1020.183l29.494-.494a6.681,6.681,0,0,0,6.572-6.788h0a6.68,6.68,0,0,0-6.795-6.563c-9.541,5-19.366,5.272-29.495.494a6.679,6.679,0,0,0-6.571,6.787h0A6.681,6.681,0,0,0,504.226,1020.183Z" fill="#24c2bc"/>
      <path id="Caminho_351" data-name="Caminho 351" d="M530.794,1001.026c-3.866-2.757-6.3-7.967-7.359-10.685a4.466,4.466,0,0,0-2.509-2.507l-4.1-1.647-10.591.494-2.943,1.62a4.544,4.544,0,0,0-2.287,4.63,29.007,29.007,0,0,1-1.646,14.459A111.879,111.879,0,0,0,530.794,1001.026Z" fill="#404040"/>
      <path id="Caminho_352" data-name="Caminho 352" d="M516.722,985.907c1.952,5.253,5.933,14.35,8.6,15.828-.513,2.893-13.138,4.905-18,.041.331-1.506,1.678-9.653-.762-14.1S515.168,981.728,516.722,985.907Z" fill="#24c2bc"/>
      <g id="Grupo_129" data-name="Grupo 129">
        <path id="Caminho_353" data-name="Caminho 353" d="M507.074,992.275a.52.52,0,0,1-.2-1c8.439-3.546,13.5-.315,13.713-.177a.52.52,0,0,1-.571.87c-.049-.031-4.841-3.052-12.74.267A.525.525,0,0,1,507.074,992.275Z" fill="#fff"/>
      </g>
      <g id="Grupo_130" data-name="Grupo 130">
        <path id="Caminho_354" data-name="Caminho 354" d="M507.123,997.326a.521.521,0,0,1-.2-1c9.939-4.175,15.9-.38,16.145-.217a.521.521,0,0,1-.572.87c-.055-.035-5.766-3.64-15.17.307A.509.509,0,0,1,507.123,997.326Z" fill="#fff"/>
      </g>
      <g id="Grupo_131" data-name="Grupo 131">
        <path id="Caminho_355" data-name="Caminho 355" d="M506.378,1001.952a.521.521,0,0,1-.2-1c12.682-5.329,20.255-.5,20.573-.292a.521.521,0,0,1-.572.87c-.075-.046-7.457-4.716-19.6.382A.532.532,0,0,1,506.378,1001.952Z" fill="#fff"/>
      </g>
    </g>
    <g id="Grupo_136" data-name="Grupo 136">
      <path id="Caminho_356" data-name="Caminho 356" d="M416.549,1008.774c3.244-5.414,11.007-10.884,15.989-11.538s20.617-1.209,23.717,12.35C440.446,1017.463,416.549,1008.774,416.549,1008.774Z" fill="#404040"/>
      <path id="Caminho_357" data-name="Caminho 357" d="M450.735,1020.183l-29.494-.494a6.682,6.682,0,0,1-6.572-6.788h0a6.68,6.68,0,0,1,6.795-6.563c9.541,5,19.366,5.272,29.5.494a6.679,6.679,0,0,1,6.571,6.787h0A6.681,6.681,0,0,1,450.735,1020.183Z" fill="#24c2bc"/>
      <path id="Caminho_358" data-name="Caminho 358" d="M424.167,1001.026c3.867-2.757,6.3-7.967,7.36-10.685a4.461,4.461,0,0,1,2.508-2.507l4.1-1.647,10.59.494,2.943,1.62a4.544,4.544,0,0,1,2.287,4.63,29.007,29.007,0,0,0,1.646,14.459A111.879,111.879,0,0,1,424.167,1001.026Z" fill="#404040"/>
      <path id="Caminho_359" data-name="Caminho 359" d="M438.24,985.907c-1.953,5.253-5.934,14.35-8.6,15.828.513,2.893,13.138,4.905,18,.041-.33-1.506-1.677-9.653.762-14.1S439.793,981.728,438.24,985.907Z" fill="#24c2bc"/>
      <g id="Grupo_133" data-name="Grupo 133">
        <path id="Caminho_360" data-name="Caminho 360" d="M447.886,992.275a.525.525,0,0,1-.2-.04c-7.9-3.317-12.693-.295-12.739-.267a.521.521,0,0,1-.572-.87c.214-.138,5.274-3.369,13.714.177a.52.52,0,0,1-.2,1Z" fill="#fff"/>
      </g>
      <g id="Grupo_134" data-name="Grupo 134">
        <path id="Caminho_361" data-name="Caminho 361" d="M447.838,997.326a.51.51,0,0,1-.2-.041c-9.4-3.95-15.113-.342-15.17-.307a.521.521,0,0,1-.572-.87c.249-.163,6.206-3.958,16.145.217a.521.521,0,0,1-.2,1Z" fill="#fff"/>
      </g>
      <g id="Grupo_135" data-name="Grupo 135">
        <path id="Caminho_362" data-name="Caminho 362" d="M448.582,1001.952a.528.528,0,0,1-.2-.041c-12.18-5.115-19.523-.43-19.6-.382a.521.521,0,1,1-.573-.87c.319-.208,7.892-5.033,20.572.292a.521.521,0,0,1-.2,1Z" fill="#fff"/>
      </g>
    </g>
    <path id="Caminho_363" data-name="Caminho 363" d="M581.5,586.045c-16.026,1.5-65.656,2.283-65.656,2.283-16.882,1.481-56.789.958-64.443-.243-9.049.452-23.112,2.455-33.52-8.377l16.037-17.036s9.608-6.319,26.449-2.345c11.713-1.105,49.045,2.162,57.971,4.364,17.028-.824,45.479,2.522,64.965,8.015C591.808,574.522,585.319,588.467,581.5,586.045Z" fill="#f5d1a6"/>
    <path id="Caminho_364" data-name="Caminho 364" d="M516.663,567.326c-6.158-3.958-47.6-5.217-60.879-3.358l-6.166-4.922a47.277,47.277,0,0,1,10.749,1.281c11.713-1.105,49.045,2.162,57.971,4.364,17.028-.824,45.479,2.522,64.965,8.015a6.29,6.29,0,0,1,1.372.455C584.654,573.2,531.037,565.315,516.663,567.326Z" fill="#dedede" style="mix-blend-mode: multiply;isolation: isolate"/>
    <path id="Caminho_365" data-name="Caminho 365" d="M413.463,573.291c5.122,15.191,16.976,22.8,70.477,22.138,9.189-9.819,8.355-34.136,8.355-34.136s-36.574-10.261-60.454-6.8C413.35,557.169,411.509,567.5,413.463,573.291Z" fill="#28dbd4"/>
    <g id="Grupo_137" data-name="Grupo 137">
      <path id="Caminho_366" data-name="Caminho 366" d="M580.665,575.278a27.292,27.292,0,0,1,14.466-13.591c1.455-.553,8.832-.439,8.832-.439s1.909,2.817-5.459,3.434c-1.12,2.078-6.932,8.1-6.932,8.1Z" fill="#f5d1a6"/>
      <path id="Caminho_367" data-name="Caminho 367" d="M612.714,587.848h0a2.394,2.394,0,0,0,2.314,2.472l12.7-.011c1.322.044,2.809-.608,2.853-1.93h0c.044-1.321-1.437-1.914-2.758-1.958l-12.633-.886A2.4,2.4,0,0,0,612.714,587.848Z" fill="#f5d1a6"/>
      <path id="Caminho_368" data-name="Caminho 368" d="M614.638,580.859h0a2.394,2.394,0,0,0,2.313,2.472L629.659,583c1.321.043,2.77-.352,2.814-1.674h0c.044-1.321-1.463-2.027-2.784-2.071l-12.579-.7A2.394,2.394,0,0,0,614.638,580.859Z" fill="#f5d1a6"/>
      <path id="Caminho_369" data-name="Caminho 369" d="M604.517,569.291l10.366,1.093a2.394,2.394,0,0,1-.5,4.762l-6.088-.642a11.559,11.559,0,0,1,.532,2.641l9.2,1.343a2.394,2.394,0,0,1-.5,4.762l-8.75-.923c-.088.8-.211,1.586-.37,2.338l7.7.812a2.394,2.394,0,0,1-.5,4.762l-8.941-.943a10.026,10.026,0,0,1-.87,1.236l3.751.932a2.394,2.394,0,0,1-1.155,4.647L598.7,593.7a15.71,15.71,0,0,1-1.788-.033c-8.319-.661-18.747-7.365-18.175-14.568s9.427-12.375,17.746-11.714C598.777,567.571,603.09,568.375,604.517,569.291Z" fill="#f5d1a6"/>
      <path id="Caminho_370" data-name="Caminho 370" d="M611.5,572.755h0a2.4,2.4,0,0,0,2.313,2.473l12.579-.159c1.321.044,2.907-.4,2.951-1.724h0c.043-1.321-1.413-2.3-3.5-1.877l-11.874-1.026A2.394,2.394,0,0,0,611.5,572.755Z" fill="#f5d1a6"/>
      <path id="Caminho_371" data-name="Caminho 371" d="M606.656,593.679h0a2.428,2.428,0,0,0,2.309,2.541l7.9-.35c1.34.064,3.107-.2,3.171-1.541h0c.064-1.339-1.072-2.273-3.279-2.128l-7.564-.832A2.427,2.427,0,0,0,606.656,593.679Z" fill="#f5d1a6"/>
    </g>
    <g id="Grupo_139" data-name="Grupo 139">
      <g id="Grupo_138" data-name="Grupo 138">
        <path id="Caminho_372" data-name="Caminho 372" d="M556.9,600.879a28.3,28.3,0,0,0,17.132-11.414c.9-1.34,2.522-8.819,2.522-8.819s-2.4-2.591-4.754,4.707c-2.362.643-9.813,5.1-9.813,5.1Z" fill="#ffdaad"/>
        <path id="Caminho_373" data-name="Caminho 373" d="M551.742,565.548h0a2.483,2.483,0,0,1-1.953-2.918l3-12.824c.267-1.345,1.276-2.694,2.621-2.428h0c1.345.267,1.6,1.9,1.329,3.247l-2.077,12.97A2.484,2.484,0,0,1,551.742,565.548Z" fill="#ffdaad"/>
        <path id="Caminho_374" data-name="Caminho 374" d="M559.255,565.249h0a2.482,2.482,0,0,1-1.953-2.918l3.329-12.757c.266-1.345,1.007-2.716,2.352-2.449h0c1.345.267,1.7,1.954,1.437,3.3L562.173,563.3A2.482,2.482,0,0,1,559.255,565.249Z" fill="#ffdaad"/>
        <path id="Caminho_375" data-name="Caminho 375" d="M568.559,578.194l1.334-10.728a2.483,2.483,0,0,0-4.928-.613l-.784,6.3a12.013,12.013,0,0,0-2.542-1.159l.808-9.609a2.483,2.483,0,1,0-4.928-.613l-1.127,9.056a24.5,24.5,0,0,0-2.449-.177l.991-7.968a2.483,2.483,0,0,0-4.928-.613l-1.151,9.254a10.482,10.482,0,0,0-1.453.588l-.06-4.008a2.483,2.483,0,1,0-4.965.073l.153,10.354a16.22,16.22,0,0,0-.388,1.814c-1.29,8.559,3.029,20.67,10.439,21.786s14.719-6.61,16.009-15.169C568.946,584.4,569.148,579.852,568.559,578.194Z" fill="#ffdaad"/>
        <path id="Caminho_376" data-name="Caminho 376" d="M566.7,570.33h0a2.484,2.484,0,0,1-1.953-2.918l3.12-12.669c.267-1.345,1.09-2.842,2.435-2.575h0c1.346.266,2,1.969,1.074,3.973l-1.757,12.236A2.484,2.484,0,0,1,566.7,570.33Z" fill="#ffdaad"/>
        <path id="Caminho_377" data-name="Caminho 377" d="M544.427,570.3h0a2.52,2.52,0,0,1-2.024-2.931l2.213-7.9c.251-1.368.935-3.091,2.3-2.841h0c1.368.251,2.044,1.618,1.378,3.813l-.939,7.837A2.52,2.52,0,0,1,544.427,570.3Z" fill="#ffdaad"/>
      </g>
      <path id="Caminho_378" data-name="Caminho 378" d="M546.883,598.43c-3.191,11.919-12.054,40.831-16.5,60.869h0v0c-2.042,7.977,16.736,22.693,22.507,4.172,4.057-17.186,9.832-43.477,7.922-64.359C560.566,590.111,545.14,594.084,546.883,598.43Z" fill="#ffdaad"/>
      <path id="Caminho_379" data-name="Caminho 379" d="M549.887,664.681c-16.223,10.529,1.024,9.717,3-1.207,4.057-17.186,9.832-43.477,7.922-64.359a6.556,6.556,0,0,0-.205-1.484C560.566,597.646,554.652,650.424,549.887,664.681Z" fill="#dedede" style="mix-blend-mode: multiply;isolation: isolate"/>
    </g>
  </g>
</svg>
