<svg xmlns="http://www.w3.org/2000/svg" width="225.693" height="568.3" viewBox="0 0 225.693 568.3">
  <g id="Grupo_258" data-name="Grupo 258" transform="translate(-1217.295 -1156.615)">
    <path id="Caminho_753" data-name="Caminho 753" d="M1409.582,1422.905c-5.706-15.05-19.658-62.685-19.658-62.685-5.917-15.88-16.023-54.49-16.9-62.188-2.842-8.6-7.823-20.172-.149-33.086l20,9.475s8.646,7.582,9.293,24.874c4.18,11,10.957,47.854,11.207,57.044,5.323,16.2,9.662,44.512,9.548,64.757C1423.432,1429.778,1408.264,1427.231,1409.582,1422.905Z" fill="#ffdaad"/>
    <path id="Caminho_754" data-name="Caminho 754" d="M1367.629,1258.252c-7.476,9.828-11.35,22.007,10.276,70.947,8.894,8.84,33.446-3.93,33.446-3.93s-3.343-39.327-19.214-57.5S1371.331,1253.384,1367.629,1258.252Z" fill="#21b3ad"/>
    <g id="Grupo_219" data-name="Grupo 219">
      <path id="Caminho_755" data-name="Caminho 755" d="M1420.556,1418.3a25.949,25.949,0,0,1,16.893,8.414c.973,1.115,3.306,7.731,3.306,7.731s-1.882,2.632-4.864-3.735c-2.222-.313-9.51-3.508-9.51-3.508Z" fill="#ffdaad"/>
      <path id="Caminho_756" data-name="Caminho 756" d="M1419.923,1451.023h0a2.276,2.276,0,0,0-1.441,2.879l4.2,11.318c.4,1.193,1.47,2.305,2.663,1.908h0c1.192-.4,1.233-1.913.836-3.106l-3.379-11.558A2.277,2.277,0,0,0,1419.923,1451.023Z" fill="#ffdaad"/>
      <path id="Caminho_757" data-name="Caminho 757" d="M1426.79,1450.432h0a2.277,2.277,0,0,0-1.441,2.879l4.493,11.22c.4,1.193,1.228,2.354,2.421,1.957h0c1.192-.4,1.325-1.973.928-3.165l-3.522-11.45A2.276,2.276,0,0,0,1426.79,1450.432Z" fill="#ffdaad"/>
      <path id="Caminho_758" data-name="Caminho 758" d="M1433.766,1437.59l2.445,9.6a2.276,2.276,0,1,1-4.411,1.124l-1.437-5.641a10.962,10.962,0,0,1-2.179,1.346l1.838,8.647a2.276,2.276,0,1,1-4.411,1.124l-2.065-8.107q-1.121.281-2.207.442l1.816,7.132a2.276,2.276,0,1,1-4.412,1.124l-2.109-8.285a9.367,9.367,0,0,1-1.389-.368l.406,3.653a2.276,2.276,0,1,1-4.525.5l-1.049-9.434a14.725,14.725,0,0,1-.561-1.6c-2.156-7.636.381-19.147,6.992-21.014s14.146,4.322,16.3,11.958C1433.406,1431.9,1434.111,1436.015,1433.766,1437.59Z" fill="#ffdaad"/>
      <path id="Caminho_759" data-name="Caminho 759" d="M1432.979,1444.956h0a2.277,2.277,0,0,0-1.441,2.879l4.293,11.164c.4,1.193,1.317,2.459,2.51,2.062h0c1.193-.4,1.589-2.02.52-3.737l-3-10.927A2.276,2.276,0,0,0,1432.979,1444.956Z" fill="#ffdaad"/>
      <path id="Caminho_760" data-name="Caminho 760" d="M1412.725,1447.544h0a2.31,2.31,0,0,0-1.5,2.9l2.92,6.932c.385,1.216,1.2,2.7,2.421,2.319h0c1.215-.385,1.673-1.706.815-3.626l-1.754-7.02A2.31,2.31,0,0,0,1412.725,1447.544Z" fill="#ffdaad"/>
    </g>
    <path id="Caminho_761" data-name="Caminho 761" d="M1404.642,1529.079c4.4-34-2.547-92.343-1.795-105.407,0,0-3.979,63.274-8.29,52.305s-37.478-52.147-39.524-.692c-1.127,28.357,9.113,82.821,9.234,83.459,1.641,8.655,10.734,16.385,21.066,15.952s16.109-14.39,16.118-14.412h0C1403.708,1554.14,1404.933,1534.213,1404.642,1529.079Z" fill="#f5d2a6"/>
    <path id="Caminho_762" data-name="Caminho 762" d="M1388.5,1709.879c4.248-49.116,20.372-129.072,13.539-161.984-1.729-8.33-20.6-16.314-31.188-3.988.9,2.928,1.492,4.66,1.571,4.756-8.485,34.857-11.99,60.741-1.316,122.465a251.056,251.056,0,0,0,5.863,26.07S1383.846,1711.688,1388.5,1709.879Z" fill="#f5d2a6"/>
    <path id="Caminho_763" data-name="Caminho 763" d="M1369.681,1662.3c.16,2.067,6.073,34.807,6.073,34.807s8.092,14.586,12.747,12.777c1.2-13.813,3.505-29.484,5.482-46.034C1386.909,1669.211,1377.882,1668.307,1369.681,1662.3Z" fill="#c9ebff"/>
    <g id="Grupo_233" data-name="Grupo 233">
      <g id="Grupo_220" data-name="Grupo 220" style="mix-blend-mode: multiply;isolation: isolate">
        <path id="Caminho_764" data-name="Caminho 764" d="M1388.39,1715.441c.836-2.748,1.628-5.557,2.4-8.394-4.865-2.33-9.56,3.758-10.961,2.861-4.6-2.945-3.554-10.535-7.033-9.947h0c-.225,2.456-.478,4.017-.478,4.017S1383.735,1717.251,1388.39,1715.441Z" fill="#d9d9d9"/>
      </g>
      <g id="Grupo_232" data-name="Grupo 232">
        <g id="Grupo_221" data-name="Grupo 221">
          <path id="Caminho_765" data-name="Caminho 765" d="M1370.922,1711.291s-2.138,1.683-3.055,7.746c-.3,1.983,1.065,5.38,9.338,4.53,14.953-1.537,21.846.069,49.942,1.326,14.1.631,15.753-12.516,15.753-12.516s-3.93.924-14.075.2-12.755-1.158-29.291-3.12-25.183-3.366-25.958-3.5S1370.922,1711.291,1370.922,1711.291Z" fill="#24c2bc"/>
        </g>
        <g id="Grupo_222" data-name="Grupo 222">
          <path id="Caminho_766" data-name="Caminho 766" d="M1372.818,1689.9c-5,3.058-9.741,17.642-3.546,26.508,7.791,2.267,14.788-1.2,26.149.24,11.108,1.4,32.747,5.077,43.7,1.2,3.9-1.529,5.864-7.036.962-9.268-6.577-2.994-35.621-11.336-43.285-19.412,0,0-2.722-4.278-6.294-2.658s-2.512,5.754-2.014,6.2c-1.132.891-7.938,2.951-10.423.787S1375.531,1688.236,1372.818,1689.9Z" fill="#4d4d4d"/>
        </g>
        <g id="Grupo_223" data-name="Grupo 223">
          <path id="Caminho_767" data-name="Caminho 767" d="M1396.794,1689.164s-2.722-4.278-6.294-2.658c-1.953.885-2.79,2.165-2.8,3.54a4.239,4.239,0,0,0,.789,2.659s12.528,11.673,21.326,12.107c5.56.275,7.716-1.966,8.774-4.114C1410.142,1697.336,1400.9,1693.49,1396.794,1689.164Z" fill="#24c2bc"/>
        </g>
        <g id="Grupo_225" data-name="Grupo 225">
          <g id="Grupo_224" data-name="Grupo 224">
            <path id="Caminho_768" data-name="Caminho 768" d="M1401.182,1698.863a.494.494,0,0,1-.5-.367,4.216,4.216,0,0,1,.418-3.625,4.476,4.476,0,0,1,3.033-1.651.492.492,0,0,1,.084.981,3.519,3.519,0,0,0-2.317,1.243,3.3,3.3,0,0,0-.266,2.8.491.491,0,0,1-.351.6A.481.481,0,0,1,1401.182,1698.863Z" fill="#fff"/>
          </g>
        </g>
        <g id="Grupo_227" data-name="Grupo 227">
          <g id="Grupo_226" data-name="Grupo 226">
            <path id="Caminho_769" data-name="Caminho 769" d="M1396.8,1695.969a.492.492,0,0,1-.5-.366,4.215,4.215,0,0,1,.417-3.625,4.476,4.476,0,0,1,3.034-1.651.492.492,0,0,1,.084.981,3.521,3.521,0,0,0-2.318,1.243,3.3,3.3,0,0,0-.265,2.8.492.492,0,0,1-.351.6A.471.471,0,0,1,1396.8,1695.969Z" fill="#fff"/>
          </g>
        </g>
        <g id="Grupo_229" data-name="Grupo 229">
          <g id="Grupo_228" data-name="Grupo 228">
            <path id="Caminho_770" data-name="Caminho 770" d="M1406.067,1701.511a.492.492,0,0,1-.5-.367,4.213,4.213,0,0,1,.417-3.625,4.475,4.475,0,0,1,3.033-1.651.492.492,0,0,1,.085.981h0a3.521,3.521,0,0,0-2.318,1.243,3.3,3.3,0,0,0-.265,2.8.493.493,0,0,1-.352.6A.533.533,0,0,1,1406.067,1701.511Z" fill="#fff"/>
          </g>
        </g>
        <g id="Grupo_231" data-name="Grupo 231">
          <g id="Grupo_230" data-name="Grupo 230">
            <path id="Caminho_771" data-name="Caminho 771" d="M1411.022,1703.729a.491.491,0,0,1-.5-.367,4.216,4.216,0,0,1,.417-3.625,4.473,4.473,0,0,1,3.034-1.65.5.5,0,0,1,.531.449.492.492,0,0,1-.447.532,3.51,3.51,0,0,0-2.318,1.243,3.3,3.3,0,0,0-.265,2.8.492.492,0,0,1-.351.6A.543.543,0,0,1,1411.022,1703.729Z" fill="#fff"/>
          </g>
        </g>
      </g>
      <path id="Caminho_772" data-name="Caminho 772" d="M1421.753,1701.873c-.193,4.2-10.681,10.842-23.739,3.2,12.382,8.447,23.858,7.207,32.075-.2C1427.763,1704.052,1421.753,1701.873,1421.753,1701.873Z" fill="#24c2bc"/>
      <path id="Caminho_773" data-name="Caminho 773" d="M1366.994,1700.3c9.158.682,16.558,7.4,16.307,16.32-2.553,1.922-3.753.358-3.753.358s-1.034-11.491-13.117-13.144A11.479,11.479,0,0,1,1366.994,1700.3Z" fill="#24c2bc"/>
      <path id="Caminho_774" data-name="Caminho 774" d="M1432.4,1705.69a17.572,17.572,0,0,1-13.225,6.32c6.976,1.112,13.582-.674,16.764-5.056C1434.864,1706.567,1432.4,1705.69,1432.4,1705.69Z" fill="#24c2bc"/>
    </g>
    <g id="Grupo_234" data-name="Grupo 234">
      <path id="Caminho_775" data-name="Caminho 775" d="M1404.163,1385.223s-34.169-12.211-53.995,3.827c-9.1,7.365-28.451,38.177-6.622,68.767,1.709,28.491,14.082,72.434,12.761,74.2,26.182,8.817,42.3,5,51.825-2.8,1.091-18.892-1.088-85.555-1.132-103.212C1406.954,1407.216,1404.163,1385.223,1404.163,1385.223Z" fill="#404040"/>
    </g>
    <path id="Caminho_776" data-name="Caminho 776" d="M1395.53,1527.2c4.237-34.018-2.975-92.33-2.283-105.4,0,0-3.687,63.292-8.048,52.342s-37.719-51.972-39.526-.509c-1,28.362,9.494,82.778,9.618,83.415,1.682,8.648,10.81,16.336,21.14,15.855s16.042-14.464,16.051-14.486h0C1394.711,1552.265,1395.844,1532.333,1395.53,1527.2Z" fill="#ffdaad"/>
    <g id="Grupo_235" data-name="Grupo 235">
      <path id="Caminho_777" data-name="Caminho 777" d="M1403.159,1388.057s-33.162-14.728-54.13-.214c-9.629,6.665-31.221,35.947-11.736,68.081-.422,28.539,8.637,73.282,7.188,74.942,25.451,10.747,41.812,8.148,51.889,1.081,2.5-18.758,8.043-88.888,9.318-106.5C1407.044,1406.706,1403.159,1388.057,1403.159,1388.057Z" fill="#4d4d4d"/>
    </g>
    <path id="Caminho_778" data-name="Caminho 778" d="M1329.427,1430.1c-.216,3.02,73.569,14.791,75.527,9.067l.567-12.746s-35.156.136-46.422,0S1329.427,1430.1,1329.427,1430.1Z" fill="#d9d9d9" style="mix-blend-mode: multiply;isolation: isolate"/>
    <g id="Grupo_237" data-name="Grupo 237">
      <g id="Grupo_236" data-name="Grupo 236">
        <path id="Caminho_779" data-name="Caminho 779" d="M1397.074,1287.572l-2.14-12.36c-7.375-14.8-10.761-25.379-11.839-30.514,3.077.8,15.107,2.955,22.164.517,2.558-1.692,1.914-7.4,2.224-9.641s1.316-2.478,1.687-4.092-1.839-2.074-1.839-2.074,2.9-1.1,3.323-2.288-.846-3.008-.924-5.2,5.33-1.719,5.892-3.771c.869-3.169-9.753-14.365-6.311-19.073,2.793-3.821-4.5-22.021-4.5-22.021a6.294,6.294,0,0,0,2.653-3.993c.906-6.251-13.877-12.735-25.661-13.628s-39.431,5.754-42.615,31.709c-2.848,23.215,14.184,39.054,17.216,43.645,2.514,3.8-3.751,20.99-10.737,27.664C1362.708,1253.556,1397.074,1287.572,1397.074,1287.572Z" fill="#ffdaad"/>
      </g>
    </g>
    <path id="Caminho_780" data-name="Caminho 780" d="M1410.674,1225.973c-1.648-.019-10.649,4.24-10.649,4.24a31.658,31.658,0,0,0,7.306-.805C1410.073,1228.58,1411.308,1226.827,1410.674,1225.973Z" fill="#f7f4eb" style="mix-blend-mode: multiply;isolation: isolate"/>
    <g id="Grupo_238" data-name="Grupo 238">
      <path id="Caminho_781" data-name="Caminho 781" d="M1358.843,1205.654c4.8-3.207,6.934-1.869,11.243,5.743-2.857-7.7,4.633-13.849,6.235-14.473s1.678-8.442-.516-13.983c4.768-4.785,29-5.807,29-5.807a6.3,6.3,0,0,0,2.677-3.978c.941-6.245-13.8-12.815-25.583-13.776s-43.581,2.966-46.916,28.9c-3.177,24.711,18.081,41.71,21.087,46.317a10.628,10.628,0,0,1,.827,2.275C1359.751,1224.982,1351.963,1210.25,1358.843,1205.654Z" fill="#7d5137"/>
    </g>
    <g id="Grupo_239" data-name="Grupo 239">
      <path id="Caminho_782" data-name="Caminho 782" d="M1406.169,1199.267a4.539,4.539,0,0,0,0-2.9s-13.544-.122-17.127,3.78C1392.641,1198.361,1406.169,1199.267,1406.169,1199.267Z" fill="#7d5137"/>
    </g>
    <path id="Caminho_783" data-name="Caminho 783" d="M1355.929,1212.859c-.178,6.1,7.862,14.647,7.862,14.647l-6.929,9.406s-.736-10.557-.88-11.918S1355.929,1212.859,1355.929,1212.859Z" fill="#7d5137"/>
    <path id="Caminho_784" data-name="Caminho 784" d="M1410.422,1227.522c-3.266.624-10.4,2.691-10.4,2.691,1.829.272,4.665-.248,7.306-.805A9.7,9.7,0,0,0,1410.422,1227.522Z" fill="#fffcf2" style="mix-blend-mode: multiply;isolation: isolate"/>
    <path id="Caminho_785" data-name="Caminho 785" d="M1358.661,1219.493c1.368,4.066,8.712,12.743,11.886,3.419C1368.7,1225.89,1362.542,1227.232,1358.661,1219.493Z" fill="#e0e0e0" style="mix-blend-mode: multiply;isolation: isolate"/>
    <path id="Caminho_786" data-name="Caminho 786" d="M1367.089,1214.1c1.1-3.159-1.793-7.585-4.552-7.667s-6.958,2.043-5.608,9.908c-.924-3.912,1.846-10.035,5.68-9.073s2.465,8.28,2.465,8.28,2.786-.219,3.626,1.241A2.358,2.358,0,0,0,1367.089,1214.1Z" fill="#ededed" style="mix-blend-mode: multiply;isolation: isolate"/>
    <path id="Caminho_787" data-name="Caminho 787" d="M1407.2,1173.724c2.588-4.881-3.037-10.4-8.261-13.2,2.262,2.116-.113,1.388-4.524-1.624s-17.73-2.264-20.23-2.035c6.991,1.865-11.784-1.022-18.573,2.673,4.076.02-10.032,3.03-13.669,12.279C1372.429,1180.825,1407.2,1173.724,1407.2,1173.724Z" fill="#7d5137"/>
    <path id="Caminho_788" data-name="Caminho 788" d="M1370.135,1227.2s.364,9.107,3.038,12.035,9.922,5.46,9.922,5.46.868,4.174,2.224,8.329c-3.5-5.159-4.553-6.051-4.553-6.051s-8.292-1.817-10.3-6.423S1370.135,1227.2,1370.135,1227.2Z" fill="#e0e0e0" style="mix-blend-mode: multiply;isolation: isolate"/>
    <path id="Caminho_789" data-name="Caminho 789" d="M1402.677,1232.279c2.087,1.162,5.693.681,5.693.681a4.761,4.761,0,0,0-.951,3.439C1406.968,1233.9,1402.677,1232.279,1402.677,1232.279Z" fill="#e8e8e8" style="mix-blend-mode: multiply;isolation: isolate"/>
    <g id="Grupo_240" data-name="Grupo 240">
      <path id="Caminho_790" data-name="Caminho 790" d="M1328.337,1427.094c43.89,11.164,79.564,1.435,79.564,1.435s.017-42.4.911-54.617c1.251-21.415-2.019-37.725-3.568-50.368,4.819-18.973-4.975-38.553-10.31-48.332,0,0-31.285-32.212-45.83-16.764,0,0-12.357,12.239-13.691,16.055-9.336,26.7,1.516,50.21.78,83.759C1335.948,1369.445,1328.337,1413.047,1328.337,1427.094Z" fill="#24c2bc"/>
    </g>
    <path id="Caminho_791" data-name="Caminho 791" d="M1404.07,1178.992a40.544,40.544,0,0,1-18.678,20.48c.841-2.4.12-3.6.12-3.6s-8.632,13.762-15.426,15.529c-1.63-2.677-3.672-8.082-3.672-9.523s-.12-12.492,2.883-16.216,4.8-8.407,9.609-10.209,21.74-4.925,23.662-4.565S1404.07,1178.992,1404.07,1178.992Z" fill="#7d5137"/>
    <path id="Caminho_792" data-name="Caminho 792" d="M1398.3,1175.749c5.342,6.477,9.833,10.383,10.36,12.7,0,0,8.108-4.5,3.874-14.324s-9.279-10.269-9.279-10.269-8.558,1.261-8.558,2.883S1398.3,1175.749,1398.3,1175.749Z" fill="#7d5137"/>
    <path id="Caminho_793" data-name="Caminho 793" d="M1353.97,1249.079s31.47,14.654,34.713,12.011c1.561,3.844,7.207,15.855,7.207,15.855l-11.291-3-10.21-8.768-11.05-6.606-6.967-2.282-16.756,12.431S1352.529,1250.28,1353.97,1249.079Z" fill="#24c2bc"/>
    <g id="Grupo_241" data-name="Grupo 241">
      <path id="Caminho_794" data-name="Caminho 794" d="M1359.112,1256.877c12.354,2.881,14.068,20.126,8.274,38.277s-26.056,72.012-34.662,83.2c-5.2,9.585-24.6,10.584-25.565-4.6C1308,1369.775,1332.086,1250.574,1359.112,1256.877Z" fill="#ffdaad"/>
    </g>
    <path id="Caminho_795" data-name="Caminho 795" d="M1359.368,1255.631c-13.863-3.946-25.869,12.045-40.733,68.883,12.405,14.732,36.762,14.845,36.762,14.845S1390.171,1266.007,1359.368,1255.631Z" fill="#28dbd4"/>
    <path id="Caminho_796" data-name="Caminho 796" d="M1260.72,1443.448c31.488,37.933,76.194,106.156,104.18,124.774,7.084,4.712,26.124-2.869,24.995-19.076-2.7-1.454-4.336-2.268-4.46-2.28-18.454-30.765-34.146-51.646-85.111-88.066a251.009,251.009,0,0,0-22.488-14.431S1262.762,1438.89,1260.72,1443.448Z" fill="#ffdaad"/>
    <path id="Caminho_797" data-name="Caminho 797" d="M1307.546,1464.083c-2.3-1.456-14.509-10.7-17-12.252-13.111-8.174-12.714-7.462-12.714-7.462s-15.074-5.479-17.116-.921c8.855,10.668,18.8,23.284,29.022,36.449C1291.006,1471.109,1297.486,1465.567,1307.546,1464.083Z" fill="#c9ebff"/>
    <g id="Grupo_255" data-name="Grupo 255">
      <g id="Grupo_242" data-name="Grupo 242" style="mix-blend-mode: multiply;isolation: isolate">
        <path id="Caminho_798" data-name="Caminho 798" d="M1256.891,1439.412c1.336,2.542,2.746,5.1,4.192,7.657,5.1-1.76,4.161-9.39,5.789-9.737,5.344-1.139,9.931,5,11.993,2.136h0c-1.566-1.906-2.483-3.194-2.483-3.194S1258.932,1434.853,1256.891,1439.412Z" fill="#d9d9d9"/>
      </g>
      <g id="Grupo_254" data-name="Grupo 254">
        <g id="Grupo_243" data-name="Grupo 243">
          <path id="Caminho_799" data-name="Caminho 799" d="M1272.236,1430.091s.339-2.7-3.268-7.658c-1.18-1.622-4.538-3.08-9.828,3.338-9.56,11.6-15.593,15.3-36.468,34.147-10.476,9.457-2.415,19.974-2.415,19.974s2.147-3.418,9.877-10.029,9.89-8.137,23.035-18.36,20.284-15.3,20.929-15.749S1272.236,1430.091,1272.236,1430.091Z" fill="#24c2bc"/>
        </g>
        <g id="Grupo_244" data-name="Grupo 244">
          <path id="Caminho_800" data-name="Caminho 800" d="M1285.92,1446.647c1.408-5.688-5.464-19.4-16.1-21.353-7.137,3.861-9.682,11.241-18.775,18.2-8.891,6.805-26.869,19.4-31.936,29.848-1.7,3.829.772,9.127,5.828,7.271,6.783-2.491,33.311-16.962,44.439-16.6,0,0,4.943,1.131,6.347-2.531s-2.257-5.86-2.923-5.827c.179-1.429,3.574-7.677,6.863-7.884S1285.156,1449.734,1285.92,1446.647Z" fill="#4d4d4d"/>
        </g>
        <g id="Grupo_245" data-name="Grupo 245">
          <path id="Caminho_801" data-name="Caminho 801" d="M1269.374,1464.015s4.943,1.131,6.347-2.531c.767-2,.463-3.5-.494-4.489a4.24,4.24,0,0,0-2.429-1.338s-17.116.5-23.682,6.37c-4.149,3.71-4.109,6.82-3.352,9.092C1254.134,1467.578,1263.413,1463.821,1269.374,1464.015Z" fill="#24c2bc"/>
        </g>
        <g id="Grupo_247" data-name="Grupo 247">
          <g id="Grupo_246" data-name="Grupo 246">
            <path id="Caminho_802" data-name="Caminho 802" d="M1259.438,1460.2a.49.49,0,0,1,.615-.092,4.209,4.209,0,0,1,2.25,2.872,4.473,4.473,0,0,1-1,3.306.492.492,0,0,1-.749-.639,3.518,3.518,0,0,0,.775-2.513,3.291,3.291,0,0,0-1.78-2.18.493.493,0,0,1-.172-.675A.5.5,0,0,1,1259.438,1460.2Z" fill="#fff"/>
          </g>
        </g>
        <g id="Grupo_249" data-name="Grupo 249">
          <g id="Grupo_248" data-name="Grupo 248">
            <path id="Caminho_803" data-name="Caminho 803" d="M1264.587,1459.177a.492.492,0,0,1,.616-.092,4.209,4.209,0,0,1,2.25,2.872,4.476,4.476,0,0,1-1,3.306.492.492,0,0,1-.749-.639,3.512,3.512,0,0,0,.776-2.513,3.3,3.3,0,0,0-1.78-2.18.492.492,0,0,1-.172-.675A.577.577,0,0,1,1264.587,1459.177Z" fill="#fff"/>
          </g>
        </g>
        <g id="Grupo_251" data-name="Grupo 251">
          <g id="Grupo_250" data-name="Grupo 250">
            <path id="Caminho_804" data-name="Caminho 804" d="M1254.1,1461.744a.492.492,0,0,1,.616-.092,4.216,4.216,0,0,1,2.25,2.872,4.475,4.475,0,0,1-1,3.306.492.492,0,0,1-.749-.638h0a3.527,3.527,0,0,0,.776-2.513,3.3,3.3,0,0,0-1.781-2.181.493.493,0,0,1-.172-.674A.52.52,0,0,1,1254.1,1461.744Z" fill="#fff"/>
          </g>
        </g>
        <g id="Grupo_253" data-name="Grupo 253">
          <g id="Grupo_252" data-name="Grupo 252">
            <path id="Caminho_805" data-name="Caminho 805" d="M1249.016,1463.648a.493.493,0,0,1,.616-.093,4.215,4.215,0,0,1,2.25,2.873,4.473,4.473,0,0,1-1,3.305.5.5,0,0,1-.694.055.493.493,0,0,1-.055-.693,3.524,3.524,0,0,0,.776-2.513,3.3,3.3,0,0,0-1.78-2.181.492.492,0,0,1-.173-.674A.465.465,0,0,1,1249.016,1463.648Z" fill="#fff"/>
          </g>
        </g>
      </g>
      <path id="Caminho_806" data-name="Caminho 806" d="M1242.684,1472.508c-2.81-3.121-.017-15.219,14.644-18.956-14.746,2.689-22.041,11.634-22.684,22.676C1236.878,1475.18,1242.684,1472.508,1242.684,1472.508Z" fill="#24c2bc"/>
      <path id="Caminho_807" data-name="Caminho 807" d="M1282.758,1435.156c-7,5.949-16.982,6.369-23.071-.155.467-3.162,2.42-2.892,2.42-2.892s8.809,7.45,18.568.137A11.469,11.469,0,0,1,1282.758,1435.156Z" fill="#24c2bc"/>
      <path id="Caminho_808" data-name="Caminho 808" d="M1232.429,1477.271a17.568,17.568,0,0,1,4.97-13.789c-5.746,4.11-9.191,10.022-8.377,15.376C1230.057,1478.38,1232.429,1477.271,1232.429,1477.271Z" fill="#24c2bc"/>
    </g>
    <g id="Grupo_256" data-name="Grupo 256">
      <path id="Caminho_809" data-name="Caminho 809" d="M1335.434,1374.322s-12.318,34.121-37.617,74.026c-5.66,4.379-8.27-3.118-9.369-6.666s11.9-73.821,32.971-86.932C1338.787,1357.361,1335.434,1374.322,1335.434,1374.322Z" fill="#ffdaad"/>
    </g>
    <g id="Grupo_257" data-name="Grupo 257">
      <path id="Caminho_810" data-name="Caminho 810" d="M1299.463,1442.155a26.206,26.206,0,0,1,4.529,18.515c-.225,1.478-3.806,7.592-3.806,7.592s-3.256.265-.291-6.187c-1.208-1.918-3.5-9.622-3.5-9.622Z" fill="#ffdaad"/>
      <path id="Caminho_811" data-name="Caminho 811" d="M1293.2,1464.925l-7.588,10.744a2.3,2.3,0,0,1-3.744-2.669l5.19-7.381a11.075,11.075,0,0,1-2.46-.8l-5.469,7.058a2.3,2.3,0,0,1-3.744-2.669l4.905-6.88q-.946-.681-1.78-1.414l-5.274,7.724a2.3,2.3,0,1,1-3.744-2.67l5.971-8.7a9.43,9.43,0,0,1-.622-1.311l-6.385,7.562a2.3,2.3,0,0,1-3.339-3.161l10.424-11.829a14.672,14.672,0,0,1,.871-1.479c4.483-6.643,15.014-12.2,20.766-8.314s5.893,13.728,1.411,20.371C1297.351,1460.939,1294.641,1464.165,1293.2,1464.925Z" fill="#ffdaad"/>
    </g>
  </g>
</svg>
