<svg xmlns="http://www.w3.org/2000/svg" width="96.61" height="143.833" viewBox="0 0 96.61 143.833">
  <g id="Grupo_24" data-name="Grupo 24" transform="translate(-339.857 -967.27)">
    <path id="Caminho_104" data-name="Caminho 104" d="M389.8,1020.525c.067-.921.959-3.48-1.846-5.229-1.53-.954-6.144-2.119-10.753-3.335-7.047-1.861-27.114-5.249-27.558-6.227-2.392-5.269-1.866-12.907-2.7-14.125s-2.259-2.867-3.035-1.766c-.507.72-2.149,7.933-2.929,14.445-.382,3.185-1.477,5.835-1,6.912,1.392,3.112,6.535,1.624,9.554,2.321,13.433,3.1,14.07,5.693,18.159,7.467,6.3,2.732,16.161,4.426,16.161,4.426Z" transform="translate(0 -11.825)" fill="#ffb178"/>
    <path id="Caminho_105" data-name="Caminho 105" d="M350.18,1031.758a2.474,2.474,0,0,0,3.59,1c.383-.229.686.4.3.622a3.164,3.164,0,0,1-4.517-1.319A.347.347,0,0,1,350.18,1031.758Z" transform="translate(-5.143 -34.235)" fill="#f0924c"/>
    <path id="Caminho_106" data-name="Caminho 106" d="M351.709,990.992a3.583,3.583,0,0,1,.3,3.188.347.347,0,0,1-.653-.232,2.919,2.919,0,0,0-.265-2.651C350.852,990.918,351.476,990.616,351.709,990.992Z" transform="translate(-5.951 -12.538)" fill="#f0924c"/>
    <path id="Caminho_107" data-name="Caminho 107" d="M468.345,1047.387s2.533,9.342-2.5,14.881-9.141,4.416-12.727,3.773-11.96-5.281-15.554-6.7c-4.907-1.934-26.115-11.453-29.5-11.893a19.947,19.947,0,0,1-6.388-1.763c-2.3-.994,1.358-8.759,2.673-12.5.507-1.44,9.785,1.426,12.977,2.636,3.771,1.43,33.048,10.383,39.155,10.22C460.78,1045.934,468.345,1047.387,468.345,1047.387Z" transform="translate(-32.515 -34.886)" fill="#4d5a87"/>
    <path id="Caminho_108" data-name="Caminho 108" d="M488.773,1164.175c-.913.137-3.606-.167-4.692,2.955-.592,1.7-.708,6.46-.877,11.224-.258,7.284.872,27.6.016,28.253-4.61,3.5-12.175,4.672-13.179,5.757s-2.3,2.837-1.052,3.35c.814.335,8.212.343,14.735-.335,3.19-.332,6.017.151,6.961-.557,2.727-2.046.57-7.236.582-10.334.055-13.786,1.868-15.633,2.694-20.012a82.156,82.156,0,0,0,.893-15.583Z" transform="translate(-68.478 -104.833)" fill="#ffb178"/>
    <path id="Caminho_109" data-name="Caminho 109" d="M509.579,1257.95a2.474,2.474,0,0,0,.185-3.723c-.308-.323.234-.756.539-.435a3.164,3.164,0,0,1-.289,4.7C509.67,1258.775,509.236,1258.235,509.579,1257.95Z" transform="translate(-90.294 -152.485)" fill="#f0924c"/>
    <path id="Caminho_110" data-name="Caminho 110" d="M469.481,1269.146a3.584,3.584,0,0,1,3.044-.993.347.347,0,0,1-.082.688,2.92,2.92,0,0,0-2.527.844C469.6,1270,469.167,1269.456,469.481,1269.146Z" transform="translate(-68.954 -160.172)" fill="#f0924c"/>
    <path id="Caminho_111" data-name="Caminho 111" d="M439.936,989.533c-.476.541-3.219,9.232-3.219,9.232s-12.958-4.618-13.72-4.42c-.684.18-1.1,1.658-3.727,3.108-.772.43-3.529-1.9-5.708-3.935-1.436-1.335-2.623-2.549-2.821-2.752-.037-.037-.079-.083-.143-.148v0a28.447,28.447,0,0,1-3.533-5.08c-.138-.259-.263-.517-.379-.776a7.214,7.214,0,0,1-.739-2.739,2.284,2.284,0,0,1,.665-1.755c6.687-6.313,10.493-9.656,14-7.938a7.19,7.19,0,0,1,1.515,1.03,39.022,39.022,0,0,1,1.866,4.161c.032.083.065.161.1.231v0c.513,1.238,1.261,2.162,1.5,2.983.49,1.682,4.036,5.343,4.29,5.6a.063.063,0,0,0,.009.014C430.733,987.575,440.412,988.993,439.936,989.533Z" transform="translate(-35.186 -2.453)" fill="#ffb178"/>
    <path id="Caminho_112" data-name="Caminho 112" d="M415.841,1010.871s.137,3.626.649,4.133,2.36-.737,2.36-.737Z" transform="translate(-40.454 -23.213)" fill="#ffb178"/>
    <path id="Caminho_113" data-name="Caminho 113" d="M415.748,1005.891c-.078-.14.026-.255.129-.352s.22-.195.361-.126a1.988,1.988,0,0,1,.968,1.065c.088.209-.325.6-.478.495A3.218,3.218,0,0,1,415.748,1005.891Z" transform="translate(-40.39 -20.295)" fill="#75544b"/>
    <path id="Caminho_114" data-name="Caminho 114" d="M442.816,1013.252a4.91,4.91,0,0,0,1.527-3.923c-.036-.52.769-.617.8-.095a5.687,5.687,0,0,1-1.7,4.52C443.084,1014.113,442.443,1013.616,442.816,1013.252Z" transform="translate(-54.756 -22.157)" fill="#f0924c"/>
    <path id="Caminho_115" data-name="Caminho 115" d="M427.148,1013.84a3.142,3.142,0,0,1-1.667,2.237c-.422.223-.027.85.394.628a3.862,3.862,0,0,0,2-2.7C427.961,1013.538,427.239,1013.37,427.148,1013.84Z" transform="translate(-45.49 -24.645)" fill="#f0924c"/>
    <path id="Caminho_116" data-name="Caminho 116" d="M426.45,983.893a5.1,5.1,0,0,1-2.646-1.256c-1.57-1.215-5.316-.291-5.727-2.748-.231-1.38-2.124-2.212-3.177-2-.642.125-1.459,1.141-1.459,1.141.014.041-.212.134-.609.263-1.053.346-3.3.965-5.38,1.584-.6.176-1.191.351-1.737.522a18.449,18.449,0,0,0-2.471.91,2.833,2.833,0,0,1-1.529.439c-.845-.06-1.5-.822-1.981-2.669-.762-2.836.369-3.893,1.21-4.207s-.291-2.863,1.561-3.519,2.134-2.179,4.572-3.639a10.207,10.207,0,0,1,7.324-1.2,7.1,7.1,0,0,1,3.8,2.641,4.3,4.3,0,0,1,.485.748,39.022,39.022,0,0,1,1.866,4.161,2.006,2.006,0,0,0,.1.231v0c.513,1.238,1.261,2.162,1.5,2.983.49,1.681,4.036,5.343,4.29,5.6A.06.06,0,0,0,426.45,983.893Z" transform="translate(-31.745)" fill="#52261b"/>
    <path id="Caminho_117" data-name="Caminho 117" d="M408.809,992.3c.672,1.073,1.423,1.431.35,2.1s-5.181,2.818-5.465.426a3.812,3.812,0,0,1,1.955-3.255A2.293,2.293,0,0,1,408.809,992.3Z" transform="translate(-33.979 -12.751)" fill="#52261b"/>
    <path id="Caminho_118" data-name="Caminho 118" d="M419.917,991.307s-4.569,1.956-5.493,2.346c-2.474,1.048-1.97.275-2.5-.575a1.816,1.816,0,0,1,.575-2.5C413.347,990.044,419.385,990.457,419.917,991.307Z" transform="translate(-38.22 -12.282)" fill="#52261b"/>
    <path id="Caminho_119" data-name="Caminho 119" d="M497.456,1059.682s8.551-4.534,15.065-.851,6.326,7.94,6.492,11.58-2.509,12.831-3.1,16.65c-.8,5.213-5.4,28-5.08,31.4a19.95,19.95,0,0,1-.308,6.619c-.462,2.463-8.843.612-12.777.154-1.517-.176-.772-9.858-.3-13.239.561-3.994,2.824-34.525,1.316-40.446C497.71,1067.381,497.456,1059.682,497.456,1059.682Z" transform="translate(-83.582 -47.98)" fill="#4d5a87"/>
    <path id="Caminho_120" data-name="Caminho 120" d="M454.28,1000.927c-.915.173-5.991,8.221-6.106,9.953s-.577,8.774,4.387,11.661,12.815,5.657,15.24,7.158,2.419,9.518,4.728,10.095a26.826,26.826,0,0,0,9.7.056c3.81-.578,10.034-3.134,10.844-4.114s.938-3.381.938-5.575-.346-2.423-2.886-6.234-7.753-14.016-18.491-18.519S459.053,1000.026,454.28,1000.927Z" transform="translate(-57.633 -17.751)" fill="#9bb080"/>
    <path id="Caminho_121" data-name="Caminho 121" d="M443.776,1012.5c.378.266,3.877,4.27-1.308,10.3-6.282,7.3-11.957,20.649-17.012,23.356-4.826,2.584-6.163-1.978-5.73-4.4s8.448-14.493,10.5-18.538,5.3-11.032,7.907-12.017C440.29,1010.382,442.077,1011.3,443.776,1012.5Z" transform="translate(-42.482 -23.222)" fill="#ffb178"/>
    <path id="Caminho_122" data-name="Caminho 122" d="M448.81,1005.378s-4.359,4.178-5.765,6.626-3.023,4.835-3.484,6.759,3.232,1.462,5.657,3.194,3.708,5.306,5.888,5.542,7.158-9.018,7.5-9.878a36.211,36.211,0,0,0,1.27-6.826c0-1.423.231-2.437-1.154-2.854s-4.979-2.747-5.664-2.563A32.346,32.346,0,0,1,448.81,1005.378Z" transform="translate(-53.062 -20.284)" fill="#9bb080"/>
    <path id="Caminho_123" data-name="Caminho 123" d="M499.569,1084.122c-.059-.44-.727-.253-.668.184q.437,3.236.874,6.472c.059.44.727.252.668-.184Z" transform="translate(-84.673 -62.079)" fill="#303f75"/>
    <path id="Caminho_124" data-name="Caminho 124" d="M492.017,1077.717l-5.375-13.153c-.166-.407-.837-.229-.668.184l5.375,13.153C491.516,1078.308,492.186,1078.13,492.017,1077.717Z" transform="translate(-77.779 -51.677)" fill="#303f75"/>
    <path id="Caminho_125" data-name="Caminho 125" d="M482.474,1074.216a52.9,52.9,0,0,0-8.555-15.229c-.279-.348-.766.145-.49.49a51.9,51.9,0,0,1,8.376,14.924C481.956,1074.816,482.626,1074.637,482.474,1074.216Z" transform="translate(-71.07 -48.767)" fill="#303f75"/>
    <path id="Caminho_126" data-name="Caminho 126" d="M520.153,1168.037a5.8,5.8,0,0,1-4.845.336c-.419-.153-.6.516-.184.668a6.482,6.482,0,0,0,5.379-.406C520.9,1168.424,520.546,1167.825,520.153,1168.037Z" transform="translate(-93.187 -106.866)" fill="#303f75"/>
    <path id="Caminho_127" data-name="Caminho 127" d="M519.382,1171.907a9.049,9.049,0,0,1-4.756.237c-.434-.094-.62.574-.184.668a9.78,9.78,0,0,0,5.124-.237C519.989,1172.44,519.809,1171.771,519.382,1171.907Z" transform="translate(-92.817 -108.94)" fill="#303f75"/>
    <path id="Caminho_128" data-name="Caminho 128" d="M536.222,1087.413a9.774,9.774,0,0,1-5.227,6.47c-.4.2-.049.794.35.6a10.445,10.445,0,0,0,5.545-6.884A.347.347,0,0,0,536.222,1087.413Z" transform="translate(-101.669 -63.833)" fill="#303f75"/>
    <path id="Caminho_129" data-name="Caminho 129" d="M534.381,1100.6a4.338,4.338,0,0,1-2.583,3.05c-.41.173-.057.77.349.6a4.976,4.976,0,0,0,2.9-3.464C535.15,1100.353,534.482,1100.168,534.381,1100.6Z" transform="translate(-102.093 -70.855)" fill="#303f75"/>
    <path id="Caminho_130" data-name="Caminho 130" d="M424.013,1042.335c-.064-.439-.731-.252-.668.184l1.357,9.372c.064.44.731.253.668-.184Z" transform="translate(-44.447 -39.832)" fill="#303f75"/>
    <path id="Caminho_131" data-name="Caminho 131" d="M429.357,1049.023q-.086,1.847-.172,3.694c-.021.446.672.444.693,0q.086-1.847.172-3.694C430.07,1048.577,429.377,1048.579,429.357,1049.023Z" transform="translate(-47.558 -43.348)" fill="#303f75"/>
    <path id="Caminho_132" data-name="Caminho 132" d="M467.025,1007.655c-.288-.341-.776.151-.49.49a13.821,13.821,0,0,1,.052,17.86c-.283.34.2.833.49.49A14.537,14.537,0,0,0,467.025,1007.655Z" transform="translate(-67.398 -21.44)" fill="#799957"/>
    <path id="Caminho_133" data-name="Caminho 133" d="M472.376,1036.445a10.434,10.434,0,0,1-2.94,5.344c-.319.312.171.8.49.49a11.11,11.11,0,0,0,3.118-5.65C473.138,1036.195,472.47,1036.009,472.376,1036.445Z" transform="translate(-68.933 -36.697)" fill="#799957"/>
    <path id="Caminho_134" data-name="Caminho 134" d="M504.714,1050.039a22.792,22.792,0,0,1-11.877,4.715c-.44.043-.444.736,0,.693a23.628,23.628,0,0,0,12.367-4.918C505.556,1050.255,505.062,1049.769,504.714,1050.039Z" transform="translate(-81.271 -44.024)" fill="#799957"/>
    <path id="Caminho_135" data-name="Caminho 135" d="M505.253,1059.951l-6.146,1.735a.347.347,0,0,0,.184.668l6.146-1.735A.347.347,0,0,0,505.253,1059.951Z" transform="translate(-84.655 -49.336)" fill="#799957"/>
    <path id="Caminho_136" data-name="Caminho 136" d="M516.995,1061.515a50.723,50.723,0,0,1-17.618,2.6c-.446-.013-.445.679,0,.692a51.281,51.281,0,0,0,17.8-2.627C517.6,1062.042,517.419,1061.373,516.995,1061.515Z" transform="translate(-84.751 -50.166)" fill="#799957"/>
    <path id="Caminho_137" data-name="Caminho 137" d="M412.61,992.84s3.906.934,5.465.714,2.356-2.836,2.356-2.836.067-1.142-.769-1.37a23.608,23.608,0,0,0-4.531,0c-.461.061-.747.41-1.067.813S412.61,992.84,412.61,992.84Z" transform="translate(-38.734 -11.693)" fill="#52261b"/>
  </g>
</svg>
