<svg xmlns="http://www.w3.org/2000/svg" width="145.053" height="134.201" viewBox="0 0 145.053 134.201">
  <g id="Grupo_23" data-name="Grupo 23" transform="translate(-1083.039 -1118.016)">
    <path id="Caminho_58" data-name="Caminho 58" d="M1315.089,1186.464s.883-1.281,2.234-3.218c.309-.437.64-.913.991-1.412,3.867-5.523,10.075-14.257,12-16.278,2.868-3.014,3.481-3.072,5.275-5.394,1.778-2.3,8.792-13.153,9.741-13.731.01,0,.017-.011.024-.012,1.336-.621-1.907-4.82-3.72-3.2-.007,0-.013.008-.017.012-1.64,1.466-8.9,8.59-11.4,11.462a55.056,55.056,0,0,0-5.1,6.31c-1.569,2.307-12.407,12.316-16.329,15.908-.528.482-.93.851-1.169,1.064l-.01.011c-.152.144-.236.217-.236.217Z" transform="translate(-126.017 -13.949)" fill="#ffb399"/>
    <path id="Caminho_59" data-name="Caminho 59" d="M1375.676,1133.525s7.839-8.575,9.843-10.745c2.109-2.284,4.716-4.3,5.833-4.684.949-.329,1,.462,1,.462a6.23,6.23,0,0,0,.109,1.293c.289,1.464-4.74,5.887-4.506,6.753s1.974-2.775,2.851-3.494,1.643.2-.093,2.561-3.278,6.341-4.739,6.219-4.379,1.7-4.379,1.7Z" transform="translate(-164.38)" fill="#ffb399"/>
    <path id="Caminho_60" data-name="Caminho 60" d="M1350.263,1189.083l.506-3.24c.074-.476.807-.333.733.141l-.506,3.241C1350.922,1189.7,1350.189,1189.557,1350.263,1189.083Z" transform="translate(-150.103 -37.935)" fill="#ff9074"/>
    <path id="Caminho_61" data-name="Caminho 61" d="M1311.083,1310.97c.865,0,3.319-.658,4.761,2.083.787,1.5,1.559,5.888,2.381,10.28,1.256,6.715,3.048,25.706,3.932,26.188,4.761,2.6,11.831,4.834,12.913,5.7s2.525,2.308,1.443,2.958c-.707.424-7.6.26-13.274.144-3.006-.062-5.879.38-6.854-.144-2.813-1.515-1.071-6.22-1.515-9.09-1.977-12.769-4.357-13.543-5.735-17.486-2.122-6.075-3.03-15.411-3.03-15.411Z" transform="translate(-125.301 -108.348)" fill="#ffb399"/>
    <path id="Caminho_62" data-name="Caminho 62" d="M1119.374,1340.229s-3.607,2.886-4.906,3.9-7.5,2.642-11.254,6.493-8.657,11.832-12.409,14.718-10.244,6.926-6.781,8.513,5.771.577,8.8.722,13.623.608,14.573.185c1.389-.618-.559-2.674-2.741-3.36-1.927-.605-8.8-2.02-7.936-3.319s15.286-11.543,20.268-15.15,12.774-8.513,12.774-8.513Z" transform="translate(0 -124.822)" fill="#ffb399"/>
    <path id="Caminho_63" data-name="Caminho 63" d="M1307.511,1305.589s3.767,1.686,5.174,4.491,4.112,21.094,4.329,24.232-4.926,1.193-8.034,0-4.086-.26-5.168-2.619-1.694-8.095-3.174-9.609a21.652,21.652,0,0,0-4.266-3.013v-6.16Z" transform="translate(-119.834 -105.364)" fill="#9bb080"/>
    <path id="Caminho_64" data-name="Caminho 64" d="M1189.527,1282.86c-4.969-1.67-16.172-2.613-18.913-1.97s-10.066,4.062-12.842,8.368-4.57,6.231-9.44,8.829-24.965,17.47-23.7,20.29c2.908,6.476,3.021,12.12,5.835,10.064,1.383-1.011,11.8-6,21.327-12.445,9.851-6.663,18.849-14.785,21.574-15.555,5.361-1.515,23.193,2.491,25.573,4.214,3.138,2.272,9.331-3.457,11.17-6.487s6.664-5.335-4.534-9.334C1198.261,1286.221,1192.737,1283.939,1189.527,1282.86Z" transform="translate(-23.332 -91.376)" fill="#9bb080"/>
    <path id="Caminho_65" data-name="Caminho 65" d="M1223.666,1304.764a18.259,18.259,0,0,1-9.571-12.38c-.09-.408-.716-.235-.626.173a18.9,18.9,0,0,0,9.87,12.767C1223.71,1305.514,1224.039,1304.954,1223.666,1304.764Z" transform="translate(-73.26 -97.816)" fill="#799957"/>
    <path id="Caminho_66" data-name="Caminho 66" d="M1218.662,1308.04a16.133,16.133,0,0,1-10.19-9.586c-.149-.386-.777-.218-.626.173a16.83,16.83,0,0,0,10.643,10.039C1218.889,1308.793,1219.06,1308.166,1218.662,1308.04Z" transform="translate(-70.094 -101.234)" fill="#799957"/>
    <path id="Caminho_67" data-name="Caminho 67" d="M1209.267,1309.43a12.806,12.806,0,0,1-5.071-3.731c-.267-.322-.724.14-.459.459a13.447,13.447,0,0,0,5.357,3.9C1209.482,1310.213,1209.65,1309.585,1209.267,1309.43Z" transform="translate(-67.754 -105.364)" fill="#799957"/>
    <path id="Caminho_68" data-name="Caminho 68" d="M1269.312,1312.541l-29.31,3.283c-.411.046-.416.7,0,.649l29.31-3.283C1269.722,1313.144,1269.727,1312.495,1269.312,1312.541Z" transform="translate(-87.995 -109.268)" fill="#799957"/>
    <path id="Caminho_69" data-name="Caminho 69" d="M1291.649,1314.695l-14.19,1.841c-.409.053-.414.7,0,.649l14.19-1.841C1292.058,1315.291,1292.063,1314.641,1291.649,1314.695Z" transform="translate(-109.037 -110.477)" fill="#799957"/>
    <path id="Caminho_70" data-name="Caminho 70" d="M1308.982,1312.085a11.884,11.884,0,0,1-8.153,5.458c-.411.071-.237.7.173.626a12.507,12.507,0,0,0,8.541-5.755C1309.765,1312.058,1309.2,1311.731,1308.982,1312.085Z" transform="translate(-122.205 -108.927)" fill="#799957"/>
    <path id="Caminho_71" data-name="Caminho 71" d="M1186.212,1337.08a24.458,24.458,0,0,1-16.6,3.431c-.409-.062-.585.563-.173.626a25.156,25.156,0,0,0,17.1-3.5C1186.894,1337.421,1186.568,1336.859,1186.212,1337.08Z" transform="translate(-48.402 -123.025)" fill="#799957"/>
    <path id="Caminho_72" data-name="Caminho 72" d="M1331.972,1403.279a2.318,2.318,0,0,1-.691-3.425c.24-.343-.323-.668-.561-.328a2.966,2.966,0,0,0,.924,4.313A.325.325,0,0,0,1331.972,1403.279Z" transform="translate(-138.81 -158.05)" fill="#ff9074"/>
    <path id="Caminho_73" data-name="Caminho 73" d="M1105.688,1404.828c-.308-.282-.768.176-.459.459a1.446,1.446,0,0,1-.509,2.5c-.395.131-.226.758.173.626A2.1,2.1,0,0,0,1105.688,1404.828Z" transform="translate(-12.052 -161.059)" fill="#ff9074"/>
    <path id="Caminho_74" data-name="Caminho 74" d="M1134.106,1414.9a4.079,4.079,0,0,0-2.47-.617c-.414.029-.418.679,0,.649a3.477,3.477,0,0,1,2.143.529C1134.133,1415.683,1134.46,1415.121,1134.106,1414.9Z" transform="translate(-27.122 -166.414)" fill="#ff9074"/>
    <path id="Caminho_75" data-name="Caminho 75" d="M1323.163,1284.221a5,5,0,0,1,1.657,3.231c.084.528.18,1.1.277,1.7,1.09,6.653,2.748,17.24,2.78,20.032.053,4.16-.345,4.63-.007,7.545.332,2.885,2.895,15.554,2.62,16.63,0,.01,0,.02-.008.025-.522,1.378,4.732,2.117,4.9-.307a.029.029,0,0,0,0-.02c.15-2.194.372-12.366.15-16.163a55.018,55.018,0,0,0-.759-8.076c-.488-2.748.483-17.1-1.3-23.509C1333.28,1284.622,1323.163,1284.221,1323.163,1284.221Z" transform="translate(-134.883 -93.361)" fill="#ffb399"/>
    <path id="Caminho_76" data-name="Caminho 76" d="M1340.52,1335.135l1.9,2.673c.279.392-.344.8-.622.411l-1.9-2.673C1339.619,1335.153,1340.242,1334.744,1340.52,1335.135Z" transform="translate(-144.244 -121.872)" fill="#ff9074"/>
    <path id="Caminho_77" data-name="Caminho 77" d="M1306.1,1210.937s4.176-4.261,6.584-7.407c2.541-3.319,5.3-1.8,8.622,1.082s.664,6.349-1.645,9.956a79.161,79.161,0,0,1-4.963,6.817Z" transform="translate(-125.301 -46.977)" fill="#bd5b46"/>
    <path id="Caminho_78" data-name="Caminho 78" d="M1325.039,1264.616a37.485,37.485,0,0,1,2.171,5.568c.721,2.943,2.844,12.006,1.546,12.377s-3.29.077-6.9.582-4.5.547-5.439-1.833-5.205-8.972-5.493-9.663,8.018-6.822,8.307-6.967S1325.039,1264.616,1325.039,1264.616Z" transform="translate(-128.004 -82.336)" fill="#bd5b46"/>
    <path id="Caminho_79" data-name="Caminho 79" d="M1405.017,1120.657a16.086,16.086,0,0,0-4.487,4.371c-.238.344.324.67.561.328a15.255,15.255,0,0,1,4.254-4.139C1405.694,1120.991,1405.368,1120.428,1405.017,1120.657Z" transform="translate(-178.309 -1.454)" fill="#ff9074"/>
    <path id="Caminho_80" data-name="Caminho 80" d="M1327.269,1237.66c5.3-1.639,9.552-1.587,13.376-5.234,2.334-2.227,2.113-5.527-.794-11.642-1.082-2.277-13.4-.2-15.009,3.39a38,38,0,0,0-1.44,4.387c-.169.625-8.785,5.308-8.785,5.308s3.98,6.532,4.169,7.1S1326.1,1238.023,1327.269,1237.66Z" transform="translate(-130.082 -57.192)" fill="#ffb399"/>
    <path id="Caminho_81" data-name="Caminho 81" d="M1361.846,1230.514c.129,0,.168.121.194.232s.048.231-.057.3a1.6,1.6,0,0,1-1.133.248c-.181-.023-.29-.469-.153-.532A2.6,2.6,0,0,1,1361.846,1230.514Z" transform="translate(-155.932 -63.192)" fill="#75544b"/>
    <path id="Caminho_82" data-name="Caminho 82" d="M1359.191,1220.732c.132,0,.172.124.2.237s.049.237-.058.31a1.641,1.641,0,0,1-1.16.254c-.186-.024-.3-.48-.157-.546A2.666,2.666,0,0,1,1359.191,1220.732Z" transform="translate(-154.424 -57.698)" fill="#75544b"/>
    <path id="Caminho_83" data-name="Caminho 83" d="M1260.564,1219.689c-.508.721-11.687,8.8-20.561,15.511-5.592,4.228-15.661,9.306-16.578,10.317s-2.937,2.164.959,3.319,27.548,2.613,27.548,2.613,6.215,3.88,14.15-.593c6.653-3.75,10.2-8,9.052-11.463s-7.863-11.443-8.187-15.339S1260.564,1219.689,1260.564,1219.689Z" transform="translate(-78.102 -57.112)" fill="#bd5b46"/>
    <path id="Caminho_84" data-name="Caminho 84" d="M1234.293,1287.909a10.617,10.617,0,0,0-.225,13.307c.25.328.814,0,.561-.328a9.991,9.991,0,0,1,.124-12.52C1235.013,1288.045,1234.556,1287.583,1234.293,1287.909Z" transform="translate(-83.582 -95.37)" fill="#799957"/>
    <path id="Caminho_85" data-name="Caminho 85" d="M1262.453,1257.929c-.278-.312-.736.148-.459.459,4.058,4.557,11.334,7.534,12.084,14.3.046.411.7.415.649,0C1273.947,1265.644,1266.68,1262.676,1262.453,1257.929Z" transform="translate(-100.475 -78.534)" fill="#9e402c"/>
    <path id="Caminho_86" data-name="Caminho 86" d="M1290.823,1272.759c-.056-.412-.682-.237-.626.173a5.731,5.731,0,0,1-1.038,4.134,20.722,20.722,0,0,0-2.35-9.85c-.192-.371-.752-.043-.561.328a20,20,0,0,1,2.263,9.63.326.326,0,0,0,.547.231.352.352,0,0,0,.6.075A6.4,6.4,0,0,0,1290.823,1272.759Z" transform="translate(-114.125 -83.717)" fill="#9e402c"/>
    <path id="Caminho_87" data-name="Caminho 87" d="M1328.529,1268.776c.044-.415-.606-.412-.649,0-.5,4.769-6.195,7.087-9.786,9.274-.356.217-.03.779.328.561l.314-.189a.334.334,0,0,0,.316.55,10.607,10.607,0,0,0,5.627-3.288c.279-.309-.179-.77-.459-.459a10.031,10.031,0,0,1-5.341,3.121.286.286,0,0,0-.058.026C1322.652,1276.1,1328.007,1273.717,1328.529,1268.776Z" transform="translate(-131.949 -84.512)" fill="#9e402c"/>
    <path id="Caminho_88" data-name="Caminho 88" d="M1316.145,1265.7a20.845,20.845,0,0,1-12.589,10.724c-.368.113-.211.692.16.578a21.439,21.439,0,0,0,12.947-11C1316.832,1265.657,1316.316,1265.353,1316.145,1265.7Z" transform="translate(-123.751 -82.871)" fill="#9e402c"/>
    <path id="Caminho_89" data-name="Caminho 89" d="M1313.593,1235.607a12.106,12.106,0,0,0-9.357-1.569c-.407.095-.234.721.173.626a11.415,11.415,0,0,1,8.857,1.5C1313.619,1236.392,1313.945,1235.83,1313.593,1235.607Z" transform="translate(-124.12 -64.985)" fill="#9e402c"/>
    <path id="Caminho_90" data-name="Caminho 90" d="M1297.846,1239.367a23.853,23.853,0,0,0-14.869.649c-.387.146-.219.773.173.626a23.254,23.254,0,0,1,14.523-.649A.325.325,0,0,0,1297.846,1239.367Z" transform="translate(-112.186 -67.667)" fill="#9e402c"/>
    <path id="Caminho_91" data-name="Caminho 91" d="M1354.033,1222.7a6.16,6.16,0,0,0-2.258-.9,1.851,1.851,0,0,0-1.4.934c-.255.331.309.655.561.328.116-.15.358-.479.552-.547a1.3,1.3,0,0,1,.963.158c.422.188.838.391,1.256.586C1354.081,1223.436,1354.411,1222.876,1354.033,1222.7Z" transform="translate(-150.131 -58.298)" fill="#ff9074"/>
    <path id="Caminho_92" data-name="Caminho 92" d="M1361.129,1218.7s-1.406,2.543,0,4.49a5.1,5.1,0,0,1,0,5.514c-.7.816-2.88,1.9-3.983,2.981s-2.83,3.108-2.526,3.314,5.314-1.12,8.89-1.257c4.582-.176,5.62-3.184,5.411-6.986a15.749,15.749,0,0,0-1.515-6.658c-.852-1.607-3.679-3.058-6.114-2.9a6.98,6.98,0,0,0-3.7,1.2C1357.557,1218.409,1361.129,1218.7,1361.129,1218.7Z" transform="translate(-152.533 -55.709)" fill="#75544b"/>
    <path id="Caminho_93" data-name="Caminho 93" d="M1329.086,1242.945a9.319,9.319,0,0,0-.749,5.535c.6,2.922,3.309,5.195,4.225,4.815s1.511-2.329,1.511-2.329l-.179-3.677Z" transform="translate(-137.703 -70.176)" fill="#ffb399"/>
    <path id="Caminho_94" data-name="Caminho 94" d="M1343.514,1395.654s.052,5.5,2.883,6.341c2.979.887,5.935,2.343,6.774,3.174.713.708.025,1.1.025,1.1a6.22,6.22,0,0,0-1.113.668c-1.187.9-7.017-.523-5.985-.052s1.42,1.678-1.466,1.159-6.341-.617-6.874-1.984.863-10.106.863-10.106Z" transform="translate(-143.012 -155.956)" fill="#ffb399"/>
    <path id="Caminho_95" data-name="Caminho 95" d="M1336.358,1375.693c-.036-.413-.685-.417-.65,0a77.281,77.281,0,0,1-.42,17.228c-.056.409.57.585.626.173A78.038,78.038,0,0,0,1336.358,1375.693Z" transform="translate(-141.692 -144.568)" fill="#ff9074"/>
    <path id="Caminho_96" data-name="Caminho 96" d="M1362,1411.435l-7.92-4.813a.325.325,0,0,0-.328.561l7.92,4.813A.325.325,0,0,0,1362,1411.435Z" transform="translate(-151.978 -162.089)" fill="#ff9074"/>
    <path id="Caminho_97" data-name="Caminho 97" d="M1361.245,1416.357l-4.169-1.7c-.387-.157-.555.47-.173.626l4.169,1.7C1361.459,1417.141,1361.627,1416.513,1361.245,1416.357Z" transform="translate(-153.714 -166.618)" fill="#ff9074"/>
    <path id="Caminho_98" data-name="Caminho 98" d="M1346.972,1227.99a2.518,2.518,0,0,1-.734-2.114c.045-.415-.605-.412-.65,0a3.142,3.142,0,0,0,.924,2.573A.325.325,0,0,0,1346.972,1227.99Z" transform="translate(-147.469 -60.414)" fill="#ff9074"/>
    <path id="Caminho_99" data-name="Caminho 99" d="M1382.848,1242.228a2.257,2.257,0,1,1-2.2-2.76A2.529,2.529,0,0,1,1382.848,1242.228Z" transform="translate(-165.937 -68.223)" fill="#75544b"/>
    <path id="Caminho_100" data-name="Caminho 100" d="M1383.4,1229.329c0,2.276-.888,4.12-1.984,4.12s-1.984-1.845-1.984-4.12.888-4.12,1.984-4.12S1383.4,1227.054,1383.4,1229.329Z" transform="translate(-166.492 -60.213)" fill="#75544b"/>
    <path id="Caminho_101" data-name="Caminho 101" d="M1382.279,1234.057c0,1.957-1.257,3.543-2.808,3.543s-2.808-1.587-2.808-3.543,1.257-3.543,2.808-3.543S1382.279,1232.1,1382.279,1234.057Z" transform="translate(-164.935 -63.193)" fill="#75544b"/>
    <ellipse id="Elipse_10" data-name="Elipse 10" cx="3.407" cy="3.199" rx="3.407" ry="3.199" transform="translate(1209.232 1162.577)" fill="#75544b"/>
    <path id="Caminho_102" data-name="Caminho 102" d="M1361.516,1242.2s1.765.732.721,2.036c-.9,1.126-1.837,1.03-3.368.985s-1.574-1.785-1.574-1.785a27.891,27.891,0,0,1,2.177-1.816C1359.622,1241.622,1361.516,1242.2,1361.516,1242.2Z" transform="translate(-154.055 -69.432)" fill="#ffb399"/>
    <path id="Caminho_103" data-name="Caminho 103" d="M1338.436,1244.387a9.19,9.19,0,0,1-2.639-4.762c-.088-.409-.714-.236-.626.173a9.807,9.807,0,0,0,2.807,5.049C1338.278,1245.137,1338.737,1244.678,1338.436,1244.387Z" transform="translate(-141.623 -68.18)" fill="#ff9074"/>
  </g>
</svg>
