<svg xmlns="http://www.w3.org/2000/svg" width="181.294" height="570.943" viewBox="0 0 181.294 570.943">
  <g id="Grupo_390" data-name="Grupo 390" transform="translate(-2309.896 -449.241)">
    <g id="Grupo_344" data-name="Grupo 344">
      <path id="Caminho_936" data-name="Caminho 936" d="M2432.864,559.782c11.334,5.27,12.226,19.269,2.62,35.4s-29.487,45.939-40.24,54.757c-6.762-.659-27.145,4.572-24.682-10.218a28.088,28.088,0,0,1,3.61-5.86S2403.518,546.135,2432.864,559.782Z" fill="#ebc99f"/>
    </g>
    <g id="Grupo_345" data-name="Grupo 345">
      <path id="Caminho_937" data-name="Caminho 937" d="M2395.446,649.081a484.349,484.349,0,0,1-46.759,72.718c-5.977,3.739-9.1-2.19-9.831-5.776s22.825-76.706,44.763-87.5C2400.392,632.779,2395.446,649.081,2395.446,649.081Z" fill="#ebc99f"/>
    </g>
    <path id="Caminho_938" data-name="Caminho 938" d="M2431.2,555.4c-16.848-8.325-32.1,8.15-54.485,62.469,10.308,16.268,39.277,19.962,39.277,19.962S2460.321,569.827,2431.2,555.4Z" fill="#24c2bc"/>
    <g id="Grupo_346" data-name="Grupo 346">
      <path id="Caminho_939" data-name="Caminho 939" d="M2349.03,717.258a28.228,28.228,0,0,1,5.735,19.713c-.174,1.6-3.743,8.347-3.743,8.347s-3.491.437-.6-6.645c-1.389-2.007-4.212-10.191-4.212-10.191Z" fill="#ebc99f"/>
      <path id="Caminho_940" data-name="Caminho 940" d="M2343.35,742.052l-7.666,11.914a2.476,2.476,0,1,1-4.153-2.7l5.242-8.184a11.981,11.981,0,0,1-2.685-.749l-6.378,9.613a2.477,2.477,0,0,1-4.153-2.7l5.78-9.4q-1.051-.688-1.982-1.438l-5.316,8.556a2.476,2.476,0,1,1-4.153-2.7l6.021-9.641a10.323,10.323,0,0,1-.731-1.382l-5.2,7.412a2.476,2.476,0,1,1-3.74-3.246l9.351-12.192a16.034,16.034,0,0,1,.869-1.633c4.515-7.357,15.59-13.82,21.96-9.911s6.98,14.5,2.465,21.855C2347.63,737.569,2344.864,741.167,2343.35,742.052Z" fill="#ebc99f"/>
    </g>
    <g id="Grupo_364" data-name="Grupo 364">
      <g id="Grupo_347" data-name="Grupo 347">
        <path id="Caminho_941" data-name="Caminho 941" d="M2425.638,983.665s-2.181-11-5.633-25.976c-18.953-82.215-11.951-86.422-3.246-121.031-.41-.5-8.9-46.053-7.318-74.238,2.878-51.142,35.19-9.644,39.3,1.336s10.582-21.656,10.582-21.656c-.967,13.057,7.659,41.923-1.507,75.231l-.672-6.192c1.695,7.537.56,13.321-2.61,21.529h0c-1.332,32.833-12.922,114.874-17.519,163.7C2432.368,998.13,2425.638,983.665,2425.638,983.665Z" fill="#ffdaad"/>
      </g>
      <path id="Caminho_942" data-name="Caminho 942" d="M2418.142,949.485c.592,2.645,1.208,5.363,1.863,8.2,3.453,14.976,5.633,25.976,5.633,25.976s6.73,14.465,11.375,12.7c1.293-13.73,3.192-29.6,5.283-46.044C2435.219,955.606,2426.253,955.527,2418.142,949.485Z" fill="#c9ebff"/>
      <g id="Grupo_348" data-name="Grupo 348">
        <path id="Caminho_943" data-name="Caminho 943" d="M2463.291,685.07s-19.173-22.673-40.329-8.68c-9.716,6.426-31.8,35.095-13.1,67.461-1.019,28.372-.277,81.482-1.753,83.1,25.086,11.222,44.741,16.035,54.911,9.218,2.877-18.6,3.394-84.24,2.058-106.35C2463.951,711.163,2463.291,685.07,2463.291,685.07Z" fill="#3b3b3b"/>
      </g>
      <g id="Grupo_349" data-name="Grupo 349" style="mix-blend-mode: multiply;isolation: isolate">
        <path id="Caminho_944" data-name="Caminho 944" d="M2454.532,832.668c-4.981,4.3-7.449,6.54-11.537,4.213,4.9,6.317,11.444-.054,11.444-.054Z" fill="#ededed"/>
      </g>
      <g id="Grupo_363" data-name="Grupo 363">
        <g id="Grupo_350" data-name="Grupo 350" style="mix-blend-mode: multiply;isolation: isolate">
          <path id="Caminho_945" data-name="Caminho 945" d="M2436.86,1001.9c.853-2.727,1.662-5.516,2.449-8.332-4.822-2.354-9.537,3.666-10.925,2.764-4.556-2.965-3.455-10.507-6.92-9.948h0c-.242,2.442-.506,3.993-.506,3.993S2432.216,1003.662,2436.86,1001.9Z" fill="#d9d9d9"/>
        </g>
        <g id="Grupo_362" data-name="Grupo 362">
          <g id="Grupo_351" data-name="Grupo 351">
            <path id="Caminho_946" data-name="Caminho 946" d="M2419.517,997.638s-2.141,1.658-3.1,7.681c-.314,1.97,1.018,5.36,9.254,4.577,14.885-1.415,21.73.234,49.666,1.7,14.02.735,15.765-12.33,15.765-12.33s-3.916.889-14,.088-12.678-1.248-29.112-3.326-25.023-3.538-25.794-3.676S2419.517,997.638,2419.517,997.638Z" fill="#24c2bc"/>
          </g>
          <g id="Grupo_352" data-name="Grupo 352">
            <path id="Caminho_947" data-name="Caminho 947" d="M2421.564,976.37c-4.995,3-9.823,17.475-3.727,26.341,7.732,2.314,14.718-1.078,26.008.437,11.038,1.481,32.535,5.3,43.454,1.524,3.893-1.491,5.887-6.954,1.027-9.211-6.519-3.028-35.345-11.546-42.907-19.637,0,0-2.676-4.276-6.241-2.692s-2.542,5.7-2.05,6.151c-1.133.878-7.918,2.876-10.374.7S2424.275,974.74,2421.564,976.37Z" fill="#4d4d4d"/>
          </g>
          <g id="Grupo_353" data-name="Grupo 353">
            <path id="Caminho_948" data-name="Caminho 948" d="M2445.419,975.824s-2.676-4.276-6.241-2.692c-1.949.866-2.792,2.133-2.815,3.5a4.211,4.211,0,0,0,.765,2.65s12.372,11.706,21.121,12.2c5.528.315,7.69-1.9,8.758-4.026C2458.634,984.054,2449.47,980.158,2445.419,975.824Z" fill="#24c2bc"/>
          </g>
          <g id="Grupo_355" data-name="Grupo 355">
            <g id="Grupo_354" data-name="Grupo 354">
              <path id="Caminho_949" data-name="Caminho 949" d="M2449.709,985.5a.49.49,0,0,1-.5-.368,4.193,4.193,0,0,1,.442-3.6,4.457,4.457,0,0,1,3.03-1.619.49.49,0,0,1,.076.977,3.5,3.5,0,0,0-2.314,1.218,3.281,3.281,0,0,0-.286,2.786.489.489,0,0,1-.354.595A.456.456,0,0,1,2449.709,985.5Z" fill="#fff"/>
            </g>
          </g>
          <g id="Grupo_357" data-name="Grupo 357">
            <g id="Grupo_356" data-name="Grupo 356">
              <path id="Caminho_950" data-name="Caminho 950" d="M2445.374,982.593a.49.49,0,0,1-.5-.369,4.193,4.193,0,0,1,.443-3.6,4.456,4.456,0,0,1,3.03-1.619.49.49,0,0,1,.076.977,3.492,3.492,0,0,0-2.315,1.218,3.284,3.284,0,0,0-.285,2.786.489.489,0,0,1-.354.595A.466.466,0,0,1,2445.374,982.593Z" fill="#fff"/>
            </g>
          </g>
          <g id="Grupo_359" data-name="Grupo 359">
            <g id="Grupo_358" data-name="Grupo 358">
              <path id="Caminho_951" data-name="Caminho 951" d="M2454.549,988.175a.49.49,0,0,1-.5-.368,4.192,4.192,0,0,1,.442-3.6,4.452,4.452,0,0,1,3.03-1.619.489.489,0,0,1,.077.976h0a3.505,3.505,0,0,0-2.315,1.219,3.278,3.278,0,0,0-.285,2.786.49.49,0,0,1-.354.6A.471.471,0,0,1,2454.549,988.175Z" fill="#fff"/>
            </g>
          </g>
          <g id="Grupo_361" data-name="Grupo 361">
            <g id="Grupo_360" data-name="Grupo 360">
              <path id="Caminho_952" data-name="Caminho 952" d="M2459.461,990.419a.49.49,0,0,1-.5-.368,4.189,4.189,0,0,1,.443-3.6,4.456,4.456,0,0,1,3.029-1.619.5.5,0,0,1,.526.451.49.49,0,0,1-.449.526,3.5,3.5,0,0,0-2.315,1.218,3.277,3.277,0,0,0-.285,2.786.49.49,0,0,1-.354.6A.466.466,0,0,1,2459.461,990.419Z" fill="#fff"/>
            </g>
          </g>
        </g>
        <path id="Caminho_953" data-name="Caminho 953" d="M2470.149,988.655c-.224,4.172-10.707,10.7-23.637,3,12.252,8.5,23.676,7.35,31.905.047C2476.11,990.867,2470.149,988.655,2470.149,988.655Z" fill="#24c2bc"/>
        <path id="Caminho_954" data-name="Caminho 954" d="M2415.692,986.67c9.105.748,16.415,7.486,16.1,16.357-2.554,1.892-3.736.327-3.736.327s-.941-11.438-12.948-13.173A11.439,11.439,0,0,1,2415.692,986.67Z" fill="#24c2bc"/>
        <path id="Caminho_955" data-name="Caminho 955" d="M2480.707,992.532a17.476,17.476,0,0,1-13.2,6.186c6.93,1.159,13.514-.568,16.713-4.9C2483.154,993.423,2480.707,992.532,2480.707,992.532Z" fill="#24c2bc"/>
      </g>
    </g>
    <path id="Caminho_956" data-name="Caminho 956" d="M2442.855,842.583l-12.532,139.9s13.285-89.442,12.388-98.36,4.173-45.1,4.173-45.1Z" fill="#d9d9d9" style="mix-blend-mode: multiply;isolation: isolate"/>
    <g id="Grupo_365" data-name="Grupo 365">
      <path id="Caminho_957" data-name="Caminho 957" d="M2417.009,993.3s-2.412-10.951-6.18-25.851c-20.683-81.8-13.771-86.151-5.8-120.935-.42-.491-9.873-45.856-8.882-74.068,1.8-51.191,34.979-10.384,39.318.507s22.983-56.176,22.983-56.176c-.692,13.074-4.319,76.053-12.78,109.547l-.8-6.176c1.854,7.5.841,13.306-2.155,21.579h0c-.639,32.854-10.5,115.121-14.062,164.03C2424.043,1007.619,2417.009,993.3,2417.009,993.3Z" fill="#ffdaad"/>
    </g>
    <path id="Caminho_958" data-name="Caminho 958" d="M2408.793,959.285c.648,2.631,1.321,5.336,2.036,8.163,3.768,14.9,6.18,25.851,6.18,25.851s7.034,14.32,11.64,12.458c1-13.754,2.567-29.658,4.311-46.145C2426,965.044,2417.031,965.155,2408.793,959.285Z" fill="#c9ebff"/>
    <g id="Grupo_366" data-name="Grupo 366">
      <path id="Caminho_959" data-name="Caminho 959" d="M2461.7,686.362s-32.987-14.649-53.844-.213c-9.578,6.63-31.056,35.758-11.674,67.722-.42,28.388,1.442,81.47,0,83.121,25.317,10.69,52.048,7.038,62.071.009,2.485-18.66,4.693-95.927,5.961-113.445C2465.559,704.913,2461.7,686.362,2461.7,686.362Z" fill="#4d4d4d"/>
    </g>
    <path id="Caminho_960" data-name="Caminho 960" d="M2388.365,722.536c-.215,3,73.168,20.364,75.115,14.67l.565-12.678s-34.971.135-46.178,0S2388.365,722.536,2388.365,722.536Z" fill="#d9d9d9" style="mix-blend-mode: multiply;isolation: isolate"/>
    <path id="Caminho_961" data-name="Caminho 961" d="M2396.581,687.112l10.6,10.749s1.49,15.585,19.015,13.032a38.178,38.178,0,0,1,8.821,2.377s1.581,7.368,5.715,5.885c-3.351-7.294-.533-7.57-4.143-9.017s-2.2-.461-4.667-1.834.17-.493-5.726-3.135-9.418-4.754-11.795-7.924-4.051-3.923-4.051-3.923Z" fill="#d9d9d9" style="mix-blend-mode: multiply;isolation: isolate"/>
    <g id="Grupo_367" data-name="Grupo 367" style="mix-blend-mode: multiply;isolation: isolate">
      <path id="Caminho_962" data-name="Caminho 962" d="M2442.711,841.726c-4.889,4.406-7.309,6.7-11.445,4.455,5.033,6.213,11.44-.294,11.44-.294Z" fill="#ededed"/>
    </g>
    <g id="Grupo_381" data-name="Grupo 381">
      <g id="Grupo_368" data-name="Grupo 368" style="mix-blend-mode: multiply;isolation: isolate">
        <path id="Caminho_963" data-name="Caminho 963" d="M2428.613,1011.291c.795-2.744,1.545-5.549,2.272-8.381-4.87-2.252-9.457,3.866-10.863,2.993-4.618-2.867-3.676-10.431-7.129-9.8h0c-.191,2.446-.421,4-.421,4S2424.007,1013.153,2428.613,1011.291Z" fill="#d9d9d9"/>
      </g>
      <g id="Grupo_380" data-name="Grupo 380">
        <g id="Grupo_369" data-name="Grupo 369">
          <path id="Caminho_964" data-name="Caminho 964" d="M2411.184,1007.4s-2.1,1.7-2.936,7.744c-.272,1.977,1.132,5.338,9.349,4.382,14.853-1.729,21.73-.225,49.691.649,14.033.438,15.5-12.661,15.5-12.661s-3.9.972-14,.384-12.7-.981-29.176-2.711-25.093-3.009-25.866-3.132S2411.184,1007.4,2411.184,1007.4Z" fill="#24c2bc"/>
        </g>
        <g id="Grupo_370" data-name="Grupo 370">
          <path id="Caminho_965" data-name="Caminho 965" d="M2412.782,986.092c-4.931,3.108-9.452,17.678-3.171,26.413,7.779,2.151,14.692-1.387,26.012-.111,11.066,1.247,32.639,4.609,43.476.607,3.861-1.573,5.739-7.077.833-9.231-6.581-2.89-35.581-10.8-43.312-18.728,0,0-2.766-4.218-6.3-2.559s-2.421,5.757-1.919,6.193c-1.114.9-7.856,3.042-10.357.923S2415.458,984.405,2412.782,986.092Z" fill="#4d4d4d"/>
        </g>
        <g id="Grupo_371" data-name="Grupo 371">
          <path id="Caminho_966" data-name="Caminho 966" d="M2436.62,985.042s-2.766-4.218-6.3-2.559c-1.93.906-2.746,2.191-2.74,3.559a4.215,4.215,0,0,0,.821,2.634s12.616,11.442,21.374,11.756c5.533.2,7.647-2.059,8.671-4.21C2450,992.992,2440.761,989.29,2436.62,985.042Z" fill="#24c2bc"/>
        </g>
        <g id="Grupo_373" data-name="Grupo 373">
          <g id="Grupo_372" data-name="Grupo 372">
            <path id="Caminho_967" data-name="Caminho 967" d="M2441.114,994.63a.489.489,0,0,1-.506-.358,4.192,4.192,0,0,1,.367-3.611,4.449,4.449,0,0,1,2.994-1.682.489.489,0,0,1,.1.974,3.5,3.5,0,0,0-2.288,1.268,3.279,3.279,0,0,0-.226,2.791.49.49,0,0,1-.342.6A.461.461,0,0,1,2441.114,994.63Z" fill="#fff"/>
          </g>
        </g>
        <g id="Grupo_375" data-name="Grupo 375">
          <g id="Grupo_374" data-name="Grupo 374">
            <path id="Caminho_968" data-name="Caminho 968" d="M2436.718,991.811a.489.489,0,0,1-.505-.358,4.189,4.189,0,0,1,.366-3.611,4.449,4.449,0,0,1,2.995-1.682.489.489,0,0,1,.1.974,3.5,3.5,0,0,0-2.289,1.268,3.279,3.279,0,0,0-.226,2.791.49.49,0,0,1-.341.6A.462.462,0,0,1,2436.718,991.811Z" fill="#fff"/>
          </g>
        </g>
        <g id="Grupo_377" data-name="Grupo 377">
          <g id="Grupo_376" data-name="Grupo 376">
            <path id="Caminho_969" data-name="Caminho 969" d="M2446.008,997.2a.491.491,0,0,1-.505-.358,4.2,4.2,0,0,1,.366-3.612,4.449,4.449,0,0,1,3-1.682.489.489,0,0,1,.1.974h0a3.507,3.507,0,0,0-2.288,1.267,3.279,3.279,0,0,0-.227,2.792.49.49,0,0,1-.341.6A.549.549,0,0,1,2446.008,997.2Z" fill="#fff"/>
          </g>
        </g>
        <g id="Grupo_379" data-name="Grupo 379">
          <g id="Grupo_378" data-name="Grupo 378">
            <path id="Caminho_970" data-name="Caminho 970" d="M2450.967,999.338a.489.489,0,0,1-.506-.358,4.192,4.192,0,0,1,.367-3.611,4.449,4.449,0,0,1,3-1.682.5.5,0,0,1,.535.439.491.491,0,0,1-.439.536,3.5,3.5,0,0,0-2.288,1.267,3.28,3.28,0,0,0-.226,2.791.49.49,0,0,1-.342.6A.461.461,0,0,1,2450.967,999.338Z" fill="#fff"/>
          </g>
        </g>
      </g>
      <path id="Caminho_971" data-name="Caminho 971" d="M2461.615,997.349c-.136,4.175-10.478,10.926-23.569,3.5,12.429,8.237,23.827,6.849,31.9-.626C2467.621,999.435,2461.615,997.349,2461.615,997.349Z" fill="#24c2bc"/>
      <path id="Caminho_972" data-name="Caminho 972" d="M2407.129,996.513c9.118.556,16.569,7.138,16.438,16.014-2.514,1.946-3.728.406-3.728.406s-1.183-11.415-13.223-12.9A11.4,11.4,0,0,1,2407.129,996.513Z" fill="#24c2bc"/>
      <path id="Caminho_973" data-name="Caminho 973" d="M2472.253,1001a17.477,17.477,0,0,1-13.069,6.463c6.953,1.013,13.5-.852,16.606-5.253C2474.718,1001.841,2472.253,1001,2472.253,1001Z" fill="#24c2bc"/>
    </g>
    <g id="Grupo_383" data-name="Grupo 383">
      <g id="Grupo_382" data-name="Grupo 382">
        <path id="Caminho_974" data-name="Caminho 974" d="M2441.143,579.725l6.441-23.408c-2.278-7.541-4.607-13.189-6.316-18.15,3.152.405,15.357,1.051,22.055-2.247,2.329-2,.979-7.578,1.007-9.843s1-2.622,1.164-4.269-2.082-1.829-2.082-1.829,2.741-1.449,3.012-2.685-1.214-2.879-1.563-5.04,5.074-2.369,5.376-4.475c.467-3.253-11.466-13.039-8.637-18.139,2.3-4.139-7.2-21.29-7.2-21.29a6.3,6.3,0,0,0,2.136-4.292c.12-6.315-15.355-10.909-27.159-10.328s-38.408,10.619-38.335,36.769c.065,23.388,18.936,36.985,22.517,41.162,2.967,3.462-1.109,21.293-7.21,28.786C2422.143,549.495,2441.143,579.725,2441.143,579.725Z" fill="#ffdaad"/>
      </g>
    </g>
    <path id="Caminho_975" data-name="Caminho 975" d="M2466.3,516.154c-1.637.186-10.039,5.533-10.039,5.533a31.664,31.664,0,0,0,7.15-1.708C2466.029,518.815,2467.036,516.923,2466.3,516.154Z" fill="#f7f4eb" style="mix-blend-mode: multiply;isolation: isolate"/>
    <g id="Grupo_384" data-name="Grupo 384">
      <path id="Caminho_976" data-name="Caminho 976" d="M2412.343,502.447c4.364-3.78,6.648-2.719,11.87,4.3-3.793-7.287,2.873-14.318,4.386-15.137s.614-8.585-2.253-13.81c4.134-5.341,28.05-9.372,28.05-9.372a6.3,6.3,0,0,0,2.16-4.28c.157-6.314-15.292-11-27.1-10.484s-42.873,8.369-42.953,34.519c-.075,24.914,23.133,39.133,26.69,43.331a10.627,10.627,0,0,1,1.1,2.154C2415.651,521.511,2406.09,507.863,2412.343,502.447Z" fill="#7d5137"/>
    </g>
    <g id="Grupo_385" data-name="Grupo 385">
      <path id="Caminho_977" data-name="Caminho 977" d="M2458.506,490.217a4.541,4.541,0,0,0-.359-2.882s-13.453,1.565-16.523,5.883C2444.97,491,2458.506,490.217,2458.506,490.217Z" fill="#7d5137"/>
    </g>
    <path id="Caminho_978" data-name="Caminho 978" d="M2410.349,509.958c.583,6.077,9.625,13.555,9.625,13.555l-5.7,10.2s-2.045-10.383-2.357-11.716S2410.349,509.958,2410.349,509.958Z" fill="#7d5137"/>
    <path id="Caminho_979" data-name="Caminho 979" d="M2466.243,517.722c-3.162,1.026-9.981,3.965-9.981,3.965,1.849.042,4.6-.827,7.15-1.708A9.692,9.692,0,0,0,2466.243,517.722Z" fill="#fffcf2" style="mix-blend-mode: multiply;isolation: isolate"/>
    <path id="Caminho_980" data-name="Caminho 980" d="M2413.886,516.2c1.864,3.863,10.23,11.559,12.219,1.912C2424.643,521.3,2418.7,523.4,2413.886,516.2Z" fill="#e0e0e0" style="mix-blend-mode: multiply;isolation: isolate"/>
    <path id="Caminho_981" data-name="Caminho 981" d="M2421.577,509.8c.7-3.272-2.724-7.3-5.472-7.041s-6.649,2.893-4.331,10.53c-1.4-3.767.583-10.187,4.507-9.71s3.477,7.908,3.477,7.908,2.736-.563,3.752.781A2.358,2.358,0,0,0,2421.577,509.8Z" fill="#ededed" style="mix-blend-mode: multiply;isolation: isolate"/>
    <path id="Caminho_982" data-name="Caminho 982" d="M2456.345,464.744c1.959-5.164-4.309-9.94-9.841-12.068,2.509,1.819.061,1.392-4.691-1.047s-14.923-2.69-17.375-2.152c7.169.981-14.91.854-21.186,5.365,4.046-.488-9.437,6.506-11.894,16.136C2422.732,476.119,2456.345,464.744,2456.345,464.744Z" fill="#7d5137"/>
    <path id="Caminho_983" data-name="Caminho 983" d="M2426.231,522.422s1.5,8.991,4.513,11.563,10.524,4.182,10.524,4.182,1.976,5.582,3.213,8.842c-4.114-4.683-5.24-6.292-5.24-6.292s-8.454-.77-11.02-5.091S2426.231,522.422,2426.231,522.422Z" fill="#e0e0e0" style="mix-blend-mode: multiply;isolation: isolate"/>
    <path id="Caminho_984" data-name="Caminho 984" d="M2459.151,523.406c2.216.894,5.734-.033,5.734-.033a4.769,4.769,0,0,0-.516,3.532C2463.611,524.484,2459.151,523.406,2459.151,523.406Z" fill="#e8e8e8" style="mix-blend-mode: multiply;isolation: isolate"/>
    <g id="Grupo_386" data-name="Grupo 386">
      <path id="Caminho_985" data-name="Caminho 985" d="M2387.4,722.362c43.89,11.165,76.644,2.166,76.644,2.166s3.617-49.635,4.511-61.855c1.251-21.415,6.261-30.716,4.713-43.359,4.819-18.973-20.35-53.218-25.685-63,0,0-4.242,23.172-39.416-2.6,0,0-12.357,12.24-13.692,16.055-9.336,26.7,6.95,51.812,6.214,85.361C2400.444,666.315,2387.4,708.316,2387.4,722.362Z" fill="#24c2bc"/>
    </g>
    <path id="Caminho_986" data-name="Caminho 986" d="M2453.9,470.361a40.539,40.539,0,0,1-15.982,22.645c.535-2.488-.33-3.59-.33-3.59s-6.851,14.729-13.373,17.329c-1.95-2.453-4.649-7.562-4.828-8.992s-1.675-12.38.841-16.448,3.72-8.941,8.263-11.327,20.958-7.593,22.91-7.475S2453.9,470.361,2453.9,470.361Z" fill="#7d5137"/>
    <path id="Caminho_987" data-name="Caminho 987" d="M2447.774,467.861c6.107,5.761,11.049,9.078,11.861,11.313,0,0,7.483-5.479,2.06-14.694s-10.485-9.035-10.485-9.035-8.335,2.317-8.133,3.926S2447.774,467.861,2447.774,467.861Z" fill="#7d5137"/>
    <path id="Caminho_988" data-name="Caminho 988" d="M2413.034,544.347s31.47,14.654,34.713,12.011c1.561,3.844,7.206,15.856,7.206,15.856l-11.29-3-19.4,1.011-11.051-6.607,2.224-12.061-16.756,12.432S2411.592,545.548,2413.034,544.347Z" fill="#24c2bc"/>
    <g id="Grupo_387" data-name="Grupo 387">
      <path id="Caminho_989" data-name="Caminho 989" d="M2412.74,551.513c11.758,4.242,13.89,18.107,5.756,35.027s-25.289,48.377-35.215,58.116c-6.794-.055-26.631,6.966-25.493-7.983a28.12,28.12,0,0,1,3.075-6.158S2382.3,540.529,2412.74,551.513Z" fill="#ffdaad"/>
    </g>
    <g id="Grupo_388" data-name="Grupo 388">
      <path id="Caminho_990" data-name="Caminho 990" d="M2383.406,643.784a484.423,484.423,0,0,1-40.111,76.586c-5.622,4.256-9.26-1.372-10.306-4.879s15.918-78.431,36.809-91.134C2386.884,627.108,2383.406,643.784,2383.406,643.784Z" fill="#ffdaad"/>
    </g>
    <path id="Caminho_991" data-name="Caminho 991" d="M2425.826,561.5s11.311,22.151-16.339,76.507c-8.169-1.257-10.525-5.184-10.525-5.184l6.912-48.229Z" fill="#e0e0e0" style="mix-blend-mode: multiply;isolation: isolate"/>
    <path id="Caminho_992" data-name="Caminho 992" d="M2417.057,551.156c-16.849-8.326-32.1,8.149-54.485,62.468,10.307,16.268,39.276,19.963,39.276,19.963S2446.182,565.586,2417.057,551.156Z" fill="#24c2bc"/>
    <g id="Grupo_389" data-name="Grupo 389">
      <path id="Caminho_993" data-name="Caminho 993" d="M2343.232,715.816a28.231,28.231,0,0,1,7.465,19.127c-.031,1.609-2.986,8.645-2.986,8.645s-3.439.746-1.19-6.564c-1.562-1.876-5.1-9.777-5.1-9.777Z" fill="#ffdaad"/>
      <path id="Caminho_994" data-name="Caminho 994" d="M2339.778,741.018l-6.576,12.548a2.477,2.477,0,0,1-4.377-2.319l4.494-8.617a11.924,11.924,0,0,1-2.74-.508l-5.5,10.142a2.476,2.476,0,1,1-4.376-2.319l4.922-9.871q-1.109-.592-2.1-1.257l-4.535,8.995a2.476,2.476,0,0,1-4.376-2.318l5.14-10.138a10.332,10.332,0,0,1-.85-1.312l-4.524,7.846a2.476,2.476,0,0,1-4.014-2.9l8.23-12.976a16.294,16.294,0,0,1,.721-1.7c3.843-7.729,14.3-15.151,20.992-11.824s8.241,13.821,4.4,21.55C2343.644,736.172,2341.208,740,2339.778,741.018Z" fill="#ffdaad"/>
    </g>
    <path id="Caminho_995" data-name="Caminho 995" d="M2328.921,750.919h0a2.253,2.253,0,0,0,2.992-1.093L2336.3,738.7c.525-1.128.716-2.528-.412-3.053h0c-1.128-.524-2.293.52-2.818,1.648l-5.242,10.629A2.252,2.252,0,0,0,2328.921,750.919Z" fill="#ebc99f"/>
    <path id="Caminho_996" data-name="Caminho 996" d="M2320.911,746.36h0a2.253,2.253,0,0,0,3.149-.48l6.5-10.038c.737-1,1.2-2.337.2-3.074h0c-1-.736-2.351.057-3.088,1.059l-7.238,9.384A2.253,2.253,0,0,0,2320.911,746.36Z" fill="#ebc99f"/>
    <path id="Caminho_997" data-name="Caminho 997" d="M2316.7,742.741h0a2.253,2.253,0,0,0,3.035-.967l4.847-10.932c.571-1.1.82-2.5-.285-3.066h0c-1.1-.571-2.312.423-2.883,1.528l-5.68,10.4A2.253,2.253,0,0,0,2316.7,742.741Z" fill="#ebc99f"/>
    <path id="Caminho_998" data-name="Caminho 998" d="M2311.905,735.008h0a1.85,1.85,0,0,0,2.615-.092l6.259-7.572c.7-.747,1.2-1.792.454-2.489h0c-.747-.7-1.923-.178-2.62.57l-6.8,6.968A1.849,1.849,0,0,0,2311.905,735.008Z" fill="#ebc99f"/>
  </g>
</svg>
