<svg xmlns="http://www.w3.org/2000/svg" width="430.629" height="125.373" viewBox="0 0 430.629 125.373">
  <g id="Grupo_595" data-name="Grupo 595" transform="translate(-706.806 -1599.162)">
    <g id="Grupo_567" data-name="Grupo 567">
      <g id="Grupo_554" data-name="Grupo 554" style="mix-blend-mode: multiply;isolation: isolate">
        <path id="Caminho_1188" data-name="Caminho 1188" d="M1101.272,1670.579c-1.476,2.368-3.026,4.745-4.609,7.122-4.816-2.071-3.363-9.4-4.915-9.851-5.1-1.485-9.982,4.136-11.777,1.214h0c1.654-1.735,2.634-2.918,2.634-2.918S1099.619,1666.015,1101.272,1670.579Z" fill="#d9d9d9"/>
      </g>
      <g id="Grupo_566" data-name="Grupo 566">
        <g id="Grupo_555" data-name="Grupo 555">
          <path id="Caminho_1189" data-name="Caminho 1189" d="M1087.066,1660.45s-.137-2.642,3.713-7.189c1.26-1.488,4.619-2.661,9.287,3.936,8.437,11.925,14.02,15.943,32.906,35.7,9.477,9.914.914,19.531.914,19.531s-1.837-3.466-8.856-10.424-9-8.594-21.014-19.439-18.566-16.276-19.16-16.758S1087.066,1660.45,1087.066,1660.45Z" fill="#24c2bc"/>
        </g>
        <g id="Grupo_556" data-name="Grupo 556">
          <path id="Caminho_1190" data-name="Caminho 1190" d="M1072.621,1675.518c-.958-5.613,6.681-18.409,17.131-19.545,6.641,4.251,8.581,11.586,16.9,18.981,8.131,7.23,24.655,20.718,28.82,31.208,1.376,3.833-1.4,8.79-6.167,6.63-6.4-2.9-31.073-18.816-41.884-19.261,0,0-4.871.743-5.97-2.906s2.6-5.518,3.249-5.438c-.072-1.4-2.916-7.7-6.089-8.131S1073.141,1678.565,1072.621,1675.518Z" fill="#4d4d4d"/>
        </g>
        <g id="Grupo_557" data-name="Grupo 557">
          <path id="Caminho_1191" data-name="Caminho 1191" d="M1087.417,1693.531s-4.871.743-5.97-2.906c-.6-1.995-.2-3.426.8-4.315a4.121,4.121,0,0,1,2.45-1.123s16.552,1.7,22.5,7.864c3.755,3.893,3.494,6.9,2.6,9.051C1101.933,1698.073,1093.208,1693.769,1087.417,1693.531Z" fill="#24c2bc"/>
        </g>
        <g id="Grupo_559" data-name="Grupo 559">
          <g id="Grupo_558" data-name="Grupo 558">
            <path id="Caminho_1192" data-name="Caminho 1192" d="M1097.32,1690.54a.478.478,0,0,0-.59-.134,4.094,4.094,0,0,0-2.386,2.624,4.347,4.347,0,0,0,.732,3.275.478.478,0,0,0,.771-.566,3.422,3.422,0,0,1-.572-2.491,3.208,3.208,0,0,1,1.881-1.986.478.478,0,0,0,.215-.641A.472.472,0,0,0,1097.32,1690.54Z" fill="#fff"/>
          </g>
        </g>
        <g id="Grupo_561" data-name="Grupo 561">
          <g id="Grupo_560" data-name="Grupo 560">
            <path id="Caminho_1193" data-name="Caminho 1193" d="M1092.4,1689.185a.478.478,0,0,0-.59-.134,4.092,4.092,0,0,0-2.386,2.623,4.343,4.343,0,0,0,.732,3.275.478.478,0,0,0,.771-.565,3.42,3.42,0,0,1-.572-2.491,3.2,3.2,0,0,1,1.881-1.986.478.478,0,0,0,.164-.722Z" fill="#fff"/>
          </g>
        </g>
        <g id="Grupo_563" data-name="Grupo 563">
          <g id="Grupo_562" data-name="Grupo 562">
            <path id="Caminho_1194" data-name="Caminho 1194" d="M1102.382,1692.422a.479.479,0,0,0-.591-.134,4.093,4.093,0,0,0-2.385,2.623,4.345,4.345,0,0,0,.731,3.275.478.478,0,0,0,.772-.565h0a3.424,3.424,0,0,1-.573-2.491,3.2,3.2,0,0,1,1.882-1.986.479.479,0,0,0,.215-.641A.5.5,0,0,0,1102.382,1692.422Z" fill="#fff"/>
          </g>
        </g>
        <g id="Grupo_565" data-name="Grupo 565">
          <g id="Grupo_564" data-name="Grupo 564">
            <path id="Caminho_1195" data-name="Caminho 1195" d="M1107.173,1694.629a.477.477,0,0,0-.59-.133,4.093,4.093,0,0,0-2.385,2.623,4.352,4.352,0,0,0,.731,3.275.491.491,0,0,0,.669.1.479.479,0,0,0,.1-.668,3.416,3.416,0,0,1-.572-2.49,3.2,3.2,0,0,1,1.881-1.987.478.478,0,0,0,.215-.641A.489.489,0,0,0,1107.173,1694.629Z" fill="#fff"/>
          </g>
        </g>
      </g>
      <path id="Caminho_1196" data-name="Caminho 1196" d="M1112.678,1703.669c2.946-2.825,1.1-14.749-12.839-19.418,14.1,3.659,20.53,12.85,20.366,23.6C1118.114,1706.673,1112.678,1703.669,1112.678,1703.669Z" fill="#24c2bc"/>
      <path id="Caminho_1197" data-name="Caminho 1197" d="M1076.507,1664.607c6.355,6.265,16,7.385,22.37,1.5-.227-3.1-2.139-2.975-2.139-2.975s-9.069,6.591-18.005-1.194A11.156,11.156,0,0,0,1076.507,1664.607Z" fill="#24c2bc"/>
      <path id="Caminho_1198" data-name="Caminho 1198" d="M1122.277,1709.016a17.076,17.076,0,0,0-3.833-13.718c5.275,4.394,8.192,10.369,7.021,15.5C1124.5,1710.261,1122.277,1709.016,1122.277,1709.016Z" fill="#24c2bc"/>
    </g>
    <g id="Grupo_570" data-name="Grupo 570">
      <g id="Grupo_568" data-name="Grupo 568">
        <path id="Caminho_1199" data-name="Caminho 1199" d="M950.764,1613.612c-7.928-9.887-25.837-1.774-39.4,11.581s-57.427,54.551-58.192,68.629c-.373,6.879,7.066,18.056,20.089,10.217C876.74,1701.946,971.292,1639.21,950.764,1613.612Z" fill="#f0cda3"/>
      </g>
      <g id="Grupo_569" data-name="Grupo 569">
        <path id="Caminho_1200" data-name="Caminho 1200" d="M862.913,1686.2s-34.3,6.079-77.905,24.149c-5.278,4.821-6.341,7.521-3.037,9.21s79.853-1.8,96.363-20.291C878.737,1681.726,862.913,1686.2,862.913,1686.2Z" fill="#f0cda3"/>
      </g>
      <path id="Caminho_1201" data-name="Caminho 1201" d="M790.367,1710.183s-.23-.079-.659-.213a75.788,75.788,0,0,0-20.492-3.283c-11.252-.1-33.336,8.476-38.31,9.591-.027,2.978,3.287,2.511,6.768,1.879-2.495,1.468-3.824,1.952.8,2.49s21.03-1.606,26.173-3.064,6.515,9.8,27.123.719C800.684,1709.644,790.367,1710.183,790.367,1710.183Z" fill="#f0cda3"/>
      <path id="Caminho_1202" data-name="Caminho 1202" d="M737.674,1718.157s19.485-7.824,25.337-8.435C757.054,1709.78,739.794,1715.472,737.674,1718.157Z" fill="#e8e8e8" style="mix-blend-mode: multiply;isolation: isolate"/>
    </g>
    <path id="Caminho_1203" data-name="Caminho 1203" d="M943.881,1614.147c11.161,11.271,12.941,25.141-34.024,67.08-27.073-7.454-31.794-30.155-31.794-30.155S918.549,1594.618,943.881,1614.147Z" fill="#1fa8a3"/>
    <g id="Grupo_572" data-name="Grupo 572">
      <g id="Grupo_571" data-name="Grupo 571">
        <path id="Caminho_1204" data-name="Caminho 1204" d="M922.332,1667.8l-12.746-.9c-15.754-5.956-26.826-8.3-32.141-8.868,1.121,3.037,4.545,15.008,2.8,22.41-1.452,2.767-7.3,2.7-9.543,3.244s-2.376,1.588-3.974,2.129-2.29-1.651-2.29-1.651-.813,3.052-1.979,3.6-3.135-.549-5.361-.4-1.2,5.578-3.217,6.358c-3.123,1.206-15.56-8.41-19.978-4.439-3.586,3.223-22.78-2.3-22.78-2.3a6.411,6.411,0,0,1-3.774,3.1c-6.243,1.559-14.332-12.758-16.446-24.61s1.786-40.554,27.765-46.444c23.236-5.268,41.037,10.369,46,12.971,4.114,2.157,20.888-5.956,26.936-13.721C884.331,1636.465,922.332,1667.8,922.332,1667.8Z" fill="#f5d2a6"/>
      </g>
    </g>
    <path id="Caminho_1205" data-name="Caminho 1205" d="M861.3,1687.908c-.188-1.668,3.2-11.228,3.2-11.228a32.215,32.215,0,0,1-.065,7.487C863.877,1687.031,862.228,1688.463,861.3,1687.908Z" fill="#f7f4eb" style="mix-blend-mode: multiply;isolation: isolate"/>
    <g id="Grupo_573" data-name="Grupo 573">
      <path id="Caminho_1206" data-name="Caminho 1206" d="M835.385,1637.462c-2.758,5.194-1.183,7.219,6.974,10.8-8.1-2.1-13.56,6.117-14.029,7.805s-8.383,2.567-14.224.912c-4.36,5.323-2.91,29.986-2.91,29.986a6.413,6.413,0,0,1-3.757,3.121c-6.233,1.6-14.4-12.675-16.587-24.514s-1.466-44.475,24.479-50.516c24.718-5.755,44.128,14.045,49.106,16.619a10.752,10.752,0,0,0,2.39.6C855.067,1636.4,839.338,1630.018,835.385,1637.462Z" fill="#7d5137"/>
    </g>
    <g id="Grupo_574" data-name="Grupo 574">
      <path id="Caminho_1207" data-name="Caminho 1207" d="M833.768,1686.083a4.63,4.63,0,0,1-2.943.3s-1.513-13.714,2.074-17.746C831.462,1672.465,833.768,1686.083,833.768,1686.083Z" fill="#7d5137"/>
    </g>
    <path id="Caminho_1208" data-name="Caminho 1208" d="M842.389,1633.77c6.166-.807,15.651,6.465,15.651,6.465l8.822-7.988s-10.775.337-12.169.331S842.389,1633.77,842.389,1633.77Z" fill="#7d5137"/>
    <path id="Caminho_1209" data-name="Caminho 1209" d="M862.841,1687.493c.3-3.373,1.66-10.813,1.66-10.813.464,1.825.228,4.754-.065,7.487A9.881,9.881,0,0,1,862.841,1687.493Z" fill="#fffcf2" style="mix-blend-mode: multiply;isolation: isolate"/>
    <path id="Caminho_1210" data-name="Caminho 1210" d="M849.393,1635.857c4.26.97,13.809,7.522,4.685,11.7C856.906,1645.376,857.634,1639,849.393,1635.857Z" fill="#e0e0e0" style="mix-blend-mode: multiply;isolation: isolate"/>
    <path id="Caminho_1211" data-name="Caminho 1211" d="M844.791,1644.953c-3.088,1.443-7.871-1.039-8.238-3.827s1.357-7.262,9.467-6.7c-4.06-.535-9.981,2.9-8.612,6.688s8.644,1.649,8.644,1.649.065,2.846,1.63,3.548A2.4,2.4,0,0,1,844.791,1644.953Z" fill="#ededed" style="mix-blend-mode: multiply;isolation: isolate"/>
    <path id="Caminho_1212" data-name="Caminho 1212" d="M807.985,1689.745c-4.681,3.123-10.851-2.012-14.225-7.019,2.378,2.076,1.4-.257-2.11-4.419s-6.073-14.2-6.1-16.76c2.608,6.894-2.552-15,.5-22.258.438,4.129,4.308-10.852,13.309-15.488C811.615,1653.779,807.985,1689.745,807.985,1689.745Z" fill="#7d5137"/>
    <path id="Caminho_1213" data-name="Caminho 1213" d="M858.384,1646.7s9.268-.566,12.509,1.844,6.552,9.495,6.552,9.495,4.319.451,8.67,1.4c-5.588-3.017-6.6-3.993-6.6-3.993s-2.692-8.217-7.567-9.78S858.384,1646.7,858.384,1646.7Z" fill="#e0e0e0" style="mix-blend-mode: multiply;isolation: isolate"/>
    <path id="Caminho_1214" data-name="Caminho 1214" d="M866.867,1679.156c1.392,2,1.275,5.7,1.275,5.7a4.852,4.852,0,0,1,3.388-1.317C868.954,1683.338,866.867,1679.156,866.867,1679.156Z" fill="#e8e8e8" style="mix-blend-mode: multiply;isolation: isolate"/>
    <path id="Caminho_1215" data-name="Caminho 1215" d="M813,1686.035A41.3,41.3,0,0,0,831.843,1665c-2.348,1.1-3.639.491-3.639.491s13.061-10.16,14.155-17.228c-2.88-1.377-8.567-2.892-10.028-2.744s-12.673,1.16-16.139,4.585-8.028,5.733-9.361,10.787-2.761,22.539-2.2,24.45S813,1686.035,813,1686.035Z" fill="#7d5137"/>
    <path id="Caminho_1216" data-name="Caminho 1216" d="M809.125,1680.524c7.113,4.75,11.533,8.9,13.937,9.2,0,0-3.733,8.679-14.119,5.4s-11.361-8.351-11.361-8.351.4-8.8,2.044-8.969S809.125,1680.524,809.125,1680.524Z" fill="#7d5137"/>
    <path id="Caminho_1217" data-name="Caminho 1217" d="M874.953,1630.216s17.093,27,14.945,30.257c3.715,1.088,17.288,7.484,17.288,7.484l-5.171-10.39-9.1-8.654-7.171-9.637-2.774-6.252,11.636-16.547S875.933,1628.765,874.953,1630.216Z" fill="#24c2bc"/>
    <path id="Caminho_1218" data-name="Caminho 1218" d="M954.422,1675.481c-11.992,6.684-38.994-3.988-49.25-8.307a48.116,48.116,0,0,0-5.917-8.681c-16.408-18.241-21.452-30.229-21.452-30.229a131.072,131.072,0,0,1,27.236-17.762c34.072-16.067,130.387-15.629,170.158,4.963,8.351,33.5-26.3,50.163-26.3,50.163a208.353,208.353,0,0,1-46.043,1.529C984.16,1672.243,967.144,1675.747,954.422,1675.481Z" fill="#24c2bc"/>
    <g id="Grupo_575" data-name="Grupo 575" style="mix-blend-mode: multiply;isolation: isolate">
      <path id="Caminho_1219" data-name="Caminho 1219" d="M971.9,1678.984c15.87-1.254,20.137-2.37,23.7-2.291s30.843,5.569,30.843,5.569c-17.581,0-22.391-1.738-30.8-3.117-19.114,3.178-36.4,4.95-49.027,3.4a10.771,10.771,0,0,1,4.145-4.345S956.028,1680.238,971.9,1678.984Z" fill="#ededed"/>
    </g>
    <path id="Caminho_1220" data-name="Caminho 1220" d="M958.495,1668.64c-2.893,8.769,44.866,36.6,48.3,26.8s2.691-20.652-4.473-22.67-29.06-6.861-34.206-6.861A20.767,20.767,0,0,0,958.495,1668.64Z" fill="#292929"/>
    <g id="Grupo_576" data-name="Grupo 576">
      <path id="Caminho_1221" data-name="Caminho 1221" d="M971.457,1663.113s-55.722,34.969-48.6,50.47,51.95,3.615,92.131-14.451c44.84-20.162-7.728-38.276-18.886-36.819A163.827,163.827,0,0,1,971.457,1663.113Z" fill="#f2d0a5"/>
    </g>
    <g id="Grupo_577" data-name="Grupo 577">
      <path id="Caminho_1222" data-name="Caminho 1222" d="M1091.452,1652.69c-3.448,42.647-92.732,52.353-94.422,55.858.848-13.586-32.573-39.7-38.522-39.907,15.532-9.23,70.112-49.907,72.771-51.787C1048.137,1604.93,1095.094,1607.64,1091.452,1652.69Z" fill="#3d3d3d"/>
    </g>
    <g id="Grupo_578" data-name="Grupo 578" style="mix-blend-mode: multiply;isolation: isolate">
      <path id="Caminho_1223" data-name="Caminho 1223" d="M982.575,1663.241c5.926,5.757,16.346,13.5,18.751,14.2s-4.168-8.608-1.785-8.236,6.59,7.079,8.731,6.419-11.559-17.516-18.455-17.01,4.621,6.662,3.188,7.843S977.574,1658.383,982.575,1663.241Z" fill="#ededed"/>
    </g>
    <path id="Caminho_1224" data-name="Caminho 1224" d="M1057.005,1684.407c14.747,2.82,25.566,4.545,25.566,4.545s14.368,6.039,12.817,10.638c-53.655,3.252-139.379,35.063-163.481,21.67,0,0-10.784-1.822-9.3-12.252,2.671-18.755,20.494-7.589,20.494-7.589C976.568,1691.649,976.046,1668.924,1057.005,1684.407Z" fill="#f2d0a5"/>
    <path id="Caminho_1225" data-name="Caminho 1225" d="M1048.926,1682.889c2.6.482,5.281.983,8.079,1.518,14.747,2.821,25.566,4.545,25.566,4.545s14.016,6.538,12.465,11.137c-13.357,1.766-43.732,6.132-44.768,6.431C1055.166,1699.417,1055.124,1690.587,1048.926,1682.889Z" fill="#c9ebff"/>
    <g id="Grupo_592" data-name="Grupo 592">
      <g id="Grupo_579" data-name="Grupo 579" style="mix-blend-mode: multiply;isolation: isolate">
        <path id="Caminho_1226" data-name="Caminho 1226" d="M1097.967,1681.32c-1.476,2.369-3.026,4.745-4.609,7.122-4.816-2.07-3.363-9.4-4.915-9.851-5.1-1.485-9.983,4.137-11.777,1.214h0c1.654-1.736,2.634-2.919,2.634-2.919S1096.314,1676.756,1097.967,1681.32Z" fill="#d9d9d9"/>
      </g>
      <g id="Grupo_591" data-name="Grupo 591">
        <g id="Grupo_580" data-name="Grupo 580">
          <path id="Caminho_1227" data-name="Caminho 1227" d="M1083.761,1671.191s-.137-2.641,3.713-7.189c1.26-1.487,4.619-2.661,9.287,3.937,8.437,11.925,14.02,15.942,32.906,35.7,9.477,9.915.914,19.532.914,19.532s-1.837-3.467-8.856-10.425-9-8.593-21.014-19.439-18.566-16.276-19.16-16.758S1083.761,1671.191,1083.761,1671.191Z" fill="#24c2bc"/>
        </g>
        <g id="Grupo_581" data-name="Grupo 581">
          <path id="Caminho_1228" data-name="Caminho 1228" d="M1069.316,1686.259c-.958-5.613,6.681-18.409,17.131-19.545,6.641,4.252,8.581,11.586,16.9,18.981,8.131,7.231,24.655,20.718,28.82,31.208,1.376,3.833-1.4,8.791-6.167,6.631-6.4-2.9-31.073-18.817-41.884-19.261,0,0-4.871.743-5.97-2.907s2.6-5.517,3.249-5.437c-.072-1.4-2.916-7.7-6.089-8.131S1069.836,1689.306,1069.316,1686.259Z" fill="#4d4d4d"/>
        </g>
        <g id="Grupo_582" data-name="Grupo 582">
          <path id="Caminho_1229" data-name="Caminho 1229" d="M1084.112,1704.273s-4.871.743-5.97-2.907c-.6-1.995-.2-3.426.8-4.315a4.117,4.117,0,0,1,2.45-1.122s16.552,1.7,22.5,7.863c3.756,3.893,3.495,6.9,2.6,9.052C1098.628,1708.814,1089.9,1704.511,1084.112,1704.273Z" fill="#24c2bc"/>
        </g>
        <g id="Grupo_584" data-name="Grupo 584">
          <g id="Grupo_583" data-name="Grupo 583">
            <path id="Caminho_1230" data-name="Caminho 1230" d="M1094.015,1701.281a.479.479,0,0,0-.59-.133,4.093,4.093,0,0,0-2.386,2.623,4.345,4.345,0,0,0,.732,3.275.478.478,0,0,0,.771-.566,3.414,3.414,0,0,1-.572-2.49,3.207,3.207,0,0,1,1.881-1.987.478.478,0,0,0,.164-.722Z" fill="#fff"/>
          </g>
        </g>
        <g id="Grupo_586" data-name="Grupo 586">
          <g id="Grupo_585" data-name="Grupo 585">
            <path id="Caminho_1231" data-name="Caminho 1231" d="M1089.1,1699.926a.478.478,0,0,0-.59-.134,4.094,4.094,0,0,0-2.386,2.624,4.347,4.347,0,0,0,.732,3.275.478.478,0,0,0,.771-.566,3.416,3.416,0,0,1-.572-2.49,3.2,3.2,0,0,1,1.881-1.987.478.478,0,0,0,.215-.641A.556.556,0,0,0,1089.1,1699.926Z" fill="#fff"/>
          </g>
        </g>
        <g id="Grupo_588" data-name="Grupo 588">
          <g id="Grupo_587" data-name="Grupo 587">
            <path id="Caminho_1232" data-name="Caminho 1232" d="M1099.077,1703.163a.479.479,0,0,0-.591-.134,4.094,4.094,0,0,0-2.385,2.623,4.349,4.349,0,0,0,.731,3.276.478.478,0,0,0,.772-.565h0a3.427,3.427,0,0,1-.573-2.491,3.2,3.2,0,0,1,1.882-1.987.479.479,0,0,0,.215-.641A.562.562,0,0,0,1099.077,1703.163Z" fill="#fff"/>
          </g>
        </g>
        <g id="Grupo_590" data-name="Grupo 590">
          <g id="Grupo_589" data-name="Grupo 589">
            <path id="Caminho_1233" data-name="Caminho 1233" d="M1103.868,1705.371a.478.478,0,0,0-.59-.134,4.094,4.094,0,0,0-2.385,2.623,4.351,4.351,0,0,0,.731,3.275.488.488,0,0,0,.669.1.478.478,0,0,0,.1-.667,3.419,3.419,0,0,1-.572-2.491,3.2,3.2,0,0,1,1.881-1.986.479.479,0,0,0,.215-.641A.422.422,0,0,0,1103.868,1705.371Z" fill="#fff"/>
          </g>
        </g>
      </g>
      <path id="Caminho_1234" data-name="Caminho 1234" d="M1109.373,1714.41c2.946-2.824,1.1-14.749-12.839-19.417,14.1,3.658,20.53,12.849,20.366,23.6C1114.809,1717.414,1109.373,1714.41,1109.373,1714.41Z" fill="#24c2bc"/>
      <path id="Caminho_1235" data-name="Caminho 1235" d="M1073.2,1675.348c6.355,6.266,16,7.385,22.37,1.5-.227-3.1-2.139-2.975-2.139-2.975s-9.07,6.591-18.005-1.194A11.155,11.155,0,0,0,1073.2,1675.348Z" fill="#24c2bc"/>
      <path id="Caminho_1236" data-name="Caminho 1236" d="M1118.972,1719.758a17.079,17.079,0,0,0-3.833-13.719c5.275,4.394,8.192,10.37,7.021,15.5C1121.191,1721,1118.972,1719.758,1118.972,1719.758Z" fill="#24c2bc"/>
    </g>
    <g id="Grupo_593" data-name="Grupo 593">
      <path id="Caminho_1237" data-name="Caminho 1237" d="M926.664,1615.4c-7.928-9.886-25.836-1.774-39.4,11.582s-57.426,54.55-58.191,68.628c-.373,6.879,7.066,18.056,20.089,10.217C852.641,1703.736,947.192,1641,926.664,1615.4Z" fill="#ffdaad"/>
    </g>
    <path id="Caminho_1238" data-name="Caminho 1238" d="M931.074,1612.494c11.161,11.272,12.941,25.142-34.024,67.081-27.073-7.454-31.794-30.156-31.794-30.156S905.742,1592.966,931.074,1612.494Z" fill="#28dbd4"/>
    <g id="Grupo_594" data-name="Grupo 594">
      <path id="Caminho_1239" data-name="Caminho 1239" d="M838.814,1687.989s-34.3,6.079-77.905,24.148c-5.278,4.821-6.341,7.521-3.037,9.21s79.853-1.8,96.363-20.29C854.638,1683.516,838.814,1687.989,838.814,1687.989Z" fill="#ffdaad"/>
    </g>
    <path id="Caminho_1240" data-name="Caminho 1240" d="M981.141,1683.907c-8.951,2.616-33.876,18.178-33.876,18.178S964.616,1685.835,981.141,1683.907Z" fill="#e6e6e6" style="mix-blend-mode: multiply;isolation: isolate"/>
    <path id="Caminho_1241" data-name="Caminho 1241" d="M1002.073,1638.187s15.938-12.15,34.29-12.187c34.427-.069,38.834-10.535,38.834-10.535l-7.23-2.685-7.643-2.272s-20.45-2.686-24.581-2.686-22.722,10.122-25.614,13.22S1002.073,1638.187,1002.073,1638.187Z" fill="#24c2bc"/>
    <path id="Caminho_1242" data-name="Caminho 1242" d="M766.268,1711.973s-.23-.079-.659-.213a75.788,75.788,0,0,0-20.492-3.283c-11.252-.1-33.336,8.476-38.311,9.591-.026,2.978,3.288,2.511,6.769,1.88-2.5,1.467-3.824,1.952.8,2.489s21.03-1.606,26.173-3.064,6.514,9.8,27.123.719C776.585,1711.434,766.268,1711.973,766.268,1711.973Z" fill="#ffdaad"/>
    <path id="Caminho_1243" data-name="Caminho 1243" d="M766.163,1721.064a27.237,27.237,0,0,1-11.178.712c-9.208-1.069-9.174-4.254-12.987-3.515s-17.273,4.755-29.854,3.348c.038.066.092.134.134.2a8.147,8.147,0,0,0,2.931.628c4.629.537,21.03-1.606,26.173-3.064C746.322,1717.972,747.792,1728.3,766.163,1721.064Z" fill="#e8e8e8" style="mix-blend-mode: multiply;isolation: isolate"/>
    <path id="Caminho_1244" data-name="Caminho 1244" d="M713.575,1719.948s19.485-7.825,25.337-8.435C732.954,1711.57,715.694,1717.262,713.575,1719.948Z" fill="#e8e8e8" style="mix-blend-mode: multiply;isolation: isolate"/>
  </g>
</svg>
