<svg xmlns="http://www.w3.org/2000/svg" width="571.974" height="189.413" viewBox="0 0 571.974 189.413">
  <g id="Grupo_553" data-name="Grupo 553" transform="translate(-1906.239 -1528.475)">
    <g id="Grupo_509" data-name="Grupo 509">
      <path id="Caminho_1131" data-name="Caminho 1131" d="M2080.6,1674.375s10.875-31.106,39.6-68.563c6.021-3.853,10.418-.863,11.2,2.765s-20.023,72.9-42.151,84.07C2072.19,1688.505,2080.6,1674.375,2080.6,1674.375Z" fill="#ffdaad"/>
    </g>
    <g id="Grupo_510" data-name="Grupo 510">
      <path id="Caminho_1132" data-name="Caminho 1132" d="M2122.828,1609.615a28.228,28.228,0,0,1-10.732-17.5c-.255-1.59,1.408-9.038,1.408-9.038s3.253-1.343,2.333,6.25c1.869,1.571,6.75,8.72,6.75,8.72Z" fill="#ffdaad"/>
      <path id="Caminho_1133" data-name="Caminho 1133" d="M2121.766,1584.2l4.252-13.514a2.476,2.476,0,0,1,4.718,1.507l-2.9,9.276a12,12,0,0,1,2.787.015l3.617-10.954a2.476,2.476,0,0,1,4.717,1.507l-3.1,10.587q1.2.387,2.291.865l2.87-9.656a2.477,2.477,0,0,1,4.718,1.508l-3.264,10.887a10.343,10.343,0,0,1,1.069,1.141l3.063-8.523a2.477,2.477,0,0,1,4.465,2.145l-5.8,14.227a16.38,16.38,0,0,1-.408,1.8c-2.415,8.287-11.392,17.443-18.568,15.353s-10.557-12.144-8.142-20.431C2118.82,1589.654,2120.539,1585.454,2121.766,1584.2Z" fill="#ffdaad"/>
    </g>
    <path id="Caminho_1134" data-name="Caminho 1134" d="M2126.122,1623.548c-2.894-8.768,44.866-36.6,48.3-26.8s2.69,20.651-4.474,22.669-29.059,6.862-34.205,6.862A20.762,20.762,0,0,1,2126.122,1623.548Z" fill="#292929"/>
    <g id="Grupo_511" data-name="Grupo 511">
      <path id="Caminho_1135" data-name="Caminho 1135" d="M2136.18,1633.4s-42.689-49.866-30.427-61.725,54.108,4.983,84.063,43.968-21.1,32.858-30.965,27.449A163.851,163.851,0,0,0,2136.18,1633.4Z" fill="#f2d0a5"/>
    </g>
    <g id="Grupo_512" data-name="Grupo 512" style="mix-blend-mode: multiply;isolation: isolate">
      <path id="Caminho_1136" data-name="Caminho 1136" d="M2194.422,1626.823a6.977,6.977,0,0,1,1.915-1.1,64.2,64.2,0,0,0-6.521-10.082,152.736,152.736,0,0,0-29.95-29.6c8.671,7.14,29.784,28.835,20.644,35.042-10.624,7.215-40.117,13.292-44.33,12.314C2161.165,1640.673,2187.25,1632.853,2194.422,1626.823Z" fill="#ededed"/>
    </g>
    <g id="Grupo_513" data-name="Grupo 513">
      <path id="Caminho_1137" data-name="Caminho 1137" d="M2244.2,1686.679c9.307-37.181-67.4-82.449-67.7-86.328-4.143,12.966-44.766,25.167-50.382,23.2,11.12,14.24,49.8,71.517,49,74.675C2172.889,1707.071,2233.227,1730.523,2244.2,1686.679Z" fill="#3d3d3d"/>
    </g>
    <g id="Grupo_514" data-name="Grupo 514" style="mix-blend-mode: multiply;isolation: isolate">
      <path id="Caminho_1138" data-name="Caminho 1138" d="M2146.586,1637.318c7.611-3.213,20.133-6.648,22.626-6.421s-7.009,6.507-4.654,7.026,8.711-4.2,10.466-2.811-17.13,12.123-23.371,9.148,6.724-4.529,5.817-6.15S2140.162,1640.029,2146.586,1637.318Z" fill="#ededed"/>
    </g>
    <g id="Grupo_515" data-name="Grupo 515">
      <path id="Caminho_1139" data-name="Caminho 1139" d="M2451.949,1701.741s-20.7,8.055-35.7,8.559c-76.147,2.556-71.627,2.21-105.609-5.578-.479.41-43.887,4.2-71.448,3.228-50.012-1.756-10.146-34.172.5-38.411s-54.882-22.453-54.882-22.453c12.773.676,73.389,9.668,106.111,17.934l-6.034.784c7.327-1.81,8.758-6.931,16.84-4l.807,1.211c32.1.624,110.76,24.418,130.167,28.858C2434.512,1696.369,2451.949,1701.741,2451.949,1701.741Z" fill="#ffdaad"/>
    </g>
    <path id="Caminho_1140" data-name="Caminho 1140" d="M2414.821,1710.7c2.645-.114,5.366-.238,8.211-.378,15-.74,25.949-.942,25.949-.942s15.07-3.98,14.174-8.751c-12.981-3.608-27.912-8.168-43.367-13.013C2423.649,1695.329,2422.029,1703.937,2414.821,1710.7Z" fill="#c9ebff"/>
    <g id="Grupo_516" data-name="Grupo 516">
      <path id="Caminho_1141" data-name="Caminho 1141" d="M2155.09,1643.915s-16.906,38.206-2.8,58.582c6.476,9.357,43.574,24.586,74.8,5.65,28.123,5.251,72.167,9.717,73.621,9.149,10.443-24.734,8.078-46.713,1.211-56.505-18.229-2.427-93.381-18.095-110.495-19.334C2173.213,1640.139,2155.09,1643.915,2155.09,1643.915Z" fill="#4d4d4d"/>
    </g>
    <g id="Grupo_530" data-name="Grupo 530">
      <g id="Grupo_517" data-name="Grupo 517" style="mix-blend-mode: multiply;isolation: isolate">
        <path id="Caminho_1142" data-name="Caminho 1142" d="M2469.527,1696.324c-2.681-.776-5.422-1.509-8.189-2.22-2.2,4.758,3.777,9.24,2.925,10.613-2.8,4.512-10.191,3.592-9.574,6.965h0c2.39.186,3.91.411,3.91.411S2471.346,1700.824,2469.527,1696.324Z" fill="#d9d9d9"/>
      </g>
      <g id="Grupo_529" data-name="Grupo 529">
        <g id="Grupo_518" data-name="Grupo 518">
          <path id="Caminho_1143" data-name="Caminho 1143" d="M2465.723,1713.352s1.663,2.056,7.566,2.868c1.931.265,5.215-1.106,4.28-9.134-1.689-14.51-.219-21.229.634-48.546.429-13.708-12.368-15.143-12.368-15.143s.949,3.807.375,13.674-.958,12.409-2.649,28.5-2.94,24.514-3.059,25.269S2465.723,1713.352,2465.723,1713.352Z" fill="#24c2bc"/>
        </g>
        <g id="Grupo_519" data-name="Grupo 519">
          <path id="Caminho_1144" data-name="Caminho 1144" d="M2444.908,1711.79c3.037,4.817,17.27,9.234,25.8,3.1,2.1-7.6-1.356-14.353-.11-25.412,1.219-10.812,4.5-31.887.594-42.474-1.537-3.772-6.914-5.607-9.019-.814-2.823,6.43-10.548,34.761-18.295,42.314,0,0-4.121,2.7-2.5,6.151s5.625,2.365,6.05,1.876c.881,1.088,2.972,7.674.9,10.118S2443.26,1709.176,2444.908,1711.79Z" fill="#4d4d4d"/>
        </g>
        <g id="Grupo_520" data-name="Grupo 520">
          <path id="Caminho_1145" data-name="Caminho 1145" d="M2443.883,1688.5s-4.121,2.7-2.5,6.151c.886,1.886,2.141,2.683,3.477,2.677a4.119,4.119,0,0,0,2.573-.8s11.179-12.326,11.486-20.882c.194-5.405-2.012-7.471-4.113-8.471C2451.649,1675.425,2448.033,1684.456,2443.883,1688.5Z" fill="#24c2bc"/>
        </g>
        <g id="Grupo_522" data-name="Grupo 522">
          <g id="Grupo_521" data-name="Grupo 521">
            <path id="Caminho_1146" data-name="Caminho 1146" d="M2453.249,1684.112a.476.476,0,0,1-.349.493,4.09,4.09,0,0,1-3.528-.358,4.35,4.35,0,0,1-1.644-2.925.478.478,0,0,1,.952-.095,3.425,3.425,0,0,0,1.238,2.236,3.209,3.209,0,0,0,2.727.221.477.477,0,0,1,.588.333A.444.444,0,0,1,2453.249,1684.112Z" fill="#fff"/>
          </g>
        </g>
        <g id="Grupo_524" data-name="Grupo 524">
          <g id="Grupo_523" data-name="Grupo 523">
            <path id="Caminho_1147" data-name="Caminho 1147" d="M2450.5,1688.406a.478.478,0,0,1-.349.494,4.1,4.1,0,0,1-3.528-.358,4.349,4.349,0,0,1-1.644-2.926.478.478,0,0,1,.952-.095,3.423,3.423,0,0,0,1.239,2.236,3.2,3.2,0,0,0,2.726.221.478.478,0,0,1,.588.333A.471.471,0,0,1,2450.5,1688.406Z" fill="#fff"/>
          </g>
        </g>
        <g id="Grupo_526" data-name="Grupo 526">
          <g id="Grupo_525" data-name="Grupo 525">
            <path id="Caminho_1148" data-name="Caminho 1148" d="M2455.759,1679.33a.48.48,0,0,1-.35.494,4.094,4.094,0,0,1-3.528-.358,4.351,4.351,0,0,1-1.644-2.926.478.478,0,0,1,.952-.1h0a3.426,3.426,0,0,0,1.238,2.236,3.206,3.206,0,0,0,2.727.221.479.479,0,0,1,.589.333A.633.633,0,0,1,2455.759,1679.33Z" fill="#fff"/>
          </g>
        </g>
        <g id="Grupo_528" data-name="Grupo 528">
          <g id="Grupo_527" data-name="Grupo 527">
            <path id="Caminho_1149" data-name="Caminho 1149" d="M2457.849,1674.486a.478.478,0,0,1-.35.494,4.093,4.093,0,0,1-3.527-.359,4.343,4.343,0,0,1-1.644-2.925.49.49,0,0,1,.429-.523.479.479,0,0,1,.523.428,3.419,3.419,0,0,0,1.238,2.236,3.209,3.209,0,0,0,2.727.221.478.478,0,0,1,.588.333A.46.46,0,0,1,2457.849,1674.486Z" fill="#fff"/>
          </g>
        </g>
      </g>
      <path id="Caminho_1150" data-name="Caminho 1150" d="M2455.905,1664.083c4.08.133,10.675,10.237,3.42,23.025,8.047-12.142,6.691-23.277-.611-31.164C2457.944,1658.215,2455.905,1664.083,2455.905,1664.083Z" fill="#24c2bc"/>
      <path id="Caminho_1151" data-name="Caminho 1151" d="M2455.089,1717.313c.543-8.908,6.973-16.187,15.645-16.059,1.9,2.456.4,3.642.4,3.642s-11.152,1.155-12.6,12.918A11.131,11.131,0,0,1,2455.089,1717.313Z" fill="#24c2bc"/>
      <path id="Caminho_1152" data-name="Caminho 1152" d="M2459.475,1653.69a17.077,17.077,0,0,1,6.314,12.768c.989-6.793-.833-13.188-5.132-16.223C2460.295,1651.282,2459.475,1653.69,2459.475,1653.69Z" fill="#24c2bc"/>
    </g>
    <path id="Caminho_1153" data-name="Caminho 1153" d="M2240.236,1592.6c14.422-4.176,25.034-6.9,25.034-6.9s13.747-7.345,11.776-11.781c-47.873-1.85-132.687-6.889-164.786-6.417,0,0-10.569,2.814-8.123,13.061,4.4,18.426,21.109,5.657,21.109,5.657C2159.474,1592.849,2161.061,1615.524,2240.236,1592.6Z" fill="#f2d0a5"/>
    <path id="Caminho_1154" data-name="Caminho 1154" d="M2232.333,1594.861c2.548-.72,5.167-1.467,7.9-2.26,14.422-4.176,25.034-6.9,25.034-6.9s13.35-7.809,11.379-12.244c-13.463-.521-44.22-1.4-45.28-1.6C2236.905,1578.477,2237.79,1586.623,2232.333,1594.861Z" fill="#c9ebff"/>
    <g id="Grupo_544" data-name="Grupo 544">
      <g id="Grupo_531" data-name="Grupo 531" style="mix-blend-mode: multiply;isolation: isolate">
        <path id="Caminho_1155" data-name="Caminho 1155" d="M2285.5,1580.825c-2.407-1.413-4.883-2.8-7.389-4.169-3.3,4.069,1.384,9.885.218,11.006-3.827,3.682-10.761.969-10.994,4.39h0c2.27.77,3.688,1.363,3.688,1.363S2286.157,1585.635,2285.5,1580.825Z" fill="#d9d9d9"/>
      </g>
      <g id="Grupo_543" data-name="Grupo 543">
        <g id="Grupo_532" data-name="Grupo 532">
          <path id="Caminho_1156" data-name="Caminho 1156" d="M2277.619,1596.39s1.106,2.4,6.626,4.644c1.807.734,5.327.214,6.4-7.8,1.939-14.479,5.02-20.629,12.58-46.892,3.793-13.18-8.255-17.725-8.255-17.725s-.018,3.923-3.006,13.344-3.988,11.79-9.593,26.971-8.891,23.034-9.193,23.736S2277.619,1596.39,2277.619,1596.39Z" fill="#24c2bc"/>
        </g>
        <g id="Grupo_533" data-name="Grupo 533">
          <path id="Caminho_1157" data-name="Caminho 1157" d="M2257.832,1589.747c1.756,5.416,14.461,13.206,24.245,9.362,3.909-6.848,2.223-14.245,6.157-24.655,3.846-10.178,12.224-29.793,11.045-41.018-.56-4.034-5.319-7.137-8.54-3.011-4.321,5.535-18.792,31.088-28.161,36.5,0,0-4.66,1.6-3.94,5.345s4.869,3.679,5.4,3.309c.585,1.271.989,8.17-1.62,10.028S2256.879,1586.807,2257.832,1589.747Z" fill="#4d4d4d"/>
        </g>
        <g id="Grupo_534" data-name="Grupo 534">
          <path id="Caminho_1158" data-name="Caminho 1158" d="M2262.578,1566.924s-4.66,1.6-3.94,5.345c.394,2.046,1.414,3.128,2.711,3.451a4.122,4.122,0,0,0,2.691-.142s13.872-9.191,16.278-17.406c1.52-5.191-.109-7.737-1.9-9.224C2273.328,1556.165,2267.6,1564.025,2262.578,1566.924Z" fill="#24c2bc"/>
        </g>
        <g id="Grupo_536" data-name="Grupo 536">
          <g id="Grupo_535" data-name="Grupo 535">
            <path id="Caminho_1159" data-name="Caminho 1159" d="M2272.738,1564.978a.479.479,0,0,1-.461.392,4.094,4.094,0,0,1-3.331-1.216,4.351,4.351,0,0,1-.871-3.241.478.478,0,0,1,.946.143,3.419,3.419,0,0,0,.649,2.472,3.2,3.2,0,0,0,2.588.886.479.479,0,0,1,.488.468A.616.616,0,0,1,2272.738,1564.978Z" fill="#fff"/>
          </g>
        </g>
        <g id="Grupo_538" data-name="Grupo 538">
          <g id="Grupo_537" data-name="Grupo 537">
            <path id="Caminho_1160" data-name="Caminho 1160" d="M2269.01,1568.461a.478.478,0,0,1-.46.392,4.093,4.093,0,0,1-3.331-1.216,4.354,4.354,0,0,1-.872-3.241.478.478,0,0,1,.946.143,3.425,3.425,0,0,0,.649,2.472,3.2,3.2,0,0,0,2.588.886.478.478,0,0,1,.488.468A.43.43,0,0,1,2269.01,1568.461Z" fill="#fff"/>
          </g>
        </g>
        <g id="Grupo_540" data-name="Grupo 540">
          <g id="Grupo_539" data-name="Grupo 539">
            <path id="Caminho_1161" data-name="Caminho 1161" d="M2276.348,1560.962a.477.477,0,0,1-.46.392,4.093,4.093,0,0,1-3.331-1.216,4.348,4.348,0,0,1-.872-3.241.478.478,0,0,1,.945.142h0a3.417,3.417,0,0,0,.649,2.472,3.2,3.2,0,0,0,2.588.886.479.479,0,0,1,.488.468A.5.5,0,0,1,2276.348,1560.962Z" fill="#fff"/>
          </g>
        </g>
        <g id="Grupo_542" data-name="Grupo 542">
          <g id="Grupo_541" data-name="Grupo 541">
            <path id="Caminho_1162" data-name="Caminho 1162" d="M2279.568,1556.783a.478.478,0,0,1-.46.392,4.093,4.093,0,0,1-3.331-1.217,4.345,4.345,0,0,1-.872-3.24.489.489,0,0,1,.545-.4.479.479,0,0,1,.4.544,3.417,3.417,0,0,0,.649,2.472,3.208,3.208,0,0,0,2.588.886.478.478,0,0,1,.488.468A.444.444,0,0,1,2279.568,1556.783Z" fill="#fff"/>
          </g>
        </g>
      </g>
      <path id="Caminho_1163" data-name="Caminho 1163" d="M2280.249,1546.221c3.92,1.135,7.822,12.552-2.361,23.158,10.791-9.784,12.222-20.91,7.088-30.353C2283.67,1541.037,2280.249,1546.221,2280.249,1546.221Z" fill="#24c2bc"/>
      <path id="Caminho_1164" data-name="Caminho 1164" d="M2266.337,1597.608c2.722-8.5,10.748-13.968,19.121-11.708,1.236,2.849-.514,3.628-.514,3.628s-11.093-1.629-15.4,9.414A11.154,11.154,0,0,1,2266.337,1597.608Z" fill="#24c2bc"/>
      <path id="Caminho_1165" data-name="Caminho 1165" d="M2286.269,1537.029a17.075,17.075,0,0,1,2.973,13.93c2.633-6.34,2.443-12.986-.975-16.988C2287.657,1534.9,2286.269,1537.029,2286.269,1537.029Z" fill="#24c2bc"/>
    </g>
    <g id="Grupo_546" data-name="Grupo 546">
      <g id="Grupo_545" data-name="Grupo 545">
        <path id="Caminho_1166" data-name="Caminho 1166" d="M2041.716,1652.787l-12.591,2.18c-15.073,7.512-25.853,10.962-31.084,12.06.81-3.134,3.01-15.389.526-22.578-1.723-2.606-7.535-1.95-9.821-2.266s-2.523-1.341-4.168-1.718-2.112,1.873-2.112,1.873-1.117-2.955-2.332-3.386-3.064.863-5.293.942-1.75-5.429-3.841-6c-3.229-.885-14.633,9.935-19.429,6.429-3.893-2.846-22.433,4.58-22.433,4.58a6.413,6.413,0,0,0-4.067-2.7c-6.368-.922-12.974,14.137-13.883,26.141s5.861,40.168,32.3,43.411c23.648,2.9,39.784-14.449,44.46-17.538,3.875-2.56,21.382,3.822,28.181,10.938C2007.065,1687.794,2041.716,1652.787,2041.716,1652.787Z" fill="#ffdaad"/>
      </g>
    </g>
    <path id="Caminho_1167" data-name="Caminho 1167" d="M1978.966,1638.932c-.019,1.679,4.319,10.849,4.319,10.849a32.256,32.256,0,0,0-.819-7.443C1981.622,1639.545,1979.836,1638.287,1978.966,1638.932Z" fill="#f7f4eb" style="mix-blend-mode: multiply;isolation: isolate"/>
    <g id="Grupo_547" data-name="Grupo 547">
      <path id="Caminho_1168" data-name="Caminho 1168" d="M1958.268,1691.732c-3.268-4.89-1.9-7.064,5.85-11.453-7.847,2.91-14.108-4.719-14.744-6.352s-8.6-1.709-14.244.525c-4.874-4.856-5.915-29.54-5.915-29.54a6.419,6.419,0,0,0-4.053-2.727c-6.362-.959-13.054,14.062-14.033,26.061s3.021,44.4,29.442,47.792c25.173,3.237,42.489-18.418,47.183-21.48a10.864,10.864,0,0,1,2.317-.843C1977.957,1690.807,1962.95,1698.74,1958.268,1691.732Z" fill="#7d5137"/>
    </g>
    <g id="Grupo_548" data-name="Grupo 548">
      <path id="Caminho_1169" data-name="Caminho 1169" d="M1951.761,1643.521a4.623,4.623,0,0,0-2.958,0s-.124,13.8,3.851,17.447C1950.839,1657.3,1951.761,1643.521,1951.761,1643.521Z" fill="#7d5137"/>
    </g>
    <path id="Caminho_1170" data-name="Caminho 1170" d="M1965.607,1694.7c6.217.182,14.921-8.009,14.921-8.009l9.582,7.059s-10.755.749-12.141.9S1965.607,1694.7,1965.607,1694.7Z" fill="#7d5137"/>
    <path id="Caminho_1171" data-name="Caminho 1171" d="M1980.544,1639.19c.636,3.326,2.741,10.591,2.741,10.591.278-1.863-.252-4.753-.819-7.443A9.869,9.869,0,0,0,1980.544,1639.19Z" fill="#fffcf2" style="mix-blend-mode: multiply;isolation: isolate"/>
    <path id="Caminho_1172" data-name="Caminho 1172" d="M1972.365,1691.918c4.142-1.4,12.981-8.875,3.483-12.109C1978.882,1681.691,1980.249,1687.964,1972.365,1691.918Z" fill="#e0e0e0" style="mix-blend-mode: multiply;isolation: isolate"/>
    <path id="Caminho_1173" data-name="Caminho 1173" d="M1966.871,1683.332c-3.218-1.125-7.727,1.827-7.81,4.637s2.081,7.088,10.093,5.713c-3.985.941-10.222-1.881-9.242-5.787s8.434-2.511,8.434-2.511-.222-2.837,1.265-3.693A2.4,2.4,0,0,0,1966.871,1683.332Z" fill="#ededed" style="mix-blend-mode: multiply;isolation: isolate"/>
    <path id="Caminho_1174" data-name="Caminho 1174" d="M1925.74,1642.475c-4.971-2.635-10.593,3.094-13.445,8.416,2.156-2.3,1.414.115-1.654,4.608s-4.612,14.743-4.379,17.29c1.9-7.122-1.028,15.179,2.736,22.1.02-4.152,5.379,10.363,14.8,14.068C1932.975,1677.892,1925.74,1642.475,1925.74,1642.475Z" fill="#7d5137"/>
    <path id="Caminho_1175" data-name="Caminho 1175" d="M1980.219,1680.228s9.278-.37,12.26-3.094,5.562-10.107,5.562-10.107,4.252-.884,8.485-2.265c-5.255,3.564-6.164,4.637-6.164,4.637s-1.851,8.447-6.544,10.493S1980.219,1680.228,1980.219,1680.228Z" fill="#e0e0e0" style="mix-blend-mode: multiply;isolation: isolate"/>
    <path id="Caminho_1176" data-name="Caminho 1176" d="M1985.39,1647.079c1.184-2.126.693-5.8.693-5.8a4.855,4.855,0,0,0,3.5.969C1987.045,1642.708,1985.39,1647.079,1985.39,1647.079Z" fill="#e8e8e8" style="mix-blend-mode: multiply;isolation: isolate"/>
    <path id="Caminho_1177" data-name="Caminho 1177" d="M1931.107,1645.66a41.306,41.306,0,0,1,20.863,19.027c-2.448-.856-3.671-.122-3.671-.122s14.018,8.793,15.819,15.714c-2.727,1.661-8.233,3.741-9.7,3.741s-12.726.122-16.519-2.937-8.565-4.894-10.4-9.789-5.017-22.147-4.65-24.1S1931.107,1645.66,1931.107,1645.66Z" fill="#7d5137"/>
    <path id="Caminho_1178" data-name="Caminho 1178" d="M1927.8,1651.533c6.6-5.441,10.577-10.016,12.939-10.553,0,0-4.588-8.259-14.591-3.946s-10.462,9.452-10.462,9.452,1.285,8.718,2.937,8.718S1927.8,1651.533,1927.8,1651.533Z" fill="#7d5137"/>
    <path id="Caminho_1179" data-name="Caminho 1179" d="M1998.364,1694.955s14.287-28.582,11.821-31.608c3.586-1.457,16.447-9.187,16.447-9.187l-4.1,10.858-8.181,9.526-6.164,10.31-2.129,6.5,11.6,15.634S1999.485,1696.3,1998.364,1694.955Z" fill="#24c2bc"/>
    <path id="Caminho_1180" data-name="Caminho 1180" d="M2072.87,1641.916c-12.605-5.442-38.394,7.9-48.163,13.225a48.105,48.105,0,0,1-5.013,9.233c-14.487,19.8-18.3,32.236-18.3,32.236a131.027,131.027,0,0,0,28.887,14.929c35.516,12.553,96.417-1.107,138.874,3.549,4.934-34.17-1.3-72.886-1.3-72.886a208.38,208.38,0,0,0-45.964,3.117C2102.783,1642.142,2085.5,1640.37,2072.87,1641.916Z" fill="#24c2bc"/>
    <g id="Grupo_549" data-name="Grupo 549" style="mix-blend-mode: multiply;isolation: isolate">
      <path id="Caminho_1181" data-name="Caminho 1181" d="M2098.159,1645.481c15.869,1.254,20.137,2.369,23.7,2.291s30.843-5.57,30.843-5.57c-17.581,0-22.392,1.738-30.806,3.117-19.113-3.177-36.4-4.95-49.026-3.4a10.761,10.761,0,0,0,4.145,4.345S2082.29,1644.227,2098.159,1645.481Z" fill="#ededed"/>
    </g>
    <g id="Grupo_550" data-name="Grupo 550">
      <path id="Caminho_1182" data-name="Caminho 1182" d="M2019.639,1693.7c-2.088-12.5,15.894-20.446,34.89-21.658s61.47-1.264,75.007,2.675c3.325,6.033,12.055,15.744-1.725,22.16a38.431,38.431,0,0,0-7.946,2.386S2025.045,1726.069,2019.639,1693.7Z" fill="#ffdaad"/>
    </g>
    <path id="Caminho_1183" data-name="Caminho 1183" d="M2014.532,1695.055c.967,15.833,10.123,26.4,72.689,19.333,12.484-25.153-1.3-43.8-1.3-43.8S2016.852,1663.154,2014.532,1695.055Z" fill="#28dbd4"/>
    <path id="Caminho_1184" data-name="Caminho 1184" d="M2175.394,1602.066c-14.429.505-34.811-10.493-34.811-10.493s1.413,2.018-1.816,3.127C2143.206,1594.5,2158.14,1605.5,2175.394,1602.066Z" fill="#e6e6e6" style="mix-blend-mode: multiply;isolation: isolate"/>
    <g id="Grupo_551" data-name="Grupo 551">
      <path id="Caminho_1185" data-name="Caminho 1185" d="M2118.587,1679.155s4.291-32.671,24.754-75.205c5.107-5,10.022-2.974,11.525.419s-4.709,75.451-24.088,90.909C2113.242,1694.706,2118.587,1679.155,2118.587,1679.155Z" fill="#ffdaad"/>
    </g>
    <g id="Grupo_552" data-name="Grupo 552">
      <path id="Caminho_1186" data-name="Caminho 1186" d="M2146.7,1607.134a28.228,28.228,0,0,1-14.082-14.941c-.574-1.5-.467-9.135-.467-9.135s2.909-1.979,3.56,5.642c2.151,1.155,8.39,7.156,8.39,7.156Z" fill="#ffdaad"/>
      <path id="Caminho_1187" data-name="Caminho 1187" d="M2140.465,1582.472l1.4-14.1a2.476,2.476,0,1,1,4.926.512l-.941,9.673a11.961,11.961,0,0,1,2.731-.555l1.3-11.463a2.476,2.476,0,1,1,4.926.513l-.868,11q1.25.133,2.419.378l.838-10.039a2.476,2.476,0,0,1,4.926.512l-.972,11.325a10.466,10.466,0,0,1,1.28.9l1.258-8.968a2.476,2.476,0,1,1,4.808,1.187l-2.775,15.113a15.9,15.9,0,0,1-.031,1.849c-.67,8.606-7.588,19.4-15.039,18.822s-12.815-9.73-12.145-18.336C2138.694,1588.413,2139.52,1583.95,2140.465,1582.472Z" fill="#ffdaad"/>
    </g>
  </g>
</svg>
