<svg xmlns="http://www.w3.org/2000/svg" width="268.043" height="304.188" viewBox="0 0 268.043 304.188">
  <g id="Grupo_449" data-name="Grupo 449" transform="translate(-353.802 -1420.727)">
    <g id="Grupo_392" data-name="Grupo 392">
      <g id="Grupo_391" data-name="Grupo 391">
        <path id="Caminho_999" data-name="Caminho 999" d="M489.439,1508.025l12.138,2.239c16.172-1.763,27.094-1.281,32.2-.525-1.782,2.569-7.877,12.936-8.032,20.281.688,2.938,6.174,4.289,8.14,5.34s1.838,2.059,3.2,2.952,2.541-.991,2.541-.991.023,3.051.98,3.848,3.065.244,5.111.919-.231,5.505,1.472,6.723c2.629,1.883,16.584-4.1,19.756.677,2.575,3.881,21.859,3.357,21.859,3.357a6.2,6.2,0,0,0,2.781,3.811c5.461,2.966,16.486-8.468,21.327-19.04s8.131-38.358-14.741-50.145c-20.456-10.542-40.883-.221-46.154,1.013-4.368,1.023-14.424-7.5-24.825-17.781C529.6,1489.463,489.439,1508.025,489.439,1508.025Z" fill="#ffdaad"/>
      </g>
    </g>
    <path id="Caminho_1000" data-name="Caminho 1000" d="M541.66,1541.578c.579-1.514-.283-11.275-.283-11.275a31.16,31.16,0,0,0-1.749,7.018C539.459,1540.135,540.655,1541.872,541.66,1541.578Z" fill="#f7f4eb" style="mix-blend-mode: multiply;isolation: isolate"/>
    <g id="Grupo_393" data-name="Grupo 393">
      <path id="Caminho_1001" data-name="Caminho 1001" d="M578.084,1500.664c1.324,5.524-.638,7.037-9.134,8.419,8.084-.011,11.2,9,11.234,10.69s7.22,4.427,13.082,4.291c2.792,6.031-4.526,28.746-4.526,28.746a6.2,6.2,0,0,0,2.759,3.826c5.444,3,16.535-8.372,21.437-18.917s12.12-41.237-10.683-53.157c-21.726-11.356-44.663,2.47-49.94,3.674a10.5,10.5,0,0,1-2.382-.012C559.935,1494.913,576.187,1492.747,578.084,1500.664Z" fill="#7d5137"/>
    </g>
    <g id="Grupo_394" data-name="Grupo 394">
      <path id="Caminho_1002" data-name="Caminho 1002" d="M567.845,1546.524a4.471,4.471,0,0,0,2.681.993s4.729-12.46,2.349-17.1C573.293,1534.346,567.845,1546.524,567.845,1546.524Z" fill="#7d5137"/>
    </g>
    <path id="Caminho_1003" data-name="Caminho 1003" d="M572.427,1495.518c-5.572-2.245-16.2,2.264-16.2,2.264l-6.319-9.6s9.995,2.919,11.3,3.251S572.427,1495.518,572.427,1495.518Z" fill="#7d5137"/>
    <path id="Caminho_1004" data-name="Caminho 1004" d="M540.316,1540.817c.537-3.226,1.061-10.514,1.061-10.514-.875,1.6-1.362,4.391-1.749,7.018A9.544,9.544,0,0,0,540.316,1540.817Z" fill="#fffcf2" style="mix-blend-mode: multiply;isolation: isolate"/>
    <path id="Caminho_1005" data-name="Caminho 1005" d="M565.372,1495.778c-4.219-.123-14.732,3.7-7.208,9.805C556.046,1502.863,556.906,1496.722,565.372,1495.778Z" fill="#e0e0e0" style="mix-blend-mode: multiply;isolation: isolate"/>
    <path id="Caminho_1006" data-name="Caminho 1006" d="M567.477,1505.4c2.54,2.1,7.613.931,8.629-1.588s.486-7.119-7.234-8.554c3.926.481,8.633,5.125,6.438,8.336s-8.482-.547-8.482-.547-.748,2.645-2.382,2.923A2.321,2.321,0,0,0,567.477,1505.4Z" fill="#ededed" style="mix-blend-mode: multiply;isolation: isolate"/>
    <path id="Caminho_1007" data-name="Caminho 1007" d="M591.073,1556.18c3.622,4.052,10.634.742,15-3.126-2.725,1.367-1.243-.577,3.041-3.622s8.134-15.593,8.775-17.979c-4.1,5.817,4.96-10.528,3.864-18.054-1.407,3.755.623-10.293-6.674-16.8C596.37,1521.668,591.073,1556.18,591.073,1556.18Z" fill="#7d5137"/>
    <path id="Caminho_1008" data-name="Caminho 1008" d="M554.344,1503.741s-8.53-2.769-12.144-1.3-8.422,7.3-8.422,7.3-4.148-.622-8.446-.787c5.954-1.471,7.137-2.139,7.137-2.139s4.5-7.035,9.441-7.318S554.344,1503.741,554.344,1503.741Z" fill="#e0e0e0" style="mix-blend-mode: multiply;isolation: isolate"/>
    <path id="Caminho_1009" data-name="Caminho 1009" d="M538.566,1532.047c-1.785,1.53-2.57,5.023-2.57,5.023a4.685,4.685,0,0,0-2.85-2.051C535.6,1535.454,538.566,1532.047,538.566,1532.047Z" fill="#e8e8e8" style="mix-blend-mode: multiply;isolation: isolate"/>
    <path id="Caminho_1010" data-name="Caminho 1010" d="M587.276,1551.5a39.888,39.888,0,0,1-12.536-24.221c1.931,1.595,3.285,1.339,3.285,1.339s-9.759-12.658-9.075-19.533c3.027-.592,8.712-.634,10.042-.142s11.572,4.147,13.985,8.188,6.123,7.3,6.148,12.35-2.866,21.746-3.854,23.4S587.276,1551.5,587.276,1551.5Z" fill="#7d5137"/>
    <path id="Caminho_1011" data-name="Caminho 1011" d="M592.235,1547.282c-7.8,2.723-12.936,5.537-15.256,5.232,0,0,1.393,9.019,11.9,8.459s12.642-5.064,12.642-5.064,1.754-8.329.257-8.882S592.235,1547.282,592.235,1547.282Z" fill="#7d5137"/>
    <g id="Grupo_401" data-name="Grupo 401">
      <g id="Grupo_395" data-name="Grupo 395">
        <path id="Caminho_1012" data-name="Caminho 1012" d="M474.049,1672.185c17.2-41.813,20.807-71.466,20.807-71.466,7.4-11.294,20.132-51.15,24.352-68.887s-.67-30.452-12.7-32.046c-31.159-4.129-34.878,92.835-34.878,92.835a10.089,10.089,0,0,0-2.611,5.793c-5.476,15.411-7.3,67.794-5.676,70.955C466.622,1672.555,474.049,1672.185,474.049,1672.185Z" fill="#ffdaad"/>
      </g>
      <g id="Grupo_397" data-name="Grupo 397" style="mix-blend-mode: multiply;isolation: isolate">
        <g id="Grupo_396" data-name="Grupo 396">
          <path id="Caminho_1013" data-name="Caminho 1013" d="M474.468,1594.748c.826-3.223,1.144-73.238,27.494-94.914-26.665,4.231-30.336,92.787-30.336,92.787a10.089,10.089,0,0,0-2.611,5.793c-5.476,15.411-7.3,67.794-5.676,70.955C463.733,1610.407,471.949,1595.977,474.468,1594.748Z" fill="#dbdbdb"/>
        </g>
      </g>
      <g id="Grupo_398" data-name="Grupo 398">
        <path id="Caminho_1014" data-name="Caminho 1014" d="M473.488,1670.583s3.915,4.584,1,19.865-5.254,16.08-7.275,20.345-3.368,8.843-5.309,6.14c-2.433,2.68-5.147,3.673-5.53.792s4.985-19.972,4.878-23.2-4.645-13.912,2.473-26.292C470.959,1655.867,473.488,1670.583,473.488,1670.583Z" fill="#ffdaad"/>
      </g>
      <g id="Grupo_399" data-name="Grupo 399" style="mix-blend-mode: multiply;isolation: isolate">
        <path id="Caminho_1015" data-name="Caminho 1015" d="M462.877,1715.614c-.952,2.968,5.023-11.95,6.649-14.211s1.306-9.361,1.306-9.361-.488,8.183-1.859,9.494S462.915,1713.124,462.877,1715.614Z" fill="#ededed"/>
      </g>
      <g id="Grupo_400" data-name="Grupo 400" style="mix-blend-mode: multiply;isolation: isolate">
        <path id="Caminho_1016" data-name="Caminho 1016" d="M460.209,1715.808c-.542,3.069,3.363-12.519,4.669-14.979s.03-9.451.03-9.451.621,8.173-.56,9.658S459.91,1713.336,460.209,1715.808Z" fill="#ededed"/>
      </g>
    </g>
    <g id="Grupo_406" data-name="Grupo 406" style="mix-blend-mode: multiply;isolation: isolate">
      <g id="Grupo_402" data-name="Grupo 402">
        <path id="Caminho_1017" data-name="Caminho 1017" d="M473.488,1670.583s3.915,4.584,1,19.865-5.254,16.08-7.275,20.345-3.368,8.843-5.309,6.14c-2.433,2.68-5.147,3.673-5.53.792s4.985-19.972,4.878-23.2-4.645-13.912,2.473-26.292C470.959,1655.867,473.488,1670.583,473.488,1670.583Z" fill="#f2f2f2"/>
      </g>
      <g id="Grupo_403" data-name="Grupo 403" style="mix-blend-mode: multiply;isolation: isolate">
        <path id="Caminho_1018" data-name="Caminho 1018" d="M462.877,1715.614c-.952,2.968,5.023-11.95,6.649-14.211s1.306-9.361,1.306-9.361-.488,8.183-1.859,9.494S462.915,1713.124,462.877,1715.614Z" fill="#dbdbdb"/>
      </g>
      <g id="Grupo_404" data-name="Grupo 404" style="mix-blend-mode: multiply;isolation: isolate">
        <path id="Caminho_1019" data-name="Caminho 1019" d="M460.209,1715.808c-.542,3.069,3.363-12.519,4.669-14.979s.03-9.451.03-9.451.621,8.173-.56,9.658S459.91,1713.336,460.209,1715.808Z" fill="#dbdbdb"/>
      </g>
      <g id="Grupo_405" data-name="Grupo 405">
        <path id="Caminho_1020" data-name="Caminho 1020" d="M474.049,1672.185c17.2-41.813,20.807-71.466,20.807-71.466,7.4-11.294,20.132-51.15,24.352-68.887s-.67-30.452-12.7-32.046c-31.159-4.129-34.878,92.835-34.878,92.835a10.089,10.089,0,0,0-2.611,5.793c-5.476,15.411-7.3,67.794-5.676,70.955C466.622,1672.555,474.049,1672.185,474.049,1672.185Z" fill="#f2f2f2"/>
      </g>
    </g>
    <g id="Grupo_424" data-name="Grupo 424">
      <g id="Grupo_407" data-name="Grupo 407">
        <path id="Caminho_1021" data-name="Caminho 1021" d="M423.476,1500.317s12.885,53.573-11.57,59.5c-16.4,3.975-36.69-1.8-35.488-76.4.783-48.636,36.92-11.374,40.928-.988S423.476,1500.317,423.476,1500.317Z" fill="#ffdaad"/>
      </g>
      <g id="Grupo_408" data-name="Grupo 408">
        <path id="Caminho_1022" data-name="Caminho 1022" d="M424.978,1534.18s5.841,105.787-10.225,163.043c-4.36,1.8-11-7.974-11-7.974s-2.019-18.659-6.214-32.638c-13.568-45.213-19.984-107.174-.535-120.595C423.723,1517.577,424.978,1534.18,424.978,1534.18Z" fill="#ffdaad"/>
      </g>
      <path id="Caminho_1023" data-name="Caminho 1023" d="M397.538,1656.611c.528,2.724,1.077,5.524,1.663,8.451,3.088,15.427,4.993,26.747,4.993,26.747s6.456,15,11.261,13.334c1.731-14.011,4.145-30.191,6.774-46.957C414.831,1663.382,405.659,1663.036,397.538,1656.611Z" fill="#c9ebff"/>
      <path id="Caminho_1024" data-name="Caminho 1024" d="M381.539,1537.439s18.677,7.343,35.877,4.4c3.157,3.266,8.255,1.2,8.255,1.2s2.53-10.011-.266-19.972C410.382,1517.082,381.539,1537.439,381.539,1537.439Z" fill="#d9d9d9" style="mix-blend-mode: multiply;isolation: isolate"/>
      <path id="Caminho_1025" data-name="Caminho 1025" d="M430.348,1532c-.972-10.748-1.64-45.836-1.64-45.836s16.106-18.969.757-59.792c-31.07-9.229-64.534-5.851-68.78,26.154-2.107,15.887,1.286,61.573,5.237,77.943C392.682,1546.806,417.007,1536.953,430.348,1532Z" fill="#4d4d4d"/>
      <g id="Grupo_409" data-name="Grupo 409" style="mix-blend-mode: multiply;isolation: isolate">
        <path id="Caminho_1026" data-name="Caminho 1026" d="M422.243,1548.41c-4.8,4.324-7.172,6.571-11.231,4.372,4.939,6.1,11.226-.289,11.226-.289Z" fill="#ededed"/>
      </g>
      <g id="Grupo_423" data-name="Grupo 423">
        <g id="Grupo_410" data-name="Grupo 410" style="mix-blend-mode: multiply;isolation: isolate">
          <path id="Caminho_1027" data-name="Caminho 1027" d="M417.682,1711.654c.813-2.809,1.581-5.681,2.325-8.58-4.985-2.3-9.681,3.958-11.12,3.064-4.728-2.935-3.763-10.678-7.3-10.031h0c-.2,2.5-.431,4.1-.431,4.1S412.966,1713.56,417.682,1711.654Z" fill="#d9d9d9"/>
        </g>
        <g id="Grupo_422" data-name="Grupo 422">
          <g id="Grupo_411" data-name="Grupo 411">
            <path id="Caminho_1028" data-name="Caminho 1028" d="M399.839,1707.668s-2.154,1.743-3,7.928c-.278,2.024,1.159,5.464,9.571,4.485,15.2-1.77,22.244-.23,50.867.665,14.364.448,15.868-12.96,15.868-12.96s-3.989.994-14.328.393-13-1.005-29.866-2.775-25.687-3.081-26.478-3.207S399.839,1707.668,399.839,1707.668Z" fill="#24c2bc"/>
          </g>
          <g id="Grupo_412" data-name="Grupo 412">
            <path id="Caminho_1029" data-name="Caminho 1029" d="M401.475,1685.858c-5.047,3.182-9.675,18.1-3.246,27.039,7.964,2.2,15.041-1.421,26.628-.115,11.329,1.278,33.412,4.719,44.506.622,3.952-1.61,5.874-7.244.852-9.45-6.737-2.958-36.423-11.053-44.337-19.17,0,0-2.831-4.318-6.446-2.621s-2.478,5.894-1.965,6.34c-1.14.923-8.042,3.114-10.6.945S404.215,1684.131,401.475,1685.858Z" fill="#4d4d4d"/>
          </g>
          <g id="Grupo_413" data-name="Grupo 413">
            <path id="Caminho_1030" data-name="Caminho 1030" d="M425.878,1684.784s-2.831-4.318-6.446-2.621c-1.976.929-2.811,2.244-2.8,3.644a4.318,4.318,0,0,0,.84,2.7s12.915,11.713,21.88,12.035c5.664.2,7.829-2.108,8.877-4.31C439.58,1692.921,430.117,1689.132,425.878,1684.784Z" fill="#24c2bc"/>
          </g>
          <g id="Grupo_415" data-name="Grupo 415">
            <g id="Grupo_414" data-name="Grupo 414">
              <path id="Caminho_1031" data-name="Caminho 1031" d="M430.478,1694.6a.5.5,0,0,1-.518-.366,4.291,4.291,0,0,1,.376-3.7,4.563,4.563,0,0,1,3.065-1.722.5.5,0,0,1,.1,1,3.581,3.581,0,0,0-2.342,1.3,3.357,3.357,0,0,0-.232,2.857.5.5,0,0,1-.448.633Z" fill="#fff"/>
            </g>
          </g>
          <g id="Grupo_417" data-name="Grupo 417">
            <g id="Grupo_416" data-name="Grupo 416">
              <path id="Caminho_1032" data-name="Caminho 1032" d="M425.978,1691.713a.5.5,0,0,1-.517-.367,4.289,4.289,0,0,1,.375-3.7,4.554,4.554,0,0,1,3.066-1.722.5.5,0,0,1,.1,1,3.58,3.58,0,0,0-2.343,1.3,3.358,3.358,0,0,0-.231,2.857.5.5,0,0,1-.35.617A.583.583,0,0,1,425.978,1691.713Z" fill="#fff"/>
            </g>
          </g>
          <g id="Grupo_419" data-name="Grupo 419">
            <g id="Grupo_418" data-name="Grupo 418">
              <path id="Caminho_1033" data-name="Caminho 1033" d="M435.488,1697.228a.5.5,0,0,1-.517-.367,4.288,4.288,0,0,1,.375-3.7,4.556,4.556,0,0,1,3.066-1.723.5.5,0,0,1,.1,1h0a3.584,3.584,0,0,0-2.343,1.3,3.357,3.357,0,0,0-.231,2.857.5.5,0,0,1-.35.617A.7.7,0,0,1,435.488,1697.228Z" fill="#fff"/>
            </g>
          </g>
          <g id="Grupo_421" data-name="Grupo 421">
            <g id="Grupo_420" data-name="Grupo 420">
              <path id="Caminho_1034" data-name="Caminho 1034" d="M440.564,1699.418a.5.5,0,0,1-.517-.366,4.291,4.291,0,0,1,.375-3.7,4.553,4.553,0,0,1,3.066-1.722.512.512,0,0,1,.547.45.5.5,0,0,1-.448.547,3.584,3.584,0,0,0-2.343,1.3,3.36,3.36,0,0,0-.232,2.857.5.5,0,0,1-.349.616A.425.425,0,0,1,440.564,1699.418Z" fill="#fff"/>
            </g>
          </g>
        </g>
        <path id="Caminho_1035" data-name="Caminho 1035" d="M451.465,1697.381c-.14,4.275-10.727,11.186-24.127,3.584,12.723,8.431,24.391,7.011,32.655-.641C457.613,1699.517,451.465,1697.381,451.465,1697.381Z" fill="#24c2bc"/>
        <path id="Caminho_1036" data-name="Caminho 1036" d="M395.689,1696.526c9.334.569,16.96,7.307,16.827,16.393-2.574,1.992-3.817.416-3.817.416s-1.21-11.686-13.535-13.2A11.687,11.687,0,0,1,395.689,1696.526Z" fill="#24c2bc"/>
        <path id="Caminho_1037" data-name="Caminho 1037" d="M462.354,1701.122a17.892,17.892,0,0,1-13.378,6.615c7.118,1.037,13.819-.872,17-5.377C464.878,1701.98,462.354,1701.122,462.354,1701.122Z" fill="#24c2bc"/>
      </g>
    </g>
    <path id="Caminho_1038" data-name="Caminho 1038" d="M470.215,1703.954c-.975-.427-2.441-.966-4.24-1.594h0l-.171-.059c-1.019-.354-2.145-.738-3.353-1.146l-.1-.034h0l-2.361-.8h0c-2.21-.75-7.663-2.642-8.43-2.909-1.9-.676-3.83-1.383-5.746-2.115q-1-.39-2.009-.788a.47.47,0,0,0,.227-.429.512.512,0,0,0-.547-.45,4.925,4.925,0,0,0-1.148.29c-1.251-.508-2.491-1.024-3.7-1.552a.476.476,0,0,0,.322-.479.5.5,0,0,0-.547-.45,4.923,4.923,0,0,0-1.179.3c-1.37-.625-2.679-1.261-3.908-1.9.1-.018.169-.029.175-.029a.5.5,0,0,0-.1-1,5.216,5.216,0,0,0-1.315.362,39.565,39.565,0,0,1-3.514-2.164,4.041,4.041,0,0,1,.429-.086.5.5,0,0,0-.1-1,5.207,5.207,0,0,0-1.315.362,16.515,16.515,0,0,1-1.709-1.506s-2.831-4.318-6.446-2.62a6.684,6.684,0,0,0-.93.559c.564-3.876,1.155-7.836,1.767-11.854.037-.24.073-.481.11-.722q.9-5.908,1.85-11.96c-.083.058-.17.107-.254.164,5.228-43.742,4.155-94.291,3.408-114.8.035-.146.067-.294.1-.441.116-.041.188-.07.188-.07a43.865,43.865,0,0,0,1.041-9.061c.013-.215.032-.429.043-.646,1.27-.466,2.473-.918,3.593-1.333-.972-10.748-1.64-45.836-1.64-45.836s16.106-18.97.757-59.792c-31.07-9.229-64.534-5.851-68.78,26.154-2.107,15.887,1.286,61.573,5.237,77.943a61.988,61.988,0,0,0,15.554,6.855,48.536,48.536,0,0,0,6.235,13.961c-6.975,24.674-.749,70.084,9.827,105.325.528,2.724,1.077,5.524,1.663,8.451,1.677,8.379,3,15.526,3.865,20.326a2.312,2.312,0,0,0-1.591.47c-2.41,1.52-4.711,5.725-5.771,10.669h-.015a11.687,11.687,0,0,0-.525,3.606l.018,0a19.784,19.784,0,0,0,2.438,11.777,23.936,23.936,0,0,0-.786,3.684c-.278,2.024,1.159,5.464,9.571,4.485,15.2-1.77,22.244-.23,50.867.665,9.85.307,13.651-5.9,15.068-9.833C473.835,1708.581,473.653,1705.464,470.215,1703.954Z" fill="#e0e0e0" style="mix-blend-mode: multiply;isolation: isolate"/>
    <g id="Grupo_425" data-name="Grupo 425">
      <path id="Caminho_1039" data-name="Caminho 1039" d="M411.867,1504.476s12.885,53.573-11.57,59.5c-16.4,3.974-30.825-2.1-35.488-76.4-3.046-48.547,36.921-11.375,40.928-.988S411.867,1504.476,411.867,1504.476Z" fill="#ffdaad"/>
    </g>
    <g id="Grupo_426" data-name="Grupo 426">
      <path id="Caminho_1040" data-name="Caminho 1040" d="M413.369,1538.338s5.842,105.787-10.225,163.044c-4.359,1.8-11-7.974-11-7.974s.46-19.761-3.735-33.74c-13.568-45.213-16.35-107.228,3.1-120.649C418.227,1520.58,413.369,1538.338,413.369,1538.338Z" fill="#ffdaad"/>
    </g>
    <path id="Caminho_1041" data-name="Caminho 1041" d="M388.408,1659.668c.528,2.724,1.077,5.524,1.663,8.451a127.63,127.63,0,0,1,2.514,27.848s6.457,15,11.262,13.334c1.73-14.011,4.145-30.19,6.774-46.957C403.222,1667.54,396.529,1666.092,388.408,1659.668Z" fill="#c9ebff"/>
    <path id="Caminho_1042" data-name="Caminho 1042" d="M369.93,1541.6s18.677,7.343,35.877,4.4c3.157,3.266,8.256,1.2,8.256,1.2s2.529-10.012-.267-19.972C398.773,1521.24,369.93,1541.6,369.93,1541.6Z" fill="#d9d9d9" style="mix-blend-mode: multiply;isolation: isolate"/>
    <g id="Grupo_427" data-name="Grupo 427">
      <path id="Caminho_1043" data-name="Caminho 1043" d="M489.127,1672.185c17.2-41.813,20.807-71.466,20.807-71.466,7.406-11.294,20.133-51.15,24.353-68.887s-.671-30.452-12.7-32.046c-31.159-4.129-34.878,92.835-34.878,92.835a10.09,10.09,0,0,0-2.611,5.793c-5.476,15.411-7.3,67.794-5.676,70.955C481.7,1672.555,489.127,1672.185,489.127,1672.185Z" fill="#ffdaad"/>
    </g>
    <g id="Grupo_428" data-name="Grupo 428">
      <path id="Caminho_1044" data-name="Caminho 1044" d="M488.567,1670.583s3.915,4.584,1,19.865-5.254,16.08-7.275,20.345-3.369,8.843-5.309,6.14c-2.433,2.68-5.148,3.673-5.53.792s4.985-19.972,4.878-23.2-4.645-13.912,2.473-26.292C486.037,1655.867,488.567,1670.583,488.567,1670.583Z" fill="#ffdaad"/>
    </g>
    <g id="Grupo_429" data-name="Grupo 429" style="mix-blend-mode: multiply;isolation: isolate">
      <path id="Caminho_1045" data-name="Caminho 1045" d="M477.955,1715.614c-.951,2.968,5.024-11.95,6.65-14.211s1.306-9.361,1.306-9.361-.488,8.183-1.859,9.494S477.993,1713.124,477.955,1715.614Z" fill="#ededed"/>
    </g>
    <g id="Grupo_430" data-name="Grupo 430" style="mix-blend-mode: multiply;isolation: isolate">
      <path id="Caminho_1046" data-name="Caminho 1046" d="M475.288,1715.808c-.542,3.069,3.363-12.519,4.669-14.979s.029-9.451.029-9.451.622,8.173-.559,9.658S474.989,1713.336,475.288,1715.808Z" fill="#ededed"/>
    </g>
    <path id="Caminho_1047" data-name="Caminho 1047" d="M424.11,1536.159c-.972-10.747-1.64-45.835-1.64-45.835s15.582-25.474.233-66.3c-31.07-9.229-64.01.653-68.255,32.658-2.108,15.887,1.285,61.572,5.236,77.943C386.444,1550.964,410.769,1541.112,424.11,1536.159Z" fill="#4d4d4d"/>
    <path id="Caminho_1048" data-name="Caminho 1048" d="M422.7,1424.028c23.314,0,65.66,22.534,81.336,32.658,25.8,10.451,37.23,24.167,34.618,56.172s-14.079,52.051-14.079,52.051-14.546,16.554-33.978-9.736c.911-4.861,1.755-16.9,1.755-16.9s-21.137-5.871-28.812-16.485-23.313-24.475-40.5-23.831c-4.945-9.153-1.516-15.358-1.189-24.992S422.7,1424.028,422.7,1424.028Z" fill="#24c2bc"/>
    <path id="Caminho_1049" data-name="Caminho 1049" d="M492.521,1537.861s6.8-38.265,10.886-44.143c-9.825,13.832-16.083,42.426-16.083,42.426S490.9,1537.956,492.521,1537.861Z" fill="#d9d9d9" style="mix-blend-mode: multiply;isolation: isolate"/>
    <g id="Grupo_431" data-name="Grupo 431" style="mix-blend-mode: multiply;isolation: isolate">
      <path id="Caminho_1050" data-name="Caminho 1050" d="M458.318,1497.4s-.007.17-.012.419A.89.89,0,0,0,458.318,1497.4Z" fill="#d9d9d9"/>
      <path id="Caminho_1051" data-name="Caminho 1051" d="M423.039,1497.953c17.191-.644,32.829,13.218,40.5,23.831s24.983,15.4,24.983,15.4-8.436-4.735-19.758-14.968c-10.241-9.256-10.5-22.038-10.462-24.4-.149.811-1.044,2.991-5.649,8.072-8.926-6.75-5.225-5.879-8.926-18.071,1.523,4.137-6.532,9.362-12.193,8.462s3.919-7.591,0-20.219c-1.524,2.177,0,9.362-7.4,14.587-4.389-7.585,3.048-42.673-1.433-66.622,0,0-.527,39.3-.853,48.933S418.094,1488.8,423.039,1497.953Z" fill="#d9d9d9"/>
    </g>
    <g id="Grupo_432" data-name="Grupo 432" style="mix-blend-mode: multiply;isolation: isolate">
      <path id="Caminho_1052" data-name="Caminho 1052" d="M410.634,1552.569c-4.8,4.323-7.172,6.57-11.231,4.371,4.939,6.1,11.226-.289,11.226-.289Z" fill="#ededed"/>
    </g>
    <g id="Grupo_446" data-name="Grupo 446">
      <g id="Grupo_433" data-name="Grupo 433" style="mix-blend-mode: multiply;isolation: isolate">
        <path id="Caminho_1053" data-name="Caminho 1053" d="M406.073,1715.813c.813-2.81,1.581-5.682,2.326-8.58-4.986-2.305-9.682,3.957-11.121,3.064-4.727-2.936-3.763-10.679-7.3-10.031h0c-.2,2.5-.432,4.1-.432,4.1S401.358,1717.718,406.073,1715.813Z" fill="#d9d9d9"/>
      </g>
      <g id="Grupo_445" data-name="Grupo 445">
        <g id="Grupo_434" data-name="Grupo 434">
          <path id="Caminho_1054" data-name="Caminho 1054" d="M388.231,1711.827s-2.155,1.743-3,7.928c-.278,2.024,1.158,5.464,9.57,4.485,15.2-1.77,22.244-.23,50.868.664,14.364.449,15.867-12.96,15.867-12.96s-3.988.995-14.327.393-13-1-29.867-2.775-25.686-3.081-26.478-3.206S388.231,1711.827,388.231,1711.827Z" fill="#24c2bc"/>
        </g>
        <g id="Grupo_435" data-name="Grupo 435">
          <path id="Caminho_1055" data-name="Caminho 1055" d="M389.867,1690.017c-5.047,3.182-9.676,18.1-3.246,27.039,7.963,2.2,15.04-1.421,26.627-.115,11.329,1.277,33.412,4.719,44.506.622,3.952-1.61,5.875-7.245.853-9.45-6.738-2.958-36.424-11.053-44.338-19.171,0,0-2.831-4.318-6.445-2.62s-2.479,5.894-1.966,6.34c-1.139.922-8.041,3.114-10.6.945S392.606,1688.29,389.867,1690.017Z" fill="#4d4d4d"/>
        </g>
        <g id="Grupo_436" data-name="Grupo 436">
          <path id="Caminho_1056" data-name="Caminho 1056" d="M414.269,1688.942s-2.831-4.318-6.445-2.62c-1.976.928-2.811,2.243-2.8,3.644a4.315,4.315,0,0,0,.839,2.7s12.916,11.713,21.88,12.034c5.664.2,7.829-2.108,8.877-4.309C427.971,1697.08,418.509,1693.291,414.269,1688.942Z" fill="#24c2bc"/>
        </g>
        <g id="Grupo_438" data-name="Grupo 438">
          <g id="Grupo_437" data-name="Grupo 437">
            <path id="Caminho_1057" data-name="Caminho 1057" d="M418.869,1698.757a.5.5,0,0,1-.517-.367,4.29,4.29,0,0,1,.375-3.7,4.553,4.553,0,0,1,3.066-1.722.5.5,0,0,1,.1,1,3.586,3.586,0,0,0-2.343,1.3,3.357,3.357,0,0,0-.231,2.857.5.5,0,0,1-.35.616A.483.483,0,0,1,418.869,1698.757Z" fill="#fff"/>
          </g>
        </g>
        <g id="Grupo_440" data-name="Grupo 440">
          <g id="Grupo_439" data-name="Grupo 439">
            <path id="Caminho_1058" data-name="Caminho 1058" d="M414.37,1695.871a.5.5,0,0,1-.518-.366,4.291,4.291,0,0,1,.375-3.7,4.555,4.555,0,0,1,3.066-1.722.5.5,0,0,1,.1,1,3.577,3.577,0,0,0-2.342,1.3,3.354,3.354,0,0,0-.232,2.857.5.5,0,0,1-.349.616A.425.425,0,0,1,414.37,1695.871Z" fill="#fff"/>
          </g>
        </g>
        <g id="Grupo_442" data-name="Grupo 442">
          <g id="Grupo_441" data-name="Grupo 441">
            <path id="Caminho_1059" data-name="Caminho 1059" d="M423.88,1701.386a.5.5,0,0,1-.518-.366,4.291,4.291,0,0,1,.375-3.7,4.558,4.558,0,0,1,3.066-1.722.5.5,0,0,1,.1,1h0a3.59,3.59,0,0,0-2.343,1.3,3.356,3.356,0,0,0-.232,2.858.5.5,0,0,1-.349.616A.483.483,0,0,1,423.88,1701.386Z" fill="#fff"/>
          </g>
        </g>
        <g id="Grupo_444" data-name="Grupo 444">
          <g id="Grupo_443" data-name="Grupo 443">
            <path id="Caminho_1060" data-name="Caminho 1060" d="M428.956,1703.577a.5.5,0,0,1-.518-.367,4.289,4.289,0,0,1,.375-3.7,4.554,4.554,0,0,1,3.066-1.722.512.512,0,0,1,.548.449.5.5,0,0,1-.449.548,3.58,3.58,0,0,0-2.342,1.3,3.354,3.354,0,0,0-.232,2.857.5.5,0,0,1-.349.617A.6.6,0,0,1,428.956,1703.577Z" fill="#fff"/>
          </g>
        </g>
      </g>
      <path id="Caminho_1061" data-name="Caminho 1061" d="M439.856,1701.54c-.139,4.274-10.726,11.185-24.127,3.583,12.723,8.432,24.391,7.012,32.655-.641C446.005,1703.676,439.856,1701.54,439.856,1701.54Z" fill="#24c2bc"/>
      <path id="Caminho_1062" data-name="Caminho 1062" d="M384.08,1700.684c9.334.569,16.961,7.307,16.828,16.394-2.574,1.991-3.817.415-3.817.415s-1.211-11.686-13.536-13.2A11.688,11.688,0,0,1,384.08,1700.684Z" fill="#24c2bc"/>
      <path id="Caminho_1063" data-name="Caminho 1063" d="M450.746,1705.28a17.892,17.892,0,0,1-13.379,6.616c7.118,1.037,13.819-.872,17-5.377C453.269,1706.139,450.746,1705.28,450.746,1705.28Z" fill="#24c2bc"/>
    </g>
    <g id="Grupo_448" data-name="Grupo 448" style="mix-blend-mode: multiply;isolation: isolate">
      <g id="Grupo_447" data-name="Grupo 447">
        <path id="Caminho_1064" data-name="Caminho 1064" d="M489.547,1594.748c.826-3.223-5.817-82.817,20.532-104.493-26.664,4.23-23.374,102.366-23.374,102.366a10.09,10.09,0,0,0-2.611,5.793c-5.476,15.411-7.3,67.794-5.676,70.955C478.811,1610.407,487.027,1595.977,489.547,1594.748Z" fill="#dbdbdb"/>
      </g>
    </g>
  </g>
</svg>
