<svg xmlns="http://www.w3.org/2000/svg" width="219.626" height="571.49" viewBox="0 0 219.626 571.49">
  <g id="Grupo_158" data-name="Grupo 158" transform="translate(-121.054 -448.693)">
    <path id="Caminho_380" data-name="Caminho 380" d="M232.743,598.942c-2.162,27.567-1.982,69.006-18.738,69.186s-7.747-35.854-7.747-35.854,11.891-25.584,11.891-26.125S232.743,598.942,232.743,598.942Z" fill="#edcba1"/>
    <path id="Caminho_381" data-name="Caminho 381" d="M225.851,767.638c-1.468,14.689-.911,43.6,3.986,70.57-2.547,17.784-2.514,68.359-2.332,78.484.29,16.133,9.907,79.87,9.907,79.87l11.292-6.3s17.41-109.447,14.953-123.349,2.193-35.056,2.193-35.056l4.281-58.992s-10.924-12.972-17.612-12.669S225.851,767.638,225.851,767.638Z" fill="#ffdaad"/>
    <path id="Caminho_382" data-name="Caminho 382" d="M330.052,767.183c1.468,14.69-.877,47.3-6.28,71.025,2.546,17.784,2.624,68.359,2.443,78.484-.29,16.133-10.7,80.537-10.7,80.537l-11.292-6.3c1.953-1.693-15.133-95.7-14.717-123.4.212-14.116-1.441-33.853-1.441-33.853l-1.511-59.523s7.956-14.263,14.645-13.96S330.052,767.183,330.052,767.183Z" fill="#ffdaad"/>
    <path id="Caminho_383" data-name="Caminho 383" d="M254.168,957.944c-9.394,8.4-21.748,3.285-21.748,3.65,3.023,18,5.508,35.635,5.508,35.635l11.291-6.3S251.251,975.1,254.168,957.944Z" fill="#c9ebff"/>
    <path id="Caminho_384" data-name="Caminho 384" d="M299.957,959.832c9.394,8.4,21.113,1,21.116,1-3.022,18-5.556,36.4-5.556,36.4l-11.292-6.3S302.873,976.984,299.957,959.832Z" fill="#c9ebff"/>
    <path id="Caminho_385" data-name="Caminho 385" d="M326.215,916.692c.181-10.125.1-60.7-2.443-78.484-5.891,10.091-12.625,7.425-17.43,7.589,6.015,3.394,14.758-1.264,15.354,4.045,6.589,58.782-6.179,147.387-6.179,147.387S325.925,932.825,326.215,916.692Z" fill="#e8e8e8" style="mix-blend-mode: multiply;isolation: isolate"/>
    <path id="Caminho_386" data-name="Caminho 386" d="M237.416,686.467s9.13-14.8,10.051-16.015c.824-1.088,24.97,5.35,30.113,6.736,5.143-1.386,29.289-7.824,30.113-6.736.922,1.217,14.355,17.135,14.355,17.135,11.72,30.806,16.528,84.335,12.251,142.455-23.629,12.477-51.856.875-51.856.875l-3.957-91.441h-1.812l-3.956,91.441S243.2,841.881,219.572,829.4C217.789,763.979,225.883,716.78,237.416,686.467Z" fill="#404040"/>
    <path id="Caminho_387" data-name="Caminho 387" d="M237.416,686.467s4.119-6.677,7.1-11.43c4.483-.92,9.658-1.818,14.858-2.512,7.175,1.712,15.436,3.918,18.2,4.663,3.174-.855,13.581-3.633,21.282-5.38a65.073,65.073,0,0,1,10.5.87c3.277,4.385,10.071,13.5,10.071,13.5.3.776.59,1.616.883,2.5a69.053,69.053,0,0,0,4.78,11.361l0,.016c-.007.007-24.241,21.065-84.336,7.986-5.325,6.4-19.011,53.177-19.011,53.177S231.485,702.056,237.416,686.467Z" fill="#bdbdbd" style="mix-blend-mode: multiply;isolation: isolate"/>
    <path id="Caminho_388" data-name="Caminho 388" d="M223.844,559.005c-11.257,5.075-20.109,17.716-24.433,71.047,3.6,12.011,32.071,12.131,32.071,12.131s15.014-35.8,9.729-59.345S229.419,556.491,223.844,559.005Z" fill="#24c2bc"/>
    <path id="Caminho_389" data-name="Caminho 389" d="M232.034,611.315c-1.129-5.326-7.675-43.67-9.511-51.588,6.955-4.331,38.777-10.962,41.541-12.154l14.49,6,14.49-6c11.227,2.363,35.261,7.941,42.216,12.272-1.836,7.919-9.057,44.111-10.187,49.437s5.079,101.726,5.5,108.573c-15.394,9.13-52.022,9-52.022,9s-35.282.619-50.676-8.511C228.3,711.493,233.164,616.64,232.034,611.315Z" fill="#24c2bc"/>
    <path id="Caminho_390" data-name="Caminho 390" d="M326.792,586.15c-15.134,15.375-59.516,13.033-59.516,13.033l-5.766-6.727-61.258-3.6s5.525-11.771,28.107-11.771,51.168-.961,70.867.24S326.792,586.15,326.792,586.15Z" fill="#e3e3e3" style="mix-blend-mode: multiply;isolation: isolate"/>
    <g id="Grupo_141" data-name="Grupo 141" style="mix-blend-mode: multiply;isolation: isolate">
      <path id="Caminho_391" data-name="Caminho 391" d="M267.516,643.625c-19.819,5.585-34.413-.9-33.191,27.954,1.677,39.584,3.591,52.859,42.355,55.279-6.866-.048-35.695.181-48.8-8.518.424-7.662,5.286-97.05,4.156-103.01S237.607,648.55,267.516,643.625Z" fill="#f2f2f2"/>
      <path id="Caminho_392" data-name="Caminho 392" d="M281.224,627.971q2.861-.313,5.949-.628A50.25,50.25,0,0,1,281.224,627.971Z" fill="#f2f2f2"/>
    </g>
    <path id="Caminho_393" data-name="Caminho 393" d="M290.283,526.162,278.754,536.99l-11.528-10.828c.064.736-1.444,15.293-3.379,22.406a8.622,8.622,0,0,0,1.381,7.476c2.767,3.647,6.932,5.8,13.526,5.8s10.759-2.153,13.527-5.8a8.619,8.619,0,0,0,1.38-7.476C291.727,541.455,290.219,526.9,290.283,526.162Z" fill="#ffdaad"/>
    <path id="Caminho_394" data-name="Caminho 394" d="M264.316,536.637s3.752,13.785,16.777,13.089c7.268-.389,11.174-10.505,11.174-10.505s-9.926-7.214-12.157-7.26-6.075-1.748-8.543,0S264.316,536.637,264.316,536.637Z" fill="#dedede" style="mix-blend-mode: multiply;isolation: isolate"/>
    <path id="Caminho_395" data-name="Caminho 395" d="M252.873,480.131c1.333-6.359,7.291-7.778,8.851-9.731s17.293-3.658,17.293-3.658,15.745,1.574,17.321,3.514,6.185,3.561,7.571,9.909,3.115,19.968,3.115,19.968c-1.207,11.38-2.731,18.155-4.3,22.767-2.859,8.414-13.739,19.568-16.659,20.9a15.523,15.523,0,0,1-13.49.056c-2.932-1.307-13.878-12.474-16.805-20.762-1.622-4.591-3.184-11.361-4.486-22.73C251.287,500.364,251.54,486.49,252.873,480.131Z" fill="#ffdaad"/>
    <path id="Caminho_396" data-name="Caminho 396" d="M307.857,508.8a152.176,152.176,0,0,1-7.738,24.1c-2.475,5.617-14.748,11.2-14.748,11.2s5.316-8.358,10.034-14.264S307.857,508.8,307.857,508.8Z" fill="#ffdaad"/>
    <g id="Grupo_142" data-name="Grupo 142">
      <path id="Caminho_397" data-name="Caminho 397" d="M312.114,514.013c-.886,4.711-4.064,8.045-7.1,7.446s-4.779-4.9-3.893-9.616,4.063-8.045,7.1-7.446S313,509.3,312.114,514.013Z" fill="#ffdaad"/>
      <path id="Caminho_398" data-name="Caminho 398" d="M311.157,509.907c-1.384-3.388-3-2.884-3.889-2.156s.362,4.117.982,4.567c-1.374-1.035-2.557,1.368-2.109,2.679-.984-2.847.249-3.786.646-3.887-.675-3.037-.459-4.26,1.219-4.358S310.662,507.873,311.157,509.907Z" fill="#ccc" style="mix-blend-mode: multiply;isolation: isolate"/>
      <path id="Caminho_399" data-name="Caminho 399" d="M246.313,514.44c.925,4.7,4.13,8.012,7.161,7.387s4.737-4.943,3.813-9.647-4.13-8.011-7.161-7.387S245.389,509.736,246.313,514.44Z" fill="#ffdaad"/>
      <path id="Caminho_400" data-name="Caminho 400" d="M247.236,510.327c1.356-3.4,2.977-2.909,3.871-2.188s-.328,4.119-.945,4.575c1.366-1.047,2.568,1.347,2.132,2.661.96-2.855-.281-3.784-.679-3.881.65-3.043.424-4.264-1.255-4.348S247.714,508.289,247.236,510.327Z" fill="#ccc" style="mix-blend-mode: multiply;isolation: isolate"/>
    </g>
    <g id="Grupo_145" data-name="Grupo 145">
      <g id="Grupo_143" data-name="Grupo 143">
        <path id="Caminho_401" data-name="Caminho 401" d="M273.678,495.135a106.178,106.178,0,0,0-12.837-.677c-1.729.238-5.826,3.79-5.826,3.79a17.2,17.2,0,0,1,6.452-1.064c3.343.178,11.994,1.3,11.994,1.3Z" fill="#7d5137"/>
        <path id="Caminho_402" data-name="Caminho 402" d="M274.043,495.172l-.255,3.306.582-3.307Z" fill="#7d5137"/>
      </g>
      <g id="Grupo_144" data-name="Grupo 144">
        <path id="Caminho_403" data-name="Caminho 403" d="M284.591,495.09a105.9,105.9,0,0,1,12.831-.783c1.73.223,5.856,3.741,5.856,3.741a17.187,17.187,0,0,0-6.46-1.01c-3.342.206-11.983,1.394-11.983,1.394Z" fill="#7d5137"/>
        <path id="Caminho_404" data-name="Caminho 404" d="M284.232,495.13l.283,3.3-.609-3.3Z" fill="#7d5137"/>
      </g>
    </g>
    <path id="Caminho_405" data-name="Caminho 405" d="M251.668,505.12s3.913-25.6,5.309-26.317c4.327-2.214,39.617-2.358,44.54.085,1.5.745,4.916,22.062,5.134,26,3.52-12.505,10.216-51.68-27.706-51.529C237.715,453.528,248.166,496.932,251.668,505.12Z" fill="#7d5137"/>
    <g id="Grupo_146" data-name="Grupo 146" style="mix-blend-mode: multiply;isolation: isolate">
      <path id="Caminho_406" data-name="Caminho 406" d="M283.677,518.772a18.967,18.967,0,0,1-9.839.016,14.56,14.56,0,0,0,4.882,2.448S282.675,520.529,283.677,518.772Z" fill="#bdbdbd"/>
    </g>
    <path id="Caminho_407" data-name="Caminho 407" d="M252.117,507.2c1.483,9.687,5.264,21.778,6.355,25.13s14.063,11.54,14.063,11.54-4.823-8.782-9.194-14.949S252.117,507.2,252.117,507.2Z" fill="#ffdaad"/>
    <path id="Caminho_408" data-name="Caminho 408" d="M251.287,500.364c4.705-4.9,15.259-20.94,15.259-20.94s8.264,8.289,24.726,12.487c-1.417-.882-3.781-6.418-3.781-6.418a90.129,90.129,0,0,0,18.721,10.271,5.05,5.05,0,0,0,2.033-4.9c-.192-1.688-4.537-12.537-4.89-12.788s-1.176-5.08-11.721-6.1-20.953-2.645-26.273-1.476-6.137.305-8.292,4.208-3.212,3.032-4.087,8.414S251.287,500.364,251.287,500.364Z" fill="#7d5137"/>
    <path id="Caminho_409" data-name="Caminho 409" d="M265.276,455.656c5.116-8.685,17.859-6.787,17.859-6.787s-7,1.962-5.833,2.265,13.22-2.143,20.626,3.567c-6.182-1.259-7.646-.49-7.646-.49s18.321,2.238,22.313,20.107l-1.561-2.117s4.525,21.308-4.44,32.226c.735-16.2-8-25.915-8-25.915s-13.136-7.046-16.488-9.576S265.276,455.656,265.276,455.656Z" fill="#7d5137"/>
    <path id="Caminho_410" data-name="Caminho 410" d="M265.276,455.656c-3.872-.112-10.6,2.038-12.33,5.684,3.312-2.338,3.08-.543,3.08-.543s-7.58,3.478-8.759,10.023a11.39,11.39,0,0,1,2.678-2.266s-5.422,9.938-4.155,19.166l.584-1.515s.493,12.755,5.294,18.915c.575-19.287,3.154-27.5,3.908-28.654s3.721-4.039,4.612-6.807S265.276,455.656,265.276,455.656Z" fill="#7d5137"/>
    <path id="Caminho_411" data-name="Caminho 411" d="M249.235,485.5c-1.738-4.026,1.658-12.921,3.573-15.177s.954-.652.732,1.605,3.82-6.8,4.892-5.891-5.3,13.746-3.388,15.249-2.636,4.491-3.169.1S249.693,486.562,249.235,485.5Z" fill="#262626" style="mix-blend-mode: screen;isolation: isolate"/>
    <path id="Caminho_412" data-name="Caminho 412" d="M264.957,457.359s-4.947,12.2.81,18.859C264.047,470.22,264.957,457.359,264.957,457.359Z" fill="#dedede" style="mix-blend-mode: multiply;isolation: isolate"/>
    <path id="Caminho_413" data-name="Caminho 413" d="M227.505,916.692c-.182-10.125-.215-60.7,2.332-78.484,5.89,10.091,10.921,7.425,15.726,7.589-6.015,3.394-13.093-1.269-13.65,4.045-5.793,55.241,5.5,146.72,5.5,146.72S227.795,932.825,227.505,916.692Z" fill="#e8e8e8" style="mix-blend-mode: multiply;isolation: isolate"/>
    <g id="Grupo_150" data-name="Grupo 150">
      <path id="Caminho_414" data-name="Caminho 414" d="M215.116,1008.774c3.244-5.414,11.007-10.884,15.989-11.538s20.617-1.209,23.717,12.35C239.013,1017.463,215.116,1008.774,215.116,1008.774Z" fill="#404040"/>
      <path id="Caminho_415" data-name="Caminho 415" d="M249.3,1020.183l-29.494-.494a6.681,6.681,0,0,1-6.572-6.788h0a6.68,6.68,0,0,1,6.8-6.563c9.541,5,19.366,5.272,29.495.494a6.679,6.679,0,0,1,6.571,6.787h0A6.681,6.681,0,0,1,249.3,1020.183Z" fill="#24c2bc"/>
      <path id="Caminho_416" data-name="Caminho 416" d="M222.734,1001.026c3.866-2.757,6.3-7.967,7.36-10.685a4.461,4.461,0,0,1,2.508-2.507l4.1-1.647,10.59.494,2.943,1.62a4.544,4.544,0,0,1,2.287,4.63,29.007,29.007,0,0,0,1.646,14.459A111.879,111.879,0,0,1,222.734,1001.026Z" fill="#404040"/>
      <path id="Caminho_417" data-name="Caminho 417" d="M236.806,985.907c-1.952,5.253-5.933,14.35-8.6,15.828.513,2.893,13.138,4.905,18,.041-.33-1.506-1.677-9.653.762-14.1S238.36,981.728,236.806,985.907Z" fill="#24c2bc"/>
      <g id="Grupo_147" data-name="Grupo 147">
        <path id="Caminho_418" data-name="Caminho 418" d="M246.454,992.275a.52.52,0,0,0,.2-1c-8.439-3.546-13.5-.315-13.713-.177a.52.52,0,0,0,.571.87c.049-.031,4.841-3.052,12.74.267A.525.525,0,0,0,246.454,992.275Z" fill="#fff"/>
      </g>
      <g id="Grupo_148" data-name="Grupo 148">
        <path id="Caminho_419" data-name="Caminho 419" d="M246.4,997.326a.521.521,0,0,0,.2-1c-9.939-4.175-15.9-.38-16.145-.217a.521.521,0,0,0,.572.87c.055-.035,5.766-3.64,15.17.307A.509.509,0,0,0,246.4,997.326Z" fill="#fff"/>
      </g>
      <g id="Grupo_149" data-name="Grupo 149">
        <path id="Caminho_420" data-name="Caminho 420" d="M247.15,1001.952a.521.521,0,0,0,.2-1c-12.682-5.329-20.255-.5-20.573-.292a.521.521,0,0,0,.572.87c.075-.046,7.457-4.716,19.6.382A.533.533,0,0,0,247.15,1001.952Z" fill="#fff"/>
      </g>
    </g>
    <g id="Grupo_154" data-name="Grupo 154">
      <path id="Caminho_421" data-name="Caminho 421" d="M336.979,1008.774c-3.244-5.414-11.007-10.884-15.989-11.538s-20.617-1.209-23.717,12.35C313.082,1017.463,336.979,1008.774,336.979,1008.774Z" fill="#404040"/>
      <path id="Caminho_422" data-name="Caminho 422" d="M302.793,1020.183l29.494-.494a6.681,6.681,0,0,0,6.572-6.788h0a6.68,6.68,0,0,0-6.8-6.563c-9.541,5-19.366,5.272-29.495.494a6.679,6.679,0,0,0-6.571,6.787h0A6.681,6.681,0,0,0,302.793,1020.183Z" fill="#24c2bc"/>
      <path id="Caminho_423" data-name="Caminho 423" d="M329.361,1001.026c-3.866-2.757-6.3-7.967-7.36-10.685a4.461,4.461,0,0,0-2.508-2.507l-4.1-1.647-10.59.494-2.943,1.62a4.544,4.544,0,0,0-2.287,4.63,29.007,29.007,0,0,1-1.646,14.459A111.878,111.878,0,0,0,329.361,1001.026Z" fill="#404040"/>
      <path id="Caminho_424" data-name="Caminho 424" d="M315.289,985.907c1.952,5.253,5.933,14.35,8.6,15.828-.513,2.893-13.138,4.905-18,.041.33-1.506,1.677-9.653-.762-14.1S313.735,981.728,315.289,985.907Z" fill="#24c2bc"/>
      <g id="Grupo_151" data-name="Grupo 151">
        <path id="Caminho_425" data-name="Caminho 425" d="M305.642,992.275a.525.525,0,0,0,.2-.04c7.9-3.317,12.693-.295,12.739-.267a.521.521,0,0,0,.572-.87c-.214-.138-5.274-3.369-13.714.177a.52.52,0,0,0,.2,1Z" fill="#fff"/>
      </g>
      <g id="Grupo_152" data-name="Grupo 152">
        <path id="Caminho_426" data-name="Caminho 426" d="M305.69,997.326a.51.51,0,0,0,.2-.041c9.4-3.95,15.113-.342,15.17-.307a.521.521,0,0,0,.572-.87c-.249-.163-6.206-3.958-16.145.217a.521.521,0,0,0,.2,1Z" fill="#fff"/>
      </g>
      <g id="Grupo_153" data-name="Grupo 153">
        <path id="Caminho_427" data-name="Caminho 427" d="M304.946,1001.952a.528.528,0,0,0,.2-.041c12.18-5.115,19.523-.43,19.6-.382a.521.521,0,1,0,.573-.87c-.319-.208-7.892-5.033-20.572.292a.521.521,0,0,0,.2,1Z" fill="#fff"/>
      </g>
    </g>
    <path id="Caminho_428" data-name="Caminho 428" d="M172.028,586.045c16.026,1.5,65.656,2.283,65.656,2.283,16.882,1.481,56.789.958,64.443-.243,9.049.452,23.112,2.455,33.52-8.377L319.61,562.672s-9.608-6.319-26.449-2.345c-11.713-1.105-49.045,2.162-57.971,4.364-17.028-.824-45.479,2.522-64.965,8.015C161.72,574.522,168.209,588.467,172.028,586.045Z" fill="#f5d1a6"/>
    <path id="Caminho_429" data-name="Caminho 429" d="M236.865,567.326c6.158-3.958,47.6-5.217,60.879-3.358l6.166-4.922a47.276,47.276,0,0,0-10.749,1.281c-11.713-1.105-49.045,2.162-57.971,4.364-17.028-.824-45.479,2.522-64.965,8.015a6.309,6.309,0,0,0-1.372.455C168.874,573.2,222.491,565.315,236.865,567.326Z" fill="#dedede" style="mix-blend-mode: multiply;isolation: isolate"/>
    <path id="Caminho_430" data-name="Caminho 430" d="M340.065,573.291c-5.122,15.191-16.976,22.8-70.477,22.138-9.189-9.819-8.355-34.136-8.355-34.136s36.574-10.261,60.454-6.8C340.178,557.169,342.019,567.5,340.065,573.291Z" fill="#28dbd4"/>
    <g id="Grupo_155" data-name="Grupo 155">
      <path id="Caminho_431" data-name="Caminho 431" d="M172.863,575.278A27.292,27.292,0,0,0,158.4,561.687c-1.455-.553-8.832-.439-8.832-.439s-1.909,2.817,5.459,3.434c1.12,2.078,6.932,8.1,6.932,8.1Z" fill="#f5d1a6"/>
      <path id="Caminho_432" data-name="Caminho 432" d="M140.814,587.848h0a2.394,2.394,0,0,1-2.314,2.472l-12.7-.011c-1.322.044-2.809-.608-2.853-1.93h0c-.044-1.321,1.437-1.914,2.758-1.958l12.633-.886A2.4,2.4,0,0,1,140.814,587.848Z" fill="#f5d1a6"/>
      <path id="Caminho_433" data-name="Caminho 433" d="M138.89,580.859h0a2.394,2.394,0,0,1-2.313,2.472L123.869,583c-1.321.043-2.77-.352-2.814-1.674h0c-.043-1.321,1.463-2.027,2.784-2.071l12.579-.7A2.394,2.394,0,0,1,138.89,580.859Z" fill="#f5d1a6"/>
      <path id="Caminho_434" data-name="Caminho 434" d="M149.011,569.291l-10.366,1.093a2.394,2.394,0,0,0,.5,4.762l6.088-.642a11.61,11.61,0,0,0-.532,2.641l-9.2,1.343a2.394,2.394,0,0,0,.5,4.762l8.75-.923c.088.8.211,1.586.37,2.338l-7.7.812a2.394,2.394,0,0,0,.5,4.762l8.941-.943a10.026,10.026,0,0,0,.87,1.236l-3.751.932a2.394,2.394,0,0,0,1.155,4.647l9.689-2.408a15.71,15.71,0,0,0,1.788-.033c8.319-.661,18.747-7.365,18.175-14.568s-9.427-12.375-17.746-11.714C154.751,567.571,150.438,568.375,149.011,569.291Z" fill="#f5d1a6"/>
      <path id="Caminho_435" data-name="Caminho 435" d="M142.032,572.755h0a2.4,2.4,0,0,1-2.313,2.473l-12.579-.159c-1.321.044-2.907-.4-2.951-1.724h0c-.043-1.321,1.414-2.3,3.5-1.877l11.874-1.026A2.394,2.394,0,0,1,142.032,572.755Z" fill="#f5d1a6"/>
      <path id="Caminho_436" data-name="Caminho 436" d="M146.873,593.679h0a2.43,2.43,0,0,1-2.31,2.541l-7.9-.35c-1.34.064-3.107-.2-3.171-1.541h0c-.064-1.339,1.072-2.273,3.279-2.128l7.564-.832A2.429,2.429,0,0,1,146.873,593.679Z" fill="#f5d1a6"/>
    </g>
    <g id="Grupo_157" data-name="Grupo 157">
      <g id="Grupo_156" data-name="Grupo 156">
        <path id="Caminho_437" data-name="Caminho 437" d="M196.629,600.879A28.3,28.3,0,0,1,179.5,589.465c-.9-1.34-2.522-8.819-2.522-8.819s2.4-2.591,4.754,4.707c2.362.643,9.813,5.1,9.813,5.1Z" fill="#ffdaad"/>
        <path id="Caminho_438" data-name="Caminho 438" d="M201.786,565.548h0a2.483,2.483,0,0,0,1.953-2.918l-3-12.824c-.267-1.345-1.276-2.694-2.621-2.428h0c-1.345.267-1.6,1.9-1.329,3.247l2.077,12.97A2.484,2.484,0,0,0,201.786,565.548Z" fill="#ffdaad"/>
        <path id="Caminho_439" data-name="Caminho 439" d="M194.273,565.249h0a2.482,2.482,0,0,0,1.953-2.918L192.9,549.574c-.266-1.345-1.007-2.716-2.352-2.449h0c-1.345.267-1.7,1.954-1.437,3.3l2.247,12.872A2.482,2.482,0,0,0,194.273,565.249Z" fill="#ffdaad"/>
        <path id="Caminho_440" data-name="Caminho 440" d="M184.969,578.194l-1.334-10.728a2.483,2.483,0,0,1,4.928-.613l.784,6.3a12.013,12.013,0,0,1,2.542-1.159l-.808-9.609a2.483,2.483,0,1,1,4.928-.613l1.127,9.056a24.494,24.494,0,0,1,2.449-.177l-.991-7.968a2.483,2.483,0,0,1,4.928-.613l1.151,9.254a10.481,10.481,0,0,1,1.453.588l.06-4.008a2.483,2.483,0,1,1,4.965.073L211,578.332a16.244,16.244,0,0,1,.388,1.814c1.29,8.559-3.029,20.67-10.439,21.786s-14.719-6.61-16.008-15.169C184.582,584.4,184.38,579.852,184.969,578.194Z" fill="#ffdaad"/>
        <path id="Caminho_441" data-name="Caminho 441" d="M186.827,570.33h0a2.484,2.484,0,0,0,1.953-2.918l-3.12-12.669c-.267-1.345-1.09-2.842-2.435-2.575h0c-1.345.266-2,1.969-1.074,3.973l1.757,12.236A2.484,2.484,0,0,0,186.827,570.33Z" fill="#ffdaad"/>
        <path id="Caminho_442" data-name="Caminho 442" d="M209.1,570.3h0a2.52,2.52,0,0,0,2.024-2.931l-2.213-7.9c-.251-1.368-.935-3.091-2.3-2.841h0c-1.368.251-2.044,1.618-1.378,3.813l.939,7.837A2.52,2.52,0,0,0,209.1,570.3Z" fill="#ffdaad"/>
      </g>
      <path id="Caminho_443" data-name="Caminho 443" d="M206.645,598.43c3.191,11.919,12.054,40.831,16.5,60.869h0v0c2.042,7.977-16.736,22.693-22.506,4.172-4.058-17.186-9.833-43.477-7.923-64.359C192.962,590.111,208.389,594.084,206.645,598.43Z" fill="#ffdaad"/>
      <path id="Caminho_444" data-name="Caminho 444" d="M203.641,664.681c16.223,10.529-1.024,9.717-3-1.207-4.058-17.186-9.833-43.477-7.923-64.359a6.555,6.555,0,0,1,.205-1.484C192.962,597.646,198.877,650.424,203.641,664.681Z" fill="#dedede" style="mix-blend-mode: multiply;isolation: isolate"/>
    </g>
  </g>
</svg>
