<svg xmlns="http://www.w3.org/2000/svg" width="208.262" height="568.3" viewBox="0 0 208.262 568.3">
  <g id="Grupo_298" data-name="Grupo 298" transform="translate(-1519.494 -1156.615)">
    <path id="Caminho_812" data-name="Caminho 812" d="M1594.669,1435.195c7.034-14.476,35.905-64.35,35.905-64.35,7.495-15.2,28.651-49.042,33.65-54.962,4.309-7.97,9.309-19.531,23.969-22.808l6.827,21.051s.415,11.492-11.721,23.826c-5.134,10.586-27.3,40.8-33.813,47.29-8.132,14.984-29.543,44.61-44.349,58.417C1599.171,1449.987,1590.618,1437.2,1594.669,1435.195Z" fill="#ffdaad"/>
    <g id="Grupo_259" data-name="Grupo 259">
      <path id="Caminho_813" data-name="Caminho 813" d="M1605.613,1438.5a25.946,25.946,0,0,1,5.468,18.063c-.143,1.473-3.357,7.709-3.357,7.709s-3.2.437-.619-6.1c-1.3-1.832-3.972-9.326-3.972-9.326Z" fill="#ffdaad"/>
      <path id="Caminho_814" data-name="Caminho 814" d="M1581.369,1460.492h0a2.276,2.276,0,0,0-3.083.926l-1.642,3.214c-.6,1.107-.669,2.65.439,3.245h0c1.107.6,2.237-.415,2.833-1.522l2.38-2.78A2.277,2.277,0,0,0,1581.369,1460.492Z" fill="#ffdaad"/>
      <path id="Caminho_815" data-name="Caminho 815" d="M1586.511,1465.082h0a2.277,2.277,0,0,0-3.083.927l-1.371,3.359c-.595,1.107-.87,2.508.237,3.1h0c1.107.595,2.344-.39,2.94-1.5l2.2-2.81A2.276,2.276,0,0,0,1586.511,1465.082Z" fill="#ffdaad"/>
      <path id="Caminho_816" data-name="Caminho 816" d="M1600.639,1461.347l-5.309,8.368a2.276,2.276,0,1,1-3.844-2.439l3.118-4.915a10.98,10.98,0,0,1-2.475-.662l-5.029,7.27a2.276,2.276,0,1,1-3.844-2.439l4.481-7.064q-.972-.622-1.835-1.3l-3.944,6.215a2.276,2.276,0,0,1-3.844-2.439l4.58-7.219a9.557,9.557,0,0,1-.685-1.263l-2.379,2.8a2.276,2.276,0,1,1-3.47-2.947l6.144-7.236a14.521,14.521,0,0,1,.782-1.509c4.077-6.808,14.192-12.859,20.086-9.33s6.56,13.257,2.484,20.064C1604.529,1457.184,1602.022,1460.518,1600.639,1461.347Z" fill="#ffdaad"/>
      <path id="Caminho_817" data-name="Caminho 817" d="M1594.741,1465.828h0a2.277,2.277,0,0,0-3.083.927l-2.754,1.772c-.6,1.107,3.337,5.53,4.444,6.126l1.321-.12c1.107.6-3.7-5.3-3.183-7.257l4.181,1.635A2.276,2.276,0,0,0,1594.741,1465.828Z" fill="#ffdaad"/>
      <path id="Caminho_818" data-name="Caminho 818" d="M1578.962,1452.868h0a2.31,2.31,0,0,0-3.141.894l-3.04,6.881c-.62,1.114-1.141,2.732-.026,3.352h0c1.114.62,2.388.047,3.2-1.894l3.9-6.093A2.309,2.309,0,0,0,1578.962,1452.868Z" fill="#ffdaad"/>
    </g>
    <path id="Caminho_819" data-name="Caminho 819" d="M1701.586,1515.954c1.6-34.244-10.1-91.825-10.417-104.907,0,0,1.213,63.388-3.982,52.808s-41.62-48.9-39.447,2.546c1.2,28.354,15.861,81.8,16.034,82.423,2.344,8.492,12.039,15.451,22.3,14.174s14.877-15.66,14.884-15.682h0C1702.706,1541.007,1702.3,1521.047,1701.586,1515.954Z" fill="#ffdaad"/>
    <path id="Caminho_820" data-name="Caminho 820" d="M1560.71,1442.865c34.324,35.388,84.166,99.954,113.507,116.354,7.426,4.151,25.824-4.878,23.446-20.95-2.8-1.241-4.5-1.926-4.622-1.929-20.775-29.248-38.034-48.854-91.66-81.228a250.964,250.964,0,0,0-23.536-12.651S1562.393,1438.163,1560.71,1442.865Z" fill="#ffdaad"/>
    <path id="Caminho_821" data-name="Caminho 821" d="M1608.989,1459.821c-2.409-1.273-15.292-9.548-17.891-10.9-13.7-7.137-13.253-6.458-13.253-6.458s-15.452-4.3-17.135.4c9.652,9.952,20.686,22.871,31.894,35.207C1593.185,1469.212,1599.074,1462.078,1608.989,1459.821Z" fill="#c9ebff"/>
    <g id="Grupo_273" data-name="Grupo 273">
      <g id="Grupo_260" data-name="Grupo 260" style="mix-blend-mode: multiply;isolation: isolate">
        <path id="Caminho_822" data-name="Caminho 822" d="M1556.58,1439.137c1.528,2.432,3.132,4.871,4.771,7.311,4.947-2.149,3.424-9.684,5.019-10.156,5.241-1.548,10.288,4.218,12.123,1.2h0c-1.708-1.779-2.722-2.993-2.722-2.993S1558.263,1434.434,1556.58,1439.137Z" fill="#d9d9d9"/>
      </g>
      <g id="Grupo_272" data-name="Grupo 272">
        <g id="Grupo_261" data-name="Grupo 261">
          <path id="Caminho_823" data-name="Caminho 823" d="M1571.159,1428.659s.13-2.718-3.849-7.383c-1.3-1.526-4.763-2.721-9.541,4.087-8.636,12.3-14.365,16.46-33.722,36.862-9.714,10.238-.864,20.1-.864,20.1s1.876-3.574,9.072-10.761,9.232-8.878,21.548-20.085,19.041-16.821,19.65-17.319S1571.159,1428.659,1571.159,1428.659Z" fill="#24c2bc"/>
        </g>
        <g id="Grupo_262" data-name="Grupo 262">
          <path id="Caminho_824" data-name="Caminho 824" d="M1586.082,1444.108c.964-5.779-6.947-18.917-17.7-20.045-6.817,4.4-8.785,11.955-17.313,19.6-8.338,7.471-25.29,21.414-29.534,32.225-1.4,3.95,1.473,9.04,6.371,6.8,6.571-3.007,31.9-19.484,43.024-19.983,0,0,5.016.746,6.133-3.014s-2.7-5.668-3.365-5.583c.068-1.438,2.971-7.931,6.234-8.39S1585.558,1447.245,1586.082,1444.108Z" fill="#4d4d4d"/>
        </g>
        <g id="Grupo_263" data-name="Grupo 263">
          <path id="Caminho_825" data-name="Caminho 825" d="M1570.926,1462.7s5.016.746,6.133-3.014c.61-2.055.191-3.526-.839-4.437a4.242,4.242,0,0,0-2.526-1.146s-17.026,1.817-23.119,8.18c-3.849,4.02-3.569,7.117-2.639,9.324C1556.007,1467.432,1564.968,1462.969,1570.926,1462.7Z" fill="#24c2bc"/>
        </g>
        <g id="Grupo_265" data-name="Grupo 265">
          <g id="Grupo_264" data-name="Grupo 264">
            <path id="Caminho_826" data-name="Caminho 826" d="M1560.725,1459.663a.49.49,0,0,1,.606-.14,4.21,4.21,0,0,1,2.465,2.69,4.472,4.472,0,0,1-.74,3.373.492.492,0,0,1-.8-.579,3.518,3.518,0,0,0,.579-2.565,3.294,3.294,0,0,0-1.943-2.037.492.492,0,0,1-.224-.659A.469.469,0,0,1,1560.725,1459.663Z" fill="#fff"/>
          </g>
        </g>
        <g id="Grupo_267" data-name="Grupo 267">
          <g id="Grupo_266" data-name="Grupo 266">
            <path id="Caminho_827" data-name="Caminho 827" d="M1565.78,1458.249a.491.491,0,0,1,.607-.14,4.213,4.213,0,0,1,2.465,2.69,4.476,4.476,0,0,1-.74,3.373.492.492,0,0,1-.8-.579,3.519,3.519,0,0,0,.579-2.565,3.3,3.3,0,0,0-1.943-2.037.492.492,0,0,1-.224-.659A.465.465,0,0,1,1565.78,1458.249Z" fill="#fff"/>
          </g>
        </g>
        <g id="Grupo_269" data-name="Grupo 269">
          <g id="Grupo_268" data-name="Grupo 268">
            <path id="Caminho_828" data-name="Caminho 828" d="M1555.523,1461.618a.494.494,0,0,1,.607-.14,4.217,4.217,0,0,1,2.465,2.69,4.477,4.477,0,0,1-.74,3.374.492.492,0,0,1-.8-.579h0a3.518,3.518,0,0,0,.579-2.565,3.294,3.294,0,0,0-1.943-2.037.492.492,0,0,1-.224-.659A.6.6,0,0,1,1555.523,1461.618Z" fill="#fff"/>
          </g>
        </g>
        <g id="Grupo_271" data-name="Grupo 271">
          <g id="Grupo_270" data-name="Grupo 270">
            <path id="Caminho_829" data-name="Caminho 829" d="M1550.6,1463.909a.492.492,0,0,1,.607-.14,4.212,4.212,0,0,1,2.465,2.69,4.481,4.481,0,0,1-.74,3.373.5.5,0,0,1-.688.108.492.492,0,0,1-.109-.687,3.517,3.517,0,0,0,.58-2.565,3.3,3.3,0,0,0-1.944-2.037.494.494,0,0,1-.224-.659A.475.475,0,0,1,1550.6,1463.909Z" fill="#fff"/>
          </g>
        </g>
      </g>
      <path id="Caminho_830" data-name="Caminho 830" d="M1544.972,1473.232c-3.043-2.9-1.193-15.173,13.136-20.031-14.494,3.82-21.076,13.3-20.865,24.361C1539.389,1476.344,1544.972,1473.232,1544.972,1473.232Z" fill="#24c2bc"/>
      <path id="Caminho_831" data-name="Caminho 831" d="M1582.041,1432.9c-6.515,6.472-16.439,7.661-23.014,1.627.222-3.188,2.189-3.07,2.189-3.07s9.359,6.748,18.524-1.3A11.461,11.461,0,0,1,1582.041,1432.9Z" fill="#24c2bc"/>
      <path id="Caminho_832" data-name="Caminho 832" d="M1535.115,1478.772a17.573,17.573,0,0,1,3.89-14.131c-5.41,4.542-8.389,10.7-7.163,15.977C1532.837,1480.062,1535.115,1478.772,1535.115,1478.772Z" fill="#24c2bc"/>
    </g>
    <g id="Grupo_274" data-name="Grupo 274">
      <path id="Caminho_833" data-name="Caminho 833" d="M1700.462,1385.223s-34.169-12.211-53.995,3.827c-9.1,7.365-28.451,38.177-6.622,68.767,1.71,28.491,14.083,72.434,12.761,74.2,26.183,8.817,42.3,5,51.825-2.8,1.091-18.892-1.088-85.555-1.131-103.212C1703.253,1407.216,1700.462,1385.223,1700.462,1385.223Z" fill="#404040"/>
    </g>
    <path id="Caminho_834" data-name="Caminho 834" d="M1689.411,1529.079c4.394-34-2.548-92.343-1.8-105.407,0,0-3.979,63.274-8.29,52.305s-37.478-52.147-39.523-.692c-1.127,28.357,9.112,82.821,9.233,83.459,1.641,8.655,10.735,16.385,21.066,15.952s16.109-14.39,16.118-14.412h0C1688.477,1554.14,1689.7,1534.213,1689.411,1529.079Z" fill="#f5d2a6"/>
    <path id="Caminho_835" data-name="Caminho 835" d="M1673.27,1709.879c4.247-49.116,20.372-129.072,13.539-161.984-1.73-8.33-20.6-16.314-31.188-3.988.9,2.928,1.491,4.66,1.571,4.756-8.486,34.857-11.991,60.741-1.316,122.465a250.939,250.939,0,0,0,5.862,26.07S1668.614,1711.688,1673.27,1709.879Z" fill="#f5d2a6"/>
    <path id="Caminho_836" data-name="Caminho 836" d="M1654.458,1662.744c1.033,8.194,6.473,34.289,6.473,34.289s7.683,14.655,12.339,12.846c1.194-13.813,3.586-29.071,5.563-45.62C1671.759,1669.624,1662.659,1668.756,1654.458,1662.744Z" fill="#c9ebff"/>
    <g id="Grupo_288" data-name="Grupo 288">
      <g id="Grupo_275" data-name="Grupo 275" style="mix-blend-mode: multiply;isolation: isolate">
        <path id="Caminho_837" data-name="Caminho 837" d="M1673.159,1715.441c.836-2.748,1.627-5.557,2.4-8.394-4.865-2.33-9.559,3.758-10.961,2.861-4.6-2.945-3.554-10.535-7.033-9.947h0c-.225,2.456-.478,4.017-.478,4.017S1668.5,1717.251,1673.159,1715.441Z" fill="#d9d9d9"/>
      </g>
      <g id="Grupo_287" data-name="Grupo 287">
        <g id="Grupo_276" data-name="Grupo 276">
          <path id="Caminho_838" data-name="Caminho 838" d="M1655.691,1711.291s-2.139,1.683-3.056,7.746c-.3,1.983,1.065,5.38,9.338,4.53,14.954-1.537,21.847.069,49.942,1.326,14.1.631,15.753-12.516,15.753-12.516s-3.93.924-14.074.2-12.755-1.158-29.292-3.12-25.182-3.366-25.958-3.5S1655.691,1711.291,1655.691,1711.291Z" fill="#24c2bc"/>
        </g>
        <g id="Grupo_277" data-name="Grupo 277">
          <path id="Caminho_839" data-name="Caminho 839" d="M1657.586,1689.9c-5,3.058-9.741,17.642-3.545,26.508,7.79,2.267,14.787-1.2,26.148.24,11.108,1.4,32.748,5.077,43.7,1.2,3.9-1.529,5.864-7.036.962-9.268-6.576-2.994-35.62-11.336-43.284-19.412,0,0-2.723-4.278-6.3-2.658s-2.511,5.754-2.014,6.2c-1.131.891-7.938,2.951-10.423.787S1660.3,1688.236,1657.586,1689.9Z" fill="#4d4d4d"/>
        </g>
        <g id="Grupo_278" data-name="Grupo 278">
          <path id="Caminho_840" data-name="Caminho 840" d="M1681.563,1689.164s-2.723-4.278-6.3-2.658c-1.953.885-2.79,2.165-2.8,3.54a4.251,4.251,0,0,0,.789,2.659s12.528,11.673,21.327,12.107c5.559.275,7.715-1.966,8.773-4.114C1694.91,1697.336,1685.668,1693.49,1681.563,1689.164Z" fill="#24c2bc"/>
        </g>
        <g id="Grupo_280" data-name="Grupo 280">
          <g id="Grupo_279" data-name="Grupo 279">
            <path id="Caminho_841" data-name="Caminho 841" d="M1685.95,1698.863a.492.492,0,0,1-.5-.367,4.213,4.213,0,0,1,.417-3.625,4.476,4.476,0,0,1,3.033-1.651.492.492,0,0,1,.085.981,3.52,3.52,0,0,0-2.318,1.243,3.3,3.3,0,0,0-.265,2.8.492.492,0,0,1-.351.6A.5.5,0,0,1,1685.95,1698.863Z" fill="#fff"/>
          </g>
        </g>
        <g id="Grupo_282" data-name="Grupo 282">
          <g id="Grupo_281" data-name="Grupo 281">
            <path id="Caminho_842" data-name="Caminho 842" d="M1681.57,1695.969a.493.493,0,0,1-.5-.366,4.215,4.215,0,0,1,.418-3.625,4.475,4.475,0,0,1,3.033-1.651.492.492,0,0,1,.084.981,3.519,3.519,0,0,0-2.317,1.243,3.3,3.3,0,0,0-.266,2.8.492.492,0,0,1-.351.6A.459.459,0,0,1,1681.57,1695.969Z" fill="#fff"/>
          </g>
        </g>
        <g id="Grupo_284" data-name="Grupo 284">
          <g id="Grupo_283" data-name="Grupo 283">
            <path id="Caminho_843" data-name="Caminho 843" d="M1690.835,1701.511a.492.492,0,0,1-.5-.367,4.216,4.216,0,0,1,.417-3.625,4.476,4.476,0,0,1,3.034-1.651.492.492,0,0,1,.084.981h0a3.525,3.525,0,0,0-2.318,1.243,3.3,3.3,0,0,0-.265,2.8.492.492,0,0,1-.351.6A.543.543,0,0,1,1690.835,1701.511Z" fill="#fff"/>
          </g>
        </g>
        <g id="Grupo_286" data-name="Grupo 286">
          <g id="Grupo_285" data-name="Grupo 285">
            <path id="Caminho_844" data-name="Caminho 844" d="M1695.791,1703.729a.493.493,0,0,1-.5-.367,4.216,4.216,0,0,1,.418-3.625,4.472,4.472,0,0,1,3.033-1.65.5.5,0,0,1,.532.449.493.493,0,0,1-.448.532,3.508,3.508,0,0,0-2.317,1.243,3.3,3.3,0,0,0-.266,2.8.492.492,0,0,1-.351.6A.533.533,0,0,1,1695.791,1703.729Z" fill="#fff"/>
          </g>
        </g>
      </g>
      <path id="Caminho_845" data-name="Caminho 845" d="M1706.522,1701.873c-.194,4.2-10.681,10.842-23.74,3.2,12.382,8.447,23.859,7.207,32.075-.2C1712.531,1704.052,1706.522,1701.873,1706.522,1701.873Z" fill="#24c2bc"/>
      <path id="Caminho_846" data-name="Caminho 846" d="M1651.762,1700.3c9.159.682,16.559,7.4,16.307,16.32-2.553,1.922-3.753.358-3.753.358s-1.034-11.491-13.117-13.144A11.479,11.479,0,0,1,1651.762,1700.3Z" fill="#24c2bc"/>
      <path id="Caminho_847" data-name="Caminho 847" d="M1717.165,1705.69a17.573,17.573,0,0,1-13.225,6.32c6.977,1.112,13.582-.674,16.765-5.056C1719.632,1706.567,1717.165,1705.69,1717.165,1705.69Z" fill="#24c2bc"/>
    </g>
    <g id="Grupo_289" data-name="Grupo 289">
      <path id="Caminho_848" data-name="Caminho 848" d="M1699.458,1388.057s-33.162-14.728-54.129-.214c-9.629,6.665-31.221,35.947-11.736,68.081-.422,28.539,8.637,73.282,7.187,74.942,25.452,10.747,41.813,8.148,51.889,1.081,2.5-18.758,8.043-88.888,9.318-106.5C1703.343,1406.706,1699.458,1388.057,1699.458,1388.057Z" fill="#4d4d4d"/>
    </g>
    <path id="Caminho_849" data-name="Caminho 849" d="M1625.726,1430.1c-.216,3.02,73.57,14.791,75.527,9.067l.568-12.746s-35.157.136-46.423,0S1625.726,1430.1,1625.726,1430.1Z" fill="#d9d9d9" style="mix-blend-mode: multiply;isolation: isolate"/>
    <g id="Grupo_291" data-name="Grupo 291">
      <g id="Grupo_290" data-name="Grupo 290">
        <path id="Caminho_850" data-name="Caminho 850" d="M1693.373,1287.572l-2.14-12.36c-7.375-14.8-10.761-25.379-11.839-30.514,3.077.8,15.107,2.955,22.164.517,2.559-1.692,1.914-7.4,2.224-9.641s1.316-2.478,1.687-4.092-1.839-2.074-1.839-2.074,2.9-1.1,3.324-2.288-.847-3.008-.924-5.2,5.329-1.719,5.891-3.771c.869-3.169-9.753-14.365-6.311-19.073,2.794-3.821-4.5-22.021-4.5-22.021a6.3,6.3,0,0,0,2.654-3.993c.905-6.251-13.878-12.735-25.662-13.628s-39.431,5.754-42.615,31.709c-2.847,23.215,14.184,39.054,17.217,43.645,2.513,3.8-3.752,20.99-10.738,27.664C1659.008,1253.556,1693.373,1287.572,1693.373,1287.572Z" fill="#ffdaad"/>
      </g>
    </g>
    <path id="Caminho_851" data-name="Caminho 851" d="M1706.973,1225.973c-1.648-.019-10.649,4.24-10.649,4.24a31.658,31.658,0,0,0,7.306-.805C1706.372,1228.58,1707.607,1226.827,1706.973,1225.973Z" fill="#f7f4eb" style="mix-blend-mode: multiply;isolation: isolate"/>
    <g id="Grupo_292" data-name="Grupo 292">
      <path id="Caminho_852" data-name="Caminho 852" d="M1655.142,1205.654c4.8-3.207,6.934-1.869,11.243,5.743-2.857-7.7,4.633-13.849,6.236-14.473s1.678-8.442-.516-13.983c4.767-4.785,29-5.807,29-5.807a6.3,6.3,0,0,0,2.676-3.978c.941-6.245-13.8-12.815-25.582-13.776s-43.582,2.966-46.916,28.9c-3.178,24.711,18.08,41.71,21.086,46.317a10.634,10.634,0,0,1,.827,2.275C1656.05,1224.982,1648.263,1210.25,1655.142,1205.654Z" fill="#7d5137"/>
    </g>
    <g id="Grupo_293" data-name="Grupo 293">
      <path id="Caminho_853" data-name="Caminho 853" d="M1702.469,1199.267a4.542,4.542,0,0,0,0-2.9s-13.543-.122-17.127,3.78C1688.94,1198.361,1702.469,1199.267,1702.469,1199.267Z" fill="#7d5137"/>
    </g>
    <path id="Caminho_854" data-name="Caminho 854" d="M1652.229,1212.859c-.179,6.1,7.862,14.647,7.862,14.647l-6.929,9.406s-.736-10.557-.88-11.918S1652.229,1212.859,1652.229,1212.859Z" fill="#7d5137"/>
    <path id="Caminho_855" data-name="Caminho 855" d="M1706.721,1227.522c-3.265.624-10.4,2.691-10.4,2.691,1.829.272,4.665-.248,7.306-.805A9.693,9.693,0,0,0,1706.721,1227.522Z" fill="#fffcf2" style="mix-blend-mode: multiply;isolation: isolate"/>
    <path id="Caminho_856" data-name="Caminho 856" d="M1654.96,1219.493c1.369,4.066,8.712,12.743,11.886,3.419C1665,1225.89,1658.841,1227.232,1654.96,1219.493Z" fill="#e0e0e0" style="mix-blend-mode: multiply;isolation: isolate"/>
    <path id="Caminho_857" data-name="Caminho 857" d="M1663.389,1214.1c1.1-3.159-1.794-7.585-4.553-7.667s-6.958,2.043-5.608,9.908c-.924-3.912,1.847-10.035,5.68-9.073s2.466,8.28,2.466,8.28,2.785-.219,3.625,1.241A2.358,2.358,0,0,0,1663.389,1214.1Z" fill="#ededed" style="mix-blend-mode: multiply;isolation: isolate"/>
    <path id="Caminho_858" data-name="Caminho 858" d="M1703.5,1173.724c2.587-4.881-3.038-10.4-8.262-13.2,2.263,2.116-.113,1.388-4.524-1.624s-17.73-2.264-20.23-2.035c6.991,1.865-11.784-1.022-18.573,2.673,4.076.02-10.032,3.03-13.669,12.279C1668.728,1180.825,1703.5,1173.724,1703.5,1173.724Z" fill="#7d5137"/>
    <path id="Caminho_859" data-name="Caminho 859" d="M1666.435,1227.2s.364,9.107,3.038,12.035,9.921,5.46,9.921,5.46.868,4.174,2.224,8.329c-3.5-5.159-4.552-6.051-4.552-6.051s-8.293-1.817-10.3-6.423S1666.435,1227.2,1666.435,1227.2Z" fill="#e0e0e0" style="mix-blend-mode: multiply;isolation: isolate"/>
    <path id="Caminho_860" data-name="Caminho 860" d="M1698.976,1232.279c2.087,1.162,5.694.681,5.694.681a4.764,4.764,0,0,0-.952,3.439C1703.267,1233.9,1698.976,1232.279,1698.976,1232.279Z" fill="#e8e8e8" style="mix-blend-mode: multiply;isolation: isolate"/>
    <g id="Grupo_294" data-name="Grupo 294">
      <path id="Caminho_861" data-name="Caminho 861" d="M1624.636,1427.094c43.89,11.164,79.564,1.435,79.564,1.435s.017-42.4.912-54.617c1.25-21.415-2.02-37.725-3.568-50.368,4.818-18.973-4.976-38.553-10.311-48.332,0,0-31.285-32.212-45.829-16.764,0,0-12.358,12.239-13.692,16.055-9.336,26.7-7.48,48.769-8.215,82.318C1623.251,1368,1624.636,1413.047,1624.636,1427.094Z" fill="#24c2bc"/>
    </g>
    <path id="Caminho_862" data-name="Caminho 862" d="M1700.369,1178.992a40.544,40.544,0,0,1-18.678,20.48c.841-2.4.12-3.6.12-3.6s-8.631,13.762-15.426,15.529c-1.63-2.677-3.672-8.082-3.672-9.523s-.12-12.492,2.883-16.216,4.8-8.407,9.609-10.209,21.741-4.925,23.662-4.565S1700.369,1178.992,1700.369,1178.992Z" fill="#7d5137"/>
    <path id="Caminho_863" data-name="Caminho 863" d="M1694.6,1175.749c5.342,6.477,9.834,10.383,10.36,12.7,0,0,8.108-4.5,3.874-14.324s-9.279-10.269-9.279-10.269-8.558,1.261-8.558,2.883S1694.6,1175.749,1694.6,1175.749Z" fill="#7d5137"/>
    <path id="Caminho_864" data-name="Caminho 864" d="M1650.269,1249.079s31.47,14.654,34.713,12.011c1.562,3.844,7.207,15.855,7.207,15.855l-11.291-3-10.209-8.768-11.051-6.606-6.967-2.282-16.756,12.431S1648.828,1250.28,1650.269,1249.079Z" fill="#24c2bc"/>
    <g id="Grupo_295" data-name="Grupo 295">
      <path id="Caminho_865" data-name="Caminho 865" d="M1656.091,1259.955c9.592,8.014,6.844,21.77-6.6,34.878s-40.334,36.784-53,42.531c-6.364-2.38-27.406-2.581-21.213-16.235a28.12,28.12,0,0,1,5-4.732S1631.254,1239.2,1656.091,1259.955Z" fill="#ffdaad"/>
    </g>
    <g id="Grupo_296" data-name="Grupo 296">
      <path id="Caminho_866" data-name="Caminho 866" d="M1597.49,1319.737a484.351,484.351,0,0,1,52.856,68.415c1.522,6.884-5.111,7.842-8.735,7.329s-64.63-47.2-67.454-71.486C1583.787,1309.617,1597.49,1319.737,1597.49,1319.737Z" fill="#ffdaad"/>
    </g>
    <g id="Grupo_297" data-name="Grupo 297">
      <path id="Caminho_867" data-name="Caminho 867" d="M1645.477,1384.122s8.99-6.017,18.771-3.458c1.365.358,6.752,4.324,6.752,4.324s-.073,3.084-5.838-.337c-1.921.944-9.38,2.333-9.38,2.333Z" fill="#ffdaad"/>
      <path id="Caminho_868" data-name="Caminho 868" d="M1672.7,1395.231h0a2.169,2.169,0,0,1,3.049.35l6.849,9.253c.745.939,1.074,2.375.135,3.12h0c-.939.746-2.17-.012-2.916-.951l-7.467-8.723A2.169,2.169,0,0,1,1672.7,1395.231Z" fill="#ffdaad"/>
      <path id="Caminho_869" data-name="Caminho 869" d="M1671.085,1401.729h0a2.17,2.17,0,0,1,3.067.128l7.285,8.931c.812.882,1.4,2.111.514,2.923h0c-.882.812-2.257.194-3.069-.688l-7.924-8.227A2.17,2.17,0,0,1,1671.085,1401.729Z" fill="#ffdaad"/>
      <path id="Caminho_870" data-name="Caminho 870" d="M1656.874,1407.256l8.868,3.265a2.171,2.171,0,1,0,1.5-4.074l-5.209-1.917a10.527,10.527,0,0,0,1.491-1.935l8.021,2.595a2.171,2.171,0,0,0,1.5-4.074l-7.486-2.756q.377-1.035.636-2.05l6.587,2.425a2.171,2.171,0,0,0,1.5-4.074l-7.65-2.816a9.152,9.152,0,0,0-.212-1.354l5.7,1.174a2.171,2.171,0,0,0,.923-4.242l-11.121-2.354a13.959,13.959,0,0,0-1.467-.689c-7.03-2.8-18.2-1.524-20.619,4.563s2.706,13.842,9.737,16.638C1651.516,1406.354,1655.346,1407.429,1656.874,1407.256Z" fill="#ffdaad"/>
      <path id="Caminho_871" data-name="Caminho 871" d="M1671.6,1388.116h0a2.172,2.172,0,0,1,3.067-.133l8.045,8.085c.883.81,1.627,2.1.817,2.988h0c-.81.884-2.377.6-3.455-1l-8.341-6.87A2.171,2.171,0,0,1,1671.6,1388.116Z" fill="#ffdaad"/>
      <path id="Caminho_872" data-name="Caminho 872" d="M1665.789,1406.8h0a2.2,2.2,0,0,1,3.046.646l3.339,6.348c.663,1.02,1.263,2.525.243,3.188h0c-1.019.662-2.269.2-3.165-1.6l-4.11-5.542A2.2,2.2,0,0,1,1665.789,1406.8Z" fill="#ffdaad"/>
    </g>
    <path id="Caminho_873" data-name="Caminho 873" d="M1657.08,1258.3c-10.952-9.37-33.085-1.549-70.31,43.9,5.125,18.564,31.763,30.532,31.763,30.532S1680.743,1280.584,1657.08,1258.3Z" fill="#28dbd4"/>
    <path id="Caminho_874" data-name="Caminho 874" d="M1588.859,1476.065h0a2.252,2.252,0,0,0,2.992-1.092l4.388-11.124c.525-1.128.716-2.527-.412-3.052h0c-1.128-.525-2.293.519-2.818,1.647l-5.242,10.629A2.251,2.251,0,0,0,1588.859,1476.065Z" fill="#ffd4a8"/>
    <path id="Caminho_875" data-name="Caminho 875" d="M1580.967,1473.745h0a2.252,2.252,0,0,0,3.149-.48l6.5-10.038c.737-1,1.2-2.336.2-3.073h0c-1-.737-2.351.056-3.088,1.058l-7.238,9.384A2.252,2.252,0,0,0,1580.967,1473.745Z" fill="#ffd4a8"/>
    <path id="Caminho_876" data-name="Caminho 876" d="M1576.345,1468.96h0a2.252,2.252,0,0,0,3.149-.48l6.5-10.038c.736-1,1.2-2.337.2-3.074h0c-1-.737-2.351.057-3.087,1.059l-7.239,9.384A2.253,2.253,0,0,0,1576.345,1468.96Z" fill="#ffd4a8"/>
    <path id="Caminho_877" data-name="Caminho 877" d="M1571.634,1463.729h0a1.85,1.85,0,0,0,2.587-.394l5.339-8.247c.6-.823.986-1.92.163-2.525h0c-.823-.6-1.931.046-2.537.87l-5.946,7.709A1.85,1.85,0,0,0,1571.634,1463.729Z" fill="#ffd4a8"/>
  </g>
</svg>
