<svg xmlns="http://www.w3.org/2000/svg" width="555.889" height="220.889" viewBox="0 0 555.889 220.889">
  <g id="Grupo_722" data-name="Grupo 722" transform="translate(-1925.021 -1173.527)">
    <g id="Grupo_678" data-name="Grupo 678">
      <g id="Grupo_677" data-name="Grupo 677">
        <path id="Caminho_1371" data-name="Caminho 1371" d="M1987.733,1308.942l-3.375-12.08c.3-16.531-1.182-27.541-2.414-32.642-2.438,2.04-12.374,9.157-19.794,9.986-3.037-.428-4.906-5.858-6.149-7.751s-2.253-1.672-3.281-2.97.77-2.663.77-2.663-3.09.256-3.984-.64-.528-3.08-1.4-5.089-5.551.737-6.941-.875c-2.145-2.489,2.639-17.161-2.492-19.934-4.164-2.251-5.4-21.818-5.4-21.818a6.293,6.293,0,0,1-4.111-2.466c-3.5-5.256,7.062-17.462,17.321-23.329s38.08-11.739,52.1,10.333c12.542,19.742,3.964,41.361,3.2,46.809-.636,4.515,12.4,17.344,21.578,20.371C2004.159,1263.465,1987.733,1308.942,1987.733,1308.942Z" fill="#ffdaad"/>
      </g>
    </g>
    <path id="Caminho_1372" data-name="Caminho 1372" d="M1948.995,1259.155c1.481-.725,11.439-.744,11.439-.744a31.675,31.675,0,0,1-6.944,2.411C1950.658,1261.251,1948.79,1260.2,1948.995,1259.155Z" fill="#f7f4eb" style="mix-blend-mode: multiply;isolation: isolate"/>
    <g id="Grupo_679" data-name="Grupo 679">
      <path id="Caminho_1373" data-name="Caminho 1373" d="M1987.076,1218.545c-5.713-.834-7.065,1.29-7.686,10.015-.729-8.183-10.132-10.517-11.848-10.393s-5.141-6.9-5.539-12.849c-6.36-2.273-28.682,7.211-28.682,7.211a6.3,6.3,0,0,1-4.126-2.443c-3.532-5.235,6.962-17.5,17.187-23.428s40.63-16.039,54.781,5.951c13.482,20.952,1.586,45.432.85,50.884a10.6,10.6,0,0,0,.23,2.41C1994.557,1236.39,1995.263,1219.741,1987.076,1218.545Z" fill="#7d5137"/>
    </g>
    <g id="Grupo_680" data-name="Grupo 680">
      <path id="Caminho_1374" data-name="Caminho 1374" d="M1941.594,1233.1a4.547,4.547,0,0,1-1.25-2.622s12.179-5.926,17.091-3.941C1953.422,1226.475,1941.594,1233.1,1941.594,1233.1Z" fill="#7d5137"/>
    </g>
    <path id="Caminho_1375" data-name="Caminho 1375" d="M1992.8,1223.8c2.782,5.435-.809,16.6-.809,16.6l10.3,5.519s-3.87-9.85-4.324-11.141S1992.8,1223.8,1992.8,1223.8Z" fill="#7d5137"/>
    <path id="Caminho_1376" data-name="Caminho 1376" d="M1949.889,1260.445c3.217-.838,10.545-2.034,10.545-2.034-1.535,1.031-4.32,1.779-6.944,2.411A9.7,9.7,0,0,1,1949.889,1260.445Z" fill="#fffcf2" style="mix-blend-mode: multiply;isolation: isolate"/>
    <path id="Caminho_1377" data-name="Caminho 1377" d="M1993.184,1230.965c.51,4.259-2.394,15.249-9.265,8.192C1986.866,1241.053,1993,1239.62,1993.184,1230.965Z" fill="#e0e0e0" style="mix-blend-mode: multiply;isolation: isolate"/>
    <path id="Caminho_1378" data-name="Caminho 1378" d="M1983.256,1229.714c-2.353-2.379-1.638-7.62.819-8.879s7.161-1.144,9.32,6.539c-.846-3.93-5.978-8.269-9.027-5.754s1.33,8.536,1.33,8.536-2.609,1-2.741,2.678A2.359,2.359,0,0,1,1983.256,1229.714Z" fill="#ededed" style="mix-blend-mode: multiply;isolation: isolate"/>
    <path id="Caminho_1379" data-name="Caminho 1379" d="M1929.7,1210.476c-4.433-3.295-1.723-10.695,1.792-15.467-1.134,2.883.7,1.2,3.388-3.41s11.125-10.3,13.481-11.17c-5.512,4.687,13.023-7.311,20.74-6.891-3.671,1.769,11.456.4,18.713,7.19C1964.143,1201.958,1929.7,1210.476,1929.7,1210.476Z" fill="#7d5137"/>
    <path id="Caminho_1380" data-name="Caminho 1380" d="M1986.133,1242.856s3.583,8.38,2.426,12.172-6.615,9.192-6.615,9.192,1.008,4.142,1.569,8.477c.944-6.161,1.512-7.419,1.512-7.419s6.708-5.2,6.543-10.225S1986.133,1242.856,1986.133,1242.856Z" fill="#e0e0e0" style="mix-blend-mode: multiply;isolation: isolate"/>
    <path id="Caminho_1381" data-name="Caminho 1381" d="M1958.926,1261.415c-1.386,1.946-4.849,3.06-4.849,3.06a4.765,4.765,0,0,1,2.336,2.7C1955.749,1264.725,1958.926,1261.415,1958.926,1261.415Z" fill="#e8e8e8" style="mix-blend-mode: multiply;isolation: isolate"/>
    <path id="Caminho_1382" data-name="Caminho 1382" d="M1934.782,1213.892a40.538,40.538,0,0,0,25.663,10.472c-1.791-1.808-1.656-3.2-1.656-3.2s13.706,8.72,20.6,7.4c.322-3.117-.155-8.876-.774-10.177s-5.257-11.333-9.568-13.406-7.95-5.529-13.063-5.093-21.748,4.89-23.329,6.041S1934.782,1213.892,1934.782,1213.892Z" fill="#7d5137"/>
    <path id="Caminho_1383" data-name="Caminho 1383" d="M1938.6,1208.487c-2.043,8.143-4.421,13.6-3.9,15.92,0,0-9.257-.586-9.65-11.272s3.968-13.259,3.968-13.259,8.271-2.537,8.967-1.072S1938.6,1208.487,1938.6,1208.487Z" fill="#7d5137"/>
    <g id="Grupo_685" data-name="Grupo 685">
      <g id="Grupo_681" data-name="Grupo 681">
        <path id="Caminho_1384" data-name="Caminho 1384" d="M2069.656,1327.328s-37.369,15.054-80,34.71c-5.058,5,.035,9.439,3.384,10.988s81.38-8.083,91.085-29.078C2083.844,1326.5,2069.656,1327.328,2069.656,1327.328Z" fill="#ffd29e"/>
      </g>
      <g id="Grupo_682" data-name="Grupo 682">
        <path id="Caminho_1385" data-name="Caminho 1385" d="M1991.43,1362.688s-4.636-4.233-20.643-1.724-16.918,4.916-21.427,6.873-9.321,3.2-6.574,5.315c-2.874,2.44-4,5.232-1.014,5.729s20.96-4.5,24.315-4.28,14.321,5.314,27.453-1.669C2006.661,1365.827,1991.43,1362.688,1991.43,1362.688Z" fill="#ffd29e"/>
      </g>
      <g id="Grupo_683" data-name="Grupo 683" style="mix-blend-mode: multiply;isolation: isolate">
        <path id="Caminho_1386" data-name="Caminho 1386" d="M1944.192,1372.184c-3.121.889,12.612-4.818,15.021-6.432s9.789-1.038,9.789-1.038-8.534.226-9.946,1.609S1946.785,1372.23,1944.192,1372.184Z" fill="#ededed"/>
      </g>
      <g id="Grupo_684" data-name="Grupo 684" style="mix-blend-mode: multiply;isolation: isolate">
        <path id="Caminho_1387" data-name="Caminho 1387" d="M1943.9,1374.954c-3.214.459,13.146-3.07,15.752-4.344s9.839.294,9.839.294-8.486-.929-10.072.25S1946.462,1375.35,1943.9,1374.954Z" fill="#ededed"/>
      </g>
    </g>
    <path id="Caminho_1388" data-name="Caminho 1388" d="M1942.786,1373.152c-2.747-2.113,2.064-3.358,6.574-5.315s5.421-4.363,21.427-6.873c11.294-1.77,16.911-.187,19.249.9,42.471-19.57,79.62-34.536,79.62-34.536s14.188-.827,14.471,16.62c-9.586,20.736-85.769,30.381-90.876,29.123-13,6.754-23.834,1.751-27.164,1.53-3.355-.222-21.329,4.778-24.315,4.28S1939.912,1375.592,1942.786,1373.152Z" fill="#ededed" style="mix-blend-mode: multiply;isolation: isolate"/>
    <g id="Grupo_686" data-name="Grupo 686">
      <path id="Caminho_1389" data-name="Caminho 1389" d="M2225.668,1319.892c2.343-.325,7.046,17.48,9.611,25.7s8.495,32.241,8.495,32.241-28.632-20.44-29.93-27.081-4.312-18.223-1.707-21.144S2225.668,1319.892,2225.668,1319.892Z" fill="#2b2b2b"/>
    </g>
    <g id="Grupo_687" data-name="Grupo 687">
      <path id="Caminho_1390" data-name="Caminho 1390" d="M2419.353,1350.543a61.232,61.232,0,0,1-27-2.8c-41.754-14.057-81.219-15.277-105.215-2.253a10.4,10.4,0,0,0-1.655-1.27c-16.664-10.3-56.758-22.7-84.952-22.875-51.16-.325-13.978,38.154-3.289,42.934s-57.011,20.61-57.011,20.61c13.076-.149,84.387.515,118.162-6.542h0c7.408,2.16,13.245,1.39,21.625-1.258h0c32.812.722,107.918.294,149.825-9.978C2431.9,1362.595,2419.353,1350.543,2419.353,1350.543Z" fill="#ffd29e"/>
    </g>
    <g id="Grupo_690" data-name="Grupo 690" style="mix-blend-mode: multiply;isolation: isolate">
      <g id="Grupo_688" data-name="Grupo 688">
        <path id="Caminho_1391" data-name="Caminho 1391" d="M2280.022,1377.093h0c-9.34,1.819-16.308,2.344-20.7-1.631-1.838.34-34.2,6.794-37.495-9.606,0,0-3.52,11.388-5.547,11.417-.886.013-1.237,2.975-1.226,6.429,22.787-.89,29.6-2.483,43.337-5.352h0c7.408,2.16,13.245,1.39,21.625-1.258Z" fill="#ededed"/>
      </g>
      <g id="Grupo_689" data-name="Grupo 689">
        <path id="Caminho_1392" data-name="Caminho 1392" d="M2397.911,1372.841a9.5,9.5,0,0,0,.163-1.928c-12.866,2.3-100.6,3.878-118.05,6.18C2305.112,1377.645,2361.445,1377.519,2397.911,1372.841Z" fill="#ededed"/>
      </g>
    </g>
    <g id="Grupo_691" data-name="Grupo 691">
      <path id="Caminho_1393" data-name="Caminho 1393" d="M2407.475,1371.711h0s-1.588-16.651-4.018-21.391a76.779,76.779,0,0,0,15.9.223s12.543,12.052,10.494,16.572C2422.649,1368.879,2415.132,1370.4,2407.475,1371.711Z" fill="#c4e5f7"/>
    </g>
    <g id="Grupo_692" data-name="Grupo 692" style="mix-blend-mode: multiply;isolation: isolate">
      <path id="Caminho_1394" data-name="Caminho 1394" d="M2429.847,1367.115c-2.772.68-5.6,1.312-8.458,1.921-2.046-4.954,4.25-9.278,3.437-10.718-2.671-4.727-10.258-4.1-9.484-7.519h0c2.449-.089,4.011-.255,4.011-.255S2431.9,1362.595,2429.847,1367.115Z" fill="#d9d9d9"/>
    </g>
    <g id="Grupo_693" data-name="Grupo 693">
      <path id="Caminho_1395" data-name="Caminho 1395" d="M2395.25,1348.469a40.536,40.536,0,0,0,8.207,1.851s5.555,11.731,4.018,21.391c-4.468.765-8.989.995-13.518,1.624A32.4,32.4,0,0,0,2395.25,1348.469Z" fill="#4d4d4d"/>
    </g>
    <g id="Grupo_694" data-name="Grupo 694" style="mix-blend-mode: multiply;isolation: isolate">
      <path id="Caminho_1396" data-name="Caminho 1396" d="M2223.439,1383.342s12.354-18.814,9.974-57.644c-2.113-.215-10.369-2.2-10.369-2.2s-13.513,18.95-13.6,28.462S2223.439,1383.342,2223.439,1383.342Z" fill="#dbdbdb"/>
    </g>
    <g id="Grupo_695" data-name="Grupo 695">
      <path id="Caminho_1397" data-name="Caminho 1397" d="M2110.01,1380.582s-13.254-33.525,2.016-53.741c7.012-9.284,37.96-25.536,65.534-8.34,28.346.756,46.392,2.754,48.1,1.384,3.2,33.044.859,48.4-2.22,63.457-18.723,1.706-58.425,2.058-75.959,2.6C2128.82,1386.515,2110.01,1380.582,2110.01,1380.582Z" fill="#4d4d4d"/>
    </g>
    <g id="Grupo_696" data-name="Grupo 696" style="mix-blend-mode: multiply;isolation: isolate">
      <path id="Caminho_1398" data-name="Caminho 1398" d="M2209.546,1368.963c-3.222-7.97-9.887-19.724-11.884-21.4s.351,9.946-1.762,8.59-3.3-9.508-5.614-9.78,3.643,21.533,10.42,23.949-1.6-8.284.261-8.806S2212.265,1375.69,2209.546,1368.963Z" fill="#ededed"/>
    </g>
    <g id="Grupo_697" data-name="Grupo 697">
      <path id="Caminho_1399" data-name="Caminho 1399" d="M2120.122,1320.452c0,39.012-11.526,64.44-11.526,64.44s-124.338-9.223-123.734-90.788c0,0,7.555-40.336,25.832-42.231C2056.288,1247.146,2066.2,1321.347,2120.122,1320.452Z" fill="#24c2bc"/>
    </g>
    <path id="Caminho_1400" data-name="Caminho 1400" d="M2001.575,1340.053c15.88,17.04,43.508,24.457,34.251,18.5s-9.619-18.576-9.619-18.576,1.6,5.12,18.092,14.7,32.459,21.285,37.514,20.1-3.233-12.88-9.844-17.975c11.972,5.321,18.358,24.211,31.128,18.865s9.493-47.685,17.025-55.217c0,39.012-11.526,64.44-11.526,64.44S2035.36,1379.455,2001.575,1340.053Z" fill="#e6e6e6" style="mix-blend-mode: multiply;isolation: isolate"/>
    <path id="Caminho_1401" data-name="Caminho 1401" d="M2006.708,1267.938c-10.418,14.431,16.26,66.924,16.26,66.924l5.671-.791,12.2,16.184-15.379,9.47s32.373-2.761,34-2.833-15.1-52.678-15.1-52.678-6.968-14.275-15-19.739S2006.708,1267.938,2006.708,1267.938Z" fill="#dbdbdb" style="mix-blend-mode: multiply;isolation: isolate"/>
    <g id="Grupo_698" data-name="Grupo 698" style="mix-blend-mode: multiply;isolation: isolate">
      <path id="Caminho_1402" data-name="Caminho 1402" d="M2212.012,1323.688c3.186-.619-12.977,3.725-15.515,5.129s-9.841.2-9.841.2,8.522.5,10.047-.755S2209.432,1323.421,2212.012,1323.688Z" fill="#ededed"/>
    </g>
    <g id="Grupo_699" data-name="Grupo 699" style="mix-blend-mode: multiply;isolation: isolate">
      <path id="Caminho_1403" data-name="Caminho 1403" d="M2212.54,1320.953c3.241-.183-13.36,1.939-16.065,2.986s-9.778-1.131-9.778-1.131,8.376,1.648,10.057.608S2210.02,1320.34,2212.54,1320.953Z" fill="#ededed"/>
    </g>
    <g id="Grupo_700" data-name="Grupo 700" style="mix-blend-mode: multiply;isolation: isolate">
      <path id="Caminho_1404" data-name="Caminho 1404" d="M2138.1,1377.407s25.028,9.909,85.34,5.935c-12.948,1.18-38.438.857-56.023,2.135C2146.767,1383.32,2138.1,1377.407,2138.1,1377.407Z" fill="#ededed"/>
    </g>
    <g id="Grupo_701" data-name="Grupo 701" style="mix-blend-mode: multiply;isolation: isolate">
      <path id="Caminho_1405" data-name="Caminho 1405" d="M2280.021,1377.093c4.6-4.7,6.985-7.016,4.92-11.237,5.992,5.28-.768,11.4-.768,11.4Z" fill="#ededed"/>
    </g>
    <g id="Grupo_702" data-name="Grupo 702">
      <path id="Caminho_1406" data-name="Caminho 1406" d="M2014.068,1261.953c-11.407,5.36-12.248,19.479-2.5,35.7s34.982,57.593,45.86,66.44c6.816-.692,24.936,4.173,22.393-10.729a28.373,28.373,0,0,0-3.664-5.894S2043.6,1248.073,2014.068,1261.953Z" fill="#ffd29e"/>
    </g>
    <g id="Grupo_707" data-name="Grupo 707">
      <g id="Grupo_703" data-name="Grupo 703">
        <path id="Caminho_1407" data-name="Caminho 1407" d="M2065.595,1342.828s-37.369,15.054-80,34.711c-5.057,5,.035,9.438,3.384,10.988s81.38-8.084,91.085-29.079C2079.783,1342,2065.595,1342.828,2065.595,1342.828Z" fill="#ffd29e"/>
      </g>
      <g id="Grupo_704" data-name="Grupo 704">
        <path id="Caminho_1408" data-name="Caminho 1408" d="M1987.369,1378.188s-4.636-4.233-20.642-1.723-16.919,4.915-21.428,6.872-9.321,3.2-6.573,5.315c-2.874,2.44-4,5.232-1.015,5.729s20.96-4.5,24.315-4.28,14.322,5.314,27.453-1.669C2002.6,1381.327,1987.369,1378.188,1987.369,1378.188Z" fill="#ffd29e"/>
      </g>
      <g id="Grupo_705" data-name="Grupo 705" style="mix-blend-mode: multiply;isolation: isolate">
        <path id="Caminho_1409" data-name="Caminho 1409" d="M1940.132,1387.684c-3.122.889,12.611-4.817,15.02-6.432s9.789-1.038,9.789-1.038-8.533.227-9.946,1.609S1942.725,1387.73,1940.132,1387.684Z" fill="#ededed"/>
      </g>
      <g id="Grupo_706" data-name="Grupo 706" style="mix-blend-mode: multiply;isolation: isolate">
        <path id="Caminho_1410" data-name="Caminho 1410" d="M1939.838,1390.454c-3.213.459,13.147-3.07,15.752-4.344s9.839.294,9.839.294-8.486-.928-10.072.25S1942.4,1390.85,1939.838,1390.454Z" fill="#ededed"/>
      </g>
    </g>
    <path id="Caminho_1411" data-name="Caminho 1411" d="M2011.689,1260.965c15.075-6.593,34.507,12.724,52.512,49.416-2.212,6.156-27.156,21.781-39.478,18.055C2020.229,1318.648,1989.927,1272.841,2011.689,1260.965Z" fill="#24c2bc"/>
    <g id="Grupo_721" data-name="Grupo 721">
      <g id="Grupo_708" data-name="Grupo 708" style="mix-blend-mode: multiply;isolation: isolate">
        <path id="Caminho_1412" data-name="Caminho 1412" d="M2443.544,1348.5c-1.523,2.447-3.122,4.9-4.756,7.357-4.974-2.134-3.479-9.7-5.082-10.168-5.266-1.531-10.305,4.278-12.16,1.261h0c1.707-1.794,2.719-3.016,2.719-3.016S2441.833,1343.787,2443.544,1348.5Z" fill="#d9d9d9"/>
      </g>
      <g id="Grupo_720" data-name="Grupo 720">
        <g id="Grupo_709" data-name="Grupo 709">
          <path id="Caminho_1413" data-name="Caminho 1413" d="M2428.866,1338.049s-.143-2.728,3.83-7.426c1.3-1.538,4.768-2.752,9.593,4.058,8.721,12.309,14.489,16.453,34,36.841,9.794,10.232.958,20.169.958,20.169s-1.9-3.579-9.153-10.759-9.3-8.868-21.714-20.06-19.183-16.794-19.8-17.292S2428.866,1338.049,2428.866,1338.049Z" fill="#24c2bc"/>
        </g>
        <g id="Grupo_710" data-name="Grupo 710">
          <path id="Caminho_1414" data-name="Caminho 1414" d="M2413.96,1353.619c-.994-5.8,6.886-19.015,17.677-20.2,6.861,4.385,8.869,11.958,17.462,19.589,8.4,7.461,25.474,21.377,29.782,32.207,1.424,3.958-1.439,9.079-6.364,6.852-6.607-2.988-32.1-19.41-43.265-19.861,0,0-5.03.771-6.167-3s2.686-5.7,3.351-5.618c-.075-1.443-3.017-7.945-6.294-8.392S2414.5,1356.765,2413.96,1353.619Z" fill="#4d4d4d"/>
        </g>
        <g id="Grupo_711" data-name="Grupo 711">
          <path id="Caminho_1415" data-name="Caminho 1415" d="M2429.252,1372.211s-5.03.771-6.167-3c-.622-2.06-.209-3.538.822-4.457a4.254,4.254,0,0,1,2.529-1.161s17.095,1.747,23.237,8.105c3.881,4.017,3.614,7.126,2.691,9.345C2444.245,1376.891,2435.232,1372.453,2429.252,1372.211Z" fill="#24c2bc"/>
        </g>
        <g id="Grupo_713" data-name="Grupo 713">
          <g id="Grupo_712" data-name="Grupo 712">
            <path id="Caminho_1416" data-name="Caminho 1416" d="M2439.476,1369.115a.5.5,0,0,0-.609-.138,4.226,4.226,0,0,0-2.462,2.711,4.485,4.485,0,0,0,.758,3.381.494.494,0,0,0,.8-.584,3.535,3.535,0,0,1-.593-2.572,3.31,3.31,0,0,1,1.942-2.052.5.5,0,0,0,.221-.662A.485.485,0,0,0,2439.476,1369.115Z" fill="#fff"/>
          </g>
        </g>
        <g id="Grupo_715" data-name="Grupo 715">
          <g id="Grupo_714" data-name="Grupo 714">
            <path id="Caminho_1417" data-name="Caminho 1417" d="M2434.4,1367.719a.494.494,0,0,0-.609-.138,4.229,4.229,0,0,0-2.462,2.711,4.49,4.49,0,0,0,.758,3.381.494.494,0,0,0,.8-.584,3.532,3.532,0,0,1-.592-2.572,3.305,3.305,0,0,1,1.941-2.052.494.494,0,0,0,.221-.663A.462.462,0,0,0,2434.4,1367.719Z" fill="#fff"/>
          </g>
        </g>
        <g id="Grupo_717" data-name="Grupo 717">
          <g id="Grupo_716" data-name="Grupo 716">
            <path id="Caminho_1418" data-name="Caminho 1418" d="M2444.7,1371.054a.493.493,0,0,0-.609-.137,4.228,4.228,0,0,0-2.462,2.71,4.487,4.487,0,0,0,.758,3.382.494.494,0,0,0,.8-.584h0a3.54,3.54,0,0,1-.593-2.572,3.311,3.311,0,0,1,1.942-2.053.494.494,0,0,0,.222-.662A.616.616,0,0,0,2444.7,1371.054Z" fill="#fff"/>
          </g>
        </g>
        <g id="Grupo_719" data-name="Grupo 719">
          <g id="Grupo_718" data-name="Grupo 718">
            <path id="Caminho_1419" data-name="Caminho 1419" d="M2449.654,1373.331a.5.5,0,0,0-.609-.138,4.23,4.23,0,0,0-2.462,2.711,4.494,4.494,0,0,0,.758,3.382.506.506,0,0,0,.691.1.494.494,0,0,0,.106-.689,3.528,3.528,0,0,1-.593-2.572,3.306,3.306,0,0,1,1.941-2.052.494.494,0,0,0,.222-.662A.425.425,0,0,0,2449.654,1373.331Z" fill="#fff"/>
          </g>
        </g>
      </g>
      <path id="Caminho_1420" data-name="Caminho 1420" d="M2455.345,1382.662c3.041-2.919,1.129-15.232-13.272-20.043,14.562,3.768,21.21,13.255,21.048,24.354C2460.961,1385.76,2455.345,1382.662,2455.345,1382.662Z" fill="#24c2bc"/>
      <path id="Caminho_1421" data-name="Caminho 1421" d="M2417.965,1342.349c6.567,6.466,16.531,7.615,23.1,1.53-.236-3.2-2.21-3.071-2.21-3.071s-9.362,6.813-18.595-1.22A11.514,11.514,0,0,0,2417.965,1342.349Z" fill="#24c2bc"/>
      <path id="Caminho_1422" data-name="Caminho 1422" d="M2465.261,1388.178a17.633,17.633,0,0,0-3.967-14.164c5.45,4.533,8.467,10.7,7.261,16C2467.554,1389.461,2465.261,1388.178,2465.261,1388.178Z" fill="#24c2bc"/>
    </g>
  </g>
</svg>
