<svg xmlns="http://www.w3.org/2000/svg" width="367.599" height="463.142" viewBox="0 0 367.599 463.142">
  <g id="Grupo_636" data-name="Grupo 636" transform="translate(-1144.078 -555.886)">
    <g id="Grupo_596" data-name="Grupo 596">
      <path id="Caminho_1245" data-name="Caminho 1245" d="M1353.308,662.906c9.541,7.972,6.808,21.655-6.56,34.694s-47.514,45.261-60.109,50.978c-6.331-2.367-27.261-2.567-21.1-16.149a28.026,28.026,0,0,1,4.972-4.707S1328.6,642.265,1353.308,662.906Z" fill="#ebc99f"/>
    </g>
    <g id="Grupo_597" data-name="Grupo 597">
      <path id="Caminho_1246" data-name="Caminho 1246" d="M1287.625,731.045a759.55,759.55,0,0,1,59.97,59.379c1.513,6.848-5.084,7.8-8.689,7.291s-71.681-38.277-74.49-62.435C1273.995,720.978,1287.625,731.045,1287.625,731.045Z" fill="#ebc99f"/>
    </g>
    <path id="Caminho_1247" data-name="Caminho 1247" d="M1357.464,664.044c-12.907-13.523-32.778-3.328-72.208,39.8,4.088,18.716,29.9,32.042,29.9,32.042S1379.762,687.455,1357.464,664.044Z" fill="#24c2bc"/>
    <g id="Grupo_606" data-name="Grupo 606">
      <g id="Grupo_598" data-name="Grupo 598">
        <path id="Caminho_1248" data-name="Caminho 1248" d="M1342.934,927.427s-22.182,94.262-39.082,90.787c-6.67-1.372-19.062-14.724-21.482-32.224-3.712-26.837,6.336-70.269,15.7-98.876,15.467-47.26,38.913,4.521,40.025,15.848A165.762,165.762,0,0,0,1342.934,927.427Z" fill="#ffdaad"/>
      </g>
      <g id="Grupo_599" data-name="Grupo 599">
        <path id="Caminho_1249" data-name="Caminho 1249" d="M1303.852,1018.214s-85.826-32.219-142.583-54.005c-1.423-4.609,10.925-12.564,10.925-12.564s29.341,6.553,44.246,5.879c58.769-2.656,71.316,18.894,80.608,38C1309.065,1020.223,1303.852,1018.214,1303.852,1018.214Z" fill="#ffdaad"/>
      </g>
      <path id="Caminho_1250" data-name="Caminho 1250" d="M1172.194,951.645s-6.419,4.147-9.462,8.187c.818,2.021,1.745,4.049,2.609,5.9,9.556,3.495,20.394,8.842,31.236,11.86a62.6,62.6,0,0,1,2.668-21.19C1186.113,954.662,1172.194,951.645,1172.194,951.645Z" fill="#c9ebff"/>
      <g id="Grupo_600" data-name="Grupo 600">
        <path id="Caminho_1251" data-name="Caminho 1251" d="M1369.263,827.57s-29.2-23.984-52.741-16.747c-27.425,8.433-22.718,88.759-26.027,90.889,6.372,29.5,38.366,32.7,52.467,27.679,10.091-22.92,21.37-66.489,22.994-69.356S1369.263,827.57,1369.263,827.57Z" fill="#4d4d4d"/>
      </g>
      <g id="Grupo_601" data-name="Grupo 601" style="mix-blend-mode: multiply;isolation: isolate">
        <path id="Caminho_1252" data-name="Caminho 1252" d="M1330.689,916.084c-6.512-5.236-15.578-14.738-16.572-17.066s9.157,3.119,8.489.772-7.922-5.739-7.525-7.97,19.014,9.437,19.359,16.421-7.259-3.814-8.267-2.229S1336.185,920.5,1330.689,916.084Z" fill="#ededed"/>
      </g>
      <g id="Grupo_605" data-name="Grupo 605">
        <path id="Caminho_1253" data-name="Caminho 1253" d="M1158.25,946.658s-5.721-2.444-8.607-1.941c-2.694.47-4.61,2.716-3.821,7.816s2.463,9.662,1.409,15.312-4.195,17.52-2.8,33.957c2.309,16.871,22.8,17.725,24.827,15.448,0,0-13.166-3.9-12.276-14.579s.575-7.994,2.844-25.4,3.853-26.5,4-27.319S1158.25,946.658,1158.25,946.658Z" fill="#24c2bc"/>
        <path id="Caminho_1254" data-name="Caminho 1254" d="M1180.92,951.533c-3.162-5.306-15.736-10.814-24.693-4.437-3.705,4.835,1.588,15.232-1.752,26.12s-7.924,20.163-4.507,30.769c1.564,4.132,10.295,8.792,15.331,4.068.344-7.61,7.338-25.444,15.943-33.424,0,0,4.542-2.818,2.879-6.6s-6.036-2.718-6.51-2.2c-.926-1.2-2.122-8.316.189-10.909S1182.637,954.413,1180.92,951.533Z" fill="#3d3d3d"/>
        <path id="Caminho_1255" data-name="Caminho 1255" d="M1167.093,999.422c-2.2,5.394.978,9.864,3.713,13.135a2.867,2.867,0,0,1-2.109,4.748c-6.533-.039-15.916-3.792-18.92-13.919,2.452-11.006,13-3.814,13.281-3.7S1167.093,999.422,1167.093,999.422Z" fill="#3d3d3d"/>
        <path id="Caminho_1256" data-name="Caminho 1256" d="M1181.242,974.629s4.542-2.818,2.879-6.6a4.4,4.4,0,0,0-4.076-2.735c-1.43.334-2.434.537-2.434.537s-13.495,12.089-14.059,21.359c-.357,5.856,2.245,8.707,4.5,9.849C1171.694,988.177,1176.632,978.9,1181.242,974.629Z" fill="#24c2bc"/>
        <path id="Caminho_1257" data-name="Caminho 1257" d="M1155.49,961.76a12.3,12.3,0,0,0,14.595-17.2,22.677,22.677,0,0,0-4.023.179A8.765,8.765,0,0,1,1155.1,957.81C1155.231,959.057,1155.383,960.377,1155.49,961.76Z" fill="#24c2bc"/>
        <g id="Grupo_602" data-name="Grupo 602">
          <path id="Caminho_1258" data-name="Caminho 1258" d="M1170.966,979.136a.519.519,0,0,1,.392-.526,4.44,4.44,0,0,1,3.816.484,4.712,4.712,0,0,1,1.7,3.217.519.519,0,0,1-1.035.077,3.7,3.7,0,0,0-1.282-2.458,3.479,3.479,0,0,0-2.951-.314.517.517,0,0,1-.628-.377A.469.469,0,0,1,1170.966,979.136Z" fill="#fff"/>
        </g>
        <g id="Grupo_603" data-name="Grupo 603">
          <path id="Caminho_1259" data-name="Caminho 1259" d="M1168.115,984.253a.519.519,0,0,1,.393-.526,4.441,4.441,0,0,1,3.816.484,4.719,4.719,0,0,1,1.7,3.217.518.518,0,0,1-1.034.078h0a3.712,3.712,0,0,0-1.282-2.459,3.476,3.476,0,0,0-2.951-.313.52.52,0,0,1-.629-.378A.6.6,0,0,1,1168.115,984.253Z" fill="#fff"/>
        </g>
        <g id="Grupo_604" data-name="Grupo 604">
          <path id="Caminho_1260" data-name="Caminho 1260" d="M1165.717,989.449a.517.517,0,0,1,.392-.525,4.441,4.441,0,0,1,3.816.483,4.716,4.716,0,0,1,1.7,3.218.53.53,0,0,1-.479.555.519.519,0,0,1-.556-.478,3.7,3.7,0,0,0-1.282-2.458,3.475,3.475,0,0,0-2.951-.314.518.518,0,0,1-.628-.378A.446.446,0,0,1,1165.717,989.449Z" fill="#fff"/>
        </g>
        <path id="Caminho_1261" data-name="Caminho 1261" d="M1167.093,999.422s-7.861-3.148-5.267-12.639c-2.867,8.262-1.081,13.243,4.547,15.839A28.183,28.183,0,0,1,1167.093,999.422Z" fill="#24c2bc"/>
        <path id="Caminho_1262" data-name="Caminho 1262" d="M1166.408,1003.991s-5.233-.867-5.932-5.464c-.288,6.145,6.493,7.9,6.493,7.9S1166.118,1004.584,1166.408,1003.991Z" fill="#24c2bc"/>
      </g>
    </g>
    <g id="Grupo_607" data-name="Grupo 607">
      <path id="Caminho_1263" data-name="Caminho 1263" d="M1401,879.3c2.186.71,12.473-16.363,16.329-23.792s-4.5-30.872-4.5-30.872-30.882,14.681-33.256,20.815-7.232,16.7-5.237,19.942S1401,879.3,1401,879.3Z" fill="#2b2b2b"/>
    </g>
    <g id="Grupo_608" data-name="Grupo 608">
      <path id="Caminho_1264" data-name="Caminho 1264" d="M1412.824,824.64s65.939,7.753,64.967,24.979-43.621,33.431-92.633,25.023-6.874-38.892,4.169-41.645A165.668,165.668,0,0,0,1412.824,824.64Z" fill="#ffdaad"/>
    </g>
    <path id="Caminho_1265" data-name="Caminho 1265" d="M1418.088,825.077s-31.1,39.733-25.936,50.6a48.917,48.917,0,0,1-6.994-1.039s-14.96-21.9-14.353-23.811,15.431-21.135,20.322-22.96S1418.088,825.077,1418.088,825.077Z" fill="#dedede" style="mix-blend-mode: multiply;isolation: isolate"/>
    <g id="Grupo_609" data-name="Grupo 609" style="mix-blend-mode: multiply;isolation: isolate">
      <path id="Caminho_1266" data-name="Caminho 1266" d="M1374.065,869.5a7.079,7.079,0,0,1-.67,2.13,64.965,64.965,0,0,0,11.763,3.015,154.5,154.5,0,0,0,42.567,1.438c-11.343.646-41.919-.984-39.388-11.869,2.943-12.651,20.685-37.406,24.487-39.571C1389.27,836.383,1375.255,860.095,1374.065,869.5Z" fill="#ededed"/>
    </g>
    <g id="Grupo_610" data-name="Grupo 610">
      <path id="Caminho_1267" data-name="Caminho 1267" d="M1477.062,848.462S1469.613,936.725,1452.28,995c-4.485,1.775-9.14-9.261-9.14-9.261s-2.294-13.595-5.974-28.055c-15.7-61.7-7-75.97,14.342-101.389S1477.062,848.462,1477.062,848.462Z" fill="#ffdaad"/>
    </g>
    <g id="Grupo_611" data-name="Grupo 611">
      <path id="Caminho_1268" data-name="Caminho 1268" d="M1308.628,802.535s-15.8,30.273-5.205,52.5c12.343,25.9,94.985,21.3,97.575,24.267-4.479-13.019,26.718-50.125,32.464-51.923-24.147-6.639-61.2-9.4-62.535-11.63s-26.627-13.493-29.7-14.681S1308.628,802.535,1308.628,802.535Z" fill="#4d4d4d"/>
    </g>
    <g id="Grupo_612" data-name="Grupo 612" style="mix-blend-mode: multiply;isolation: isolate">
      <path id="Caminho_1269" data-name="Caminho 1269" d="M1401,879.3c-.167-.484-15.66-3.309-15.745-3.858-4.951-3.179-18-.154-23.111-2.846-5.548-2.92-7.083-4.539-11.816-3.086s-41.53-4.7-47.024-33.352,19.877-33.4,19.877-33.4a74.648,74.648,0,0,0-15.222.926c-3.2,5.672-13.355,33.851-3.484,53.25C1315.64,878.883,1398.408,876.34,1401,879.3Z" fill="#ededed"/>
    </g>
    <g id="Grupo_613" data-name="Grupo 613" style="mix-blend-mode: multiply;isolation: isolate">
      <path id="Caminho_1270" data-name="Caminho 1270" d="M1401.822,827.782c-4.23,7.206-12.308,17.562-14.466,18.885s1.75-9.514-.474-8.511-4.522,8.674-6.787,8.607,6.562-20.187,13.421-21.548-2.714,7.738-1,8.5S1405.392,821.7,1401.822,827.782Z" fill="#ededed"/>
    </g>
    <path id="Caminho_1271" data-name="Caminho 1271" d="M1436.987,956.06c.67,2.721,1.366,5.518,2.1,8.441a152.8,152.8,0,0,1,4.477,26.729s7.272,14.806,12.035,12.881a446.143,446.143,0,0,1,6.059-47.464C1454.463,962.263,1445.5,962.13,1436.987,956.06Z" fill="#c9ebff"/>
    <g id="Grupo_627" data-name="Grupo 627">
      <g id="Grupo_614" data-name="Grupo 614" style="mix-blend-mode: multiply;isolation: isolate">
        <path id="Caminho_1272" data-name="Caminho 1272" d="M1455.567,1009.834c.822-2.838,1.6-5.738,2.349-8.666-5.035-2.329-9.779,4-11.232,3.094-4.775-2.965-3.8-10.785-7.372-10.132h0c-.2,2.53-.436,4.139-.436,4.139S1450.8,1011.759,1455.567,1009.834Z" fill="#d9d9d9"/>
      </g>
      <g id="Grupo_626" data-name="Grupo 626">
        <g id="Grupo_615" data-name="Grupo 615">
          <path id="Caminho_1273" data-name="Caminho 1273" d="M1437.545,1005.808s-2.176,1.76-3.035,8.008c-.281,2.044,1.17,5.519,9.667,4.53,15.357-1.788,22.468-.232,51.379.671,14.509.453,16.028-13.091,16.028-13.091s-4.029,1.005-14.472.4-13.134-1.015-30.167-2.8-25.945-3.112-26.745-3.238S1437.545,1005.808,1437.545,1005.808Z" fill="#24c2bc"/>
        </g>
        <g id="Grupo_616" data-name="Grupo 616">
          <path id="Caminho_1274" data-name="Caminho 1274" d="M1439.2,983.778c-5.1,3.214-9.773,18.279-3.279,27.311,8.044,2.224,15.192-1.435,26.9-.115,11.442,1.29,33.748,4.766,44.954.628,3.991-1.627,5.933-7.318.861-9.545-6.805-2.988-36.791-11.165-44.784-19.364,0,0-2.86-4.362-6.511-2.647s-2.5,5.953-1.985,6.4c-1.151.932-8.122,3.145-10.708.954S1441.965,982.034,1439.2,983.778Z" fill="#4d4d4d"/>
        </g>
        <g id="Grupo_617" data-name="Grupo 617">
          <path id="Caminho_1275" data-name="Caminho 1275" d="M1463.846,982.693s-2.86-4.362-6.511-2.647c-2,.938-2.839,2.266-2.833,3.681a4.365,4.365,0,0,0,.848,2.723s13.046,11.831,22.1,12.156c5.722.2,7.908-2.129,8.966-4.353C1477.686,990.913,1468.128,987.085,1463.846,982.693Z" fill="#24c2bc"/>
        </g>
        <g id="Grupo_619" data-name="Grupo 619">
          <g id="Grupo_618" data-name="Grupo 618">
            <path id="Caminho_1276" data-name="Caminho 1276" d="M1468.492,992.606a.505.505,0,0,1-.522-.37,4.331,4.331,0,0,1,.378-3.733,4.6,4.6,0,0,1,3.1-1.74.506.506,0,0,1,.1,1.008,3.615,3.615,0,0,0-2.366,1.31,3.392,3.392,0,0,0-.234,2.886.507.507,0,0,1-.353.623A.5.5,0,0,1,1468.492,992.606Z" fill="#fff"/>
          </g>
        </g>
        <g id="Grupo_621" data-name="Grupo 621">
          <g id="Grupo_620" data-name="Grupo 620">
            <path id="Caminho_1277" data-name="Caminho 1277" d="M1463.947,989.692a.506.506,0,0,1-.522-.37,4.333,4.333,0,0,1,.379-3.734,4.606,4.606,0,0,1,3.1-1.74.506.506,0,0,1,.1,1.008,3.62,3.62,0,0,0-2.366,1.31,3.392,3.392,0,0,0-.234,2.886.506.506,0,0,1-.353.623A.577.577,0,0,1,1463.947,989.692Z" fill="#fff"/>
          </g>
        </g>
        <g id="Grupo_623" data-name="Grupo 623">
          <g id="Grupo_622" data-name="Grupo 622">
            <path id="Caminho_1278" data-name="Caminho 1278" d="M1473.553,995.262a.507.507,0,0,1-.523-.37,4.336,4.336,0,0,1,.379-3.734,4.607,4.607,0,0,1,3.1-1.74.506.506,0,0,1,.1,1.007h0a3.618,3.618,0,0,0-2.367,1.31,3.394,3.394,0,0,0-.234,2.887.507.507,0,0,1-.353.622A.5.5,0,0,1,1473.553,995.262Z" fill="#fff"/>
          </g>
        </g>
        <g id="Grupo_625" data-name="Grupo 625">
          <g id="Grupo_624" data-name="Grupo 624">
            <path id="Caminho_1279" data-name="Caminho 1279" d="M1478.68,997.475a.508.508,0,0,1-.523-.371,4.334,4.334,0,0,1,.379-3.733,4.607,4.607,0,0,1,3.1-1.74.518.518,0,0,1,.553.455.506.506,0,0,1-.453.553,3.617,3.617,0,0,0-2.366,1.31,3.393,3.393,0,0,0-.234,2.886.508.508,0,0,1-.353.623A.584.584,0,0,1,1478.68,997.475Z" fill="#fff"/>
          </g>
        </g>
      </g>
      <path id="Caminho_1280" data-name="Caminho 1280" d="M1489.69,995.417c-.14,4.318-10.834,11.3-24.369,3.62,12.85,8.516,24.636,7.082,32.983-.647C1495.9,997.575,1489.69,995.417,1489.69,995.417Z" fill="#24c2bc"/>
      <path id="Caminho_1281" data-name="Caminho 1281" d="M1433.353,994.553c9.428.575,17.131,7.381,17,16.559-2.6,2.011-3.856.419-3.856.419s-1.222-11.8-13.671-13.335A11.789,11.789,0,0,1,1433.353,994.553Z" fill="#24c2bc"/>
      <path id="Caminho_1282" data-name="Caminho 1282" d="M1500.689,999.2a18.072,18.072,0,0,1-13.513,6.683c7.19,1.047,13.958-.881,17.171-5.432C1503.239,1000.063,1500.689,999.2,1500.689,999.2Z" fill="#24c2bc"/>
    </g>
    <g id="Grupo_629" data-name="Grupo 629">
      <g id="Grupo_628" data-name="Grupo 628">
        <path id="Caminho_1283" data-name="Caminho 1283" d="M1368.91,688.173l-2.128-12.294c-7.336-14.719-10.7-25.244-11.776-30.352,3.06.79,15.026,2.939,22.046.513,2.545-1.682,1.9-7.357,2.213-9.589s1.309-2.464,1.678-4.07-1.83-2.063-1.83-2.063,2.885-1.09,3.306-2.277-.842-2.992-.919-5.168,5.3-1.709,5.861-3.751c.864-3.152-9.7-14.289-6.278-18.972,2.779-3.8-4.472-21.9-4.472-21.9a6.263,6.263,0,0,0,2.639-3.972c.9-6.217-13.8-12.668-25.526-13.556s-39.222,5.724-42.389,31.542c-2.832,23.091,14.109,38.847,17.126,43.413,2.5,3.784-3.732,20.879-10.681,27.518C1334.727,654.338,1368.91,688.173,1368.91,688.173Z" fill="#ffdaad"/>
      </g>
    </g>
    <path id="Caminho_1284" data-name="Caminho 1284" d="M1382.439,626.9c-1.639-.019-10.593,4.217-10.593,4.217a31.45,31.45,0,0,0,7.267-.8C1381.841,629.494,1383.069,627.751,1382.439,626.9Z" fill="#f7f4eb" style="mix-blend-mode: multiply;isolation: isolate"/>
    <g id="Grupo_630" data-name="Grupo 630">
      <path id="Caminho_1285" data-name="Caminho 1285" d="M1330.882,606.69c4.775-3.191,6.9-1.86,11.183,5.712-2.841-7.662,4.609-13.776,6.2-14.4s1.669-8.4-.513-13.908c4.742-4.76,28.845-5.776,28.845-5.776a6.265,6.265,0,0,0,2.662-3.957c.937-6.212-13.73-12.747-25.447-13.7s-43.35,2.95-46.667,28.749c-3.16,24.58,17.985,41.488,20.975,46.072a10.587,10.587,0,0,1,.823,2.262C1331.786,625.915,1324.039,611.261,1330.882,606.69Z" fill="#7d5137"/>
    </g>
    <g id="Grupo_631" data-name="Grupo 631">
      <path id="Caminho_1286" data-name="Caminho 1286" d="M1377.958,600.337a4.523,4.523,0,0,0,0-2.89s-13.471-.12-17.036,3.761C1364.5,599.435,1377.958,600.337,1377.958,600.337Z" fill="#7d5137"/>
    </g>
    <path id="Caminho_1287" data-name="Caminho 1287" d="M1327.984,613.856c-.177,6.071,7.82,14.57,7.82,14.57l-6.892,9.356s-.732-10.5-.875-11.855S1327.984,613.856,1327.984,613.856Z" fill="#7d5137"/>
    <path id="Caminho_1288" data-name="Caminho 1288" d="M1382.188,628.441c-3.248.622-10.342,2.677-10.342,2.677,1.819.271,4.641-.246,7.267-.8A9.629,9.629,0,0,0,1382.188,628.441Z" fill="#fffcf2" style="mix-blend-mode: multiply;isolation: isolate"/>
    <path id="Caminho_1289" data-name="Caminho 1289" d="M1330.7,620.455c1.361,4.044,8.666,12.676,11.823,3.4C1340.687,626.818,1334.562,628.153,1330.7,620.455Z" fill="#e0e0e0" style="mix-blend-mode: multiply;isolation: isolate"/>
    <path id="Caminho_1290" data-name="Caminho 1290" d="M1339.085,615.091c1.1-3.143-1.784-7.545-4.529-7.627s-6.92,2.032-5.578,9.856c-.919-3.891,1.837-9.982,5.651-9.025s2.452,8.236,2.452,8.236,2.77-.217,3.606,1.235A2.346,2.346,0,0,0,1339.085,615.091Z" fill="#ededed" style="mix-blend-mode: multiply;isolation: isolate"/>
    <path id="Caminho_1291" data-name="Caminho 1291" d="M1378.979,574.928c2.574-4.854-3.021-10.344-8.217-13.129,2.25,2.106-.112,1.381-4.5-1.615s-14.4-4.5-16.883-4.275c6.955,1.855-14.821-1-21.574,2.671,4.054.019-10.119,5.252-13.737,14.452C1344.4,581.992,1378.979,574.928,1378.979,574.928Z" fill="#7d5137"/>
    <path id="Caminho_1292" data-name="Caminho 1292" d="M1342.115,628.125s.362,9.058,3.022,11.97,9.869,5.432,9.869,5.432.863,4.151,2.212,8.285c-3.481-5.132-4.528-6.019-4.528-6.019s-8.249-1.807-10.247-6.39S1342.115,628.125,1342.115,628.125Z" fill="#e0e0e0" style="mix-blend-mode: multiply;isolation: isolate"/>
    <path id="Caminho_1293" data-name="Caminho 1293" d="M1374.484,633.173c2.076,1.156,5.663.678,5.663.678a4.735,4.735,0,0,0-.946,3.421C1378.752,634.789,1374.484,633.173,1374.484,633.173Z" fill="#e8e8e8" style="mix-blend-mode: multiply;isolation: isolate"/>
    <g id="Grupo_632" data-name="Grupo 632">
      <path id="Caminho_1294" data-name="Caminho 1294" d="M1300.538,826.957c43.658,11.105,80.205-8.245,80.205-8.245s-1.046-32.5-.156-44.656c1.244-21.3-2.009-37.524-3.549-50.1,4.793-18.872-4.949-38.348-10.256-48.076,0,0-31.12-32.041-45.587-16.676,0,0-12.292,12.175-13.619,15.971-9.287,26.555-6.625,68.809-5.376,92.959C1303.026,784.108,1300.538,812.985,1300.538,826.957Z" fill="#24c2bc"/>
    </g>
    <path id="Caminho_1295" data-name="Caminho 1295" d="M1375.869,580.169a40.322,40.322,0,0,1-18.579,20.371c.837-2.39.12-3.585.12-3.585s-8.586,13.689-15.345,15.447c-1.621-2.662-3.652-8.039-3.652-9.473s-.119-12.425,2.867-16.129,4.78-8.364,9.559-10.156,21.625-4.9,23.537-4.54S1375.869,580.169,1375.869,580.169Z" fill="#7d5137"/>
    <path id="Caminho_1296" data-name="Caminho 1296" d="M1370.134,576.943c5.314,6.442,9.781,10.328,10.3,12.635,0,0,8.065-4.481,3.853-14.248s-9.229-10.215-9.229-10.215-8.513,1.254-8.513,2.867S1370.134,576.943,1370.134,576.943Z" fill="#7d5137"/>
    <path id="Caminho_1297" data-name="Caminho 1297" d="M1326.035,649.884s31.3,14.577,34.529,11.948c1.553,3.823,7.169,15.771,7.169,15.771l-11.231-2.987-10.156-8.722-10.992-6.571-6.929-2.27-16.668,12.366S1324.6,651.079,1326.035,649.884Z" fill="#24c2bc"/>
    <g id="Grupo_633" data-name="Grupo 633">
      <path id="Caminho_1298" data-name="Caminho 1298" d="M1331.826,660.7c9.541,7.972,6.808,21.655-6.561,34.694s-47.514,45.261-60.109,50.978c-6.331-2.367-27.261-2.567-21.1-16.149a28.009,28.009,0,0,1,4.973-4.707S1307.121,640.062,1331.826,660.7Z" fill="#ffdaad"/>
    </g>
    <g id="Grupo_634" data-name="Grupo 634">
      <path id="Caminho_1299" data-name="Caminho 1299" d="M1266.143,728.841a759.565,759.565,0,0,1,59.969,59.38c1.513,6.848-5.084,7.8-8.689,7.29s-71.681-38.276-74.49-62.434C1252.512,718.775,1266.143,728.841,1266.143,728.841Z" fill="#ffdaad"/>
    </g>
    <g id="Grupo_635" data-name="Grupo 635">
      <path id="Caminho_1300" data-name="Caminho 1300" d="M1321.268,784.212s8.943-5.984,18.672-3.439c1.358.356,6.716,4.3,6.716,4.3s-.073,3.068-5.807-.336c-1.91.94-9.331,2.321-9.331,2.321Z" fill="#ffdaad"/>
      <path id="Caminho_1301" data-name="Caminho 1301" d="M1348.351,795.262h0a2.16,2.16,0,0,1,3.033.348l6.812,9.205c.742.934,1.069,2.362.135,3.1h0c-.934.741-2.159-.013-2.9-.947L1348,798.3A2.159,2.159,0,0,1,1348.351,795.262Z" fill="#ffdaad"/>
      <path id="Caminho_1302" data-name="Caminho 1302" d="M1346.741,801.726h0a2.16,2.16,0,0,1,3.051.127l7.246,8.884c.807.877,1.389,2.1.511,2.908h0c-.877.807-2.246.193-3.053-.685l-7.882-8.183A2.16,2.16,0,0,1,1346.741,801.726Z" fill="#ffdaad"/>
      <path id="Caminho_1303" data-name="Caminho 1303" d="M1332.6,807.224l8.822,3.248a2.159,2.159,0,1,0,1.492-4.052l-5.181-1.908a10.442,10.442,0,0,0,1.483-1.924l7.978,2.581a2.159,2.159,0,0,0,1.492-4.052l-7.446-2.742a21.289,21.289,0,0,0,.633-2.039l6.551,2.412a2.159,2.159,0,0,0,1.492-4.052l-7.609-2.8a9.026,9.026,0,0,0-.211-1.346l5.67,1.168a2.159,2.159,0,1,0,.918-4.219l-11.062-2.342a13.923,13.923,0,0,0-1.459-.686c-6.993-2.782-18.1-1.516-20.51,4.539s2.692,13.768,9.685,16.55C1327.275,806.327,1331.084,807.4,1332.6,807.224Z" fill="#ffdaad"/>
      <path id="Caminho_1304" data-name="Caminho 1304" d="M1347.252,788.186h0a2.158,2.158,0,0,1,3.05-.132l8,8.041c.878.806,1.618,2.094.813,2.973h0c-.806.879-2.365.592-3.437-1l-8.3-6.834A2.158,2.158,0,0,1,1347.252,788.186Z" fill="#ffdaad"/>
      <path id="Caminho_1305" data-name="Caminho 1305" d="M1341.473,806.765h0a2.189,2.189,0,0,1,3.029.643l3.322,6.315c.659,1.014,1.256,2.511.242,3.17h0c-1.014.659-2.258.2-3.149-1.586l-4.087-5.512A2.19,2.19,0,0,1,1341.473,806.765Z" fill="#ffdaad"/>
    </g>
    <path id="Caminho_1306" data-name="Caminho 1306" d="M1335.981,661.84c-12.906-13.523-32.778-3.327-72.208,39.8,4.088,18.715,29.9,32.042,29.9,32.042S1358.279,685.252,1335.981,661.84Z" fill="#24c2bc"/>
    <path id="Caminho_1307" data-name="Caminho 1307" d="M1299.655,729.121s27.534-20.342,31.027-35.752c1.643,13.561-30.821,46.641-30.821,46.641Z" fill="#e0e0e0" style="mix-blend-mode: multiply;isolation: isolate"/>
  </g>
</svg>
