<svg xmlns="http://www.w3.org/2000/svg" width="341.311" height="258.163" viewBox="0 0 341.311 258.163">
  <g id="Grupo_508" data-name="Grupo 508" transform="translate(-751.465 -1161.156)">
    <g id="Grupo_451" data-name="Grupo 451">
      <g id="Grupo_450" data-name="Grupo 450">
        <path id="Caminho_1065" data-name="Caminho 1065" d="M847.26,1292.324l3.41-11.861c-.178-16.267,1.365-27.09,2.615-32.1,2.383,2.025,12.107,9.1,19.4,9.971,2.992-.4,4.87-5.727,6.108-7.581s2.228-1.629,3.25-2.9-.739-2.625-.739-2.625,3.039.274,3.926-.6.541-3.027,1.412-5,5.456.766,6.835-.81c2.129-2.434-2.47-16.905,2.6-19.6,4.114-2.184,5.471-21.428,5.471-21.428a6.2,6.2,0,0,0,4.064-2.4c3.484-5.146-6.821-17.233-16.872-23.082s-37.382-11.829-51.342,9.785c-12.485,19.332-4.2,40.667-3.489,46.033.592,4.448-8.868,13.625-20.115,22.974C832.7,1250.545,847.26,1292.324,847.26,1292.324Z" fill="#ffdaad"/>
      </g>
    </g>
    <path id="Caminho_1066" data-name="Caminho 1066" d="M885.741,1243.622c-1.451-.724-11.249-.817-11.249-.817a31.152,31.152,0,0,0,6.814,2.424C884.09,1245.672,885.936,1244.65,885.741,1243.622Z" fill="#f7f4eb" style="mix-blend-mode: multiply;isolation: isolate"/>
    <g id="Grupo_452" data-name="Grupo 452">
      <path id="Caminho_1067" data-name="Caminho 1067" d="M848.571,1203.384c5.627-.779,6.942,1.321,7.489,9.911.777-8.046,10.047-10.274,11.734-10.139s5.109-6.754,5.545-12.6c6.274-2.19,28.168,7.306,28.168,7.306a6.2,6.2,0,0,0,4.077-2.373c3.514-5.126-6.721-17.272-16.738-23.178s-39.86-16.08-53.945,5.453c-13.42,20.515-1.894,44.69-1.211,50.06a10.4,10.4,0,0,1-.243,2.369C841.079,1220.887,840.507,1204.5,848.571,1203.384Z" fill="#7d5137"/>
    </g>
    <g id="Grupo_453" data-name="Grupo 453">
      <path id="Caminho_1068" data-name="Caminho 1068" d="M893.215,1218.043a4.471,4.471,0,0,0,1.249-2.571s-11.939-5.921-16.787-4C881.626,1211.434,893.215,1218.043,893.215,1218.043Z" fill="#7d5137"/>
    </g>
    <path id="Caminho_1069" data-name="Caminho 1069" d="M842.9,1208.513c-2.777,5.327.675,16.343.675,16.343L833.4,1230.21s3.88-9.663,4.337-10.93S842.9,1208.513,842.9,1208.513Z" fill="#7d5137"/>
    <path id="Caminho_1070" data-name="Caminho 1070" d="M884.853,1244.885c-3.159-.849-10.361-2.08-10.361-2.08,1.5,1.026,4.237,1.783,6.814,2.424A9.543,9.543,0,0,0,884.853,1244.885Z" fill="#fffcf2" style="mix-blend-mode: multiply;isolation: isolate"/>
    <path id="Caminho_1071" data-name="Caminho 1071" d="M842.469,1215.559c-.533,4.187,2.244,15.023,9.057,8.13C848.612,1225.532,842.584,1224.077,842.469,1215.559Z" fill="#e0e0e0" style="mix-blend-mode: multiply;isolation: isolate"/>
    <path id="Caminho_1072" data-name="Caminho 1072" d="M852.247,1214.4c2.333-2.324,1.668-7.486-.74-8.743s-7.037-1.178-9.218,6.366c.861-3.86,5.942-8.093,8.924-5.595s-1.371,8.389-1.371,8.389,2.559,1,2.677,2.655A2.321,2.321,0,0,0,852.247,1214.4Z" fill="#ededed" style="mix-blend-mode: multiply;isolation: isolate"/>
    <path id="Caminho_1073" data-name="Caminho 1073" d="M905.089,1195.867c4.385-3.21,1.774-10.511-1.65-15.232,1.095,2.845-.7,1.18-3.308-3.38s-14.727-9.615-17.039-10.485c5.39,4.652-9.995-5.963-17.592-5.6,3.6,1.767-10.183-1.623-17.373,5.005C871.257,1187.232,905.089,1195.867,905.089,1195.867Z" fill="#7d5137"/>
    <path id="Caminho_1074" data-name="Caminho 1074" d="M849.32,1227.311s-3.587,8.22-2.476,11.96,6.441,9.092,6.441,9.092-1.023,4.068-1.606,8.33c-.884-6.07-1.434-7.312-1.434-7.312s-6.562-5.168-6.363-10.109S849.32,1227.311,849.32,1227.311Z" fill="#e0e0e0" style="mix-blend-mode: multiply;isolation: isolate"/>
    <path id="Caminho_1075" data-name="Caminho 1075" d="M875.954,1245.772c1.349,1.926,4.748,3.047,4.748,3.047a4.685,4.685,0,0,0-2.318,2.638C879.055,1249.053,875.954,1245.772,875.954,1245.772Z" fill="#e8e8e8" style="mix-blend-mode: multiply;isolation: isolate"/>
    <path id="Caminho_1076" data-name="Caminho 1076" d="M900.059,1199.19a39.894,39.894,0,0,1-25.328,10.116c1.776-1.767,1.653-3.139,1.653-3.139s-13.549,8.479-20.324,7.128c-.294-3.07.218-8.732.837-10.008s5.255-11.112,9.512-13.12,7.863-5.382,12.89-4.915,21.364,4.971,22.91,6.115S900.059,1199.19,900.059,1199.19Z" fill="#7d5137"/>
    <path id="Caminho_1077" data-name="Caminho 1077" d="M896.346,1193.844c1.95,8.027,4.25,13.413,3.721,15.693,0,0,9.112-.508,9.578-11.02s-3.808-13.075-3.808-13.075-8.119-2.557-8.815-1.121S896.346,1193.844,896.346,1193.844Z" fill="#7d5137"/>
    <g id="Grupo_460" data-name="Grupo 460">
      <g id="Grupo_454" data-name="Grupo 454">
        <path id="Caminho_1078" data-name="Caminho 1078" d="M1020.522,1305.935c-40.716-19.658-74.053-26.922-74.053-26.922-10.833-8.063-54.4-24.231-71.858-29.5s-30.438-1.139-32.744,10.779c-5.971,30.858,95.139,41.426,95.139,41.426a10.091,10.091,0,0,0,5.629,2.95c15.058,6.381,71.188,13.223,74.44,11.787C1020.45,1313.37,1020.522,1305.935,1020.522,1305.935Z" fill="#ffdaad"/>
      </g>
      <g id="Grupo_456" data-name="Grupo 456" style="mix-blend-mode: multiply;isolation: isolate">
        <g id="Grupo_455" data-name="Grupo 455">
          <path id="Caminho_1079" data-name="Caminho 1079" d="M939.3,1299.01c-3.168-1.016-77.579-6.588-97.653-34.178,2.64,26.869,95.361,36.889,95.361,36.889a10.091,10.091,0,0,0,5.629,2.95c15.058,6.381,71.188,13.223,74.44,11.787C958.241,1312.564,940.376,1301.6,939.3,1299.01Z" fill="#dbdbdb"/>
        </g>
      </g>
      <g id="Grupo_457" data-name="Grupo 457">
        <path id="Caminho_1080" data-name="Caminho 1080" d="M1018.89,1306.4s4.808-3.636,19.889.182,15.74,6.2,19.878,8.471,8.627,3.888,5.813,5.664c2.532,2.588,3.362,5.357.462,5.568s-19.64-6.163-22.867-6.248-14.164,3.811-26.1-4.03C1004.05,1308.05,1018.89,1306.4,1018.89,1306.4Z" fill="#ffdaad"/>
      </g>
      <g id="Grupo_458" data-name="Grupo 458" style="mix-blend-mode: multiply;isolation: isolate">
        <path id="Caminho_1081" data-name="Caminho 1081" d="M1063.212,1319.666c2.906,1.126-11.631-5.724-13.791-7.481s-9.267-1.86-9.267-1.86,8.139.973,9.366,2.419S1060.728,1319.48,1063.212,1319.666Z" fill="#ededed"/>
      </g>
      <g id="Grupo_459" data-name="Grupo 459" style="mix-blend-mode: multiply;isolation: isolate">
        <path id="Caminho_1082" data-name="Caminho 1082" d="M1063.247,1322.34c3.031.724-12.3-4.1-14.675-5.55s-9.433-.591-9.433-.591,8.195-.135,9.607,1.133S1060.761,1322.492,1063.247,1322.34Z" fill="#ededed"/>
      </g>
    </g>
    <g id="Grupo_465" data-name="Grupo 465" style="mix-blend-mode: multiply;isolation: isolate">
      <g id="Grupo_461" data-name="Grupo 461">
        <path id="Caminho_1083" data-name="Caminho 1083" d="M1018.89,1306.4s4.808-3.636,19.889.182,15.74,6.2,19.878,8.471,8.627,3.888,5.813,5.664c2.532,2.588,3.362,5.357.462,5.568s-19.64-6.163-22.867-6.248-14.164,3.811-26.1-4.03C1004.05,1308.05,1018.89,1306.4,1018.89,1306.4Z" fill="#f2f2f2"/>
      </g>
      <g id="Grupo_462" data-name="Grupo 462" style="mix-blend-mode: multiply;isolation: isolate">
        <path id="Caminho_1084" data-name="Caminho 1084" d="M1063.212,1319.666c2.906,1.126-11.631-5.724-13.791-7.481s-9.267-1.86-9.267-1.86,8.139.973,9.366,2.419S1060.728,1319.48,1063.212,1319.666Z" fill="#dbdbdb"/>
      </g>
      <g id="Grupo_463" data-name="Grupo 463" style="mix-blend-mode: multiply;isolation: isolate">
        <path id="Caminho_1085" data-name="Caminho 1085" d="M1063.247,1322.34c3.031.724-12.3-4.1-14.675-5.55s-9.433-.591-9.433-.591,8.195-.135,9.607,1.133S1060.761,1322.492,1063.247,1322.34Z" fill="#dbdbdb"/>
      </g>
      <g id="Grupo_464" data-name="Grupo 464">
        <path id="Caminho_1086" data-name="Caminho 1086" d="M1020.522,1305.935c-40.716-19.658-74.053-26.922-74.053-26.922-10.833-8.063-54.4-24.231-71.858-29.5s-30.438-1.139-32.744,10.779c-5.971,30.858,95.139,41.426,95.139,41.426a10.091,10.091,0,0,0,5.629,2.95c15.058,6.381,71.188,13.223,74.44,11.787C1020.45,1313.37,1020.522,1305.935,1020.522,1305.935Z" fill="#f2f2f2"/>
      </g>
    </g>
    <g id="Grupo_483" data-name="Grupo 483">
      <g id="Grupo_466" data-name="Grupo 466">
        <path id="Caminho_1087" data-name="Caminho 1087" d="M833.16,1357.223s74.653-7.6,78.168,17.313c2.358,16.711-25.448,36.339-99.577,27.874-48.329-5.519-7.724-37.854,3-40.829S833.16,1357.223,833.16,1357.223Z" fill="#ffdaad"/>
      </g>
      <g id="Grupo_467" data-name="Grupo 467">
        <path id="Caminho_1088" data-name="Caminho 1088" d="M887.087,1359.028s119.532,4.494,174.95,26.063c1.371,4.515-9.008,10.172-9.008,10.172s-18.767.191-33.088,3c-46.32,9.1-122.29,9.445-133.752-11.218C870.441,1358.658,887.087,1359.028,887.087,1359.028Z" fill="#ffdaad"/>
      </g>
      <path id="Caminho_1089" data-name="Caminho 1089" d="M1019.941,1398.267c2.763-.26,5.6-.534,8.573-.832,15.654-1.57,27.1-2.362,27.1-2.362s15.559-4.964,14.368-9.909c-13.775-3.088-29.642-7.067-46.073-11.318C1028.365,1381.716,1027.126,1390.811,1019.941,1398.267Z" fill="#c9ebff"/>
      <path id="Caminho_1090" data-name="Caminho 1090" d="M886.1,1402.578s9.128-17.873,7.879-35.277c3.557-2.824,2-8.1,2-8.1s-9.718-3.493-19.9-1.681C868.649,1371.888,886.1,1402.578,886.1,1402.578Z" fill="#d9d9d9" style="mix-blend-mode: multiply;isolation: isolate"/>
      <path id="Caminho_1091" data-name="Caminho 1091" d="M885.442,1353.471c-10.791-.08-65.856-2.835-65.856-2.835s-17.31-17.877-59.434-6.579c-12.213,30.022-12.111,63.657,19.328,71,15.605,3.645,83.336-1.267,100.014-3.6C898.359,1386.414,889.071,1367.231,885.442,1353.471Z" fill="#4d4d4d"/>
      <g id="Grupo_468" data-name="Grupo 468" style="mix-blend-mode: multiply;isolation: isolate">
        <path id="Caminho_1092" data-name="Caminho 1092" d="M900.984,1363.136c3.835,5.2,5.84,7.779,3.256,11.6,6.549-4.321.806-11.2.806-11.2Z" fill="#ededed"/>
      </g>
      <g id="Grupo_482" data-name="Grupo 482">
        <g id="Grupo_469" data-name="Grupo 469" style="mix-blend-mode: multiply;isolation: isolate">
          <path id="Caminho_1093" data-name="Caminho 1093" d="M1076.685,1383.583c-2.717-1.084-5.5-2.127-8.313-3.151-2.78,4.737,3,10.021,1.966,11.366-3.382,4.419-10.994,2.705-10.694,6.286h0c2.473.439,4.035.829,4.035.829S1078.122,1388.461,1076.685,1383.583Z" fill="#d9d9d9"/>
        </g>
        <g id="Grupo_481" data-name="Grupo 481">
          <g id="Grupo_470" data-name="Grupo 470">
            <path id="Caminho_1094" data-name="Caminho 1094" d="M1070.979,1400.952s1.525,2.314,7.6,3.763c1.987.474,5.551-.621,5.4-9.088-.28-15.3,1.939-22.161,5.618-50.561,1.846-14.252-11.352-17.055-11.352-17.055s.6,4.067-1.005,14.3-2.267,12.843-5.672,29.454-5.569,25.264-5.771,26.04S1070.979,1400.952,1070.979,1400.952Z" fill="#24c2bc"/>
          </g>
          <g id="Grupo_471" data-name="Grupo 471">
            <path id="Caminho_1095" data-name="Caminho 1095" d="M1049.433,1397.2c2.675,5.333,17.067,11.393,26.593,5.865,2.967-7.711.052-15.107,2.481-26.511,2.375-11.151,7.952-32.794,4.956-44.234-1.218-4.09-6.638-6.552-9.322-1.769-3.6,6.417-14.55,35.173-23.4,42.258,0,0-4.574,2.4-3.236,6.16s5.624,3.04,6.118,2.573c.807,1.225,2.316,8.307-.093,10.644S1047.981,1394.3,1049.433,1397.2Z" fill="#4d4d4d"/>
          </g>
          <g id="Grupo_472" data-name="Grupo 472">
            <path id="Caminho_1096" data-name="Caminho 1096" d="M1050.741,1372.807s-4.574,2.4-3.236,6.16c.731,2.057,1.959,3.016,3.353,3.146a4.314,4.314,0,0,0,2.765-.573s12.916-11.712,14.11-20.6c.754-5.617-1.335-8-3.425-9.254C1060.175,1359.963,1055.482,1369.012,1050.741,1372.807Z" fill="#24c2bc"/>
          </g>
          <g id="Grupo_474" data-name="Grupo 474">
            <g id="Grupo_473" data-name="Grupo 473">
              <path id="Caminho_1097" data-name="Caminho 1097" d="M1060.957,1369.185a.5.5,0,0,1-.415.48,4.291,4.291,0,0,1-3.642-.734,4.563,4.563,0,0,1-1.416-3.219.5.5,0,0,1,1,0,3.58,3.58,0,0,0,1.063,2.457,3.354,3.354,0,0,0,2.821.509.5.5,0,0,1,.579.408A.481.481,0,0,1,1060.957,1369.185Z" fill="#fff"/>
            </g>
          </g>
          <g id="Grupo_476" data-name="Grupo 476">
            <g id="Grupo_475" data-name="Grupo 475">
              <path id="Caminho_1098" data-name="Caminho 1098" d="M1057.647,1373.382a.5.5,0,0,1-.415.48,4.294,4.294,0,0,1-3.643-.734,4.556,4.556,0,0,1-1.415-3.219.5.5,0,0,1,1,0,3.577,3.577,0,0,0,1.062,2.457,3.358,3.358,0,0,0,2.821.51.5.5,0,0,1,.58.407A.489.489,0,0,1,1057.647,1373.382Z" fill="#fff"/>
            </g>
          </g>
          <g id="Grupo_478" data-name="Grupo 478">
            <g id="Grupo_477" data-name="Grupo 477">
              <path id="Caminho_1099" data-name="Caminho 1099" d="M1064.062,1364.455a.5.5,0,0,1-.415.479,4.291,4.291,0,0,1-3.642-.733,4.559,4.559,0,0,1-1.416-3.219.5.5,0,1,1,1,0h0a3.586,3.586,0,0,0,1.063,2.458,3.361,3.361,0,0,0,2.822.509.5.5,0,0,1,.579.408A.484.484,0,0,1,1064.062,1364.455Z" fill="#fff"/>
            </g>
          </g>
          <g id="Grupo_480" data-name="Grupo 480">
            <g id="Grupo_479" data-name="Grupo 479">
              <path id="Caminho_1100" data-name="Caminho 1100" d="M1066.737,1359.617a.5.5,0,0,1-.415.479,4.29,4.29,0,0,1-3.643-.734,4.554,4.554,0,0,1-1.415-3.218.513.513,0,0,1,.5-.5.5.5,0,0,1,.5.5,3.58,3.58,0,0,0,1.062,2.458,3.358,3.358,0,0,0,2.821.509.5.5,0,0,1,.587.508Z" fill="#fff"/>
            </g>
          </g>
        </g>
        <path id="Caminho_1101" data-name="Caminho 1101" d="M1065.772,1348.569c4.241.556,10.087,11.766,1.215,24.362,9.631-11.841,9.355-23.592,2.544-32.562C1068.5,1342.658,1065.772,1348.569,1065.772,1348.569Z" fill="#24c2bc"/>
        <path id="Caminho_1102" data-name="Caminho 1102" d="M1059.486,1404c1.475-9.234,8.924-16.168,17.955-15.15,1.731,2.755.041,3.839.041,3.839s-11.748.066-14.459,12.185A11.679,11.679,0,0,1,1059.486,1404Z" fill="#24c2bc"/>
        <path id="Caminho_1103" data-name="Caminho 1103" d="M1070.555,1338.1a17.894,17.894,0,0,1,5.281,13.96c1.726-6.984.479-13.839-3.7-17.443C1071.656,1335.668,1070.555,1338.1,1070.555,1338.1Z" fill="#24c2bc"/>
      </g>
    </g>
    <path id="Caminho_1104" data-name="Caminho 1104" d="M1074.141,1330.549c-.521.928-1.2,2.335-2,4.065h0l-.076.165c-.452.979-.943,2.062-1.467,3.225l-.043.093h0l-1.025,2.273h0c-.961,2.126-3.376,7.368-3.716,8.106-.858,1.825-1.749,3.677-2.665,5.513q-.486.96-.98,1.922a.471.471,0,0,0-.405-.268.513.513,0,0,0-.5.5,4.951,4.951,0,0,0,.177,1.171c-.627,1.2-1.262,2.38-1.905,3.533a.479.479,0,0,0-.446-.367.5.5,0,0,0-.5.5,4.949,4.949,0,0,0,.184,1.2c-.755,1.3-1.515,2.544-2.274,3.7-.009-.1-.012-.171-.012-.177a.5.5,0,0,0-1,0,5.184,5.184,0,0,0,.231,1.345,39.557,39.557,0,0,1-2.495,3.286,3.843,3.843,0,0,1-.044-.435.5.5,0,0,0-1,0,5.149,5.149,0,0,0,.232,1.343,16.669,16.669,0,0,1-1.665,1.555s-4.574,2.4-3.236,6.16a6.681,6.681,0,0,0,.465.98q-5.7-1.408-11.625-2.913c-.235-.061-.472-.12-.708-.18q-5.793-1.473-11.723-3.008c.05.089.09.18.139.27-43.025-9.466-107.117-13.323-127.6-14.578-.142-.049-.286-.095-.429-.143-.029-.12-.05-.194-.05-.194a43.942,43.942,0,0,0-8.917-1.919c-.213-.033-.425-.073-.639-.106-.34-1.309-.672-2.55-.977-3.705-10.791-.08-65.856-2.835-65.856-2.835s-17.31-17.877-59.434-6.579c-12.213,30.022-12.111,63.657,19.328,71,15.605,3.645,82.758,1.42,99.436-.917,3.738-4.962,5.156-6.629,7.063-11.512a48.552,48.552,0,0,0,14.5-4.845c23.877,9.346,83.356,7.574,119.46.483,2.763-.26,5.6-.534,8.573-.832,8.5-.852,15.744-1.474,20.606-1.865a2.3,2.3,0,0,0,.313,1.628c1.277,2.547,5.239,5.247,10.056,6.784l0,.015a11.656,11.656,0,0,0,3.537.873l.005-.017a19.781,19.781,0,0,0,11.958-1.279,23.852,23.852,0,0,0,3.591,1.141c1.987.474,5.551-.621,5.4-9.088-.28-15.3,1.939-22.161,5.618-50.561,1.266-9.773-4.542-14.161-8.318-15.954C1079.1,1327.4,1075.978,1327.274,1074.141,1330.549Z" fill="#e0e0e0" style="mix-blend-mode: multiply;isolation: isolate"/>
    <g id="Grupo_484" data-name="Grupo 484">
      <path id="Caminho_1105" data-name="Caminho 1105" d="M836.168,1369.182s74.653-7.6,78.168,17.312c2.357,16.712-25.169,30.474-99.578,27.875-48.612-1.7-7.723-37.854,3.005-40.83S836.168,1369.182,836.168,1369.182Z" fill="#ffdaad"/>
    </g>
    <g id="Grupo_485" data-name="Grupo 485">
      <path id="Caminho_1106" data-name="Caminho 1106" d="M890.095,1370.986s119.531,4.495,174.95,26.064c1.371,4.514-9.008,10.172-9.008,10.172s-19.622-2.384-33.943.429c-46.32,9.1-121.99,5.824-133.451-14.839C872.9,1364.422,890.095,1370.986,890.095,1370.986Z" fill="#ffdaad"/>
    </g>
    <path id="Caminho_1107" data-name="Caminho 1107" d="M1022.094,1407.651c2.762-.26,5.6-.534,8.572-.831a127.661,127.661,0,0,1,27.961.211s15.559-4.964,14.368-9.908c-13.775-3.088-29.643-7.068-46.073-11.318C1031.372,1393.675,1029.279,1400.195,1022.094,1407.651Z" fill="#c9ebff"/>
    <path id="Caminho_1108" data-name="Caminho 1108" d="M885.846,1411.911s12.388-15.247,11.139-32.652c2.9-5.094.235-8.594.235-8.594a37.542,37.542,0,0,0-18.141-1.186C871.656,1383.847,885.846,1411.911,885.846,1411.911Z" fill="#d9d9d9" style="mix-blend-mode: multiply;isolation: isolate"/>
    <g id="Grupo_486" data-name="Grupo 486">
      <path id="Caminho_1109" data-name="Caminho 1109" d="M1018.974,1312.456c-39.936-21.2-72.971-29.728-72.971-29.728-10.518-8.471-53.438-26.289-70.68-32.218s-30.373-2.3-33.132,9.521c-7.145,30.608,93.489,45.027,93.489,45.027a10.091,10.091,0,0,0,5.512,3.163c14.8,6.951,70.632,15.93,73.936,14.62C1018.619,1319.883,1018.974,1312.456,1018.974,1312.456Z" fill="#ffdaad"/>
    </g>
    <g id="Grupo_487" data-name="Grupo 487">
      <path id="Caminho_1110" data-name="Caminho 1110" d="M1017.326,1312.858s4.943-3.45,19.867.941,15.492,6.8,19.54,9.223,8.473,4.214,5.593,5.882c2.431,2.682,3.155,5.481.249,5.581s-19.391-6.908-22.612-7.116-14.3,3.268-25.927-5.023C1002.433,1313.941,1017.326,1312.858,1017.326,1312.858Z" fill="#ffdaad"/>
    </g>
    <g id="Grupo_488" data-name="Grupo 488" style="mix-blend-mode: multiply;isolation: isolate">
      <path id="Caminho_1111" data-name="Caminho 1111" d="M1061.109,1327.807c2.86,1.236-11.4-6.164-13.5-8s-9.189-2.212-9.189-2.212,8.1,1.283,9.268,2.776S1058.634,1327.526,1061.109,1327.807Z" fill="#ededed"/>
    </g>
    <g id="Grupo_489" data-name="Grupo 489" style="mix-blend-mode: multiply;isolation: isolate">
      <path id="Caminho_1112" data-name="Caminho 1112" d="M1061.042,1330.48c3,.839-12.132-4.567-14.453-6.106s-9.4-.95-9.4-.95,8.195.177,9.558,1.5S1058.552,1330.537,1061.042,1330.48Z" fill="#ededed"/>
    </g>
    <path id="Caminho_1113" data-name="Caminho 1113" d="M888.973,1360.084c-10.791-.08-65.856-2.834-65.856-2.834s-23.834-17.99-65.958-6.692c-12.213,30.023-5.343,60.069,26.1,67.413,15.606,3.645,84.335-1,101.013-3.34C903.134,1389.591,892.6,1373.844,888.973,1360.084Z" fill="#4d4d4d"/>
    <path id="Caminho_1114" data-name="Caminho 1114" d="M757.159,1350.558c2.271-23.2,28.825-63.152,40.428-77.767,12.915-24.658,27.68-34.7,59.278-28.979S907.3,1262.9,907.3,1262.9s8.685,18.212-14.065,36.712c-4.75-1.38-16.625-3.25-16.625-3.25s-6.865,16.476-18.176,23.08-26.631,20.817-27.665,37.99c-9.592,4.029-15.433.012-24.99-1.252S757.159,1350.558,757.159,1350.558Z" fill="#24c2bc"/>
    <path id="Caminho_1115" data-name="Caminho 1115" d="M877.253,1292.165s-37.419-10.5-42.872-15.136c12.809,11.126,40.657,20.141,40.657,20.141S877.19,1293.786,877.253,1292.165Z" fill="#d9d9d9" style="mix-blend-mode: multiply;isolation: isolate"/>
    <g id="Grupo_490" data-name="Grupo 490" style="mix-blend-mode: multiply;isolation: isolate">
      <path id="Caminho_1116" data-name="Caminho 1116" d="M833.652,1322.263s.169.023.416.052A.883.883,0,0,0,833.652,1322.263Z" fill="#d9d9d9"/>
      <path id="Caminho_1117" data-name="Caminho 1117" d="M830.765,1357.428c1.034-17.173,16.353-31.386,27.665-37.99s17.765-23.363,17.765-23.363-5.535,7.935-16.823,18.205c-10.21,9.29-22.956,8.307-25.3,8.035.793.227,2.875,1.331,7.483,6.409-7.587,8.226-6.36,4.627-18.855,7.123,4.266-1.113,8.681,7.413,7.234,12.959s-7.173-4.64-20.123-1.97c2.019,1.729,9.318.912,13.8,8.788-7.977,3.629-42.173-7.192-66.445-5.066,0,0,39.06,4.354,48.616,5.618S821.173,1361.457,830.765,1357.428Z" fill="#d9d9d9"/>
    </g>
    <g id="Grupo_491" data-name="Grupo 491" style="mix-blend-mode: multiply;isolation: isolate">
      <path id="Caminho_1118" data-name="Caminho 1118" d="M903.991,1375.095c3.836,5.2,5.841,7.778,3.257,11.6,6.549-4.322.806-11.2.806-11.2Z" fill="#ededed"/>
    </g>
    <g id="Grupo_505" data-name="Grupo 505">
      <g id="Grupo_492" data-name="Grupo 492" style="mix-blend-mode: multiply;isolation: isolate">
        <path id="Caminho_1119" data-name="Caminho 1119" d="M1079.692,1395.541c-2.716-1.083-5.5-2.127-8.312-3.151-2.78,4.737,3,10.021,1.966,11.367-3.382,4.418-10.994,2.7-10.695,6.285h0c2.474.438,4.036.828,4.036.828S1081.13,1400.42,1079.692,1395.541Z" fill="#d9d9d9"/>
      </g>
      <g id="Grupo_504" data-name="Grupo 504">
        <g id="Grupo_493" data-name="Grupo 493">
          <path id="Caminho_1120" data-name="Caminho 1120" d="M1073.987,1412.91s1.525,2.314,7.6,3.763c1.987.474,5.551-.62,5.4-9.088-.281-15.3,1.939-22.16,5.618-50.56,1.846-14.252-11.353-17.055-11.353-17.055s.6,4.067-1,14.3-2.267,12.843-5.673,29.453-5.569,25.265-5.771,26.04S1073.987,1412.91,1073.987,1412.91Z" fill="#24c2bc"/>
        </g>
        <g id="Grupo_494" data-name="Grupo 494">
          <path id="Caminho_1121" data-name="Caminho 1121" d="M1052.44,1409.157c2.675,5.333,17.068,11.393,26.594,5.865,2.967-7.711.051-15.107,2.481-26.512,2.375-11.15,7.952-32.793,4.955-44.234-1.217-4.09-6.638-6.552-9.322-1.769-3.6,6.417-14.549,35.173-23.4,42.259,0,0-4.574,2.4-3.236,6.159s5.624,3.041,6.118,2.574c.807,1.224,2.316,8.307-.093,10.644S1050.988,1406.262,1052.44,1409.157Z" fill="#4d4d4d"/>
        </g>
        <g id="Grupo_495" data-name="Grupo 495">
          <path id="Caminho_1122" data-name="Caminho 1122" d="M1053.749,1384.766s-4.574,2.4-3.236,6.159c.731,2.057,1.958,3.016,3.353,3.147a4.315,4.315,0,0,0,2.765-.573s12.916-11.713,14.109-20.6c.754-5.618-1.335-8-3.424-9.255C1063.183,1371.922,1058.489,1380.97,1053.749,1384.766Z" fill="#24c2bc"/>
        </g>
        <g id="Grupo_497" data-name="Grupo 497">
          <g id="Grupo_496" data-name="Grupo 496">
            <path id="Caminho_1123" data-name="Caminho 1123" d="M1063.965,1381.144a.5.5,0,0,1-.415.479,4.291,4.291,0,0,1-3.643-.734,4.552,4.552,0,0,1-1.415-3.218.5.5,0,0,1,1,0,3.577,3.577,0,0,0,1.063,2.458,3.356,3.356,0,0,0,2.82.509.5.5,0,0,1,.58.408A.485.485,0,0,1,1063.965,1381.144Z" fill="#fff"/>
          </g>
        </g>
        <g id="Grupo_499" data-name="Grupo 499">
          <g id="Grupo_498" data-name="Grupo 498">
            <path id="Caminho_1124" data-name="Caminho 1124" d="M1060.654,1385.341a.5.5,0,0,1-.415.479,4.292,4.292,0,0,1-3.642-.733,4.555,4.555,0,0,1-1.415-3.219.5.5,0,1,1,1,0,3.582,3.582,0,0,0,1.063,2.458,3.358,3.358,0,0,0,2.821.509.5.5,0,0,1,.579.408A.484.484,0,0,1,1060.654,1385.341Z" fill="#fff"/>
          </g>
        </g>
        <g id="Grupo_501" data-name="Grupo 501">
          <g id="Grupo_500" data-name="Grupo 500">
            <path id="Caminho_1125" data-name="Caminho 1125" d="M1067.07,1376.413a.5.5,0,0,1-.415.48,4.29,4.29,0,0,1-3.643-.734,4.555,4.555,0,0,1-1.415-3.219.5.5,0,0,1,1,0h0a3.584,3.584,0,0,0,1.063,2.458,3.355,3.355,0,0,0,2.821.51.5.5,0,0,1,.58.407A.558.558,0,0,1,1067.07,1376.413Z" fill="#fff"/>
          </g>
        </g>
        <g id="Grupo_503" data-name="Grupo 503">
          <g id="Grupo_502" data-name="Grupo 502">
            <path id="Caminho_1126" data-name="Caminho 1126" d="M1069.744,1371.575a.5.5,0,0,1-.415.479,4.288,4.288,0,0,1-3.642-.733,4.555,4.555,0,0,1-1.415-3.219.512.512,0,0,1,.5-.5.5.5,0,0,1,.5.5,3.581,3.581,0,0,0,1.063,2.457,3.354,3.354,0,0,0,2.821.509.5.5,0,0,1,.579.408A.489.489,0,0,1,1069.744,1371.575Z" fill="#fff"/>
          </g>
        </g>
      </g>
      <path id="Caminho_1127" data-name="Caminho 1127" d="M1068.78,1360.528c4.24.555,10.087,11.765,1.215,24.361,9.631-11.841,9.354-23.591,2.544-32.562C1071.5,1354.617,1068.78,1360.528,1068.78,1360.528Z" fill="#24c2bc"/>
      <path id="Caminho_1128" data-name="Caminho 1128" d="M1062.493,1415.955c1.476-9.234,8.925-16.168,17.955-15.15,1.731,2.756.042,3.839.042,3.839s-11.748.066-14.459,12.185A11.686,11.686,0,0,1,1062.493,1415.955Z" fill="#24c2bc"/>
      <path id="Caminho_1129" data-name="Caminho 1129" d="M1073.563,1350.055a17.891,17.891,0,0,1,5.281,13.959c1.725-6.983.478-13.838-3.7-17.442C1074.664,1347.627,1073.563,1350.055,1073.563,1350.055Z" fill="#24c2bc"/>
    </g>
    <g id="Grupo_507" data-name="Grupo 507" style="mix-blend-mode: multiply;isolation: isolate">
      <g id="Grupo_506" data-name="Grupo 506">
        <path id="Caminho_1130" data-name="Caminho 1130" d="M938.074,1302.437c-3.127-1.137-87.484-3.55-106.489-31.886,1.612,26.95,104.095,34.507,104.095,34.507a10.091,10.091,0,0,0,5.512,3.163c14.8,6.951,70.632,15.93,73.936,14.62C956.486,1316.7,939.052,1305.064,938.074,1302.437Z" fill="#dbdbdb"/>
      </g>
    </g>
  </g>
</svg>
