<svg xmlns="http://www.w3.org/2000/svg" width="76.66" height="157.928" viewBox="0 0 76.66 157.928">
  <g id="Grupo_88" data-name="Grupo 88" transform="translate(-733.638 -146.566)">
    <g id="Grupo_87" data-name="Grupo 87" transform="translate(735.669 146.566)">
      <g id="Grupo_86" data-name="Grupo 86" transform="translate(0 0)">
        <g id="Grupo_72" data-name="Grupo 72" transform="translate(23.84 13.183)">
          <g id="Grupo_71" data-name="Grupo 71" transform="translate(3.128)">
            <path id="Caminho_215" data-name="Caminho 215" d="M896.814,219.374l-3,9.754-9.123-1.667,4.765-12.221Z" transform="translate(-884.694 -215.24)" fill="#fec0b1"/>
          </g>
          <path id="Caminho_216" data-name="Caminho 216" d="M868.4,239.389s2.761-.883,3.645-1.992,2.906-7.487,2.906-7.487l7.726,4.244-1.3,5.976,2.525,3.523s1.192,5.6-3.53,3.515S868.4,239.389,868.4,239.389Z" transform="translate(-868.402 -227.094)" fill="#f29456"/>
        </g>
        <g id="Grupo_76" data-name="Grupo 76" transform="translate(22.714)">
          <path id="Caminho_217" data-name="Caminho 217" d="M867.256,193.714c-.527-.225.8-2.8-1.825-4.45-2.543-1.6-4.253-4.866-1.456-9.047,2.614-3.907,8.793,1.2,8.793,1.2l2.009,6.236-2.988.324C869.225,191.429,869.728,193.345,867.256,193.714Z" transform="translate(-862.535 -172.567)" fill="#1b2c40"/>
          <path id="Caminho_218" data-name="Caminho 218" d="M877.956,151.641s.74-.884-.679-3.1-3.427-2.317-8.052-1.545c0,0,1.654,1.24-4.806,4.487-3.841,1.931.384,8.687,1.823,9.714a11.644,11.644,0,0,0,4.211,1.4S871.692,156.927,877.956,151.641Z" transform="translate(-862.787 -146.566)" fill="#1b2c40"/>
          <g id="Grupo_75" data-name="Grupo 75" transform="translate(6.537 5.075)">
            <g id="Grupo_74" data-name="Grupo 74">
              <g id="Grupo_73" data-name="Grupo 73">
                <path id="Caminho_219" data-name="Caminho 219" d="M905.22,173s2.7,2.037,2.549,4.118c-.042.565,2.5,2.857,2.5,2.857a1.055,1.055,0,0,1-.688,1.194c-.878.354.053,1.421.053,1.421s.084.467-1.785.989c-.251.174,1.554-.2,1.812-.125a.994.994,0,0,1,.017.974c-.29.473.365,1.792.209,2.328-.286.983-3.795,1.477-5.157,1.631a10.265,10.265,0,0,1-3.4-.509s-1.448-1.014-1.528-1.857a5.465,5.465,0,0,1-2.557-2.275c-2.1-3.721,1.281-5.547,3.237-2.258.63,1.06.849.264.849.264s.159-.482-.486-2.126c-.159-.406-2.21-3.274,1.481-4.715A8.64,8.64,0,0,0,905.22,173Z" transform="translate(-896.589 -173.004)" fill="#f29456"/>
              </g>
            </g>
          </g>
        </g>
        <path id="Caminho_220" data-name="Caminho 220" d="M931.983,201.83l1.551,1.573s.357,5.966-.592,7.217a6.965,6.965,0,0,1-1.975.756c-.751.072-5.73-1.888-5.73-1.888l.286-2.514-.6-2.409Z" transform="translate(-890.236 -191.221)" fill="#ede6dd"/>
        <g id="Grupo_85" data-name="Grupo 85" transform="translate(0 26.149)">
          <g id="Grupo_84" data-name="Grupo 84">
            <g id="Grupo_81" data-name="Grupo 81" transform="translate(0.889)">
              <g id="Grupo_80" data-name="Grupo 80">
                <g id="Grupo_79" data-name="Grupo 79">
                  <g id="Grupo_77" data-name="Grupo 77" transform="translate(31.663 16.406)">
                    <path id="Caminho_221" data-name="Caminho 221" d="M978.262,454.7l16.806,12.855,1.53-4.158s-7.31-9.581-10.455-12.379-3.861-3.556-3.861-3.556-4.112,3.288-4.883,5.606C977.194,453.679,977.746,454.306,978.262,454.7Z" transform="translate(-965.152 -432.251)" fill="#f29456"/>
                    <path id="Caminho_222" data-name="Caminho 222" d="M1062.841,529.421a21.177,21.177,0,0,1,4.71.158,48.318,48.318,0,0,1,5.458,1.511s.8.326.615.887-.942.722-.942.722a1.322,1.322,0,0,1,.129,1.235,1.16,1.16,0,0,1-1.069.455,1.664,1.664,0,0,1-.2,1.167c-.347.572-1.252.192-1.252.192a1.74,1.74,0,0,1-.428,1.017c-.365.3-1.08-.122-1.08-.122a.833.833,0,0,1-.869.579c-1.5-.195-4.583-4.075-4.583-4.075Z" transform="translate(-1034.227 -498.427)" fill="#f29456"/>
                    <path id="Caminho_223" data-name="Caminho 223" d="M943.237,396.233l-4.075,3.949a53.116,53.116,0,0,1-14.037-10.974c-2.2-2.492-11.338-13.511-11.338-13.511l8.142-7.454,11.189,15.264Z" transform="translate(-913.787 -368.244)" fill="#427fba"/>
                  </g>
                  <g id="Grupo_78" data-name="Grupo 78">
                    <path id="Caminho_224" data-name="Caminho 224" d="M878.486,283.034s-6.649,1.065,2.491,16.6c8.675,14.749,9.814,14.2,9.814,14.2l3.711-6.982a101.159,101.159,0,0,0-6.011-13.8C884.673,285.862,882.726,281.676,878.486,283.034Z" transform="translate(-851.712 -282.78)" fill="#f29456"/>
                    <path id="Caminho_225" data-name="Caminho 225" d="M895.213,396.843l-19.881.188-.382-9.274,21.485-8.4Z" transform="translate(-850.742 -360.819)" fill="#f29456"/>
                    <path id="Caminho_226" data-name="Caminho 226" d="M877.336,560.651c.314,1.244-.814,9.148,1.073,14.254,2.176,5.887,11.521,17.288,11.519,21.627,0,0-1.331,4.831-.069,6.117s2.516.786,3.914.612c1.786-.223,6.7-.1,6.7-.1l5.593-.437s2.907-1.063.786-1.748c-1.987-.641-7.1-1.473-7.833-2.255-.659-.706-2.846-2.468-2.846-2.468-.77-.34-5.052-16.976-8.31-35.706,0,0-6.59-31.27-14.4-39.668s-17.409,5.4-17.409,5.4Z" transform="translate(-835.471 -472.977)" fill="#f29456"/>
                    <path id="Caminho_227" data-name="Caminho 227" d="M788.289,504.937l-10.689,2.45a8.2,8.2,0,0,0-6.334,8.712c.517,5.932-1.872,12.742-5.115,23.529a41.915,41.915,0,0,1-4.535,9.439s.037.111.11.3a22.112,22.112,0,0,0-5.2,8.638,38.443,38.443,0,0,0-2.126,9.727c-.328,3.707-1.12,11.112-2.353,13.206-1.7,2.881-.722,1.429-2.5,3.256s.342,2.812.342,2.812a9.482,9.482,0,0,1,4.022,3.874c1.21,2.031,9.793,2.83,8.6,1.363-1.578-1.942-2.706-1.54-2.706-1.54-.322-.353-1.628-.378-1.833-.958-.146-.413-1.909-3.58-1.19-5.552,3.256-8.925,14.524-29.12,16.473-31.161,2.211-2.315,6.659-8.048,6.659-8.048l1.128-1.716C788.922,525.015,788.289,504.937,788.289,504.937Z" transform="translate(-748.848 -462.29)" fill="#f29456"/>
                    <path id="Caminho_228" data-name="Caminho 228" d="M936.025,607.844l-7.649-12.984c.2-.772.74-2.855,1.168-4.509.1-.387,1.881-3.964,1.9-3.564Z" transform="translate(-893.912 -528.403)" fill="#172635"/>
                    <path id="Caminho_229" data-name="Caminho 229" d="M791.49,287.691s-4.335-5.153-12.955,10.681c-8.181,15.028-7.123,15.722-7.123,15.722l7.9-.411a101.133,101.133,0,0,0,8.735-12.253C792.25,294.451,794.837,290.628,791.49,287.691Z" transform="translate(-767.044 -286.101)" fill="#f29456"/>
                    <path id="Caminho_230" data-name="Caminho 230" d="M880.207,485.147l-24.323-4.8,3.666-5.5,17.625,1.2Z" transform="translate(-835.336 -437.975)" fill="#1b2c40"/>
                  </g>
                </g>
              </g>
            </g>
            <g id="Grupo_82" data-name="Grupo 82" transform="translate(53.877 121.371)">
              <path id="Caminho_231" data-name="Caminho 231" d="M1025.9,917.48s-1.766,4.059-.663,6.641a1.574,1.574,0,0,0,1.065.751c.845.235,10.86-.438,10.86-.438s7.32-.064,8.466-3.2c0,0-.091-2.462-5.44-2.28l-5.459-2.234s-.655-2.287-2.227-1.541S1029.445,917.966,1025.9,917.48Z" transform="translate(-1024.869 -915.025)" fill="#e8d9c4"/>
              <path id="Caminho_232" data-name="Caminho 232" d="M1026.411,943.36a.091.091,0,0,1,0-.182l8.936-.063c.071,0,7.251-.188,10.236-1.594.024-.013.654-.35.424-.81a.091.091,0,1,1,.163-.082c.248.5-.223.907-.507,1.055-3.023,1.424-10.241,1.611-10.314,1.613l-8.937.063Z" transform="translate(-1026.042 -935.673)" fill="#f4f9ed"/>
              <path id="Caminho_233" data-name="Caminho 233" d="M1066.724,923.376a.093.093,0,0,1-.033-.006c-2.1-.817-6.1-2.373-6.239-2.414a.093.093,0,0,1-.062-.061c0-.015-.473-1.51-1.151-1.861a.538.538,0,0,0-.432-.044.091.091,0,1,1-.056-.174.722.722,0,0,1,.573.055c.683.354,1.14,1.661,1.226,1.924.573.207,5.669,2.193,6.175,2.391a2.069,2.069,0,0,0,1.042-.769.514.514,0,0,0,.012-.422.091.091,0,1,1,.17-.066.7.7,0,0,1-.016.566,2.294,2.294,0,0,1-1.179.876A.092.092,0,0,1,1066.724,923.376Z" transform="translate(-1052.195 -918.06)" fill="#f4f9ed"/>
            </g>
            <g id="Grupo_83" data-name="Grupo 83" transform="translate(0 119.952)">
              <path id="Caminho_234" data-name="Caminho 234" d="M746.643,907.813a13.387,13.387,0,0,0-2.36,4.73s-.234,1.113.164,1.429,8.106,4.582,8.106,4.582,8.1,1.816,9.549.286c.138-.145,1.2-1.516-1.02-2.948-2.465-1.587-1.973-1.051-1.973-1.051l-4.054-3.962s-.591-2.342-1.109-2.41-3.508,2.631-5.6,1.266c-.879-.574-.129-1.433-1.044-2.021A.5.5,0,0,0,746.643,907.813Z" transform="translate(-744.216 -907.633)" fill="#e8d9c4"/>
              <path id="Caminho_235" data-name="Caminho 235" d="M788.483,924.365a3.919,3.919,0,0,1-1.869-.32.093.093,0,0,1-.026-.017l-4.227-3.985a.091.091,0,0,1-.024-.094,1.872,1.872,0,0,0-.078-1.394.964.964,0,0,0-.815-.357.091.091,0,0,1,0-.181,1.134,1.134,0,0,1,.959.434,1.938,1.938,0,0,1,.119,1.5l4.174,3.935c.155.063,1.5.594,2.076.168a.834.834,0,0,0,.255-.812.091.091,0,1,1,.18-.019.9.9,0,0,1-.727,1.144Z" transform="translate(-774.225 -916.023)" fill="#f4f9ed"/>
              <path id="Caminho_236" data-name="Caminho 236" d="M762.448,937.286a20.421,20.421,0,0,1-6.04-.431,10.216,10.216,0,0,1-3.42-1l-7.762-4.782a.091.091,0,1,1,.1-.154l7.76,4.781a10.08,10.08,0,0,0,3.357.974c4.968.823,6.351.521,6.636.123a.091.091,0,1,1,.147.106A1.216,1.216,0,0,1,762.448,937.286Z" transform="translate(-744.997 -926.44)" fill="#f4f9ed"/>
            </g>
          </g>
        </g>
      </g>
    </g>
    <path id="Caminho_237" data-name="Caminho 237" d="M742.035,628.742a34.865,34.865,0,0,0,15.228,5.076l26.438-45.05-20.3-22.842s.423,10.082-2.326,16.92C759.013,587.962,742.035,628.742,742.035,628.742Z" transform="translate(-6.785 -338.856)" fill="#172635"/>
    <path id="Caminho_238" data-name="Caminho 238" d="M865.528,518.916,884.6,593.26a44.72,44.72,0,0,1-15.687,3.208s-22-51.748-29.187-74.167Z" transform="translate(-85.721 -300.871)" fill="#1b2c40"/>
    <path id="Caminho_239" data-name="Caminho 239" d="M752.409,442.928l-1.433,18.629,3.95.085s5.173-13.538,5.784-17.7.852-5.18.852-5.18-5.006-1.631-7.367-1C753.569,437.924,752.691,441,752.409,442.928Z" transform="translate(-14.009 -235.176)" fill="#f29456"/>
    <path id="Caminho_240" data-name="Caminho 240" d="M740.7,557.465a21.179,21.179,0,0,1,.47,4.689,48.315,48.315,0,0,1-.771,5.611s-.217.834-.8.727-.84-.838-.84-.838a1.322,1.322,0,0,1-1.207.292,1.16,1.16,0,0,1-.593-1,1.665,1.665,0,0,1-1.183-.041c-.614-.268-.357-1.215-.357-1.215a1.741,1.741,0,0,1-1.065-.289c-.345-.322-.023-1.086-.023-1.086a.914.914,0,0,1-.69-.784c-.076-.656,3.273-5,3.273-5Z" transform="translate(0 -332.02)" fill="#f29456"/>
    <path id="Caminho_241" data-name="Caminho 241" d="M812.548,330.327s.967-44.964,6.839-51.149c7.931-8.354,18.575-1.6,19.247-.6,1.449,2.16,6.427,10.2,7.191,13.184.348,1.359,4.512,33.347,4.512,33.347S812.524,330.7,812.548,330.327Z" transform="translate(-63.761 -103.822)" fill="#4789c8"/>
    <path id="Caminho_242" data-name="Caminho 242" d="M751.4,327.132l5.382.553s3.812-4.809,6.167-18.355c0,0,19.7-19.636,16.733-26.59-3.558-8.348-10.858-4.584-17.566,4.207-5.95,7.8-8.636,21.644-8.636,21.644S750.639,321.618,751.4,327.132Z" transform="translate(-14.249 -106.267)" fill="#4789c8"/>
    <path id="Caminho_243" data-name="Caminho 243" d="M816.465,378.967l.564-8.46,12.162-14.958C828.423,359.865,822.161,371.473,816.465,378.967Z" transform="translate(-66.927 -168.865)" fill="#427fba"/>
    <path id="Caminho_244" data-name="Caminho 244" d="M872.089,273.874s14.233,2.811,14.655,2.952c0,0-.141-.3-3.384-2.679C881.416,272.721,875.914,272.332,872.089,273.874Z" transform="translate(-111.873 -102.069)" fill="#f29456"/>
    <path id="Caminho_245" data-name="Caminho 245" d="M1030.3,951.79a2.8,2.8,0,0,1-.978-.344l14-.633a13.754,13.754,0,0,0,5.891-2.607,2.16,2.16,0,0,1-.646.846,8.756,8.756,0,0,1-5.207,2.128h-.012Z" transform="translate(-238.92 -647.751)" fill="#cadbda"/>
    <path id="Caminho_246" data-name="Caminho 246" d="M759.089,944.145a28.36,28.36,0,0,1-5.334-.482,5.8,5.8,0,0,1-1.742-.654l-7.474-4.29a.831.831,0,0,1-.256-.537l7.912,4.507a5.429,5.429,0,0,0,1.632.613,31.9,31.9,0,0,0,8.17.379,2.981,2.981,0,0,1-.687.317C760.4,944.079,759.9,944.145,759.089,944.145Z" transform="translate(-8.602 -639.652)" fill="#cadbda"/>
  </g>
</svg>
