<svg xmlns="http://www.w3.org/2000/svg" width="154.268" height="570.335" viewBox="0 0 154.268 570.335">
  <g id="Grupo_343" data-name="Grupo 343" transform="translate(-174.115 -1154.58)">
    <g id="Grupo_317" data-name="Grupo 317">
      <g id="Grupo_300" data-name="Grupo 300">
        <path id="Caminho_878" data-name="Caminho 878" d="M262.831,1688.4s-2.181-11-5.633-25.976c-18.953-82.215-11.951-86.423-3.246-121.031-.41-.5-8.9-46.053-7.318-74.238,2.878-51.142,35.19-9.645,39.3,1.336s10.582-21.656,10.582-21.656c-.967,13.057,7.659,41.922-1.507,75.231l-.672-6.193c1.7,7.538.56,13.322-2.61,21.53h0c-1.332,32.834-12.922,114.874-17.519,163.7C269.561,1702.862,262.831,1688.4,262.831,1688.4Z" fill="#ffdaad"/>
      </g>
      <path id="Caminho_879" data-name="Caminho 879" d="M255.335,1654.216c.592,2.645,1.208,5.364,1.863,8.205,3.453,14.976,5.633,25.975,5.633,25.975s6.73,14.465,11.375,12.7c1.293-13.73,3.192-29.6,5.283-46.043C272.412,1660.337,263.446,1660.259,255.335,1654.216Z" fill="#c9ebff"/>
      <g id="Grupo_301" data-name="Grupo 301">
        <path id="Caminho_880" data-name="Caminho 880" d="M300.484,1389.8s-19.173-22.673-40.329-8.68c-9.716,6.426-31.8,35.094-13.1,67.46-1.019,28.373-.277,81.483-1.753,83.1,25.086,11.222,44.741,16.034,54.911,9.218,2.877-18.6,3.394-84.24,2.058-106.351C301.144,1415.9,300.484,1389.8,300.484,1389.8Z" fill="#3b3b3b"/>
      </g>
      <g id="Grupo_302" data-name="Grupo 302" style="mix-blend-mode: multiply;isolation: isolate">
        <path id="Caminho_881" data-name="Caminho 881" d="M291.725,1537.4c-4.981,4.3-7.449,6.54-11.537,4.212,4.9,6.318,11.444-.053,11.444-.053Z" fill="#ededed"/>
      </g>
      <g id="Grupo_316" data-name="Grupo 316">
        <g id="Grupo_303" data-name="Grupo 303" style="mix-blend-mode: multiply;isolation: isolate">
          <path id="Caminho_882" data-name="Caminho 882" d="M274.053,1706.63c.853-2.727,1.662-5.516,2.449-8.332-4.822-2.354-9.537,3.666-10.925,2.763-4.556-2.964-3.455-10.506-6.92-9.947h0c-.242,2.442-.506,3.993-.506,3.993S269.409,1708.394,274.053,1706.63Z" fill="#d9d9d9"/>
        </g>
        <g id="Grupo_315" data-name="Grupo 315">
          <g id="Grupo_304" data-name="Grupo 304">
            <path id="Caminho_883" data-name="Caminho 883" d="M256.71,1702.369s-2.141,1.658-3.1,7.681c-.314,1.971,1.018,5.361,9.254,4.578,14.885-1.416,21.73.234,49.666,1.7,14.02.734,15.765-12.331,15.765-12.331s-3.916.89-14,.089-12.678-1.249-29.112-3.326-25.023-3.538-25.794-3.677S256.71,1702.369,256.71,1702.369Z" fill="#24c2bc"/>
          </g>
          <g id="Grupo_305" data-name="Grupo 305">
            <path id="Caminho_884" data-name="Caminho 884" d="M258.757,1681.1c-4.995,3-9.823,17.474-3.727,26.341,7.732,2.314,14.718-1.078,26.008.437,11.038,1.48,32.535,5.3,43.454,1.524,3.893-1.491,5.887-6.954,1.027-9.212-6.519-3.028-35.345-11.546-42.907-19.637,0,0-2.676-4.275-6.241-2.691s-2.542,5.7-2.05,6.151c-1.132.878-7.918,2.876-10.374.7S261.468,1679.472,258.757,1681.1Z" fill="#4d4d4d"/>
          </g>
          <g id="Grupo_306" data-name="Grupo 306">
            <path id="Caminho_885" data-name="Caminho 885" d="M282.612,1680.555s-2.676-4.275-6.241-2.691c-1.949.865-2.792,2.132-2.815,3.5a4.218,4.218,0,0,0,.765,2.651s12.372,11.706,21.121,12.2c5.528.315,7.69-1.9,8.758-4.026C295.827,1688.786,286.663,1684.89,282.612,1680.555Z" fill="#24c2bc"/>
          </g>
          <g id="Grupo_308" data-name="Grupo 308">
            <g id="Grupo_307" data-name="Grupo 307">
              <path id="Caminho_886" data-name="Caminho 886" d="M286.9,1690.236a.489.489,0,0,1-.5-.369,4.19,4.19,0,0,1,.442-3.6,4.447,4.447,0,0,1,3.03-1.619.489.489,0,0,1,.076.976,3.5,3.5,0,0,0-2.314,1.219,3.281,3.281,0,0,0-.286,2.786.49.49,0,0,1-.354.6A.529.529,0,0,1,286.9,1690.236Z" fill="#fff"/>
            </g>
          </g>
          <g id="Grupo_310" data-name="Grupo 310">
            <g id="Grupo_309" data-name="Grupo 309">
              <path id="Caminho_887" data-name="Caminho 887" d="M282.567,1687.325a.49.49,0,0,1-.5-.369,4.194,4.194,0,0,1,.443-3.6,4.448,4.448,0,0,1,3.03-1.619.49.49,0,0,1,.076.976,3.5,3.5,0,0,0-2.315,1.219,3.284,3.284,0,0,0-.285,2.786.489.489,0,0,1-.354.594A.468.468,0,0,1,282.567,1687.325Z" fill="#fff"/>
            </g>
          </g>
          <g id="Grupo_312" data-name="Grupo 312">
            <g id="Grupo_311" data-name="Grupo 311">
              <path id="Caminho_888" data-name="Caminho 888" d="M291.742,1692.907a.49.49,0,0,1-.5-.369,4.19,4.19,0,0,1,.442-3.6,4.447,4.447,0,0,1,3.03-1.619.489.489,0,0,1,.077.975h0a3.5,3.5,0,0,0-2.315,1.219,3.277,3.277,0,0,0-.285,2.786.49.49,0,0,1-.354.595A.65.65,0,0,1,291.742,1692.907Z" fill="#fff"/>
            </g>
          </g>
          <g id="Grupo_314" data-name="Grupo 314">
            <g id="Grupo_313" data-name="Grupo 313">
              <path id="Caminho_889" data-name="Caminho 889" d="M296.654,1695.151a.49.49,0,0,1-.5-.369,4.187,4.187,0,0,1,.443-3.6,4.446,4.446,0,0,1,3.029-1.619.5.5,0,0,1,.526.451.488.488,0,0,1-.449.525,3.5,3.5,0,0,0-2.315,1.219,3.277,3.277,0,0,0-.285,2.786.49.49,0,0,1-.354.595A.531.531,0,0,1,296.654,1695.151Z" fill="#fff"/>
            </g>
          </g>
        </g>
        <path id="Caminho_890" data-name="Caminho 890" d="M307.342,1693.386c-.224,4.172-10.707,10.7-23.637,3,12.252,8.5,23.676,7.35,31.9.047C313.3,1695.6,307.342,1693.386,307.342,1693.386Z" fill="#24c2bc"/>
        <path id="Caminho_891" data-name="Caminho 891" d="M252.885,1691.4c9.1.748,16.415,7.486,16.1,16.358-2.554,1.892-3.736.327-3.736.327s-.941-11.438-12.948-13.173A11.442,11.442,0,0,1,252.885,1691.4Z" fill="#24c2bc"/>
        <path id="Caminho_892" data-name="Caminho 892" d="M317.9,1697.264a17.473,17.473,0,0,1-13.2,6.185c6.93,1.16,13.514-.567,16.713-4.9C320.347,1698.155,317.9,1697.264,317.9,1697.264Z" fill="#24c2bc"/>
      </g>
    </g>
    <path id="Caminho_893" data-name="Caminho 893" d="M280.048,1547.315l-12.532,139.9s13.285-89.442,12.388-98.36,4.173-45.1,4.173-45.1Z" fill="#d9d9d9" style="mix-blend-mode: multiply;isolation: isolate"/>
    <g id="Grupo_318" data-name="Grupo 318">
      <path id="Caminho_894" data-name="Caminho 894" d="M254.2,1698.031s-2.412-10.951-6.18-25.851c-20.683-81.8-13.771-86.151-5.8-120.936-.42-.49-9.873-45.855-8.882-74.067,1.8-51.192,34.979-10.385,39.318.507s22.983-56.177,22.983-56.177c-.692,13.075-4.319,76.054-12.78,109.548l-.8-6.177c1.854,7.5.841,13.307-2.155,21.58h0c-.639,32.855-10.5,115.122-14.062,164.031C261.236,1712.351,254.2,1698.031,254.2,1698.031Z" fill="#ffdaad"/>
    </g>
    <path id="Caminho_895" data-name="Caminho 895" d="M245.986,1664.016c.648,2.632,1.321,5.337,2.036,8.164,3.768,14.9,6.18,25.851,6.18,25.851s7.034,14.32,11.64,12.458c1-13.755,2.567-29.658,4.311-46.145C263.189,1669.776,254.224,1669.887,245.986,1664.016Z" fill="#c9ebff"/>
    <g id="Grupo_319" data-name="Grupo 319">
      <path id="Caminho_896" data-name="Caminho 896" d="M298.888,1391.094s-32.987-14.65-53.844-.213c-9.578,6.63-31.056,35.757-11.674,67.722-.42,28.388,1.442,81.47,0,83.121,25.317,10.69,52.048,7.037,62.071.008,2.485-18.659,4.693-95.927,5.961-113.445C302.753,1409.644,298.888,1391.094,298.888,1391.094Z" fill="#4d4d4d"/>
    </g>
    <path id="Caminho_897" data-name="Caminho 897" d="M225.558,1427.268c-.215,3,73.168,20.364,75.115,14.67l.565-12.679s-34.971.135-46.178,0S225.558,1427.268,225.558,1427.268Z" fill="#d9d9d9" style="mix-blend-mode: multiply;isolation: isolate"/>
    <path id="Caminho_898" data-name="Caminho 898" d="M233.774,1391.844l10.6,10.749s1.49,15.585,19.015,13.031a38.206,38.206,0,0,1,8.821,2.378s1.581,7.368,5.715,5.885c-3.35-7.294-.533-7.571-4.143-9.017s-2.2-.461-4.667-1.834.17-.494-5.726-3.135-9.418-4.755-11.795-7.924-4.051-3.924-4.051-3.924Z" fill="#d9d9d9" style="mix-blend-mode: multiply;isolation: isolate"/>
    <g id="Grupo_320" data-name="Grupo 320" style="mix-blend-mode: multiply;isolation: isolate">
      <path id="Caminho_899" data-name="Caminho 899" d="M279.9,1546.458c-4.889,4.406-7.309,6.7-11.445,4.455,5.033,6.213,11.44-.295,11.44-.295Z" fill="#ededed"/>
    </g>
    <g id="Grupo_334" data-name="Grupo 334">
      <g id="Grupo_321" data-name="Grupo 321" style="mix-blend-mode: multiply;isolation: isolate">
        <path id="Caminho_900" data-name="Caminho 900" d="M265.806,1716.023c.8-2.744,1.545-5.55,2.272-8.381-4.87-2.252-9.457,3.866-10.863,2.993-4.618-2.868-3.676-10.432-7.129-9.8h0c-.191,2.446-.421,4-.421,4S261.2,1717.885,265.806,1716.023Z" fill="#d9d9d9"/>
      </g>
      <g id="Grupo_333" data-name="Grupo 333">
        <g id="Grupo_322" data-name="Grupo 322">
          <path id="Caminho_901" data-name="Caminho 901" d="M248.377,1712.129s-2.1,1.7-2.936,7.745c-.272,1.977,1.132,5.338,9.349,4.381,14.853-1.729,21.73-.224,49.691.65,14.033.438,15.5-12.661,15.5-12.661s-3.9.972-14,.384-12.7-.981-29.176-2.711-25.093-3.01-25.866-3.132S248.377,1712.129,248.377,1712.129Z" fill="#24c2bc"/>
        </g>
        <g id="Grupo_323" data-name="Grupo 323">
          <path id="Caminho_902" data-name="Caminho 902" d="M249.975,1690.824c-4.931,3.108-9.452,17.678-3.171,26.413,7.779,2.151,14.692-1.388,26.012-.112,11.066,1.248,32.639,4.61,43.476.608,3.861-1.573,5.739-7.077.833-9.231-6.581-2.89-35.581-10.8-43.312-18.728,0,0-2.766-4.218-6.3-2.559s-2.42,5.757-1.919,6.192c-1.114.9-7.856,3.043-10.357.924S252.651,1689.137,249.975,1690.824Z" fill="#4d4d4d"/>
        </g>
        <g id="Grupo_324" data-name="Grupo 324">
          <path id="Caminho_903" data-name="Caminho 903" d="M273.813,1689.774s-2.766-4.218-6.3-2.559c-1.93.906-2.746,2.191-2.74,3.559a4.211,4.211,0,0,0,.821,2.633s12.616,11.443,21.374,11.757c5.533.2,7.647-2.059,8.671-4.21C287.2,1697.724,277.954,1694.022,273.813,1689.774Z" fill="#24c2bc"/>
        </g>
        <g id="Grupo_326" data-name="Grupo 326">
          <g id="Grupo_325" data-name="Grupo 325">
            <path id="Caminho_904" data-name="Caminho 904" d="M278.307,1699.362a.49.49,0,0,1-.506-.358,4.191,4.191,0,0,1,.367-3.611,4.453,4.453,0,0,1,2.994-1.683.49.49,0,0,1,.1.975,3.5,3.5,0,0,0-2.288,1.267,3.281,3.281,0,0,0-.226,2.791.489.489,0,0,1-.342.6A.464.464,0,0,1,278.307,1699.362Z" fill="#fff"/>
          </g>
        </g>
        <g id="Grupo_328" data-name="Grupo 328">
          <g id="Grupo_327" data-name="Grupo 327">
            <path id="Caminho_905" data-name="Caminho 905" d="M273.911,1696.543a.49.49,0,0,1-.505-.358,4.188,4.188,0,0,1,.366-3.611,4.457,4.457,0,0,1,2.995-1.683.49.49,0,0,1,.1.975,3.5,3.5,0,0,0-2.289,1.267,3.28,3.28,0,0,0-.226,2.791.491.491,0,0,1-.341.6A.462.462,0,0,1,273.911,1696.543Z" fill="#fff"/>
          </g>
        </g>
        <g id="Grupo_330" data-name="Grupo 330">
          <g id="Grupo_329" data-name="Grupo 329">
            <path id="Caminho_906" data-name="Caminho 906" d="M283.2,1701.93a.489.489,0,0,1-.5-.358,4.192,4.192,0,0,1,.366-3.611,4.452,4.452,0,0,1,2.995-1.683.489.489,0,0,1,.1.974h0a3.5,3.5,0,0,0-2.288,1.267,3.279,3.279,0,0,0-.227,2.792.49.49,0,0,1-.341.6A.547.547,0,0,1,283.2,1701.93Z" fill="#fff"/>
          </g>
        </g>
        <g id="Grupo_332" data-name="Grupo 332">
          <g id="Grupo_331" data-name="Grupo 331">
            <path id="Caminho_907" data-name="Caminho 907" d="M288.16,1704.07a.49.49,0,0,1-.506-.358,4.192,4.192,0,0,1,.367-3.611,4.45,4.45,0,0,1,2.995-1.682.5.5,0,0,1,.535.439.49.49,0,0,1-.439.535,3.5,3.5,0,0,0-2.288,1.268,3.28,3.28,0,0,0-.226,2.791.49.49,0,0,1-.341.6A.473.473,0,0,1,288.16,1704.07Z" fill="#fff"/>
          </g>
        </g>
      </g>
      <path id="Caminho_908" data-name="Caminho 908" d="M298.808,1702.081c-.136,4.175-10.478,10.926-23.569,3.5,12.429,8.236,23.827,6.849,31.9-.626C304.814,1704.167,298.808,1702.081,298.808,1702.081Z" fill="#24c2bc"/>
      <path id="Caminho_909" data-name="Caminho 909" d="M244.322,1701.245c9.118.555,16.569,7.138,16.438,16.014-2.514,1.945-3.728.406-3.728.406s-1.183-11.416-13.223-12.9A11.4,11.4,0,0,1,244.322,1701.245Z" fill="#24c2bc"/>
      <path id="Caminho_910" data-name="Caminho 910" d="M309.446,1705.734a17.477,17.477,0,0,1-13.069,6.463c6.953,1.013,13.5-.852,16.606-5.253C311.911,1706.573,309.446,1705.734,309.446,1705.734Z" fill="#24c2bc"/>
    </g>
    <g id="Grupo_336" data-name="Grupo 336">
      <g id="Grupo_335" data-name="Grupo 335">
        <path id="Caminho_911" data-name="Caminho 911" d="M293.33,1287.572l-2.14-12.36c-7.374-14.8-10.76-25.379-11.838-30.514,3.077.8,15.106,2.955,22.163.517,2.559-1.692,1.915-7.4,2.225-9.641s1.316-2.478,1.687-4.092-1.839-2.073-1.839-2.073,2.9-1.1,3.323-2.289-.846-3.008-.924-5.2,5.33-1.719,5.892-3.771c.869-3.169-9.753-14.365-6.311-19.073,2.793-3.821-4.5-22.021-4.5-22.021a6.294,6.294,0,0,0,2.653-3.993c.906-6.251-13.877-12.735-25.661-13.628s-39.431,5.754-42.615,31.709c-2.848,23.215,14.184,39.054,17.216,43.645,2.514,3.8-3.751,20.99-10.737,27.664C258.965,1253.556,293.33,1287.572,293.33,1287.572Z" fill="#ffdaad"/>
      </g>
    </g>
    <path id="Caminho_912" data-name="Caminho 912" d="M306.931,1225.973c-1.648-.019-10.649,4.24-10.649,4.24a31.7,31.7,0,0,0,7.306-.8C306.329,1228.58,307.565,1226.827,306.931,1225.973Z" fill="#f7f4eb" style="mix-blend-mode: multiply;isolation: isolate"/>
    <g id="Grupo_337" data-name="Grupo 337">
      <path id="Caminho_913" data-name="Caminho 913" d="M255.1,1205.654c4.8-3.207,6.934-1.869,11.242,5.743-2.856-7.7,4.633-13.849,6.236-14.473s1.678-8.442-.516-13.983c4.768-4.785,29-5.807,29-5.807a6.3,6.3,0,0,0,2.677-3.978c.941-6.245-13.8-12.815-25.583-13.776s-43.581,2.966-46.916,28.9c-3.177,24.712,18.081,41.71,21.087,46.317a10.63,10.63,0,0,1,.827,2.275C256.008,1224.982,248.22,1210.25,255.1,1205.654Z" fill="#7d5137"/>
    </g>
    <g id="Grupo_338" data-name="Grupo 338">
      <path id="Caminho_914" data-name="Caminho 914" d="M302.426,1199.267a4.546,4.546,0,0,0,0-2.9s-13.544-.122-17.127,3.78C288.9,1198.361,302.426,1199.267,302.426,1199.267Z" fill="#7d5137"/>
    </g>
    <path id="Caminho_915" data-name="Caminho 915" d="M252.186,1212.859c-.178,6.1,7.862,14.647,7.862,14.647l-6.929,9.406s-.736-10.557-.88-11.918S252.186,1212.859,252.186,1212.859Z" fill="#7d5137"/>
    <path id="Caminho_916" data-name="Caminho 916" d="M306.679,1227.522c-3.266.624-10.4,2.691-10.4,2.691,1.828.272,4.665-.248,7.306-.8A9.717,9.717,0,0,0,306.679,1227.522Z" fill="#fffcf2" style="mix-blend-mode: multiply;isolation: isolate"/>
    <path id="Caminho_917" data-name="Caminho 917" d="M254.918,1219.493c1.368,4.066,8.711,12.743,11.886,3.419C264.957,1225.89,258.8,1227.232,254.918,1219.493Z" fill="#e0e0e0" style="mix-blend-mode: multiply;isolation: isolate"/>
    <path id="Caminho_918" data-name="Caminho 918" d="M263.346,1214.1c1.1-3.159-1.793-7.585-4.552-7.667s-6.958,2.043-5.609,9.908c-.923-3.912,1.847-10.035,5.681-9.073s2.465,8.28,2.465,8.28,2.785-.219,3.626,1.241A2.358,2.358,0,0,0,263.346,1214.1Z" fill="#ededed" style="mix-blend-mode: multiply;isolation: isolate"/>
    <path id="Caminho_919" data-name="Caminho 919" d="M303.453,1173.724c2.587-4.881-3.037-10.4-8.261-13.2,2.262,2.116-.113,1.388-4.524-1.624s-14.473-4.527-16.973-4.3c6.992,1.865-14.9-1.01-21.689,2.685,4.076.02-10.173,5.281-13.81,14.53C268.686,1180.825,303.453,1173.724,303.453,1173.724Z" fill="#7d5137"/>
    <path id="Caminho_920" data-name="Caminho 920" d="M266.392,1227.2s.364,9.107,3.038,12.035,9.922,5.46,9.922,5.46.868,4.174,2.223,8.329c-3.5-5.158-4.552-6.051-4.552-6.051s-8.292-1.817-10.3-6.423S266.392,1227.2,266.392,1227.2Z" fill="#e0e0e0" style="mix-blend-mode: multiply;isolation: isolate"/>
    <path id="Caminho_921" data-name="Caminho 921" d="M298.934,1232.279c2.087,1.162,5.693.681,5.693.681a4.76,4.76,0,0,0-.951,3.439C303.224,1233.9,298.934,1232.279,298.934,1232.279Z" fill="#e8e8e8" style="mix-blend-mode: multiply;isolation: isolate"/>
    <g id="Grupo_339" data-name="Grupo 339">
      <path id="Caminho_922" data-name="Caminho 922" d="M224.594,1427.094c43.89,11.164,79.564,1.435,79.564,1.435s.017-42.4.911-54.617c1.251-21.415-2.019-37.725-3.568-50.368,4.819-18.973-4.975-38.553-10.311-48.332,0,0-31.285-32.212-45.829-16.764,0,0-12.357,12.239-13.692,16.055-9.336,26.7-7.479,48.769-8.215,82.318C223.209,1368,224.594,1413.047,224.594,1427.094Z" fill="#24c2bc"/>
    </g>
    <path id="Caminho_923" data-name="Caminho 923" d="M300.326,1178.992a40.539,40.539,0,0,1-18.677,20.48c.84-2.4.12-3.6.12-3.6s-8.632,13.762-15.427,15.529c-1.629-2.677-3.671-8.082-3.671-9.523s-.12-12.492,2.882-16.216,4.8-8.407,9.61-10.209,21.74-4.925,23.662-4.565S300.326,1178.992,300.326,1178.992Z" fill="#7d5137"/>
    <path id="Caminho_924" data-name="Caminho 924" d="M294.561,1175.749c5.342,6.477,9.833,10.383,10.36,12.7,0,0,8.107-4.5,3.873-14.324s-9.278-10.269-9.278-10.269-8.558,1.261-8.558,2.883S294.561,1175.749,294.561,1175.749Z" fill="#7d5137"/>
    <path id="Caminho_925" data-name="Caminho 925" d="M250.227,1249.079s31.47,14.654,34.713,12.011c1.561,3.844,7.207,15.855,7.207,15.855l-11.291-3-10.21-8.768-11.05-6.606-6.967-2.282-16.756,12.431S248.785,1250.28,250.227,1249.079Z" fill="#24c2bc"/>
    <g id="Grupo_340" data-name="Grupo 340">
      <path id="Caminho_926" data-name="Caminho 926" d="M256.048,1259.955c9.592,8.014,6.845,21.77-6.6,34.879s-40.335,36.783-53,42.53c-6.364-2.38-27.406-2.581-21.214-16.235a28.1,28.1,0,0,1,5-4.732S231.212,1239.2,256.048,1259.955Z" fill="#ffdaad"/>
    </g>
    <g id="Grupo_341" data-name="Grupo 341">
      <path id="Caminho_927" data-name="Caminho 927" d="M197.448,1319.737a484.355,484.355,0,0,1,52.856,68.415c1.522,6.884-5.111,7.842-8.735,7.329s-64.63-47.2-67.454-71.486C183.745,1309.617,197.448,1319.737,197.448,1319.737Z" fill="#ffdaad"/>
    </g>
    <g id="Grupo_342" data-name="Grupo 342">
      <path id="Caminho_928" data-name="Caminho 928" d="M245.435,1384.122s8.99-6.017,18.77-3.458c1.365.358,6.752,4.324,6.752,4.324s-.072,3.084-5.838-.337c-1.92.944-9.38,2.333-9.38,2.333Z" fill="#ffdaad"/>
      <path id="Caminho_929" data-name="Caminho 929" d="M272.661,1395.231h0a2.17,2.17,0,0,1,3.05.35l6.848,9.253c.746.939,1.074,2.375.135,3.12h0c-.938.746-2.17-.012-2.915-.951l-7.468-8.723A2.171,2.171,0,0,1,272.661,1395.231Z" fill="#ffdaad"/>
      <path id="Caminho_930" data-name="Caminho 930" d="M271.043,1401.729h0a2.17,2.17,0,0,1,3.067.128l7.285,8.931c.811.882,1.4,2.111.514,2.923h0c-.882.812-2.258.194-3.07-.688l-7.924-8.227A2.171,2.171,0,0,1,271.043,1401.729Z" fill="#ffdaad"/>
      <path id="Caminho_931" data-name="Caminho 931" d="M256.831,1407.256l8.868,3.265a2.171,2.171,0,0,0,1.5-4.074l-5.208-1.917a10.524,10.524,0,0,0,1.491-1.935l8.02,2.595a2.171,2.171,0,0,0,1.5-4.074l-7.486-2.756a21.279,21.279,0,0,0,.637-2.05l6.586,2.425a2.171,2.171,0,0,0,1.5-4.074l-7.649-2.816a9.014,9.014,0,0,0-.213-1.354l5.7,1.174a2.17,2.17,0,1,0,.923-4.241l-11.12-2.354a13.966,13.966,0,0,0-1.467-.69c-7.031-2.8-18.2-1.524-20.62,4.563s2.707,13.842,9.737,16.639C251.473,1406.354,255.3,1407.429,256.831,1407.256Z" fill="#ffdaad"/>
      <path id="Caminho_932" data-name="Caminho 932" d="M271.556,1388.116h0a2.172,2.172,0,0,1,3.067-.133l8.045,8.085c.884.81,1.628,2.1.818,2.988h0c-.81.884-2.377.6-3.455-1l-8.341-6.87A2.172,2.172,0,0,1,271.556,1388.116Z" fill="#ffdaad"/>
      <path id="Caminho_933" data-name="Caminho 933" d="M265.747,1406.8h0a2.2,2.2,0,0,1,3.045.646l3.34,6.348c.662,1.02,1.262,2.525.243,3.188h0c-1.02.662-2.27.2-3.165-1.6l-4.11-5.542A2.2,2.2,0,0,1,265.747,1406.8Z" fill="#ffdaad"/>
    </g>
    <path id="Caminho_934" data-name="Caminho 934" d="M260.226,1261.1c-12.975-13.594-32.953-3.345-72.592,40.017,4.109,18.815,30.058,32.212,30.058,32.212S282.643,1284.635,260.226,1261.1Z" fill="#24c2bc"/>
    <path id="Caminho_935" data-name="Caminho 935" d="M223.707,1328.737s27.679-20.45,31.191-35.942c1.653,13.633-30.985,46.89-30.985,46.89Z" fill="#e0e0e0" style="mix-blend-mode: multiply;isolation: isolate"/>
  </g>
</svg>
