<svg xmlns="http://www.w3.org/2000/svg" width="401.199" height="463.142" viewBox="0 0 401.199 463.142">
  <g id="Grupo_676" data-name="Grupo 676" transform="translate(-1538.049 -555.886)">
    <g id="Grupo_637" data-name="Grupo 637">
      <path id="Caminho_1308" data-name="Caminho 1308" d="M1802.638,662.906c9.541,7.972,6.808,21.655-6.56,34.694s-47.514,45.261-60.109,50.978c-6.331-2.367-27.261-2.567-21.1-16.149a28.026,28.026,0,0,1,4.972-4.707S1777.933,642.265,1802.638,662.906Z" fill="#ebc99f"/>
    </g>
    <g id="Grupo_638" data-name="Grupo 638">
      <path id="Caminho_1309" data-name="Caminho 1309" d="M1736.955,731.045a759.425,759.425,0,0,1,59.969,59.379c1.514,6.848-5.084,7.8-8.689,7.291s-71.68-38.277-74.489-62.435C1723.325,720.978,1736.955,731.045,1736.955,731.045Z" fill="#ebc99f"/>
    </g>
    <path id="Caminho_1310" data-name="Caminho 1310" d="M1806.794,664.044c-12.907-13.523-32.778-3.328-72.208,39.8,4.088,18.716,29.9,32.042,29.9,32.042S1829.092,687.455,1806.794,664.044Z" fill="#24c2bc"/>
    <g id="Grupo_639" data-name="Grupo 639">
      <path id="Caminho_1311" data-name="Caminho 1311" d="M1762.288,927.739s-50.944,100.332-64.819,90.078c-4.627-3.42-12.6-12.9-11.472-27.971,2.262-30.122,21.925-76.727,44.517-100.981,33.9-36.386,36.3,15.566,32.548,26.312S1762.288,927.739,1762.288,927.739Z" fill="#ffdaad"/>
    </g>
    <g id="Grupo_640" data-name="Grupo 640">
      <path id="Caminho_1312" data-name="Caminho 1312" d="M1699.079,1018.834S1612,985.995,1555.24,964.209c-1.423-4.609,10.925-12.564,10.925-12.564s35.782,9.136,50.7,9.006c63.622-.55,75.537,15.051,84.83,34.152C1713.713,1019.507,1699.079,1018.834,1699.079,1018.834Z" fill="#ffdaad"/>
    </g>
    <path id="Caminho_1313" data-name="Caminho 1313" d="M1566.165,951.645s-6.419,4.147-9.462,8.187c.818,2.021,1.745,4.049,2.609,5.9,9.555,3.495,19.756,8.566,30.6,11.584a56.051,56.051,0,0,1,2.593-20C1578.962,954.627,1566.165,951.645,1566.165,951.645Z" fill="#c9ebff"/>
    <g id="Grupo_641" data-name="Grupo 641">
      <path id="Caminho_1314" data-name="Caminho 1314" d="M1817.779,845.582s-20.428-31.794-45.05-32.134c-28.689-.4-62.082,96.251-64.7,105.615,13.5,29.057,36.68,27.162,51.641,26.716,13.771-27.267,42.567-68.087,44.992-70.316S1817.779,845.582,1817.779,845.582Z" fill="#4d4d4d"/>
    </g>
    <g id="Grupo_642" data-name="Grupo 642" style="mix-blend-mode: multiply;isolation: isolate">
      <path id="Caminho_1315" data-name="Caminho 1315" d="M1753.889,917.974c-4.59-6.983-10.3-18.81-10.531-21.331s7.756,5.781,7.841,3.342-5.776-7.894-4.713-9.9,15.2,14.82,13.381,21.573-5.737-5.859-7.183-4.66S1757.762,923.867,1753.889,917.974Z" fill="#ededed"/>
    </g>
    <g id="Grupo_646" data-name="Grupo 646">
      <path id="Caminho_1316" data-name="Caminho 1316" d="M1552.221,946.658s-5.721-2.444-8.607-1.941c-2.694.47-4.611,2.716-3.822,7.816s2.464,9.662,1.41,15.312-4.2,17.52-2.8,33.957c2.308,16.871,22.8,17.725,24.826,15.448,0,0-13.166-3.9-12.276-14.579s.576-7.994,2.845-25.4,3.853-26.5,4-27.319S1552.221,946.658,1552.221,946.658Z" fill="#24c2bc"/>
      <path id="Caminho_1317" data-name="Caminho 1317" d="M1574.891,951.533c-3.163-5.306-15.736-10.814-24.694-4.437-3.7,4.835,1.588,15.232-1.752,26.12s-7.924,20.163-4.506,30.769c1.564,4.132,10.3,8.792,15.331,4.068.343-7.61,7.337-25.444,15.943-33.424,0,0,4.542-2.818,2.878-6.6s-6.035-2.718-6.51-2.2c-.925-1.2-2.122-8.316.19-10.909S1576.607,954.413,1574.891,951.533Z" fill="#3d3d3d"/>
      <path id="Caminho_1318" data-name="Caminho 1318" d="M1561.063,999.422c-2.2,5.394.979,9.864,3.714,13.135a2.868,2.868,0,0,1-2.11,4.748c-6.532-.039-15.916-3.792-18.919-13.919,2.452-11.006,13-3.814,13.281-3.7S1561.063,999.422,1561.063,999.422Z" fill="#3d3d3d"/>
      <path id="Caminho_1319" data-name="Caminho 1319" d="M1575.213,974.629s4.542-2.818,2.878-6.6a4.4,4.4,0,0,0-4.075-2.735c-1.43.334-2.435.537-2.435.537s-13.494,12.089-14.059,21.359c-.357,5.856,2.245,8.707,4.5,9.849C1565.665,988.177,1570.6,978.9,1575.213,974.629Z" fill="#24c2bc"/>
      <path id="Caminho_1320" data-name="Caminho 1320" d="M1549.461,961.76a12.3,12.3,0,0,0,14.595-17.2,22.693,22.693,0,0,0-4.024.179,8.764,8.764,0,0,1-10.964,13.074C1549.2,959.057,1549.353,960.377,1549.461,961.76Z" fill="#24c2bc"/>
      <g id="Grupo_643" data-name="Grupo 643">
        <path id="Caminho_1321" data-name="Caminho 1321" d="M1564.936,979.136a.52.52,0,0,1,.393-.526,4.442,4.442,0,0,1,3.816.484,4.718,4.718,0,0,1,1.7,3.217.519.519,0,0,1-1.035.077,3.707,3.707,0,0,0-1.282-2.458,3.479,3.479,0,0,0-2.951-.314.518.518,0,0,1-.629-.377A.6.6,0,0,1,1564.936,979.136Z" fill="#fff"/>
      </g>
      <g id="Grupo_644" data-name="Grupo 644">
        <path id="Caminho_1322" data-name="Caminho 1322" d="M1562.086,984.253a.519.519,0,0,1,.392-.526,4.44,4.44,0,0,1,3.816.484,4.722,4.722,0,0,1,1.7,3.217.519.519,0,0,1-1.035.078h0a3.716,3.716,0,0,0-1.282-2.459,3.478,3.478,0,0,0-2.952-.313.519.519,0,0,1-.628-.378A.461.461,0,0,1,1562.086,984.253Z" fill="#fff"/>
      </g>
      <g id="Grupo_645" data-name="Grupo 645">
        <path id="Caminho_1323" data-name="Caminho 1323" d="M1559.687,989.449a.518.518,0,0,1,.393-.525,4.442,4.442,0,0,1,3.816.483,4.72,4.72,0,0,1,1.7,3.218.531.531,0,0,1-.48.555.519.519,0,0,1-.555-.478,3.707,3.707,0,0,0-1.282-2.458,3.475,3.475,0,0,0-2.951-.314.519.519,0,0,1-.629-.378A.585.585,0,0,1,1559.687,989.449Z" fill="#fff"/>
      </g>
      <path id="Caminho_1324" data-name="Caminho 1324" d="M1561.063,999.422s-7.861-3.148-5.266-12.639c-2.868,8.262-1.081,13.243,4.546,15.839A28.434,28.434,0,0,1,1561.063,999.422Z" fill="#24c2bc"/>
      <path id="Caminho_1325" data-name="Caminho 1325" d="M1560.378,1003.991s-5.233-.867-5.931-5.464c-.289,6.145,6.493,7.9,6.493,7.9S1560.089,1004.584,1560.378,1003.991Z" fill="#24c2bc"/>
    </g>
    <g id="Grupo_647" data-name="Grupo 647">
      <path id="Caminho_1326" data-name="Caminho 1326" d="M1850.328,879.3c2.186.71,12.473-16.363,16.329-23.792s-4.5-30.872-4.5-30.872-30.882,14.681-33.257,20.815-7.231,16.7-5.236,19.942S1850.328,879.3,1850.328,879.3Z" fill="#2b2b2b"/>
    </g>
    <g id="Grupo_648" data-name="Grupo 648">
      <path id="Caminho_1327" data-name="Caminho 1327" d="M1862.154,824.64s76.54,8.217,77.091,30.526c.426,17.248-55.745,27.884-104.757,19.476s-6.874-38.892,4.169-41.645A165.666,165.666,0,0,0,1862.154,824.64Z" fill="#ffdaad"/>
    </g>
    <path id="Caminho_1328" data-name="Caminho 1328" d="M1867.418,825.077s-31.1,39.733-25.936,50.6a48.914,48.914,0,0,1-6.994-1.039s-14.96-21.9-14.353-23.811,15.431-21.135,20.322-22.96S1867.418,825.077,1867.418,825.077Z" fill="#dedede" style="mix-blend-mode: multiply;isolation: isolate"/>
    <g id="Grupo_649" data-name="Grupo 649" style="mix-blend-mode: multiply;isolation: isolate">
      <path id="Caminho_1329" data-name="Caminho 1329" d="M1823.4,869.5a7.083,7.083,0,0,1-.67,2.13,64.966,64.966,0,0,0,11.763,3.015,154.5,154.5,0,0,0,42.567,1.438c-11.343.646-41.919-.984-39.388-11.869,2.943-12.651,20.685-37.406,24.487-39.571C1838.6,836.383,1824.585,860.095,1823.4,869.5Z" fill="#ededed"/>
    </g>
    <g id="Grupo_650" data-name="Grupo 650">
      <path id="Caminho_1330" data-name="Caminho 1330" d="M1938.563,859.182s-39.781,81.265-72.9,132.245c-4.8.432-6.145-11.469-6.145-11.469s1.65-13.689,2.214-28.6c2.407-63.616,22.444-73.566,50.108-91.9S1938.563,859.182,1938.563,859.182Z" fill="#ffdaad"/>
    </g>
    <g id="Grupo_651" data-name="Grupo 651">
      <path id="Caminho_1331" data-name="Caminho 1331" d="M1757.958,802.535s-15.8,30.273-5.2,52.5c12.343,25.9,94.985,21.3,97.575,24.267-4.479-13.019,26.718-50.125,32.464-51.923-24.147-6.639-61.2-9.4-62.535-11.63s-26.627-13.493-29.7-14.681S1757.958,802.535,1757.958,802.535Z" fill="#4d4d4d"/>
    </g>
    <g id="Grupo_652" data-name="Grupo 652" style="mix-blend-mode: multiply;isolation: isolate">
      <path id="Caminho_1332" data-name="Caminho 1332" d="M1850.328,879.3c-.167-.484-15.66-3.309-15.745-3.858-4.951-3.179-18-.154-23.111-2.846-5.548-2.92-7.083-4.539-11.816-3.086s-41.53-4.7-47.025-33.352,19.878-33.4,19.878-33.4a74.649,74.649,0,0,0-15.222.926c-3.2,5.672-13.355,33.851-3.484,53.25C1764.97,878.883,1847.738,876.34,1850.328,879.3Z" fill="#ededed"/>
    </g>
    <g id="Grupo_653" data-name="Grupo 653" style="mix-blend-mode: multiply;isolation: isolate">
      <path id="Caminho_1333" data-name="Caminho 1333" d="M1851.152,827.782c-4.23,7.206-12.308,17.562-14.466,18.885s1.75-9.514-.474-8.511-4.522,8.674-6.787,8.607,6.562-20.187,13.421-21.548-2.714,7.738-1,8.5S1854.722,821.7,1851.152,827.782Z" fill="#ededed"/>
    </g>
    <path id="Caminho_1334" data-name="Caminho 1334" d="M1862.017,949.755c-.128,2.8-.252,5.679-.371,8.691a152.759,152.759,0,0,1-3.274,26.9s2.783,16.26,7.9,15.762a446.087,446.087,0,0,1,19.249-43.807C1877.021,960.651,1868.467,957.987,1862.017,949.755Z" fill="#c9ebff"/>
    <g id="Grupo_667" data-name="Grupo 667">
      <g id="Grupo_654" data-name="Grupo 654" style="mix-blend-mode: multiply;isolation: isolate">
        <path id="Caminho_1335" data-name="Caminho 1335" d="M1870.883,1009.834c.821-2.838,1.6-5.738,2.349-8.666-5.036-2.329-9.779,4-11.233,3.094-4.774-2.965-3.8-10.785-7.371-10.132h0c-.2,2.53-.435,4.139-.435,4.139S1866.12,1011.759,1870.883,1009.834Z" fill="#d9d9d9"/>
      </g>
      <g id="Grupo_666" data-name="Grupo 666">
        <g id="Grupo_655" data-name="Grupo 655">
          <path id="Caminho_1336" data-name="Caminho 1336" d="M1852.861,1005.808s-2.176,1.76-3.035,8.008c-.281,2.044,1.17,5.519,9.666,4.53,15.357-1.788,22.469-.232,51.38.671,14.509.453,16.027-13.091,16.027-13.091s-4.029,1.005-14.472.4-13.133-1.015-30.167-2.8-25.945-3.112-26.744-3.238S1852.861,1005.808,1852.861,1005.808Z" fill="#24c2bc"/>
        </g>
        <g id="Grupo_656" data-name="Grupo 656">
          <path id="Caminho_1337" data-name="Caminho 1337" d="M1854.514,983.778c-5.1,3.214-9.774,18.279-3.279,27.311,8.043,2.224,15.191-1.435,26.9-.115,11.443,1.29,33.748,4.766,44.954.628,3.992-1.627,5.934-7.318.861-9.545-6.8-2.988-36.79-11.165-44.784-19.364,0,0-2.859-4.362-6.51-2.647s-2.5,5.953-1.985,6.4c-1.151.932-8.123,3.145-10.709.954S1857.28,982.034,1854.514,983.778Z" fill="#4d4d4d"/>
        </g>
        <g id="Grupo_657" data-name="Grupo 657">
          <path id="Caminho_1338" data-name="Caminho 1338" d="M1879.161,982.693s-2.859-4.362-6.51-2.647c-2,.938-2.839,2.266-2.833,3.681a4.364,4.364,0,0,0,.848,2.723s13.045,11.831,22.1,12.156c5.721.2,7.908-2.129,8.966-4.353C1893,990.913,1883.444,987.085,1879.161,982.693Z" fill="#24c2bc"/>
        </g>
        <g id="Grupo_659" data-name="Grupo 659">
          <g id="Grupo_658" data-name="Grupo 658">
            <path id="Caminho_1339" data-name="Caminho 1339" d="M1883.808,992.606a.507.507,0,0,1-.523-.37,4.334,4.334,0,0,1,.379-3.733,4.6,4.6,0,0,1,3.1-1.74.506.506,0,0,1,.1,1.008,3.611,3.611,0,0,0-2.366,1.31,3.392,3.392,0,0,0-.234,2.886.508.508,0,0,1-.353.623A.5.5,0,0,1,1883.808,992.606Z" fill="#fff"/>
          </g>
        </g>
        <g id="Grupo_661" data-name="Grupo 661">
          <g id="Grupo_660" data-name="Grupo 660">
            <path id="Caminho_1340" data-name="Caminho 1340" d="M1879.263,989.692a.508.508,0,0,1-.523-.37,4.336,4.336,0,0,1,.379-3.734,4.607,4.607,0,0,1,3.1-1.74.506.506,0,0,1,.1,1.008,3.616,3.616,0,0,0-2.366,1.31,3.393,3.393,0,0,0-.234,2.886.508.508,0,0,1-.353.623A.578.578,0,0,1,1879.263,989.692Z" fill="#fff"/>
          </g>
        </g>
        <g id="Grupo_663" data-name="Grupo 663">
          <g id="Grupo_662" data-name="Grupo 662">
            <path id="Caminho_1341" data-name="Caminho 1341" d="M1888.869,995.262a.506.506,0,0,1-.523-.37,4.334,4.334,0,0,1,.379-3.734,4.607,4.607,0,0,1,3.1-1.74.506.506,0,0,1,.1,1.007h0a3.617,3.617,0,0,0-2.366,1.31,3.39,3.39,0,0,0-.234,2.887.506.506,0,0,1-.453.639Z" fill="#fff"/>
          </g>
        </g>
        <g id="Grupo_665" data-name="Grupo 665">
          <g id="Grupo_664" data-name="Grupo 664">
            <path id="Caminho_1342" data-name="Caminho 1342" d="M1894,997.475a.506.506,0,0,1-.523-.371,4.331,4.331,0,0,1,.379-3.733,4.605,4.605,0,0,1,3.1-1.74.519.519,0,0,1,.553.455.506.506,0,0,1-.453.553,3.616,3.616,0,0,0-2.366,1.31,3.389,3.389,0,0,0-.234,2.886.508.508,0,0,1-.353.623A.6.6,0,0,1,1894,997.475Z" fill="#fff"/>
          </g>
        </g>
      </g>
      <path id="Caminho_1343" data-name="Caminho 1343" d="M1905.006,995.417c-.141,4.318-10.834,11.3-24.37,3.62,12.851,8.516,24.637,7.082,32.984-.647C1911.216,997.575,1905.006,995.417,1905.006,995.417Z" fill="#24c2bc"/>
      <path id="Caminho_1344" data-name="Caminho 1344" d="M1848.668,994.553c9.428.575,17.132,7.381,17,16.559-2.6,2.011-3.855.419-3.855.419s-1.222-11.8-13.672-13.335A11.823,11.823,0,0,1,1848.668,994.553Z" fill="#24c2bc"/>
      <path id="Caminho_1345" data-name="Caminho 1345" d="M1916.005,999.2a18.072,18.072,0,0,1-13.513,6.683c7.19,1.047,13.958-.881,17.17-5.432C1918.554,1000.063,1916.005,999.2,1916.005,999.2Z" fill="#24c2bc"/>
    </g>
    <g id="Grupo_669" data-name="Grupo 669">
      <g id="Grupo_668" data-name="Grupo 668">
        <path id="Caminho_1346" data-name="Caminho 1346" d="M1818.24,688.173l-2.128-12.294c-7.336-14.719-10.7-25.244-11.776-30.352,3.06.79,15.026,2.939,22.046.513,2.545-1.682,1.9-7.357,2.213-9.589s1.309-2.464,1.678-4.07-1.83-2.063-1.83-2.063,2.885-1.09,3.306-2.277-.842-2.992-.919-5.168,5.3-1.709,5.861-3.751c.864-3.152-9.7-14.289-6.278-18.972,2.779-3.8-4.472-21.9-4.472-21.9a6.263,6.263,0,0,0,2.639-3.972c.9-6.217-13.8-12.668-25.526-13.556s-39.222,5.724-42.389,31.542c-2.832,23.091,14.109,38.847,17.126,43.413,2.5,3.784-3.732,20.879-10.681,27.518C1784.057,654.338,1818.24,688.173,1818.24,688.173Z" fill="#ffdaad"/>
      </g>
    </g>
    <path id="Caminho_1347" data-name="Caminho 1347" d="M1831.769,626.9c-1.639-.019-10.593,4.217-10.593,4.217a31.449,31.449,0,0,0,7.267-.8C1831.171,629.494,1832.4,627.751,1831.769,626.9Z" fill="#f7f4eb" style="mix-blend-mode: multiply;isolation: isolate"/>
    <g id="Grupo_670" data-name="Grupo 670">
      <path id="Caminho_1348" data-name="Caminho 1348" d="M1780.212,606.69c4.775-3.191,6.9-1.86,11.183,5.712-2.841-7.662,4.609-13.776,6.2-14.4s1.669-8.4-.513-13.908c4.742-4.76,28.845-5.776,28.845-5.776a6.265,6.265,0,0,0,2.662-3.957c.937-6.212-13.73-12.747-25.447-13.7s-43.35,2.95-46.667,28.749c-3.16,24.58,17.985,41.488,20.975,46.072a10.534,10.534,0,0,1,.822,2.262C1781.115,625.915,1773.369,611.261,1780.212,606.69Z" fill="#7d5137"/>
    </g>
    <g id="Grupo_671" data-name="Grupo 671">
      <path id="Caminho_1349" data-name="Caminho 1349" d="M1827.288,600.337a4.523,4.523,0,0,0,0-2.89s-13.471-.12-17.036,3.761C1813.831,599.435,1827.288,600.337,1827.288,600.337Z" fill="#7d5137"/>
    </g>
    <path id="Caminho_1350" data-name="Caminho 1350" d="M1777.314,613.856c-.177,6.071,7.82,14.57,7.82,14.57l-6.892,9.356s-.732-10.5-.875-11.855S1777.314,613.856,1777.314,613.856Z" fill="#7d5137"/>
    <path id="Caminho_1351" data-name="Caminho 1351" d="M1831.518,628.441c-3.248.622-10.342,2.677-10.342,2.677,1.819.271,4.641-.246,7.267-.8A9.629,9.629,0,0,0,1831.518,628.441Z" fill="#fffcf2" style="mix-blend-mode: multiply;isolation: isolate"/>
    <path id="Caminho_1352" data-name="Caminho 1352" d="M1780.031,620.455c1.361,4.044,8.666,12.676,11.823,3.4C1790.017,626.818,1783.891,628.153,1780.031,620.455Z" fill="#e0e0e0" style="mix-blend-mode: multiply;isolation: isolate"/>
    <path id="Caminho_1353" data-name="Caminho 1353" d="M1788.415,615.091c1.1-3.143-1.784-7.545-4.529-7.627s-6.921,2.032-5.578,9.856c-.919-3.891,1.837-9.982,5.65-9.025s2.453,8.236,2.453,8.236,2.77-.217,3.606,1.235A2.346,2.346,0,0,0,1788.415,615.091Z" fill="#ededed" style="mix-blend-mode: multiply;isolation: isolate"/>
    <path id="Caminho_1354" data-name="Caminho 1354" d="M1828.309,574.928c2.574-4.854-3.021-10.344-8.217-13.129,2.25,2.106-.112,1.381-4.5-1.615s-14.4-4.5-16.883-4.275c6.955,1.855-14.821-1-21.574,2.671,4.054.019-10.12,5.252-13.738,14.452C1793.726,581.992,1828.309,574.928,1828.309,574.928Z" fill="#7d5137"/>
    <path id="Caminho_1355" data-name="Caminho 1355" d="M1791.445,628.125s.362,9.058,3.022,11.97,9.869,5.432,9.869,5.432.863,4.151,2.212,8.285c-3.481-5.132-4.528-6.019-4.528-6.019s-8.249-1.807-10.247-6.39S1791.445,628.125,1791.445,628.125Z" fill="#e0e0e0" style="mix-blend-mode: multiply;isolation: isolate"/>
    <path id="Caminho_1356" data-name="Caminho 1356" d="M1823.814,633.173c2.076,1.156,5.663.678,5.663.678a4.735,4.735,0,0,0-.946,3.421C1828.082,634.789,1823.814,633.173,1823.814,633.173Z" fill="#e8e8e8" style="mix-blend-mode: multiply;isolation: isolate"/>
    <g id="Grupo_672" data-name="Grupo 672">
      <path id="Caminho_1357" data-name="Caminho 1357" d="M1749.868,826.957c43.658,11.105,80.2-8.245,80.2-8.245s-1.046-32.5-.156-44.656c1.244-21.3-2.009-37.524-3.549-50.1,4.793-18.872-4.949-38.348-10.256-48.076,0,0-31.12-32.041-45.587-16.676,0,0-12.292,12.175-13.619,15.971-9.287,26.555-9.353,52.2-3.294,84.972C1755.635,771.087,1749.868,812.985,1749.868,826.957Z" fill="#24c2bc"/>
    </g>
    <path id="Caminho_1358" data-name="Caminho 1358" d="M1825.2,580.169a40.322,40.322,0,0,1-18.579,20.371c.837-2.39.12-3.585.12-3.585s-8.586,13.689-15.345,15.447c-1.621-2.662-3.652-8.039-3.652-9.473s-.12-12.425,2.867-16.129,4.78-8.364,9.559-10.156,21.625-4.9,23.537-4.54S1825.2,580.169,1825.2,580.169Z" fill="#7d5137"/>
    <path id="Caminho_1359" data-name="Caminho 1359" d="M1819.464,576.943c5.314,6.442,9.781,10.328,10.305,12.635,0,0,8.065-4.481,3.853-14.248s-9.229-10.215-9.229-10.215-8.513,1.254-8.513,2.867S1819.464,576.943,1819.464,576.943Z" fill="#7d5137"/>
    <path id="Caminho_1360" data-name="Caminho 1360" d="M1775.365,649.884s31.3,14.577,34.529,11.948c1.553,3.823,7.169,15.771,7.169,15.771l-11.231-2.987-10.156-8.722-10.992-6.571-6.93-2.27-16.667,12.366S1773.931,651.079,1775.365,649.884Z" fill="#24c2bc"/>
    <g id="Grupo_673" data-name="Grupo 673">
      <path id="Caminho_1361" data-name="Caminho 1361" d="M1781.155,660.7c9.542,7.972,6.809,21.655-6.56,34.694s-47.514,45.261-60.109,50.978c-6.331-2.367-27.261-2.567-21.1-16.149a28,28,0,0,1,4.973-4.707S1756.451,640.062,1781.155,660.7Z" fill="#ffdaad"/>
    </g>
    <g id="Grupo_674" data-name="Grupo 674">
      <path id="Caminho_1362" data-name="Caminho 1362" d="M1715.473,728.841a759.773,759.773,0,0,1,59.969,59.38c1.513,6.848-5.084,7.8-8.689,7.29s-71.681-38.276-74.49-62.434C1701.842,718.775,1715.473,728.841,1715.473,728.841Z" fill="#ffdaad"/>
    </g>
    <g id="Grupo_675" data-name="Grupo 675">
      <path id="Caminho_1363" data-name="Caminho 1363" d="M1770.6,784.212s8.943-5.984,18.671-3.439c1.358.356,6.716,4.3,6.716,4.3s-.072,3.068-5.807-.336c-1.909.94-9.33,2.321-9.33,2.321Z" fill="#ffdaad"/>
      <path id="Caminho_1364" data-name="Caminho 1364" d="M1797.681,795.262h0a2.16,2.16,0,0,1,3.033.348l6.812,9.205c.742.934,1.069,2.362.135,3.1h0c-.934.741-2.159-.013-2.9-.947l-7.427-8.676A2.159,2.159,0,0,1,1797.681,795.262Z" fill="#ffdaad"/>
      <path id="Caminho_1365" data-name="Caminho 1365" d="M1796.071,801.726h0a2.16,2.16,0,0,1,3.051.127l7.246,8.884c.807.877,1.389,2.1.511,2.908h0c-.877.807-2.246.193-3.053-.685l-7.882-8.183A2.159,2.159,0,0,1,1796.071,801.726Z" fill="#ffdaad"/>
      <path id="Caminho_1366" data-name="Caminho 1366" d="M1781.934,807.224l8.821,3.248a2.159,2.159,0,1,0,1.492-4.052l-5.18-1.908a10.448,10.448,0,0,0,1.483-1.924l7.978,2.581a2.159,2.159,0,1,0,1.492-4.052l-7.446-2.742q.375-1.029.633-2.039l6.551,2.412a2.159,2.159,0,1,0,1.492-4.052l-7.609-2.8a9.042,9.042,0,0,0-.211-1.346l5.67,1.168a2.159,2.159,0,1,0,.918-4.219l-11.062-2.342a14.019,14.019,0,0,0-1.459-.686c-6.993-2.782-18.1-1.516-20.51,4.539s2.692,13.768,9.685,16.55C1776.6,806.327,1780.414,807.4,1781.934,807.224Z" fill="#ffdaad"/>
      <path id="Caminho_1367" data-name="Caminho 1367" d="M1796.582,788.186h0a2.158,2.158,0,0,1,3.05-.132l8,8.041c.878.806,1.618,2.094.813,2.973h0c-.806.879-2.365.592-3.437-1l-8.3-6.834A2.158,2.158,0,0,1,1796.582,788.186Z" fill="#ffdaad"/>
      <path id="Caminho_1368" data-name="Caminho 1368" d="M1790.8,806.765h0a2.189,2.189,0,0,1,3.029.643l3.322,6.315c.659,1.014,1.256,2.511.242,3.17h0c-1.014.659-2.258.2-3.149-1.586l-4.088-5.512A2.19,2.19,0,0,1,1790.8,806.765Z" fill="#ffdaad"/>
    </g>
    <path id="Caminho_1369" data-name="Caminho 1369" d="M1785.311,661.84c-12.907-13.523-32.778-3.327-72.208,39.8,4.088,18.715,29.9,32.042,29.9,32.042S1807.609,685.252,1785.311,661.84Z" fill="#24c2bc"/>
    <path id="Caminho_1370" data-name="Caminho 1370" d="M1748.985,729.121s27.533-20.342,31.026-35.752c1.644,13.561-30.82,46.641-30.82,46.641Z" fill="#e0e0e0" style="mix-blend-mode: multiply;isolation: isolate"/>
  </g>
</svg>
