<svg xmlns="http://www.w3.org/2000/svg" width="149.019" height="585.868" viewBox="0 0 149.019 585.868">
  <g id="Grupo_174" data-name="Grupo 174" transform="translate(-714.418 -434.316)">
    <path id="Caminho_445" data-name="Caminho 445" d="M783.561,518.766l-12.337,9.784-51.2-63.774a11.183,11.183,0,0,1,1.719-15.722h0A11.183,11.183,0,0,1,738,451.5Z" fill="#f5d2a7"/>
    <path id="Caminho_446" data-name="Caminho 446" d="M845.585,767.638c1.468,14.689.911,43.6-3.985,70.57,2.546,17.784,2.514,68.359,2.332,78.484-.29,16.133-9.908,79.87-9.908,79.87l-11.291-6.3s-17.41-109.447-14.954-123.349-2.192-35.056-2.192-35.056L801.3,772.866s10.924-12.972,17.613-12.669S845.585,767.638,845.585,767.638Z" fill="#ffdaad"/>
    <path id="Caminho_447" data-name="Caminho 447" d="M741.384,767.183c-1.468,14.69.877,47.3,6.281,71.025-2.547,17.784-2.625,68.359-2.443,78.484.29,16.133,10.7,80.537,10.7,80.537l11.291-6.3c-1.952-1.693,15.133-95.7,14.717-123.4-.212-14.116,1.441-33.853,1.441-33.853l1.512-59.523s-7.957-14.263-14.645-13.96S741.384,767.183,741.384,767.183Z" fill="#ffdaad"/>
    <path id="Caminho_448" data-name="Caminho 448" d="M817.269,957.944c9.394,8.4,21.747,3.285,21.747,3.65-3.022,18-5.507,35.635-5.507,35.635l-11.292-6.3S820.185,975.1,817.269,957.944Z" fill="#c9ebff"/>
    <path id="Caminho_449" data-name="Caminho 449" d="M771.479,959.832c-9.394,8.4-21.112,1-21.115,1,3.022,18,5.556,36.4,5.556,36.4l11.291-6.3S768.563,976.984,771.479,959.832Z" fill="#c9ebff"/>
    <path id="Caminho_450" data-name="Caminho 450" d="M745.222,916.692c-.182-10.125-.1-60.7,2.443-78.484,5.89,10.091,12.624,7.425,17.43,7.589-6.016,3.394-14.759-1.264-15.354,4.045-6.59,58.782,6.179,147.387,6.179,147.387S745.512,932.825,745.222,916.692Z" fill="#e8e8e8" style="mix-blend-mode: multiply;isolation: isolate"/>
    <path id="Caminho_451" data-name="Caminho 451" d="M834.021,686.467s-9.13-14.8-10.052-16.015c-.824-1.088-24.97,5.35-30.113,6.736-5.143-1.386-29.289-7.824-30.113-6.736-.921,1.217-14.354,17.135-14.354,17.135-11.721,30.806-16.528,84.335-12.252,142.455,23.63,12.477,51.857.875,51.857.875l3.956-91.441h1.812l3.957,91.441s29.515,10.964,53.145-1.514C853.648,763.979,845.554,716.78,834.021,686.467Z" fill="#404040"/>
    <path id="Caminho_452" data-name="Caminho 452" d="M834.021,686.467s-4.12-6.677-7.1-11.43c-4.483-.92-9.659-1.818-14.858-2.512-7.175,1.712-15.437,3.918-18.2,4.663-3.174-.855-13.581-3.633-21.281-5.38a65.063,65.063,0,0,0-10.5.87c-3.277,4.385-10.072,13.5-10.072,13.5-.3.776-.589,1.616-.882,2.5a68.919,68.919,0,0,1-4.781,11.361l0,.016c.008.007,24.241,21.065,84.336,7.986,5.326,6.4,19.011,53.177,19.011,53.177S839.952,702.056,834.021,686.467Z" fill="#bdbdbd" style="mix-blend-mode: multiply;isolation: isolate"/>
    <path id="Caminho_453" data-name="Caminho 453" d="M721.715,523.631c-1.574-4.5,22.209-28.287,31.037-17.477-3.063,22.882-5.045,32.251-11.351,31.17S721.715,523.631,721.715,523.631Z" fill="#1a8a85"/>
    <path id="Caminho_454" data-name="Caminho 454" d="M716.476,458.994c.12.812.185,1.255.185,1.255,1.274,16.9,8.257,56.194,10.682,63.553,1.02,9,1.323,23.2,13.7,31.719l14.212-18.585s4.679-10.5-1.972-26.48c-.807-11.737-10.08-48.047-13.7-56.5C731.891,442.348,716.56,444.191,716.476,458.994Z" fill="#ffdaad"/>
    <path id="Caminho_455" data-name="Caminho 455" d="M751.311,594.919c-11.582-4.282-21.581-18.386-29.6-71.288,21.128,1.621,31.037-17.477,31.037-17.477s17.577,37.824,13.939,61.676S757.047,597.039,751.311,594.919Z" fill="#24c2bc"/>
    <path id="Caminho_456" data-name="Caminho 456" d="M862.645,520.768c1.261-4.6-24.1-26.7-32.163-15.307,4.626,22.618,7.245,31.829,13.462,30.318S862.645,520.768,862.645,520.768Z" fill="#1a8a85"/>
    <path id="Caminho_457" data-name="Caminho 457" d="M863.437,455.923c-.063.819-.1,1.266-.1,1.266-.112,16.946-4.382,56.627-6.3,64.135-.4,9.051.272,23.24-11.49,32.585L830.1,536.342s-5.388-10.159.151-26.553c0-11.765,6.761-48.625,9.792-57.3C846.917,440.374,862.338,441.161,863.437,455.923Z" fill="#ffdaad"/>
    <path id="Caminho_458" data-name="Caminho 458" d="M835.871,600.864c11.261-5.066,22.407-26.769,26.774-80.1-20.967,3.067-32.163-15.307-32.163-15.307s-14.941,38.941-9.675,62.487S830.294,603.373,835.871,600.864Z" fill="#24c2bc"/>
    <path id="Caminho_459" data-name="Caminho 459" d="M839.4,611.315c1.13-5.326,11.689-35.8,13.525-43.722-4.759-2.964-29.909-39.89-31.62-26.846-.72,5.495-5.081,9.57-7.411,10.231-2.678.76-4.828-2.355-6.523-3.405l-14.49,6-14.817-6.338c-.9.541-2.685,4.721-6.246,3.994-2.677-.547-5.2-6.831-8.077-14.4-3.781-9.923-27.958,24.849-32.251,27.522,1.836,7.918,13.741,39.606,14.871,44.932s-5.079,101.726-5.5,108.573c15.393,9.13,52.022,9,52.022,9s35.282.619,50.675-8.511C843.135,711.493,838.272,616.64,839.4,611.315Z" fill="#24c2bc"/>
    <g id="Grupo_160" data-name="Grupo 160" style="mix-blend-mode: multiply;isolation: isolate">
      <path id="Caminho_460" data-name="Caminho 460" d="M803.921,643.625c19.819,5.585,34.412-.9,33.19,27.954-1.677,39.584-3.59,52.859-42.354,55.279,6.866-.048,35.694.181,48.8-8.518-.423-7.662-5.286-97.05-4.156-103.01S833.829,648.55,803.921,643.625Z" fill="#f2f2f2"/>
      <path id="Caminho_461" data-name="Caminho 461" d="M790.212,627.971q-2.859-.313-5.949-.628A50.273,50.273,0,0,0,790.212,627.971Z" fill="#f2f2f2"/>
    </g>
    <path id="Caminho_462" data-name="Caminho 462" d="M781.153,526.162l11.529,10.828,11.529-10.828c-.064.736,1.444,15.293,3.378,22.406a8.619,8.619,0,0,1-1.381,7.476c-2.767,3.647-6.932,5.8-13.526,5.8s-10.759-2.153-13.526-5.8a8.619,8.619,0,0,1-1.381-7.476C779.709,541.455,781.217,526.9,781.153,526.162Z" fill="#ffdaad"/>
    <path id="Caminho_463" data-name="Caminho 463" d="M807.12,536.637s-3.752,13.785-16.776,13.089c-7.268-.389-11.175-10.505-11.175-10.505s9.927-7.214,12.158-7.26,6.074-1.748,8.542,0S807.12,536.637,807.12,536.637Z" fill="#dedede" style="mix-blend-mode: multiply;isolation: isolate"/>
    <path id="Caminho_464" data-name="Caminho 464" d="M764.208,480.888c1.15-6.394,7.065-7.984,8.569-9.981s17.18-4.153,17.18-4.153,15.784,1.121,17.416,3.016,6.284,3.382,7.851,9.687,3.688,19.871,3.688,19.871c-.881,11.409-2.209,18.226-3.643,22.88-2.615,8.493-13.171,19.955-16.052,21.37a15.521,15.521,0,0,1-13.483.443c-2.968-1.222-14.23-12.07-17.393-20.271-1.753-4.543-3.51-11.265-5.137-22.591C763.2,501.159,763.058,487.283,764.208,480.888Z" fill="#ffdaad"/>
    <path id="Caminho_465" data-name="Caminho 465" d="M819.993,507.964a152.17,152.17,0,0,1-7.044,24.314c-2.312,5.686-14.419,11.622-14.419,11.622s5.073-8.507,9.62-14.546S819.993,507.964,819.993,507.964Z" fill="#ffdaad"/>
    <g id="Grupo_161" data-name="Grupo 161">
      <path id="Caminho_466" data-name="Caminho 466" d="M824.4,513.055c-.749,4.735-3.831,8.159-6.882,7.647s-4.917-4.765-4.167-9.5,3.831-8.158,6.882-7.647S825.147,508.32,824.4,513.055Z" fill="#ffdaad"/>
      <path id="Caminho_467" data-name="Caminho 467" d="M823.323,508.979c-1.481-3.348-3.082-2.8-3.949-2.044s.48,4.105,1.113,4.537c-1.4-.995-2.517,1.441-2.032,2.738-1.065-2.817.141-3.791.535-3.9-.762-3.017-.582-4.246,1.094-4.391S822.77,506.959,823.323,508.979Z" fill="#ccc" style="mix-blend-mode: multiply;isolation: isolate"/>
      <path id="Caminho_468" data-name="Caminho 468" d="M758.636,515.372c1.059,4.675,4.359,7.889,7.37,7.178s4.594-5.077,3.535-9.753-4.359-7.889-7.37-7.178S757.577,510.7,758.636,515.372Z" fill="#ffdaad"/>
      <path id="Caminho_469" data-name="Caminho 469" d="M759.441,511.234c1.257-3.438,2.892-2.993,3.807-2.3s-.21,4.127-.814,4.6c1.335-1.085,2.606,1.273,2.208,2.6.877-2.881-.39-3.774-.79-3.86.562-3.06.3-4.274-1.38-4.31S759.86,509.182,759.441,511.234Z" fill="#ccc" style="mix-blend-mode: multiply;isolation: isolate"/>
    </g>
    <g id="Grupo_164" data-name="Grupo 164">
      <g id="Grupo_162" data-name="Grupo 162">
        <path id="Caminho_470" data-name="Caminho 470" d="M785.435,495.289a106.135,106.135,0,0,0-12.851-.308c-1.721.287-5.714,3.955-5.714,3.955a17.19,17.19,0,0,1,6.418-1.249c3.348.083,12.027.951,12.027.951Z" fill="#7d5137"/>
        <path id="Caminho_471" data-name="Caminho 471" d="M785.8,495.315l-.16,3.312.487-3.322Z" fill="#7d5137"/>
      </g>
      <g id="Grupo_163" data-name="Grupo 163">
        <path id="Caminho_472" data-name="Caminho 472" d="M796.343,494.93a106.215,106.215,0,0,1,12.8-1.151c1.736.174,5.961,3.572,5.961,3.572a17.176,17.176,0,0,0-6.486-.825c-3.335.3-11.938,1.738-11.938,1.738Z" fill="#7d5137"/>
        <path id="Caminho_473" data-name="Caminho 473" d="M795.985,494.981l.378,3.294-.7-3.283Z" fill="#7d5137"/>
      </g>
    </g>
    <path id="Caminho_474" data-name="Caminho 474" d="M763.721,505.9s3.176-25.7,4.552-26.459c4.262-2.337,39.532-3.493,44.524-1.192,1.521.7,5.547,21.911,5.878,25.845,3.159-12.6,8.728-51.952-29.174-50.712C748.293,454.731,759.986,497.817,763.721,505.9Z" fill="#7d5137"/>
    <g id="Grupo_165" data-name="Grupo 165" style="mix-blend-mode: multiply;isolation: isolate">
      <path id="Caminho_475" data-name="Caminho 475" d="M796.109,518.629a18.961,18.961,0,0,1-9.834.3,14.537,14.537,0,0,0,4.95,2.307S795.158,520.414,796.109,518.629Z" fill="#bdbdbd"/>
    </g>
    <path id="Caminho_476" data-name="Caminho 476" d="M764.229,507.964c1.761,9.64,5.888,21.618,7.074,24.937s14.389,11.131,14.389,11.131-5.073-8.639-9.62-14.678S764.229,507.964,764.229,507.964Z" fill="#ffdaad"/>
    <path id="Caminho_477" data-name="Caminho 477" d="M763.2,501.159c4.562-5.034,14.652-21.37,14.652-21.37s8.5,8.048,25.074,11.771c-1.442-.84-3.964-6.306-3.964-6.306a90.179,90.179,0,0,0,19.008,9.73,5.051,5.051,0,0,0,1.892-4.955c-.24-1.682-4.9-12.4-5.255-12.642s-1.321-5.045-11.891-5.765-21.02-2.042-26.3-.721-6.126.48-8.168,4.444-3.123,3.123-3.844,8.528S763.2,501.159,763.2,501.159Z" fill="#7d5137"/>
    <path id="Caminho_478" data-name="Caminho 478" d="M775.9,456.067c4.865-8.829,17.657-7.3,17.657-7.3s-6.937,2.162-5.766,2.432,13.153-2.522,20.72,2.973c-6.216-1.081-7.657-.27-7.657-.27s18.377,1.711,22.882,19.458l-1.622-2.072s5.135,21.17-3.513,32.341c.27-16.215-8.739-25.674-8.739-25.674s-13.332-6.667-16.756-9.1S775.9,456.067,775.9,456.067Z" fill="#7d5137"/>
    <path id="Caminho_479" data-name="Caminho 479" d="M775.9,456.067c-3.874,0-10.54,2.342-12.161,6.035,3.243-2.432,3.062-.63,3.062-.63s-7.477,3.693-8.468,10.27a11.431,11.431,0,0,1,2.613-2.343s-5.135,10.09-3.6,19.279l.541-1.532s.858,12.736,5.834,18.755c.022-19.3,2.364-27.583,3.084-28.754s3.6-4.144,4.415-6.937S775.9,456.067,775.9,456.067Z" fill="#7d5137"/>
    <path id="Caminho_480" data-name="Caminho 480" d="M760.727,486.362c-1.854-3.974,1.285-12.963,3.135-15.273s.935-.68.777,1.583,3.624-6.911,4.722-6.028-4.908,13.892-2.949,15.339-2.506,4.565-3.165.186S761.214,487.408,760.727,486.362Z" fill="#262626" style="mix-blend-mode: screen;isolation: isolate"/>
    <path id="Caminho_481" data-name="Caminho 481" d="M775.634,457.778s-4.595,12.342,1.351,18.828C775.093,470.661,775.634,457.778,775.634,457.778Z" fill="#dedede" style="mix-blend-mode: multiply;isolation: isolate"/>
    <path id="Caminho_482" data-name="Caminho 482" d="M843.932,916.692c.182-10.125.214-60.7-2.332-78.484-5.891,10.091-10.921,7.425-15.727,7.589,6.015,3.394,13.093-1.269,13.65,4.045,5.794,55.241-5.5,146.72-5.5,146.72S843.642,932.825,843.932,916.692Z" fill="#e8e8e8" style="mix-blend-mode: multiply;isolation: isolate"/>
    <g id="Grupo_169" data-name="Grupo 169">
      <path id="Caminho_483" data-name="Caminho 483" d="M856.321,1008.774c-3.245-5.414-11.007-10.884-15.99-11.538s-20.617-1.209-23.716,12.35C832.424,1017.463,856.321,1008.774,856.321,1008.774Z" fill="#404040"/>
      <path id="Caminho_484" data-name="Caminho 484" d="M822.134,1020.183l29.5-.494a6.68,6.68,0,0,0,6.571-6.788h0a6.679,6.679,0,0,0-6.795-6.563c-9.54,5-19.365,5.272-29.494.494a6.681,6.681,0,0,0-6.572,6.787h0A6.681,6.681,0,0,0,822.134,1020.183Z" fill="#24c2bc"/>
      <path id="Caminho_485" data-name="Caminho 485" d="M848.7,1001.026c-3.867-2.757-6.3-7.967-7.36-10.685a4.467,4.467,0,0,0-2.508-2.507l-4.1-1.647-10.59.494L821.2,988.3a4.543,4.543,0,0,0-2.287,4.63,29.019,29.019,0,0,1-1.646,14.459A111.89,111.89,0,0,0,848.7,1001.026Z" fill="#404040"/>
      <path id="Caminho_486" data-name="Caminho 486" d="M834.63,985.907c1.953,5.253,5.934,14.35,8.6,15.828-.513,2.893-13.139,4.905-18,.041.331-1.506,1.678-9.653-.762-14.1S833.077,981.728,834.63,985.907Z" fill="#24c2bc"/>
      <g id="Grupo_166" data-name="Grupo 166">
        <path id="Caminho_487" data-name="Caminho 487" d="M824.982,992.275a.52.52,0,0,1-.2-1c8.439-3.546,13.5-.315,13.714-.177a.521.521,0,0,1-.572.87c-.049-.031-4.841-3.052-12.739.267A.527.527,0,0,1,824.982,992.275Z" fill="#fff"/>
      </g>
      <g id="Grupo_167" data-name="Grupo 167">
        <path id="Caminho_488" data-name="Caminho 488" d="M825.031,997.326a.521.521,0,0,1-.2-1c9.938-4.175,15.9-.38,16.144-.217a.52.52,0,0,1-.571.87c-.055-.035-5.767-3.64-15.17.307A.513.513,0,0,1,825.031,997.326Z" fill="#fff"/>
      </g>
      <g id="Grupo_168" data-name="Grupo 168">
        <path id="Caminho_489" data-name="Caminho 489" d="M824.287,1001.952a.521.521,0,0,1-.2-1c12.683-5.329,20.256-.5,20.573-.292a.52.52,0,0,1-.571.87c-.076-.046-7.457-4.716-19.6.382A.528.528,0,0,1,824.287,1001.952Z" fill="#fff"/>
      </g>
    </g>
    <g id="Grupo_173" data-name="Grupo 173">
      <path id="Caminho_490" data-name="Caminho 490" d="M734.458,1008.774c3.244-5.414,11.006-10.884,15.989-11.538s20.617-1.209,23.716,12.35C758.354,1017.463,734.458,1008.774,734.458,1008.774Z" fill="#404040"/>
      <path id="Caminho_491" data-name="Caminho 491" d="M768.644,1020.183l-29.495-.494a6.68,6.68,0,0,1-6.571-6.788h0a6.68,6.68,0,0,1,6.795-6.563c9.54,5,19.365,5.272,29.494.494a6.681,6.681,0,0,1,6.572,6.787h0A6.681,6.681,0,0,1,768.644,1020.183Z" fill="#24c2bc"/>
      <path id="Caminho_492" data-name="Caminho 492" d="M742.075,1001.026c3.867-2.757,6.3-7.967,7.36-10.685a4.466,4.466,0,0,1,2.509-2.507l4.1-1.647,10.59.494,2.943,1.62a4.543,4.543,0,0,1,2.287,4.63,29.02,29.02,0,0,0,1.646,14.459A111.889,111.889,0,0,1,742.075,1001.026Z" fill="#404040"/>
      <path id="Caminho_493" data-name="Caminho 493" d="M756.148,985.907c-1.953,5.253-5.934,14.35-8.6,15.828.512,2.893,13.138,4.905,18,.041-.331-1.506-1.678-9.653.762-14.1S757.7,981.728,756.148,985.907Z" fill="#24c2bc"/>
      <g id="Grupo_170" data-name="Grupo 170">
        <path id="Caminho_494" data-name="Caminho 494" d="M765.795,992.275a.525.525,0,0,1-.2-.04c-7.9-3.317-12.693-.295-12.74-.267a.52.52,0,0,1-.571-.87c.213-.138,5.274-3.369,13.713.177a.52.52,0,0,1-.2,1Z" fill="#fff"/>
      </g>
      <g id="Grupo_171" data-name="Grupo 171">
        <path id="Caminho_495" data-name="Caminho 495" d="M765.746,997.326a.509.509,0,0,1-.2-.041c-9.4-3.95-15.113-.342-15.17-.307a.521.521,0,0,1-.572-.87c.248-.163,6.206-3.958,16.144.217a.521.521,0,0,1-.2,1Z" fill="#fff"/>
      </g>
      <g id="Grupo_172" data-name="Grupo 172">
        <path id="Caminho_496" data-name="Caminho 496" d="M766.491,1001.952a.529.529,0,0,1-.2-.041c-12.18-5.115-19.523-.43-19.6-.382a.521.521,0,0,1-.574-.87c.32-.208,7.892-5.033,20.573.292a.521.521,0,0,1-.2,1Z" fill="#fff"/>
      </g>
    </g>
    <path id="Caminho_497" data-name="Caminho 497" d="M739.66,462.493l13.092,43.661S743.623,458.409,739.66,462.493Z" fill="#dedede" style="mix-blend-mode: multiply;isolation: isolate"/>
    <path id="Caminho_498" data-name="Caminho 498" d="M770.211,447.957l1.154-11.012,81.494,6.9a11.184,11.184,0,0,1,10.2,12.087h0a11.182,11.182,0,0,1-12.987,10.086Z" fill="#ffdaad"/>
    <path id="Caminho_499" data-name="Caminho 499" d="M773.879,437.813s-.23-.079-.659-.213a75.737,75.737,0,0,0-20.491-3.283c-11.252-.1-33.337,8.476-38.311,9.59-.026,2.979,3.288,2.511,6.768,1.88-2.495,1.468-3.823,1.952.806,2.49s21.03-1.606,26.173-3.065,6.514,9.8,27.123.719C784.2,437.274,773.879,437.813,773.879,437.813Z" fill="#ffdaad"/>
    <path id="Caminho_500" data-name="Caminho 500" d="M773.775,446.9a27.236,27.236,0,0,1-11.178.713c-9.209-1.069-9.174-4.254-12.987-3.516s-17.273,4.756-29.854,3.349c.037.065.092.133.133.2a8.164,8.164,0,0,0,2.932.628c4.628.537,21.03-1.606,26.172-3.065C753.933,443.812,755.4,454.134,773.775,446.9Z" fill="#e8e8e8" style="mix-blend-mode: multiply;isolation: isolate"/>
    <path id="Caminho_501" data-name="Caminho 501" d="M721.186,445.787s19.486-7.825,25.338-8.435C740.566,437.41,723.306,443.1,721.186,445.787Z" fill="#e8e8e8" style="mix-blend-mode: multiply;isolation: isolate"/>
  </g>
</svg>
