<svg xmlns="http://www.w3.org/2000/svg" width="149.02" height="585.868" viewBox="0 0 149.02 585.868">
  <g id="Grupo_189" data-name="Grupo 189" transform="translate(-934.936 -434.316)">
    <path id="Caminho_502" data-name="Caminho 502" d="M1014.812,518.766l12.338,9.784,51.2-63.774a11.184,11.184,0,0,0-1.719-15.722h0a11.183,11.183,0,0,0-16.26,2.449Z" fill="#f5d2a7"/>
    <path id="Caminho_503" data-name="Caminho 503" d="M952.788,767.638c-1.468,14.689-.911,43.6,3.986,70.57-2.546,17.784-2.514,68.359-2.332,78.484.29,16.133,9.908,79.87,9.908,79.87l11.291-6.3s17.41-109.447,14.953-123.349,2.193-35.056,2.193-35.056l4.281-58.992s-10.924-12.972-17.612-12.669S952.788,767.638,952.788,767.638Z" fill="#ffdaad"/>
    <path id="Caminho_504" data-name="Caminho 504" d="M1056.99,767.183c1.468,14.69-.878,47.3-6.281,71.025,2.546,17.784,2.625,68.359,2.443,78.484-.29,16.133-10.7,80.537-10.7,80.537l-11.291-6.3c1.952-1.693-15.133-95.7-14.718-123.4.212-14.116-1.441-33.853-1.441-33.853l-1.511-59.523s7.956-14.263,14.645-13.96S1056.99,767.183,1056.99,767.183Z" fill="#ffdaad"/>
    <path id="Caminho_505" data-name="Caminho 505" d="M981.1,957.944c-9.394,8.4-21.747,3.285-21.747,3.65,3.022,18,5.507,35.635,5.507,35.635l11.292-6.3S978.189,975.1,981.1,957.944Z" fill="#c9ebff"/>
    <path id="Caminho_506" data-name="Caminho 506" d="M1026.894,959.832c9.394,8.4,21.113,1,21.116,1-3.022,18-5.556,36.4-5.556,36.4l-11.291-6.3S1029.811,976.984,1026.894,959.832Z" fill="#c9ebff"/>
    <path id="Caminho_507" data-name="Caminho 507" d="M1053.152,916.692c.182-10.125.1-60.7-2.443-78.484-5.891,10.091-12.624,7.425-17.43,7.589,6.015,3.394,14.758-1.264,15.354,4.045,6.589,58.782-6.179,147.387-6.179,147.387S1052.862,932.825,1053.152,916.692Z" fill="#e8e8e8" style="mix-blend-mode: multiply;isolation: isolate"/>
    <path id="Caminho_508" data-name="Caminho 508" d="M964.353,686.467s9.13-14.8,10.052-16.015c.823-1.088,24.969,5.35,30.112,6.736,5.143-1.386,29.29-7.824,30.113-6.736.922,1.217,14.355,17.135,14.355,17.135,11.72,30.806,16.528,84.335,12.252,142.455-23.63,12.477-51.857.875-51.857.875l-3.956-91.441h-1.813l-3.956,91.441s-29.516,10.964-53.145-1.514C944.726,763.979,952.82,716.78,964.353,686.467Z" fill="#404040"/>
    <path id="Caminho_509" data-name="Caminho 509" d="M964.353,686.467s4.12-6.677,7.1-11.43c4.483-.92,9.658-1.818,14.858-2.512,7.175,1.712,15.436,3.918,18.2,4.663,3.174-.855,13.582-3.633,21.282-5.38a65.062,65.062,0,0,1,10.5.87c3.277,4.385,10.072,13.5,10.072,13.5.3.776.589,1.616.882,2.5a68.919,68.919,0,0,0,4.781,11.361l0,.016c-.008.007-24.242,21.065-84.336,7.986-5.326,6.4-19.011,53.177-19.011,53.177S958.422,702.056,964.353,686.467Z" fill="#bdbdbd" style="mix-blend-mode: multiply;isolation: isolate"/>
    <path id="Caminho_510" data-name="Caminho 510" d="M1076.658,523.631c1.575-4.5-22.208-28.287-31.036-17.477,3.063,22.882,5.044,32.251,11.35,31.17S1076.658,523.631,1076.658,523.631Z" fill="#1a8a85"/>
    <path id="Caminho_511" data-name="Caminho 511" d="M1081.9,458.994c-.119.812-.185,1.255-.185,1.255-1.273,16.9-8.256,56.194-10.682,63.553-1.02,9-1.322,23.2-13.7,31.719l-14.213-18.585s-4.678-10.5,1.972-26.48c.808-11.737,10.08-48.047,13.7-56.5C1066.482,442.348,1081.813,444.191,1081.9,458.994Z" fill="#ffdaad"/>
    <path id="Caminho_512" data-name="Caminho 512" d="M1047.063,594.919c11.582-4.282,21.581-18.386,29.595-71.288-21.127,1.621-31.036-17.477-31.036-17.477s-17.578,37.824-13.939,61.676S1041.327,597.039,1047.063,594.919Z" fill="#24c2bc"/>
    <path id="Caminho_513" data-name="Caminho 513" d="M935.729,520.768c-1.262-4.6,24.1-26.7,32.163-15.307-4.626,22.618-7.246,31.829-13.463,30.318S935.729,520.768,935.729,520.768Z" fill="#1a8a85"/>
    <path id="Caminho_514" data-name="Caminho 514" d="M934.936,455.923l.1,1.266c.111,16.946,4.382,56.627,6.3,64.135.4,9.051-.272,23.24,11.49,32.585l15.454-17.567s5.387-10.159-.151-26.553c0-11.765-6.761-48.625-9.792-57.3C951.457,440.374,936.036,441.161,934.936,455.923Z" fill="#ffdaad"/>
    <path id="Caminho_515" data-name="Caminho 515" d="M962.5,600.864c-11.261-5.066-22.407-26.769-26.774-80.1,20.966,3.067,32.163-15.307,32.163-15.307s14.941,38.941,9.675,62.487S968.08,603.373,962.5,600.864Z" fill="#24c2bc"/>
    <path id="Caminho_516" data-name="Caminho 516" d="M958.972,611.315c-1.13-5.326-11.69-35.8-13.525-43.722,4.759-2.964,29.909-39.89,31.62-26.846.72,5.495,5.081,9.57,7.41,10.231,2.679.76,4.829-2.355,6.524-3.405l14.49,6,14.817-6.338c.9.541,2.685,4.721,6.246,3.994,2.677-.547,5.194-6.831,8.077-14.4,3.781-9.923,27.958,24.849,32.251,27.522-1.836,7.918-13.742,39.606-14.872,44.932s5.079,101.726,5.5,108.573c-15.393,9.13-52.022,9-52.022,9s-35.282.619-50.676-8.511C955.239,711.493,960.1,616.64,958.972,611.315Z" fill="#24c2bc"/>
    <g id="Grupo_175" data-name="Grupo 175" style="mix-blend-mode: multiply;isolation: isolate">
      <path id="Caminho_517" data-name="Caminho 517" d="M994.453,643.625c-19.819,5.585-34.413-.9-33.19,27.954,1.676,39.584,3.59,52.859,42.354,55.279-6.866-.048-35.7.181-48.8-8.518.424-7.662,5.286-97.05,4.157-103.01S964.545,648.55,994.453,643.625Z" fill="#f2f2f2"/>
      <path id="Caminho_518" data-name="Caminho 518" d="M1008.161,627.971q2.86-.313,5.95-.628A50.27,50.27,0,0,1,1008.161,627.971Z" fill="#f2f2f2"/>
    </g>
    <path id="Caminho_519" data-name="Caminho 519" d="M1017.22,526.162l-11.528,10.828-11.529-10.828c.064.736-1.444,15.293-3.379,22.406a8.622,8.622,0,0,0,1.381,7.476c2.768,3.647,6.932,5.8,13.527,5.8s10.759-2.153,13.526-5.8a8.622,8.622,0,0,0,1.381-7.476C1018.664,541.455,1017.156,526.9,1017.22,526.162Z" fill="#ffdaad"/>
    <path id="Caminho_520" data-name="Caminho 520" d="M991.254,536.637s3.751,13.785,16.776,13.089c7.268-.389,11.174-10.505,11.174-10.505s-9.926-7.214-12.157-7.26-6.075-1.748-8.543,0S991.254,536.637,991.254,536.637Z" fill="#dedede" style="mix-blend-mode: multiply;isolation: isolate"/>
    <path id="Caminho_521" data-name="Caminho 521" d="M979.756,480.123c1.335-6.359,7.293-7.776,8.854-9.729s17.294-3.652,17.294-3.652,15.744,1.579,17.32,3.52,6.184,3.563,7.568,9.911,3.109,19.97,3.109,19.97c-1.212,11.378-2.738,18.154-4.306,22.764-2.861,8.414-13.745,19.565-16.666,20.9a15.524,15.524,0,0,1-13.49.051c-2.931-1.308-13.873-12.478-16.8-20.767-1.62-4.593-3.18-11.362-4.478-22.732C978.163,500.355,978.42,486.481,979.756,480.123Z" fill="#ffdaad"/>
    <path id="Caminho_522" data-name="Caminho 522" d="M1034.731,508.806a152.295,152.295,0,0,1-7.747,24.1c-2.477,5.616-14.751,11.2-14.751,11.2s5.318-8.357,10.038-14.261S1034.731,508.806,1034.731,508.806Z" fill="#ffdaad"/>
    <g id="Grupo_176" data-name="Grupo 176">
      <ellipse id="Elipse_27" data-name="Elipse 27" cx="8.68" cy="5.602" rx="8.68" ry="5.602" transform="translate(1026.427 520.477) rotate(-79.711)" fill="#ffdaad"/>
      <path id="Caminho_523" data-name="Caminho 523" d="M1038.03,509.918c-1.383-3.389-3-2.885-3.889-2.158s.361,4.117.982,4.567c-1.374-1.035-2.558,1.368-2.111,2.679-.983-2.848.251-3.786.648-3.887-.674-3.037-.458-4.26,1.22-4.357S1037.536,507.883,1038.03,509.918Z" fill="#ccc" style="mix-blend-mode: multiply;isolation: isolate"/>
      <ellipse id="Elipse_28" data-name="Elipse 28" cx="5.602" cy="8.68" rx="5.602" ry="8.68" transform="translate(971.552 505.815) rotate(-10.726)" fill="#ffdaad"/>
      <path id="Caminho_524" data-name="Caminho 524" d="M974.109,510.317c1.357-3.4,2.977-2.908,3.872-2.187s-.33,4.119-.947,4.574c1.366-1.046,2.568,1.348,2.131,2.662.961-2.855-.279-3.784-.677-3.881.651-3.043.425-4.264-1.254-4.348S974.587,508.278,974.109,510.317Z" fill="#ccc" style="mix-blend-mode: multiply;isolation: isolate"/>
    </g>
    <g id="Grupo_179" data-name="Grupo 179">
      <g id="Grupo_177" data-name="Grupo 177">
        <path id="Caminho_525" data-name="Caminho 525" d="M1000.556,495.134a105.9,105.9,0,0,0-12.837-.682c-1.729.238-5.827,3.788-5.827,3.788a17.194,17.194,0,0,1,6.452-1.062c3.344.18,11.994,1.3,11.994,1.3Z" fill="#7d5137"/>
        <path id="Caminho_526" data-name="Caminho 526" d="M1000.921,495.171l-.257,3.306.583-3.307Z" fill="#7d5137"/>
      </g>
      <g id="Grupo_178" data-name="Grupo 178">
        <path id="Caminho_527" data-name="Caminho 527" d="M1011.468,495.092a105.972,105.972,0,0,1,12.832-.779c1.73.224,5.855,3.743,5.855,3.743a17.2,17.2,0,0,0-6.46-1.013c-3.342.2-11.983,1.391-11.983,1.391Z" fill="#7d5137"/>
        <path id="Caminho_528" data-name="Caminho 528" d="M1011.11,495.132l.282,3.3-.608-3.3Z" fill="#7d5137"/>
      </g>
    </g>
    <path id="Caminho_529" data-name="Caminho 529" d="M978.542,505.111s3.922-25.6,5.318-26.316c4.328-2.212,39.617-2.344,44.54.1,1.5.745,4.909,22.063,5.125,26.005,3.524-12.5,10.233-51.676-27.689-51.538C964.607,453.514,975.043,496.922,978.542,505.111Z" fill="#7d5137"/>
    <g id="Grupo_180" data-name="Grupo 180" style="mix-blend-mode: multiply;isolation: isolate">
      <path id="Caminho_530" data-name="Caminho 530" d="M1010.547,518.774a18.959,18.959,0,0,1-9.839.012,14.553,14.553,0,0,0,4.881,2.45S1009.545,520.53,1010.547,518.774Z" fill="#bdbdbd"/>
    </g>
    <path id="Caminho_531" data-name="Caminho 531" d="M978.99,507.187c1.481,9.688,5.258,21.78,6.347,25.132s14.06,11.545,14.06,11.545-4.82-8.784-9.19-14.952S978.99,507.187,978.99,507.187Z" fill="#ffdaad"/>
    <path id="Caminho_532" data-name="Caminho 532" d="M978.163,500.355c4.707-4.9,15.266-20.935,15.266-20.935s8.261,8.291,24.722,12.495c-1.417-.883-3.779-6.419-3.779-6.419a90.1,90.1,0,0,0,18.717,10.277,5.049,5.049,0,0,0,2.035-4.9c-.191-1.688-4.532-12.539-4.886-12.79s-1.174-5.081-11.718-6.108-20.952-2.651-26.273-1.484-6.138.3-8.294,4.205-3.212,3.031-4.089,8.413S978.163,500.355,978.163,500.355Z" fill="#7d5137"/>
    <path id="Caminho_533" data-name="Caminho 533" d="M992.167,455.651c5.119-8.683,17.861-6.781,17.861-6.781s-7,1.96-5.833,2.264,13.22-2.14,20.624,3.573c-6.182-1.261-7.646-.492-7.646-.492s18.32,2.244,22.307,20.114l-1.561-2.118s4.518,21.31-4.451,32.225c.741-16.2-7.989-25.917-7.989-25.917s-13.133-7.051-16.484-9.581S992.167,455.651,992.167,455.651Z" fill="#7d5137"/>
    <path id="Caminho_534" data-name="Caminho 534" d="M992.167,455.651c-3.872-.112-10.6,2.035-12.332,5.68,3.313-2.337,3.08-.541,3.08-.541s-7.581,3.475-8.762,10.019a11.414,11.414,0,0,1,2.679-2.265s-5.426,9.936-4.162,19.166l.585-1.516s.488,12.756,5.287,18.917c.582-19.287,3.164-27.5,3.918-28.653s3.722-4.037,4.614-6.8S992.167,455.651,992.167,455.651Z" fill="#7d5137"/>
    <path id="Caminho_535" data-name="Caminho 535" d="M976.116,485.493c-1.737-4.027,1.662-12.921,3.578-15.176s.954-.652.731,1.605,3.822-6.8,4.894-5.888-5.309,13.744-3.392,15.247-2.638,4.49-3.169.094S976.573,486.553,976.116,485.493Z" fill="#262626" style="mix-blend-mode: screen;isolation: isolate"/>
    <path id="Caminho_536" data-name="Caminho 536" d="M991.847,457.354s-4.951,12.2.8,18.859C990.933,470.215,991.847,457.354,991.847,457.354Z" fill="#dedede" style="mix-blend-mode: multiply;isolation: isolate"/>
    <path id="Caminho_537" data-name="Caminho 537" d="M954.442,916.692c-.182-10.125-.214-60.7,2.332-78.484,5.891,10.091,10.921,7.425,15.727,7.589-6.016,3.394-13.093-1.269-13.651,4.045-5.793,55.241,5.5,146.72,5.5,146.72S954.732,932.825,954.442,916.692Z" fill="#e8e8e8" style="mix-blend-mode: multiply;isolation: isolate"/>
    <g id="Grupo_184" data-name="Grupo 184">
      <path id="Caminho_538" data-name="Caminho 538" d="M942.053,1008.774c3.244-5.414,11.007-10.884,15.99-11.538s20.617-1.209,23.716,12.35C965.95,1017.463,942.053,1008.774,942.053,1008.774Z" fill="#404040"/>
      <path id="Caminho_539" data-name="Caminho 539" d="M976.239,1020.183l-29.494-.494a6.682,6.682,0,0,1-6.572-6.788h0a6.68,6.68,0,0,1,6.8-6.563c9.541,5,19.366,5.272,29.495.494a6.679,6.679,0,0,1,6.571,6.787h0A6.681,6.681,0,0,1,976.239,1020.183Z" fill="#24c2bc"/>
      <path id="Caminho_540" data-name="Caminho 540" d="M949.671,1001.026c3.867-2.757,6.3-7.967,7.36-10.685a4.467,4.467,0,0,1,2.508-2.507l4.1-1.647,10.59.494,2.943,1.62a4.544,4.544,0,0,1,2.287,4.63,29.007,29.007,0,0,0,1.646,14.459A111.878,111.878,0,0,1,949.671,1001.026Z" fill="#404040"/>
      <path id="Caminho_541" data-name="Caminho 541" d="M963.744,985.907c-1.953,5.253-5.934,14.35-8.605,15.828.513,2.893,13.139,4.905,18,.041-.33-1.506-1.677-9.653.763-14.1S965.3,981.728,963.744,985.907Z" fill="#24c2bc"/>
      <g id="Grupo_181" data-name="Grupo 181">
        <path id="Caminho_542" data-name="Caminho 542" d="M973.391,992.275a.52.52,0,0,0,.2-1c-8.44-3.546-13.5-.315-13.714-.177a.52.52,0,0,0,.571.87c.049-.031,4.842-3.052,12.74.267A.525.525,0,0,0,973.391,992.275Z" fill="#fff"/>
      </g>
      <g id="Grupo_182" data-name="Grupo 182">
        <path id="Caminho_543" data-name="Caminho 543" d="M973.342,997.326a.521.521,0,0,0,.2-1c-9.939-4.175-15.9-.38-16.145-.217a.521.521,0,0,0,.572.87c.055-.035,5.767-3.64,15.17.307A.509.509,0,0,0,973.342,997.326Z" fill="#fff"/>
      </g>
      <g id="Grupo_183" data-name="Grupo 183">
        <path id="Caminho_544" data-name="Caminho 544" d="M974.087,1001.952a.521.521,0,0,0,.2-1c-12.682-5.329-20.255-.5-20.572-.292a.52.52,0,0,0,.571.87c.075-.046,7.457-4.716,19.6.382A.528.528,0,0,0,974.087,1001.952Z" fill="#fff"/>
      </g>
    </g>
    <g id="Grupo_188" data-name="Grupo 188">
      <path id="Caminho_545" data-name="Caminho 545" d="M1063.916,1008.774c-3.244-5.414-11.007-10.884-15.989-11.538s-20.617-1.209-23.717,12.35C1040.02,1017.463,1063.916,1008.774,1063.916,1008.774Z" fill="#404040"/>
      <path id="Caminho_546" data-name="Caminho 546" d="M1029.73,1020.183l29.495-.494a6.68,6.68,0,0,0,6.571-6.788h0a6.68,6.68,0,0,0-6.8-6.563c-9.541,5-19.366,5.272-29.495.494a6.679,6.679,0,0,0-6.571,6.787h0A6.681,6.681,0,0,0,1029.73,1020.183Z" fill="#24c2bc"/>
      <path id="Caminho_547" data-name="Caminho 547" d="M1056.3,1001.026c-3.866-2.757-6.3-7.967-7.359-10.685a4.466,4.466,0,0,0-2.509-2.507l-4.1-1.647-10.59.494-2.943,1.62a4.545,4.545,0,0,0-2.288,4.63,29.008,29.008,0,0,1-1.646,14.459A111.878,111.878,0,0,0,1056.3,1001.026Z" fill="#404040"/>
      <path id="Caminho_548" data-name="Caminho 548" d="M1042.226,985.907c1.952,5.253,5.933,14.35,8.6,15.828-.513,2.893-13.138,4.905-18,.041.331-1.506,1.678-9.653-.762-14.1S1040.672,981.728,1042.226,985.907Z" fill="#24c2bc"/>
      <g id="Grupo_185" data-name="Grupo 185">
        <path id="Caminho_549" data-name="Caminho 549" d="M1032.579,992.275a.526.526,0,0,0,.2-.04c7.9-3.317,12.693-.295,12.74-.267a.516.516,0,0,0,.72-.15.521.521,0,0,0-.149-.72c-.213-.138-5.274-3.369-13.714.177a.52.52,0,0,0,.2,1Z" fill="#fff"/>
      </g>
      <g id="Grupo_186" data-name="Grupo 186">
        <path id="Caminho_550" data-name="Caminho 550" d="M1032.628,997.326a.509.509,0,0,0,.2-.041c9.4-3.95,15.113-.342,15.17-.307a.521.521,0,0,0,.572-.87c-.248-.163-6.206-3.958-16.145.217a.521.521,0,0,0,.2,1Z" fill="#fff"/>
      </g>
      <g id="Grupo_187" data-name="Grupo 187">
        <path id="Caminho_551" data-name="Caminho 551" d="M1031.883,1001.952a.536.536,0,0,0,.2-.041c12.18-5.115,19.523-.43,19.6-.382a.521.521,0,1,0,.573-.87c-.319-.208-7.892-5.033-20.572.292a.521.521,0,0,0,.2,1Z" fill="#fff"/>
      </g>
    </g>
    <path id="Caminho_552" data-name="Caminho 552" d="M1058.714,462.493l-13.092,43.661S1054.75,458.409,1058.714,462.493Z" fill="#dedede" style="mix-blend-mode: multiply;isolation: isolate"/>
    <path id="Caminho_553" data-name="Caminho 553" d="M1028.163,447.957l-1.155-11.012-81.493,6.9a11.183,11.183,0,0,0-10.2,12.087h0A11.182,11.182,0,0,0,948.3,466.022Z" fill="#ffdaad"/>
    <path id="Caminho_554" data-name="Caminho 554" d="M1024.495,437.813s.229-.079.659-.213a75.729,75.729,0,0,1,20.491-3.283c11.252-.1,33.336,8.476,38.311,9.59.026,2.979-3.288,2.511-6.769,1.88,2.5,1.468,3.824,1.952-.805,2.49s-21.03-1.606-26.173-3.065-6.514,9.8-27.123.719C1014.177,437.274,1024.495,437.813,1024.495,437.813Z" fill="#ffdaad"/>
    <path id="Caminho_555" data-name="Caminho 555" d="M1024.6,446.9a27.234,27.234,0,0,0,11.178.713c9.209-1.069,9.174-4.254,12.987-3.516s17.273,4.756,29.854,3.349c-.038.065-.092.133-.134.2a8.149,8.149,0,0,1-2.931.628c-4.629.537-21.03-1.606-26.173-3.065C1044.441,443.812,1042.97,454.134,1024.6,446.9Z" fill="#e8e8e8" style="mix-blend-mode: multiply;isolation: isolate"/>
    <path id="Caminho_556" data-name="Caminho 556" d="M1077.187,445.787s-19.485-7.825-25.337-8.435C1057.808,437.41,1075.068,443.1,1077.187,445.787Z" fill="#e8e8e8" style="mix-blend-mode: multiply;isolation: isolate"/>
  </g>
</svg>
