<svg xmlns="http://www.w3.org/2000/svg" width="143.998" height="690.265" viewBox="0 0 143.998 690.265">
  <g id="Grupo_204" data-name="Grupo 204" transform="translate(-2062.695 -329.919)">
    <path id="Caminho_557" data-name="Caminho 557" d="M2080.721,767.638c-1.468,14.689-.911,43.6,3.986,70.57-2.547,17.784-2.514,68.359-2.332,78.484.29,16.133,9.907,79.87,9.907,79.87l11.292-6.3s17.41-109.447,14.953-123.349,2.193-35.056,2.193-35.056L2125,772.866s-10.924-12.972-17.612-12.669S2080.721,767.638,2080.721,767.638Z" fill="#ffdaad"/>
    <path id="Caminho_558" data-name="Caminho 558" d="M2184.922,767.183c1.468,14.69-.877,47.3-6.28,71.025,2.546,17.784,2.624,68.359,2.443,78.484-.29,16.133-10.7,80.537-10.7,80.537l-11.292-6.3c1.953-1.693-15.133-95.7-14.717-123.4.212-14.116-1.441-33.853-1.441-33.853l-1.511-59.523s7.956-14.263,14.645-13.96S2184.922,767.183,2184.922,767.183Z" fill="#ffdaad"/>
    <path id="Caminho_559" data-name="Caminho 559" d="M2109.038,957.944c-9.394,8.4-21.748,3.285-21.748,3.65,3.023,18,5.508,35.635,5.508,35.635l11.291-6.3S2106.121,975.1,2109.038,957.944Z" fill="#c9ebff"/>
    <path id="Caminho_560" data-name="Caminho 560" d="M2154.827,959.832c9.394,8.4,21.113,1,21.116,1-3.023,18-5.556,36.4-5.556,36.4l-11.292-6.3S2157.743,976.984,2154.827,959.832Z" fill="#c9ebff"/>
    <path id="Caminho_561" data-name="Caminho 561" d="M2181.085,916.692c.181-10.125.1-60.7-2.443-78.484-5.891,10.091-12.625,7.425-17.43,7.589,6.015,3.394,14.758-1.264,15.353,4.045,6.59,58.782-6.178,147.387-6.178,147.387S2180.795,932.825,2181.085,916.692Z" fill="#e8e8e8" style="mix-blend-mode: multiply;isolation: isolate"/>
    <path id="Caminho_562" data-name="Caminho 562" d="M2092.286,686.467s9.13-14.8,10.051-16.015c.824-1.088,24.97,5.35,30.113,6.736,5.143-1.386,29.289-7.824,30.113-6.736.922,1.217,14.355,17.135,14.355,17.135,11.72,30.806,16.528,84.335,12.251,142.455-23.629,12.477-51.856.875-51.856.875l-3.957-91.441h-1.812l-3.956,91.441s-29.516,10.964-53.146-1.514C2072.659,763.979,2080.753,716.78,2092.286,686.467Z" fill="#404040"/>
    <path id="Caminho_563" data-name="Caminho 563" d="M2092.286,686.467s4.119-6.677,7.1-11.43c4.483-.92,9.658-1.818,14.858-2.512,7.175,1.712,15.436,3.918,18.2,4.663,3.174-.855,13.581-3.633,21.282-5.38a65.073,65.073,0,0,1,10.5.87c3.277,4.385,10.071,13.5,10.071,13.5.3.776.59,1.616.883,2.5a69.042,69.042,0,0,0,4.78,11.361l0,.016c-.007.007-24.241,21.065-84.336,7.986-5.326,6.4-19.011,53.177-19.011,53.177S2086.355,702.056,2092.286,686.467Z" fill="#bdbdbd" style="mix-blend-mode: multiply;isolation: isolate"/>
    <path id="Caminho_564" data-name="Caminho 564" d="M2204.591,523.631c1.574-4.5-22.208-28.287-31.037-17.477,3.063,22.882,5.045,32.251,11.351,31.17S2204.591,523.631,2204.591,523.631Z" fill="#1a8a85"/>
    <path id="Caminho_565" data-name="Caminho 565" d="M2206.519,455.923c-.063.819-.1,1.266-.1,1.266-.112,16.946-4.383,56.627-6.3,64.135-.4,9.051.273,23.24-11.489,32.585l-15.454-17.567s-5.388-10.159.151-26.553c0-11.765,6.76-48.625,9.791-57.3C2190,440.374,2205.42,441.161,2206.519,455.923Z" fill="#ffdaad"/>
    <path id="Caminho_566" data-name="Caminho 566" d="M2186.56,368.764l11.438-.941,8.634,84.332a11.592,11.592,0,0,1-10.351,12.712h0a11.591,11.591,0,0,1-12.769-11.289Z" fill="#ffdaad"/>
    <path id="Caminho_567" data-name="Caminho 567" d="M2192.207,373.523s-.238-.08-.676-.242a78.53,78.53,0,0,1-18.909-10.256c-9.305-7.031-22.026-28.035-25.408-32.1,1.861-2.464,4.288.015,6.748,2.734-1.122-2.783-1.907-4.021,2.235-1.536s16.261,14.613,19.564,19.062,11.547-3.934,22.735,16.554C2200.342,380.488,2192.207,373.523,2192.207,373.523Z" fill="#ffdaad"/>
    <path id="Caminho_568" data-name="Caminho 568" d="M2197.868,365.99a28.243,28.243,0,0,0-8.732-7.652c-8.241-4.943-10.226-2.3-12.891-5.321s-11.183-14.826-22.408-21.623c.073-.03.16-.051.236-.079a8.444,8.444,0,0,1,2.8,1.337c4.142,2.484,16.261,14.613,19.564,19.062C2179.614,355.987,2187.348,348.437,2197.868,365.99Z" fill="#e8e8e8" style="mix-blend-mode: multiply;isolation: isolate"/>
    <path id="Caminho_569" data-name="Caminho 569" d="M2153.962,333.664s11.06,18.745,15.482,22.945C2164.587,352.8,2154.006,337.21,2153.962,333.664Z" fill="#e8e8e8" style="mix-blend-mode: multiply;isolation: isolate"/>
    <path id="Caminho_570" data-name="Caminho 570" d="M2175,594.919c11.582-4.282,21.58-18.386,29.595-71.288-21.127,1.621-31.037-17.477-31.037-17.477s-17.577,37.824-13.938,61.676S2169.26,597.039,2175,594.919Z" fill="#24c2bc"/>
    <path id="Caminho_571" data-name="Caminho 571" d="M2063.662,520.768c-1.262-4.6,24.1-26.7,32.162-15.307-4.625,22.618-7.245,31.829-13.462,30.318S2063.662,520.768,2063.662,520.768Z" fill="#1a8a85"/>
    <path id="Caminho_572" data-name="Caminho 572" d="M2062.869,455.923c.063.819.1,1.266.1,1.266.112,16.946,4.383,56.627,6.3,64.135.4,9.051-.273,23.24,11.489,32.585l15.454-17.567s5.388-10.159-.151-26.553c0-11.765-6.76-48.625-9.791-57.3C2079.39,440.374,2063.968,441.161,2062.869,455.923Z" fill="#ffdaad"/>
    <path id="Caminho_573" data-name="Caminho 573" d="M2090.435,600.864c-11.26-5.066-22.406-26.769-26.773-80.1,20.966,3.067,32.162-15.307,32.162-15.307s14.941,38.941,9.675,62.487S2096.013,603.373,2090.435,600.864Z" fill="#24c2bc"/>
    <path id="Caminho_574" data-name="Caminho 574" d="M2086.9,611.315c-1.129-5.326-11.689-35.8-13.525-43.722,4.76-2.964,29.044-45.843,30.747-32.8,1.728,13.235,5.955,15.522,8.284,16.183,2.679.76,4.829-2.355,6.524-3.405l14.49,6,14.816-6.338c.9.541,2.686,4.721,6.246,3.994,2.678-.547,5.195-6.831,8.078-14.4,3.78-9.923,27.958,24.849,32.251,27.522-1.836,7.918-13.742,39.606-14.872,44.932s5.079,101.726,5.5,108.573c-15.394,9.13-52.022,9-52.022,9s-35.282.619-50.676-8.511C2083.172,711.493,2088.034,616.64,2086.9,611.315Z" fill="#24c2bc"/>
    <g id="Grupo_190" data-name="Grupo 190" style="mix-blend-mode: multiply;isolation: isolate">
      <path id="Caminho_575" data-name="Caminho 575" d="M2122.386,643.625c-19.819,5.585-34.413-.9-33.191,27.954,1.677,39.584,3.591,52.859,42.355,55.279-6.866-.048-35.7.181-48.8-8.518.424-7.662,5.286-97.05,4.156-103.01S2092.477,648.55,2122.386,643.625Z" fill="#f2f2f2"/>
      <path id="Caminho_576" data-name="Caminho 576" d="M2136.094,627.971q2.86-.313,5.949-.628A50.251,50.251,0,0,1,2136.094,627.971Z" fill="#f2f2f2"/>
    </g>
    <path id="Caminho_577" data-name="Caminho 577" d="M2145.153,526.162l-11.529,10.828L2122.1,526.162c.064.736-1.444,15.293-3.379,22.406a8.623,8.623,0,0,0,1.381,7.476c2.767,3.647,6.932,5.8,13.526,5.8s10.759-2.153,13.527-5.8a8.619,8.619,0,0,0,1.38-7.476C2146.6,541.455,2145.089,526.9,2145.153,526.162Z" fill="#ffdaad"/>
    <path id="Caminho_578" data-name="Caminho 578" d="M2119.186,536.637s3.752,13.785,16.777,13.089c7.268-.389,11.174-10.505,11.174-10.505s-9.926-7.214-12.157-7.26-6.075-1.748-8.543,0S2119.186,536.637,2119.186,536.637Z" fill="#dedede" style="mix-blend-mode: multiply;isolation: isolate"/>
    <path id="Caminho_579" data-name="Caminho 579" d="M2107.688,480.123c1.336-6.359,7.294-7.776,8.855-9.729s17.293-3.652,17.293-3.652,15.745,1.579,17.321,3.52,6.184,3.563,7.567,9.911,3.109,19.97,3.109,19.97c-1.211,11.378-2.737,18.154-4.3,22.764-2.861,8.414-13.745,19.565-16.666,20.9a15.524,15.524,0,0,1-13.49.051c-2.931-1.308-13.873-12.478-16.8-20.767-1.62-4.593-3.18-11.362-4.479-22.732C2106.095,500.355,2106.353,486.481,2107.688,480.123Z" fill="#ffdaad"/>
    <path id="Caminho_580" data-name="Caminho 580" d="M2162.663,508.806a152.2,152.2,0,0,1-7.746,24.1c-2.477,5.616-14.751,11.2-14.751,11.2s5.318-8.357,10.038-14.261S2162.663,508.806,2162.663,508.806Z" fill="#ffdaad"/>
    <g id="Grupo_191" data-name="Grupo 191">
      <ellipse id="Elipse_29" data-name="Elipse 29" cx="8.68" cy="5.602" rx="8.68" ry="5.602" transform="matrix(0.179, -0.984, 0.984, 0.179, 2154.36, 520.477)" fill="#ffdaad"/>
      <path id="Caminho_581" data-name="Caminho 581" d="M2165.962,509.918c-1.382-3.389-3-2.885-3.888-2.158s.361,4.117.981,4.567c-1.373-1.035-2.557,1.368-2.11,2.679-.983-2.848.25-3.786.648-3.887-.675-3.037-.458-4.26,1.22-4.357S2165.469,507.883,2165.962,509.918Z" fill="#ccc" style="mix-blend-mode: multiply;isolation: isolate"/>
      <ellipse id="Elipse_30" data-name="Elipse 30" cx="5.602" cy="8.68" rx="5.602" ry="8.68" transform="matrix(0.983, -0.186, 0.186, 0.983, 2099.485, 505.815)" fill="#ffdaad"/>
      <path id="Caminho_582" data-name="Caminho 582" d="M2102.042,510.317c1.356-3.4,2.977-2.908,3.872-2.187s-.33,4.119-.947,4.574c1.366-1.046,2.568,1.348,2.131,2.662.961-2.855-.28-3.784-.678-3.881.652-3.043.426-4.264-1.253-4.348S2102.52,508.278,2102.042,510.317Z" fill="#ccc" style="mix-blend-mode: multiply;isolation: isolate"/>
    </g>
    <g id="Grupo_194" data-name="Grupo 194">
      <g id="Grupo_192" data-name="Grupo 192">
        <path id="Caminho_583" data-name="Caminho 583" d="M2128.488,495.134a105.878,105.878,0,0,0-12.837-.682c-1.728.238-5.826,3.788-5.826,3.788a17.2,17.2,0,0,1,6.452-1.062c3.343.18,11.994,1.3,11.994,1.3Z" fill="#7d5137"/>
        <path id="Caminho_584" data-name="Caminho 584" d="M2128.854,495.171l-.256,3.306.583-3.307Z" fill="#7d5137"/>
      </g>
      <g id="Grupo_193" data-name="Grupo 193">
        <path id="Caminho_585" data-name="Caminho 585" d="M2139.4,495.092a105.973,105.973,0,0,1,12.832-.779c1.73.224,5.855,3.743,5.855,3.743a17.2,17.2,0,0,0-6.46-1.013c-3.342.2-11.983,1.391-11.983,1.391Z" fill="#7d5137"/>
        <path id="Caminho_586" data-name="Caminho 586" d="M2139.043,495.132l.282,3.3-.608-3.3Z" fill="#7d5137"/>
      </g>
    </g>
    <path id="Caminho_587" data-name="Caminho 587" d="M2106.475,505.111s3.921-25.6,5.318-26.316c4.328-2.212,39.617-2.344,44.54.1,1.5.745,4.909,22.063,5.125,26.005,3.524-12.5,10.233-51.676-27.689-51.538C2092.539,453.514,2102.976,496.922,2106.475,505.111Z" fill="#7d5137"/>
    <g id="Grupo_195" data-name="Grupo 195" style="mix-blend-mode: multiply;isolation: isolate">
      <path id="Caminho_588" data-name="Caminho 588" d="M2138.48,518.774a18.958,18.958,0,0,1-9.839.012,14.553,14.553,0,0,0,4.881,2.45S2137.477,520.53,2138.48,518.774Z" fill="#bdbdbd"/>
    </g>
    <path id="Caminho_589" data-name="Caminho 589" d="M2106.923,507.187c1.481,9.688,5.258,21.78,6.347,25.132s14.06,11.545,14.06,11.545-4.82-8.784-9.19-14.952S2106.923,507.187,2106.923,507.187Z" fill="#ffdaad"/>
    <path id="Caminho_590" data-name="Caminho 590" d="M2106.095,500.355c4.707-4.9,15.267-20.935,15.267-20.935s8.261,8.291,24.721,12.495c-1.416-.883-3.779-6.419-3.779-6.419a90.126,90.126,0,0,0,18.718,10.277,5.05,5.05,0,0,0,2.035-4.9c-.191-1.688-4.533-12.539-4.886-12.79s-1.174-5.081-11.719-6.108-20.952-2.651-26.273-1.484-6.137.3-8.293,4.205-3.212,3.031-4.09,8.413S2106.095,500.355,2106.095,500.355Z" fill="#7d5137"/>
    <path id="Caminho_591" data-name="Caminho 591" d="M2120.1,455.651c5.119-8.683,17.861-6.781,17.861-6.781s-7,1.96-5.834,2.264,13.22-2.14,20.625,3.573c-6.182-1.261-7.646-.492-7.646-.492s18.32,2.244,22.307,20.114l-1.561-2.118s4.518,21.31-4.451,32.225c.741-16.2-7.989-25.917-7.989-25.917s-13.133-7.051-16.485-9.581S2120.1,455.651,2120.1,455.651Z" fill="#7d5137"/>
    <path id="Caminho_592" data-name="Caminho 592" d="M2120.1,455.651c-3.872-.112-10.6,2.035-12.332,5.68,3.312-2.337,3.08-.541,3.08-.541s-7.581,3.475-8.763,10.019a11.405,11.405,0,0,1,2.68-2.265s-5.426,9.936-4.162,19.166l.585-1.516s.488,12.756,5.287,18.917c.582-19.287,3.163-27.5,3.918-28.653s3.722-4.037,4.614-6.8S2120.1,455.651,2120.1,455.651Z" fill="#7d5137"/>
    <path id="Caminho_593" data-name="Caminho 593" d="M2104.049,485.493c-1.737-4.027,1.661-12.921,3.578-15.176s.954-.652.731,1.605,3.822-6.8,4.894-5.888-5.309,13.744-3.393,15.247-2.638,4.49-3.168.094S2104.506,486.553,2104.049,485.493Z" fill="#262626" style="mix-blend-mode: screen;isolation: isolate"/>
    <path id="Caminho_594" data-name="Caminho 594" d="M2119.78,457.354s-4.951,12.2.8,18.859C2118.866,470.215,2119.78,457.354,2119.78,457.354Z" fill="#dedede" style="mix-blend-mode: multiply;isolation: isolate"/>
    <path id="Caminho_595" data-name="Caminho 595" d="M2082.375,916.692c-.182-10.125-.215-60.7,2.332-78.484,5.89,10.091,10.921,7.425,15.726,7.589-6.015,3.394-13.093-1.269-13.65,4.045-5.793,55.241,5.5,146.72,5.5,146.72S2082.665,932.825,2082.375,916.692Z" fill="#e8e8e8" style="mix-blend-mode: multiply;isolation: isolate"/>
    <g id="Grupo_199" data-name="Grupo 199">
      <path id="Caminho_596" data-name="Caminho 596" d="M2069.986,1008.774c3.244-5.414,11.007-10.884,15.989-11.538s20.617-1.209,23.717,12.35C2093.883,1017.463,2069.986,1008.774,2069.986,1008.774Z" fill="#404040"/>
      <path id="Caminho_597" data-name="Caminho 597" d="M2104.172,1020.183l-29.494-.494a6.681,6.681,0,0,1-6.572-6.788h0a6.68,6.68,0,0,1,6.795-6.563c9.541,5,19.366,5.272,29.5.494a6.68,6.68,0,0,1,6.571,6.787h0A6.681,6.681,0,0,1,2104.172,1020.183Z" fill="#24c2bc"/>
      <path id="Caminho_598" data-name="Caminho 598" d="M2077.6,1001.026c3.866-2.757,6.3-7.967,7.359-10.685a4.466,4.466,0,0,1,2.509-2.507l4.1-1.647,10.59.494,2.943,1.62a4.544,4.544,0,0,1,2.287,4.63,29.007,29.007,0,0,0,1.646,14.459A111.878,111.878,0,0,1,2077.6,1001.026Z" fill="#404040"/>
      <path id="Caminho_599" data-name="Caminho 599" d="M2091.676,985.907c-1.952,5.253-5.933,14.35-8.6,15.828.513,2.893,13.138,4.905,18,.041-.33-1.506-1.678-9.653.762-14.1S2093.23,981.728,2091.676,985.907Z" fill="#24c2bc"/>
      <g id="Grupo_196" data-name="Grupo 196">
        <path id="Caminho_600" data-name="Caminho 600" d="M2101.324,992.275a.52.52,0,0,0,.2-1c-8.439-3.546-13.5-.315-13.713-.177a.52.52,0,0,0,.571.87c.049-.031,4.841-3.052,12.74.267A.525.525,0,0,0,2101.324,992.275Z" fill="#fff"/>
      </g>
      <g id="Grupo_197" data-name="Grupo 197">
        <path id="Caminho_601" data-name="Caminho 601" d="M2101.275,997.326a.521.521,0,0,0,.2-1c-9.939-4.175-15.9-.38-16.145-.217a.521.521,0,0,0,.572.87c.055-.035,5.766-3.64,15.17.307A.509.509,0,0,0,2101.275,997.326Z" fill="#fff"/>
      </g>
      <g id="Grupo_198" data-name="Grupo 198">
        <path id="Caminho_602" data-name="Caminho 602" d="M2102.02,1001.952a.521.521,0,0,0,.2-1c-12.682-5.329-20.255-.5-20.573-.292a.521.521,0,0,0,.572.87c.075-.046,7.457-4.716,19.6.382A.531.531,0,0,0,2102.02,1001.952Z" fill="#fff"/>
      </g>
    </g>
    <g id="Grupo_203" data-name="Grupo 203">
      <path id="Caminho_603" data-name="Caminho 603" d="M2191.849,1008.774c-3.244-5.414-11.007-10.884-15.989-11.538s-20.617-1.209-23.717,12.35C2167.952,1017.463,2191.849,1008.774,2191.849,1008.774Z" fill="#404040"/>
      <path id="Caminho_604" data-name="Caminho 604" d="M2157.663,1020.183l29.494-.494a6.682,6.682,0,0,0,6.572-6.788h0a6.68,6.68,0,0,0-6.795-6.563c-9.541,5-19.366,5.272-29.5.494a6.68,6.68,0,0,0-6.571,6.787h0A6.681,6.681,0,0,0,2157.663,1020.183Z" fill="#24c2bc"/>
      <path id="Caminho_605" data-name="Caminho 605" d="M2184.231,1001.026c-3.866-2.757-6.3-7.967-7.36-10.685a4.461,4.461,0,0,0-2.508-2.507l-4.1-1.647-10.59.494-2.943,1.62a4.544,4.544,0,0,0-2.287,4.63,29.01,29.01,0,0,1-1.646,14.459A111.878,111.878,0,0,0,2184.231,1001.026Z" fill="#404040"/>
      <path id="Caminho_606" data-name="Caminho 606" d="M2170.159,985.907c1.952,5.253,5.933,14.35,8.6,15.828-.513,2.893-13.138,4.905-18,.041.33-1.506,1.677-9.653-.762-14.1S2168.6,981.728,2170.159,985.907Z" fill="#24c2bc"/>
      <g id="Grupo_200" data-name="Grupo 200">
        <path id="Caminho_607" data-name="Caminho 607" d="M2160.512,992.275a.524.524,0,0,0,.2-.04c7.9-3.317,12.693-.295,12.739-.267a.521.521,0,0,0,.572-.87c-.214-.138-5.274-3.369-13.714.177a.52.52,0,0,0,.2,1Z" fill="#fff"/>
      </g>
      <g id="Grupo_201" data-name="Grupo 201">
        <path id="Caminho_608" data-name="Caminho 608" d="M2160.56,997.326a.51.51,0,0,0,.2-.041c9.4-3.95,15.113-.342,15.17-.307a.521.521,0,0,0,.572-.87c-.249-.163-6.206-3.958-16.145.217a.521.521,0,0,0,.2,1Z" fill="#fff"/>
      </g>
      <g id="Grupo_202" data-name="Grupo 202">
        <path id="Caminho_609" data-name="Caminho 609" d="M2159.816,1001.952a.529.529,0,0,0,.2-.041c12.18-5.115,19.523-.43,19.6-.382a.521.521,0,1,0,.573-.87c-.319-.208-7.892-5.033-20.572.292a.521.521,0,0,0,.2,1Z" fill="#fff"/>
      </g>
    </g>
    <path id="Caminho_610" data-name="Caminho 610" d="M2082.828,368.764l-11.438-.941-8.634,84.332a11.591,11.591,0,0,0,10.351,12.712h0a11.59,11.59,0,0,0,12.769-11.289Z" fill="#ffdaad"/>
    <path id="Caminho_611" data-name="Caminho 611" d="M2077.181,373.523s.239-.08.676-.242a78.516,78.516,0,0,0,18.909-10.256c9.306-7.031,22.027-28.035,25.408-32.1-1.861-2.464-4.288.015-6.748,2.734,1.122-2.783,1.907-4.021-2.235-1.536s-16.261,14.613-19.563,19.062-11.548-3.934-22.736,16.554C2069.046,380.488,2077.181,373.523,2077.181,373.523Z" fill="#ffdaad"/>
    <path id="Caminho_612" data-name="Caminho 612" d="M2071.52,365.99a28.237,28.237,0,0,1,8.733-7.652c8.24-4.943,10.225-2.3,12.89-5.321s11.184-14.826,22.408-21.623c-.072-.03-.16-.051-.236-.079a8.453,8.453,0,0,0-2.8,1.337c-4.142,2.484-16.261,14.613-19.563,19.062C2089.774,355.987,2082.041,348.437,2071.52,365.99Z" fill="#e8e8e8" style="mix-blend-mode: multiply;isolation: isolate"/>
    <path id="Caminho_613" data-name="Caminho 613" d="M2115.426,333.664s-11.06,18.745-15.482,22.945C2104.8,352.8,2115.382,337.21,2115.426,333.664Z" fill="#e8e8e8" style="mix-blend-mode: multiply;isolation: isolate"/>
    <path id="Caminho_614" data-name="Caminho 614" d="M2188.953,373.565a43.631,43.631,0,0,1-16.4-4.445l-3.812-6.452s4.451-.562,6.692,2.931c4.266,1.4,10.3.1,10.3.1Z" fill="#ffdaad"/>
    <path id="Caminho_615" data-name="Caminho 615" d="M2081.6,373.884a43.639,43.639,0,0,0,16.25-4.981l3.6-6.573s-4.467-.416-6.593,3.149c-4.217,1.544-10.3.44-10.3.44Z" fill="#ffdaad"/>
  </g>
</svg>
