<svg id="Icon_ionic-ios-star" data-name="Icon ionic-ios-star" xmlns="http://www.w3.org/2000/svg" width="20.6" height="19.129" viewBox="0 0 20.6 19.129">
  <path id="Icon_ionic-ios-star-2" data-name="Icon ionic-ios-star" d="M22.068,10H15.3L13.249,3.862a.745.745,0,0,0-1.4,0L9.8,10H2.986a.738.738,0,0,0-.736.736.541.541,0,0,0,.014.124.707.707,0,0,0,.308.52l5.559,3.918L6,21.5a.738.738,0,0,0,.253.828.712.712,0,0,0,.414.179.9.9,0,0,0,.46-.166l5.426-3.867,5.426,3.867a.862.862,0,0,0,.46.166.661.661,0,0,0,.409-.179A.729.729,0,0,0,19.1,21.5l-2.134-6.2,5.513-3.954.133-.115a.771.771,0,0,0,.239-.492A.779.779,0,0,0,22.068,10Z" transform="translate(-2.25 -3.375)" fill="#f2c53d"/>
</svg>
