<svg id="mais" xmlns="http://www.w3.org/2000/svg" width="22.467" height="22.468" viewBox="0 0 22.467 22.468">
  <path id="Caminho_9" data-name="Caminho 9" d="M6.754,18.332h0a1.985,1.985,0,0,1-1.987-1.991v-.685a2,2,0,0,1,1.989-1.99H25.245a1.982,1.982,0,0,1,1.408.581l.045.048a1.974,1.974,0,0,1,.536,1.359l0,.688a2,2,0,0,1-1.989,1.991H6.754Z" transform="translate(-4.767 -4.765)" fill="#fff"/>
  <path id="Caminho_10" data-name="Caminho 10" d="M18.332,25.246h0a1.985,1.985,0,0,1-1.991,1.987h-.685a2,2,0,0,1-1.99-1.989V6.754a1.982,1.982,0,0,1,.581-1.408L14.3,5.3a1.974,1.974,0,0,1,1.359-.536l.688,0a2,2,0,0,1,1.991,1.989V25.245Z" transform="translate(-4.767 -4.765)" fill="#fff"/>
</svg>
