<svg id="SOS" xmlns="http://www.w3.org/2000/svg" width="40.975" height="37.122" viewBox="0 0 40.975 37.122">
  <g id="Grupo_58" data-name="Grupo 58">
    <g id="Grupo_55" data-name="Grupo 55" transform="translate(0 2.597)">
      <path id="Caminho_190" data-name="Caminho 190" d="M280.4,342.66l-1.384,1.384a13.689,13.689,0,0,1,0-19.37l1.384,1.384A11.733,11.733,0,0,0,280.4,342.66Z" transform="translate(-275 -324.673)" fill="#fff"/>
      <path id="Caminho_191" data-name="Caminho 191" d="M322.239,367.516l-1.383,1.383a9.777,9.777,0,0,1,0-13.836l1.384,1.384A7.822,7.822,0,0,0,322.239,367.516Z" transform="translate(-314.074 -352.297)" fill="#fff"/>
      <path id="Caminho_192" data-name="Caminho 192" d="M364.081,392.373l-1.384,1.384a5.867,5.867,0,0,1,0-8.3l1.383,1.383A3.912,3.912,0,0,0,364.081,392.373Z" transform="translate(-353.149 -379.92)" fill="#fff"/>
    </g>
    <g id="Grupo_56" data-name="Grupo 56" transform="translate(30.042 2.597)">
      <path id="Caminho_193" data-name="Caminho 193" d="M667.095,344.043l-1.383-1.383a11.734,11.734,0,0,0,0-16.6l1.384-1.384A13.689,13.689,0,0,1,667.095,344.043Z" transform="translate(-660.177 -324.673)" fill="#fff"/>
      <path id="Caminho_194" data-name="Caminho 194" d="M636.709,368.9l-1.383-1.384a7.823,7.823,0,0,0,0-11.069l1.383-1.383A9.778,9.778,0,0,1,636.709,368.9Z" transform="translate(-632.558 -352.297)" fill="#fff"/>
      <path id="Caminho_195" data-name="Caminho 195" d="M606.318,393.753l-1.384-1.384a3.911,3.911,0,0,0,0-5.535l1.384-1.384A5.867,5.867,0,0,1,606.318,393.753Z" transform="translate(-604.934 -379.917)" fill="#fff"/>
    </g>
    <g id="Grupo_57" data-name="Grupo 57" transform="translate(9.079 0)">
      <path id="Caminho_196" data-name="Caminho 196" d="M470.668,551.231c1.623,0,2.938-.693,2.938-1.548H467.73C467.73,550.538,469.046,551.231,470.668,551.231Z" transform="translate(-459.26 -526.598)" fill="#fff"/>
      <path id="Caminho_197" data-name="Caminho 197" d="M396.72,512.95c.338,0,.714-.061.792-.419a.569.569,0,0,0-.165-.518l-.349-.348a13.149,13.149,0,0,1-1.758-2.224H376.989a13.147,13.147,0,0,1-1.758,2.224l-.349.348a.569.569,0,0,0-.165.518c.078.358.454.419.792.419Z" transform="translate(-374.705 -490.02)" fill="#fff"/>
      <path id="Caminho_198" data-name="Caminho 198" d="M417.86,490.229H401.475c-.269.484-.518,1.012-.857,1.521h18.1C418.378,491.241,418.129,490.713,417.86,490.229Z" transform="translate(-398.259 -472.558)" fill="#fff"/>
      <path id="Caminho_199" data-name="Caminho 199" d="M426.5,384.733c-1.143-2.829-.63-8.256-.718-8.7H412.169c-.088.44.425,5.867-.718,8.7a10.613,10.613,0,0,1-.591,1.474h16.233A10.6,10.6,0,0,1,426.5,384.733Z" transform="translate(-407.568 -368.763)" fill="#fff"/>
      <path id="Caminho_200" data-name="Caminho 200" d="M433.447,297.753a1.411,1.411,0,1,0-2.8,0,6.993,6.993,0,0,0-5.408,5.448h13.614A6.993,6.993,0,0,0,433.447,297.753Z" transform="translate(-420.639 -296.156)" fill="#fff"/>
    </g>
  </g>
  <g id="Grupo_59" data-name="Grupo 59" transform="translate(6.294 27.68)">
    <path id="Caminho_201" data-name="Caminho 201" d="M344.12,606.455l1.793-.174a2.186,2.186,0,0,0,.657,1.326,1.985,1.985,0,0,0,1.335.423,2.052,2.052,0,0,0,1.341-.376,1.121,1.121,0,0,0,.451-.881.831.831,0,0,0-.19-.551,1.518,1.518,0,0,0-.663-.4q-.324-.112-1.475-.4a5,5,0,0,1-2.079-.9,2.374,2.374,0,0,1-.84-1.836,2.345,2.345,0,0,1,.4-1.3,2.474,2.474,0,0,1,1.139-.924,4.565,4.565,0,0,1,1.8-.317,3.853,3.853,0,0,1,2.586.753,2.659,2.659,0,0,1,.912,2.011l-1.842.081a1.565,1.565,0,0,0-.507-1.011,1.858,1.858,0,0,0-1.167-.308,2.1,2.1,0,0,0-1.257.33.665.665,0,0,0-.293.566.7.7,0,0,0,.274.554,4.84,4.84,0,0,0,1.693.61,8.941,8.941,0,0,1,1.989.657,2.565,2.565,0,0,1,1.008.927,2.873,2.873,0,0,1-.072,2.922,2.611,2.611,0,0,1-1.232,1.018,5.17,5.17,0,0,1-1.986.333,3.953,3.953,0,0,1-2.658-.8A3.479,3.479,0,0,1,344.12,606.455Z" transform="translate(-344.12 -600.143)" fill="#fff"/>
    <path id="Caminho_202" data-name="Caminho 202" d="M452.524,604.917a5.8,5.8,0,0,1,.417-2.34,4.293,4.293,0,0,1,.85-1.251,3.553,3.553,0,0,1,1.18-.822,5.012,5.012,0,0,1,1.967-.361,4.284,4.284,0,0,1,3.227,1.251,5.591,5.591,0,0,1,.009,6.937,4.251,4.251,0,0,1-3.212,1.248,4.294,4.294,0,0,1-3.237-1.242A4.712,4.712,0,0,1,452.524,604.917Zm1.9-.062a3.419,3.419,0,0,0,.716,2.35,2.461,2.461,0,0,0,3.626.006,3.488,3.488,0,0,0,.706-2.381,3.432,3.432,0,0,0-.688-2.341,2.549,2.549,0,0,0-3.663.009A3.448,3.448,0,0,0,454.423,604.855Z" transform="translate(-442.653 -600.143)" fill="#fff"/>
    <path id="Caminho_203" data-name="Caminho 203" d="M574.4,606.455l1.793-.174a2.186,2.186,0,0,0,.657,1.326,1.985,1.985,0,0,0,1.335.423,2.052,2.052,0,0,0,1.341-.376,1.121,1.121,0,0,0,.451-.881.831.831,0,0,0-.19-.551,1.519,1.519,0,0,0-.663-.4q-.324-.112-1.475-.4a5,5,0,0,1-2.079-.9,2.374,2.374,0,0,1-.84-1.836,2.345,2.345,0,0,1,.4-1.3,2.475,2.475,0,0,1,1.139-.924,4.565,4.565,0,0,1,1.8-.317,3.852,3.852,0,0,1,2.586.753,2.659,2.659,0,0,1,.912,2.011l-1.842.081a1.565,1.565,0,0,0-.507-1.011,1.857,1.857,0,0,0-1.167-.308,2.105,2.105,0,0,0-1.257.33.665.665,0,0,0-.293.566.7.7,0,0,0,.274.554,4.84,4.84,0,0,0,1.693.61,8.94,8.94,0,0,1,1.989.657,2.563,2.563,0,0,1,1.008.927,2.873,2.873,0,0,1-.072,2.922,2.612,2.612,0,0,1-1.232,1.018,5.171,5.171,0,0,1-1.986.333,3.953,3.953,0,0,1-2.658-.8A3.48,3.48,0,0,1,574.4,606.455Z" transform="translate(-553.427 -600.143)" fill="#fff"/>
  </g>
</svg>
