<svg id="unisex" xmlns="http://www.w3.org/2000/svg" width="45" height="41.031" viewBox="0 0 45 41.031">
  <path id="Caminho_204" data-name="Caminho 204" d="M4884.739,1572.195h.007a3.312,3.312,0,0,0,0-6.625h-.007a3.312,3.312,0,0,0,0,6.625Z" transform="translate(-4850.535 -1565.57)" fill="#04a2bc"/>
  <path id="Caminho_205" data-name="Caminho 205" d="M4762.106,1720.552l-3.725-12.266s-.905-2.971-3.85-2.971h-6.279c-2.944,0-3.849,2.971-3.849,2.971l-3.726,12.266a1.618,1.618,0,0,0,3.082.99l3.233-11.05.64.2-4.182,14.5h3.607v11.738a1.886,1.886,0,0,0,1.863,1.991,1.99,1.99,0,0,0,1.991-1.991v-11.738h.962v11.738a1.991,1.991,0,0,0,1.991,1.991,1.886,1.886,0,0,0,1.863-1.991v-11.738h3.607l-4.183-14.5.64-.2,3.233,11.05a1.618,1.618,0,1,0,3.082-.99Z" transform="translate(-4717.185 -1697.889)" fill="#04a2bc"/>
  <path id="Caminho_206" data-name="Caminho 206" d="M4308.788,1721.838v15.342a1.991,1.991,0,1,0,3.981,0v-26.417h.643v11.491a1.619,1.619,0,1,0,3.237,0V1709.5a3.92,3.92,0,0,0-3.92-3.921h-8.851a3.92,3.92,0,0,0-3.92,3.921v12.754a1.619,1.619,0,1,0,3.237,0v-11.491h.643v26.417a1.99,1.99,0,1,0,3.981,0v-15.342Z" transform="translate(-4299.958 -1698.14)" fill="#04a2bc"/>
  <path id="Caminho_207" data-name="Caminho 207" d="M4401.3,1568.883a3.313,3.313,0,1,1-3.312-3.313A3.312,3.312,0,0,1,4401.3,1568.883Z" transform="translate(-4389.645 -1565.57)" fill="#04a2bc"/>
  <rect id="Retângulo_21" data-name="Retângulo 21" width="0.941" height="39.134" transform="translate(19.944 0.948)" fill="#04a2bc"/>
</svg>
