<svg id="Whats" xmlns="http://www.w3.org/2000/svg" width="27.657" height="27.657" viewBox="0 0 27.657 27.657">
  <g id="Grupo_52" data-name="Grupo 52">
    <path id="Caminho_178" data-name="Caminho 178" d="M237.909,326.368a13.6,13.6,0,0,1-20.139,11.8l-7.517,2.389,2.45-7.228a13.33,13.33,0,0,1-1.948-6.956,13.577,13.577,0,0,1,27.154,0Zm-13.576-11.327a11.383,11.383,0,0,0-11.415,11.327,11.21,11.21,0,0,0,2.174,6.641l-1.426,4.206,4.386-1.393a11.357,11.357,0,1,0,6.281-20.78Zm6.856,14.43c-.084-.138-.306-.221-.638-.386s-1.97-.965-2.275-1.074-.528-.165-.749.165-.86,1.074-1.055,1.295-.387.248-.72.082a9.1,9.1,0,0,1-2.677-1.638,10.062,10.062,0,0,1-1.852-2.287c-.193-.33-.019-.509.146-.673.15-.148.333-.386.5-.578a2.265,2.265,0,0,0,.333-.552.6.6,0,0,0-.028-.578c-.082-.165-.748-1.79-1.026-2.452s-.553-.635-.749-.635a4.8,4.8,0,0,0-.553.057,1.881,1.881,0,0,0-.972.413,3.693,3.693,0,0,0-1.164,2.753,6.392,6.392,0,0,0,1.358,3.415c.167.221,2.3,3.664,5.685,4.986s3.384.881,3.994.825a3.359,3.359,0,0,0,2.246-1.569,2.747,2.747,0,0,0,.2-1.569Zm0,0" transform="translate(-210.252 -312.895)" fill="#fff" fill-rule="evenodd"/>
  </g>
</svg>
